<?xml version="1.0" encoding="UTF-8"?>
<!DOCTYPE svg PUBLIC "-//W3C//DTD SVG 1.1//EN" "http://www.w3.org/Graphics/SVG/1.1/DTD/svg11.dtd">
<svg xmlns="http://www.w3.org/2000/svg" version="1.1" width="400px" height="400px" style="shape-rendering:geometricPrecision; text-rendering:geometricPrecision; image-rendering:optimizeQuality; fill-rule:evenodd; clip-rule:evenodd" xmlns:xlink="http://www.w3.org/1999/xlink">
<g><path style="opacity:1" fill="#fefefe" d="M -0.5,-0.5 C 132.833,-0.5 266.167,-0.5 399.5,-0.5C 399.5,132.833 399.5,266.167 399.5,399.5C 266.167,399.5 132.833,399.5 -0.5,399.5C -0.5,266.167 -0.5,132.833 -0.5,-0.5 Z"/></g>
<g><path style="opacity:1" fill="#242021" d="M 326.5,137.5 C 326.334,143.176 326.501,148.843 327,154.5C 327.533,152.061 328.7,151.395 330.5,152.5C 333.747,156.659 336.747,160.992 339.5,165.5C 339.5,168.5 339.5,171.5 339.5,174.5C 334.167,174.5 328.833,174.5 323.5,174.5C 323.5,176.5 323.5,178.5 323.5,180.5C 320.375,181.479 317.042,181.813 313.5,181.5C 312.356,195.151 311.356,208.818 310.5,222.5C 309.706,205.832 309.04,189.166 308.5,172.5C 308.83,166.132 308.496,159.798 307.5,153.5C 306.893,153.624 306.56,153.957 306.5,154.5C 306.264,171.548 305.264,188.548 303.5,205.5C 302.504,199.202 302.17,192.868 302.5,186.5C 302.5,184.5 302.5,182.5 302.5,180.5C 300.901,180.232 299.568,180.566 298.5,181.5C 298.5,182.833 298.5,184.167 298.5,185.5C 297.833,190.5 297.167,195.5 296.5,200.5C 295.587,194.196 294.92,187.863 294.5,181.5C 292.167,181.5 289.833,181.5 287.5,181.5C 287.5,179.5 287.5,177.5 287.5,175.5C 282.36,174.512 277.026,174.179 271.5,174.5C 271.5,171.5 271.5,168.5 271.5,165.5C 274.809,161.185 278.143,156.852 281.5,152.5C 282.257,151.227 282.923,151.227 283.5,152.5C 284.09,153.766 284.59,155.099 285,156.5C 285.5,150.175 285.666,143.842 285.5,137.5C 287.568,122.031 294.402,109.031 306,98.5C 317.603,109.041 324.436,122.041 326.5,137.5 Z"/></g>
<g><path style="opacity:1" fill="#f3f3f3" d="M 303.5,120.5 C 310.169,120.005 313.336,123.005 313,129.5C 308.833,135.759 304.167,136.092 299,130.5C 298.077,126.017 299.577,122.683 303.5,120.5 Z"/></g>
<g><path style="opacity:1" fill="#949293" d="M 285.5,137.5 C 285.666,143.842 285.5,150.175 285,156.5C 284.59,155.099 284.09,153.766 283.5,152.5C 284.167,147.5 284.833,142.5 285.5,137.5 Z"/></g>
<g><path style="opacity:1" fill="#b9b7b8" d="M 326.5,137.5 C 327.485,141.634 327.818,145.968 327.5,150.5C 328.873,150.343 330.207,150.51 331.5,151C 330.944,151.383 330.611,151.883 330.5,152.5C 328.7,151.395 327.533,152.061 327,154.5C 326.501,148.843 326.334,143.176 326.5,137.5 Z"/></g>
<g><path style="opacity:1" fill="#8d8b8c" d="M 306.5,154.5 C 306.56,153.957 306.893,153.624 307.5,153.5C 308.496,159.798 308.83,166.132 308.5,172.5C 307.833,166.5 307.167,160.5 306.5,154.5 Z"/></g>
<g><path style="opacity:1" fill="#292929" d="M 120.5,172.5 C 121.5,172.5 122.5,172.5 123.5,172.5C 123.5,173.833 123.5,175.167 123.5,176.5C 122.167,176.5 120.833,176.5 119.5,176.5C 119.433,175.041 119.766,173.708 120.5,172.5 Z"/></g>
<g><path style="opacity:1" fill="#7b7879" d="M 271.5,165.5 C 271.5,168.5 271.5,171.5 271.5,174.5C 277.026,174.179 282.36,174.512 287.5,175.5C 281.833,175.5 276.167,175.5 270.5,175.5C 270.187,171.958 270.521,168.625 271.5,165.5 Z"/></g>
<g><path style="opacity:1" fill="#838081" d="M 339.5,165.5 C 340.479,168.625 340.813,171.958 340.5,175.5C 335.167,175.5 329.833,175.5 324.5,175.5C 324.784,177.415 324.451,179.081 323.5,180.5C 323.5,178.5 323.5,176.5 323.5,174.5C 328.833,174.5 334.167,174.5 339.5,174.5C 339.5,171.5 339.5,168.5 339.5,165.5 Z"/></g>
<g><path style="opacity:1" fill="#1a1919" d="M 86.5,174.5 C 87.3446,175.671 88.0113,177.005 88.5,178.5C 88.573,180.027 87.9063,181.027 86.5,181.5C 86.5,181.167 86.5,180.833 86.5,180.5C 86.2172,179.711 85.7172,179.044 85,178.5C 84.8317,186.853 84.3317,195.187 83.5,203.5C 82.5016,193.856 82.1682,184.19 82.5,174.5C 83.8333,174.5 85.1667,174.5 86.5,174.5 Z"/></g>
<g><path style="opacity:1" fill="#282828" d="M 134.5,182.5 C 137.833,182.5 141.167,182.5 144.5,182.5C 144.5,183.5 144.5,184.5 144.5,185.5C 134.302,183.873 130.469,188.207 133,198.5C 135.961,201.616 139.461,202.283 143.5,200.5C 144.739,202.007 144.405,203.174 142.5,204C 131.218,204.994 126.718,199.827 129,188.5C 130.36,185.977 132.193,183.977 134.5,182.5 Z"/></g>
<g><path style="opacity:1" fill="#252324" d="M 246.5,199.5 C 246.5,194.833 246.5,190.167 246.5,185.5C 245.167,185.5 243.833,185.5 242.5,185.5C 242.5,184.5 242.5,183.5 242.5,182.5C 243.833,182.5 245.167,182.5 246.5,182.5C 246.5,180.5 246.5,178.5 246.5,176.5C 247.5,176.5 248.5,176.5 249.5,176.5C 249.5,178.5 249.5,180.5 249.5,182.5C 251.5,182.5 253.5,182.5 255.5,182.5C 255.5,183.5 255.5,184.5 255.5,185.5C 253.5,185.5 251.5,185.5 249.5,185.5C 249.334,190.511 249.501,195.511 250,200.5C 251.699,201.406 253.533,201.739 255.5,201.5C 255.5,202.5 255.5,203.5 255.5,204.5C 253.143,204.663 250.81,204.497 248.5,204C 247.418,202.67 246.751,201.17 246.5,199.5 Z"/></g>
<g><path style="opacity:1" fill="#5a595a" d="M 120.5,182.5 C 121.167,210.5 121.833,210.5 122.5,182.5C 123.492,189.648 123.825,196.981 123.5,204.5C 122.167,204.5 120.833,204.5 119.5,204.5C 119.175,196.981 119.508,189.648 120.5,182.5 Z"/></g>
<g><path style="opacity:1" fill="#2a292a" d="M 211.5,182.5 C 225.776,181.965 229.943,188.298 224,201.5C 216.966,206.24 210.966,205.24 206,198.5C 204.016,191.66 205.85,186.327 211.5,182.5 Z"/></g>
<g><path style="opacity:1" fill="#252425" d="M 241.5,182.5 C 241.5,183.5 241.5,184.5 241.5,185.5C 239.833,185.5 238.167,185.5 236.5,185.5C 236.5,191.5 236.5,197.5 236.5,203.5C 235.5,203.5 234.5,203.5 233.5,203.5C 233.823,197.31 233.49,191.31 232.5,185.5C 231.5,185.5 230.5,185.5 229.5,185.5C 229.5,184.5 229.5,183.5 229.5,182.5C 230.833,182.5 232.167,182.5 233.5,182.5C 232.087,174.927 235.087,171.26 242.5,171.5C 242.5,172.5 242.5,173.5 242.5,174.5C 237.185,174.497 235.185,177.164 236.5,182.5C 238.167,182.5 239.833,182.5 241.5,182.5 Z"/></g>
<g><path style="opacity:1" fill="#191818" d="M 120.5,182.5 C 121.167,182.5 121.833,182.5 122.5,182.5C 121.833,210.5 121.167,210.5 120.5,182.5 Z"/></g>
<g><path style="opacity:1" fill="#918d8e" d="M 298.5,181.5 C 299.568,180.566 300.901,180.232 302.5,180.5C 302.5,182.5 302.5,184.5 302.5,186.5C 301.549,185.081 301.216,183.415 301.5,181.5C 300.5,181.5 299.5,181.5 298.5,181.5 Z"/></g>
<g><path style="opacity:1" fill="#202020" d="M 152.5,182.5 C 152.343,183.873 152.51,185.207 153,186.5C 153.717,185.956 154.217,185.289 154.5,184.5C 155.99,182.72 157.99,182.054 160.5,182.5C 160.5,183.5 160.5,184.5 160.5,185.5C 156.778,184.68 154.445,186.013 153.5,189.5C 152.514,193.97 152.181,198.637 152.5,203.5C 151.5,203.5 150.5,203.5 149.5,203.5C 149.5,196.5 149.5,189.5 149.5,182.5C 150.5,182.5 151.5,182.5 152.5,182.5 Z"/></g>
<g><path style="opacity:1" fill="#8d8d8d" d="M 152.5,182.5 C 153.167,183.167 153.833,183.833 154.5,184.5C 154.217,185.289 153.717,185.956 153,186.5C 152.51,185.207 152.343,183.873 152.5,182.5 Z"/></g>
<g><path style="opacity:1" fill="#f4f2f3" d="M 214.5,184.5 C 221.969,185.082 224.802,189.082 223,196.5C 220.928,201.143 217.428,202.643 212.5,201C 209.64,197.319 208.807,193.152 210,188.5C 211.397,186.93 212.897,185.596 214.5,184.5 Z"/></g>
<g><path style="opacity:1" fill="#686667" d="M 86.5,174.5 C 85.1667,174.5 83.8333,174.5 82.5,174.5C 82.1682,184.19 82.5016,193.856 83.5,203.5C 84.3317,195.187 84.8317,186.853 85,178.5C 85.7172,179.044 86.2172,179.711 86.5,180.5C 85.5076,188.316 85.1743,196.316 85.5,204.5C 84.1667,204.5 82.8333,204.5 81.5,204.5C 81.5,194.167 81.5,183.833 81.5,173.5C 83.4147,173.216 85.0813,173.549 86.5,174.5 Z"/></g>
<g><path style="opacity:1" fill="#bbb9ba" d="M 112.5,173.5 C 113.494,183.653 113.828,193.986 113.5,204.5C 111.833,204.5 110.167,204.5 108.5,204.5C 108.825,197.313 108.491,190.313 107.5,183.5C 107.709,182.078 108.209,180.745 109,179.5C 109.5,187.493 109.666,195.493 109.5,203.5C 110.5,203.5 111.5,203.5 112.5,203.5C 112.5,193.5 112.5,183.5 112.5,173.5 Z"/></g>
<g><path style="opacity:1" fill="#8b8b8b" d="M 153.5,189.5 C 153.5,194.5 153.5,199.5 153.5,204.5C 151.901,204.768 150.568,204.434 149.5,203.5C 150.5,203.5 151.5,203.5 152.5,203.5C 152.181,198.637 152.514,193.97 153.5,189.5 Z"/></g>
<g><path style="opacity:1" fill="#bab9b9" d="M 241.5,182.5 C 241.833,182.5 242.167,182.5 242.5,182.5C 242.5,183.5 242.5,184.5 242.5,185.5C 243.833,185.5 245.167,185.5 246.5,185.5C 246.5,190.167 246.5,194.833 246.5,199.5C 245.515,195.366 245.182,191.032 245.5,186.5C 242.833,186.5 240.167,186.5 237.5,186.5C 237.5,192.5 237.5,198.5 237.5,204.5C 235.833,204.5 234.167,204.5 232.5,204.5C 232.5,198.167 232.5,191.833 232.5,185.5C 233.49,191.31 233.823,197.31 233.5,203.5C 234.5,203.5 235.5,203.5 236.5,203.5C 236.5,197.5 236.5,191.5 236.5,185.5C 238.167,185.5 239.833,185.5 241.5,185.5C 241.5,184.5 241.5,183.5 241.5,182.5 Z"/></g>
<g><path style="opacity:1" fill="#2c2b2c" d="M 191.5,182.5 C 194.5,182.5 197.5,182.5 200.5,182.5C 200.719,183.675 200.386,184.675 199.5,185.5C 195.879,183.649 193.213,184.483 191.5,188C 192.891,190.873 195.225,192.539 198.5,193C 203.833,196.667 203.833,200.333 198.5,204C 195.167,204.667 191.833,204.667 188.5,204C 187.269,202.817 187.269,201.651 188.5,200.5C 191.103,201.562 193.77,201.728 196.5,201C 197.516,200.481 198.182,199.647 198.5,198.5C 195.167,195.735 191.667,193.068 188,190.5C 186.78,186.707 187.947,184.04 191.5,182.5 Z"/></g>
<g><path style="opacity:1" fill="#2a2829" d="M 112.5,173.5 C 112.5,183.5 112.5,193.5 112.5,203.5C 111.5,203.5 110.5,203.5 109.5,203.5C 109.666,195.493 109.5,187.493 109,179.5C 108.209,180.745 107.709,182.078 107.5,183.5C 104.707,190.419 101.374,197.086 97.5,203.5C 96.5224,203.023 95.6891,202.357 95,201.5C 92.4098,194.662 89.5764,187.995 86.5,181.5C 87.9063,181.027 88.573,180.027 88.5,178.5C 91.501,184.505 94.501,190.505 97.5,196.5C 101.273,189.288 104.773,181.955 108,174.5C 109.356,173.62 110.856,173.286 112.5,173.5 Z"/></g>
<g><path style="opacity:1" fill="#282728" d="M 168.5,182.5 C 182.374,181.209 186.874,187.209 182,200.5C 175.587,206.118 169.587,205.784 164,199.5C 161.056,192.524 162.556,186.858 168.5,182.5 Z"/></g>
<g><path style="opacity:1" fill="#f0f0f0" d="M 171.5,184.5 C 179.672,185.192 182.506,189.526 180,197.5C 177.487,201.212 173.987,202.378 169.5,201C 166.64,197.319 165.807,193.152 167,188.5C 168.397,186.93 169.897,185.596 171.5,184.5 Z"/></g>
<g><path style="opacity:1" fill="#adadad" d="M 298.5,185.5 C 298.828,190.875 298.495,196.208 297.5,201.5C 296.893,201.376 296.56,201.043 296.5,200.5C 297.167,195.5 297.833,190.5 298.5,185.5 Z"/></g>
<g><path style="opacity:1" fill="#2b2a2b" d="M 151.5,227.5 C 154.187,227.336 156.854,227.503 159.5,228C 161.283,229.067 161.783,230.567 161,232.5C 157.591,231.378 154.091,231.211 150.5,232C 147.646,235.6 148.313,238.6 152.5,241C 160.426,242.247 163.593,246.747 162,254.5C 160.786,256.049 159.286,257.215 157.5,258C 153.5,258.667 149.5,258.667 145.5,258C 144.253,256.506 144.253,255.006 145.5,253.5C 149.967,256.136 154.467,256.136 159,253.5C 159.798,251.741 159.631,250.074 158.5,248.5C 153.516,245.764 149.016,242.431 145,238.5C 144.333,236.5 144.333,234.5 145,232.5C 146.965,230.45 149.132,228.783 151.5,227.5 Z"/></g>
<g><path style="opacity:1" fill="#424041" d="M 90.5,239.5 C 90.2089,238.351 89.3756,237.684 88,237.5C 85.8107,238.688 83.644,238.688 81.5,237.5C 80.2867,237.747 79.62,238.414 79.5,239.5C 78.596,238.791 78.2627,237.791 78.5,236.5C 79.8333,236.5 81.1667,236.5 82.5,236.5C 81.5187,229.326 84.5187,225.826 91.5,226C 92.3366,227.011 92.67,228.178 92.5,229.5C 87.0936,228.735 85.0936,231.069 86.5,236.5C 88.1667,236.5 89.8333,236.5 91.5,236.5C 91.7373,237.791 91.404,238.791 90.5,239.5 Z"/></g>
<g><path style="opacity:1" fill="#8e8d8e" d="M 218.5,231.5 C 219.568,230.566 220.901,230.232 222.5,230.5C 222.5,232.5 222.5,234.5 222.5,236.5C 224.167,236.5 225.833,236.5 227.5,236.5C 227.737,237.791 227.404,238.791 226.5,239.5C 225.448,237.744 223.781,237.077 221.5,237.5C 221.5,235.5 221.5,233.5 221.5,231.5C 220.5,231.5 219.5,231.5 218.5,231.5 Z"/></g>
<g><path style="opacity:1" fill="#909090" d="M 202.5,237.5 C 204.357,236.235 206.024,236.568 207.5,238.5C 206.012,241.186 205.345,240.853 205.5,237.5C 204.5,237.5 203.5,237.5 202.5,237.5 Z"/></g>
<g><path style="opacity:1" fill="#242223" d="M 218.5,231.5 C 219.5,231.5 220.5,231.5 221.5,231.5C 221.5,233.5 221.5,235.5 221.5,237.5C 223.781,237.077 225.448,237.744 226.5,239.5C 224.833,239.5 223.167,239.5 221.5,239.5C 221.179,244.695 221.513,249.695 222.5,254.5C 223.919,255.451 225.585,255.784 227.5,255.5C 227.5,256.5 227.5,257.5 227.5,258.5C 225.143,258.663 222.81,258.497 220.5,258C 219.934,257.005 219.267,256.172 218.5,255.5C 218.5,250.167 218.5,244.833 218.5,239.5C 217.022,239.762 215.689,239.429 214.5,238.5C 215.949,237.828 217.282,237.161 218.5,236.5C 218.5,234.833 218.5,233.167 218.5,231.5 Z"/></g>
<g><path style="opacity:1" fill="#2d2b2b" d="M 168.5,255.5 C 168.5,250.167 168.5,244.833 168.5,239.5C 163.725,239.33 163.392,238.33 167.5,236.5C 166.599,232.759 167.932,230.759 171.5,230.5C 171.5,232.5 171.5,234.5 171.5,236.5C 173.167,236.5 174.833,236.5 176.5,236.5C 176.5,237.5 176.5,238.5 176.5,239.5C 174.833,239.5 173.167,239.5 171.5,239.5C 171.5,244.833 171.5,250.167 171.5,255.5C 173.167,255.5 174.833,255.5 176.5,255.5C 176.5,256.5 176.5,257.5 176.5,258.5C 173.058,259.172 170.391,258.172 168.5,255.5 Z"/></g>
<g><path style="opacity:1" fill="#a6a4a5" d="M 245.5,237.5 C 246.568,236.566 247.901,236.232 249.5,236.5C 249.825,244.019 249.492,251.352 248.5,258.5C 248.5,251.5 248.5,244.5 248.5,237.5C 247.5,237.5 246.5,237.5 245.5,237.5 Z"/></g>
<g><path style="opacity:1" fill="#d4d3d4" d="M 259.5,239.5 C 258.58,240.067 258.246,239.401 258.5,237.5C 257.5,237.5 256.5,237.5 255.5,237.5C 255.5,247.833 255.5,258.167 255.5,268.5C 254.506,258.013 254.172,247.346 254.5,236.5C 256.167,236.5 257.833,236.5 259.5,236.5C 259.5,237.5 259.5,238.5 259.5,239.5 Z"/></g>
<g><path style="opacity:1" fill="#272627" d="M 119.5,258.5 C 119.5,251.5 119.5,244.5 119.5,237.5C 120.5,237.5 121.5,237.5 122.5,237.5C 122.345,240.853 123.012,241.186 124.5,238.5C 126.102,236.926 128.102,236.259 130.5,236.5C 130.5,237.5 130.5,238.5 130.5,239.5C 126.83,239.327 124.33,240.993 123,244.5C 122.501,249.155 122.334,253.821 122.5,258.5C 121.5,258.5 120.5,258.5 119.5,258.5 Z"/></g>
<g><path style="opacity:1" fill="#777576" d="M 167.5,236.5 C 163.392,238.33 163.725,239.33 168.5,239.5C 168.5,244.833 168.5,250.167 168.5,255.5C 167.513,250.695 167.179,245.695 167.5,240.5C 166.167,240.5 164.833,240.5 163.5,240.5C 163.5,239.167 163.5,237.833 163.5,236.5C 164.833,236.5 166.167,236.5 167.5,236.5 Z"/></g>
<g><path style="opacity:1" fill="#bdbbbc" d="M 226.5,239.5 C 225.432,240.434 224.099,240.768 222.5,240.5C 222.5,245.167 222.5,249.833 222.5,254.5C 221.513,249.695 221.179,244.695 221.5,239.5C 223.167,239.5 224.833,239.5 226.5,239.5 Z"/></g>
<g><path style="opacity:1" fill="#d2d1d1" d="M 124.5,238.5 C 123.012,241.186 122.345,240.853 122.5,237.5C 121.5,237.5 120.5,237.5 119.5,237.5C 119.5,244.5 119.5,251.5 119.5,258.5C 118.508,251.352 118.175,244.019 118.5,236.5C 120.886,236.259 122.886,236.925 124.5,238.5 Z"/></g>
<g><path style="opacity:1" fill="#868384" d="M 234.5,237.5 C 233.5,237.5 232.5,237.5 231.5,237.5C 231.5,242.833 231.5,248.167 231.5,253.5C 230.511,248.025 230.178,242.358 230.5,236.5C 232.099,236.232 233.432,236.566 234.5,237.5 Z"/></g>
<g><path style="opacity:1" fill="#191718" d="M 90.5,239.5 C 89.1667,239.5 87.8333,239.5 86.5,239.5C 85.8334,245.346 85.1668,251.346 84.5,257.5C 83.8332,251.346 83.1666,245.346 82.5,239.5C 81.5,239.5 80.5,239.5 79.5,239.5C 79.62,238.414 80.2867,237.747 81.5,237.5C 83.644,238.688 85.8107,238.688 88,237.5C 89.3756,237.684 90.2089,238.351 90.5,239.5 Z"/></g>
<g><path style="opacity:1" fill="#282727" d="M 183.5,236.5 C 188.5,235.626 192.667,236.959 196,240.5C 196.499,246.491 196.666,252.491 196.5,258.5C 194.549,258.773 193.049,258.107 192,256.5C 187.616,259.441 183.616,259.107 180,255.5C 179.651,247.041 183.817,243.708 192.5,245.5C 192.739,243.533 192.406,241.699 191.5,240C 188.007,238.996 184.841,239.496 182,241.5C 181.36,239.457 181.86,237.79 183.5,236.5 Z"/></g>
<g><path style="opacity:1" fill="#302e2f" d="M 213.5,236.5 C 213.5,237.5 213.5,238.5 213.5,239.5C 211.585,239.216 209.919,239.549 208.5,240.5C 208.217,241.289 207.717,241.956 207,242.5C 206.501,247.823 206.334,253.156 206.5,258.5C 205.167,258.5 203.833,258.5 202.5,258.5C 202.5,251.5 202.5,244.5 202.5,237.5C 203.5,237.5 204.5,237.5 205.5,237.5C 205.345,240.853 206.012,241.186 207.5,238.5C 209.142,236.919 211.142,236.253 213.5,236.5 Z"/></g>
<g><path style="opacity:1" fill="#c2c0c1" d="M 213.5,236.5 C 215.167,236.5 216.833,236.5 218.5,236.5C 217.282,237.161 215.949,237.828 214.5,238.5C 215.689,239.429 217.022,239.762 218.5,239.5C 218.5,244.833 218.5,250.167 218.5,255.5C 217.513,250.695 217.179,245.695 217.5,240.5C 214.5,240.5 211.5,240.5 208.5,240.5C 209.919,239.549 211.585,239.216 213.5,239.5C 213.5,238.5 213.5,237.5 213.5,236.5 Z"/></g>
<g><path style="opacity:1" fill="#636162" d="M 82.5,239.5 C 83.1666,245.346 83.8332,251.346 84.5,257.5C 85.1668,251.346 85.8334,245.346 86.5,239.5C 86.5,245.833 86.5,252.167 86.5,258.5C 85.1667,258.5 83.8333,258.5 82.5,258.5C 82.5,252.167 82.5,245.833 82.5,239.5 Z"/></g>
<g><path style="opacity:1" fill="#2b292a" d="M 99.5,236.5 C 112.39,235.554 116.89,241.221 113,253.5C 112.167,255.667 110.667,257.167 108.5,258C 95.7851,259.82 90.9518,254.32 94,241.5C 95.7297,239.598 97.563,237.931 99.5,236.5 Z"/></g>
<g><path style="opacity:1" fill="#f5f4f5" d="M 100.5,239.5 C 109.328,238.839 112.495,242.839 110,251.5C 109.535,252.931 108.701,254.097 107.5,255C 98.2517,256.725 94.7517,252.892 97,243.5C 98.3756,242.295 99.5423,240.962 100.5,239.5 Z"/></g>
<g><path style="opacity:1" fill="#838182" d="M 186.5,248.5 C 188.607,247.532 190.941,247.198 193.5,247.5C 193.768,249.099 193.434,250.432 192.5,251.5C 192.5,250.5 192.5,249.5 192.5,248.5C 190.5,248.5 188.5,248.5 186.5,248.5 Z"/></g>
<g><path style="opacity:1" fill="#2a292a" d="M 283.5,236.5 C 285.857,236.337 288.19,236.503 290.5,237C 292.405,237.826 292.739,238.993 291.5,240.5C 288.897,239.438 286.23,239.272 283.5,240C 282.253,241.494 282.253,242.994 283.5,244.5C 286.746,246.039 289.912,247.706 293,249.5C 294.123,252.956 293.29,255.79 290.5,258C 286.848,258.499 283.182,258.665 279.5,258.5C 279.343,257.127 279.51,255.793 280,254.5C 283.057,255.451 286.223,255.784 289.5,255.5C 289.785,253.712 289.452,252.045 288.5,250.5C 285.247,249.479 282.414,247.812 280,245.5C 278.665,241.392 279.832,238.392 283.5,236.5 Z"/></g>
<g><path style="opacity:1" fill="#f5f4f5" d="M 186.5,248.5 C 188.5,248.5 190.5,248.5 192.5,248.5C 192.5,249.5 192.5,250.5 192.5,251.5C 191.172,255.254 188.506,256.421 184.5,255C 183.424,253.274 183.257,251.441 184,249.5C 184.671,248.748 185.504,248.414 186.5,248.5 Z"/></g>
<g><path style="opacity:1" fill="#292627" d="M 260.5,257.5 C 260.217,256.711 259.717,256.044 259,255.5C 258.501,259.821 258.334,264.154 258.5,268.5C 257.5,268.5 256.5,268.5 255.5,268.5C 255.5,258.167 255.5,247.833 255.5,237.5C 256.5,237.5 257.5,237.5 258.5,237.5C 258.246,239.401 258.58,240.067 259.5,239.5C 268.165,234.165 273.498,236.498 275.5,246.5C 275.23,256.781 270.23,260.448 260.5,257.5 Z"/></g>
<g><path style="opacity:1" fill="#f3f3f3" d="M 261.5,239.5 C 270.568,238.595 273.734,242.595 271,251.5C 268.947,255.292 265.781,256.458 261.5,255C 257.625,249.905 257.625,244.738 261.5,239.5 Z"/></g>
<g><path style="opacity:1" fill="#292728" d="M 234.5,237.5 C 234.334,242.511 234.501,247.511 235,252.5C 237.079,255.661 239.913,256.328 243.5,254.5C 244.192,253.975 244.692,253.308 245,252.5C 245.499,247.511 245.666,242.511 245.5,237.5C 246.5,237.5 247.5,237.5 248.5,237.5C 248.5,244.5 248.5,251.5 248.5,258.5C 247.5,258.5 246.5,258.5 245.5,258.5C 245.649,257.448 245.483,256.448 245,255.5C 242.005,258.265 238.505,259.098 234.5,258C 232.859,256.871 231.859,255.371 231.5,253.5C 231.5,248.167 231.5,242.833 231.5,237.5C 232.5,237.5 233.5,237.5 234.5,237.5 Z"/></g>
<g><path style="opacity:1" fill="#aeabac" d="M 260.5,257.5 C 259.833,261.167 259.167,264.833 258.5,268.5C 258.334,264.154 258.501,259.821 259,255.5C 259.717,256.044 260.217,256.711 260.5,257.5 Z"/></g>
</svg>
