<?xml version="1.0" encoding="UTF-8"?>
<!DOCTYPE svg PUBLIC "-//W3C//DTD SVG 1.1//EN" "http://www.w3.org/Graphics/SVG/1.1/DTD/svg11.dtd">
<svg xmlns="http://www.w3.org/2000/svg" version="1.1" width="200px" height="200px" style="shape-rendering:geometricPrecision; text-rendering:geometricPrecision; image-rendering:optimizeQuality; fill-rule:evenodd; clip-rule:evenodd" xmlns:xlink="http://www.w3.org/1999/xlink">
<g><path style="opacity:1" fill="#e85933" d="M 108.5,80.5 C 109.081,89.3108 109.748,97.9775 110.5,106.5C 110.677,110.526 112.677,113.359 116.5,115C 122.962,116.865 127.462,114.698 130,108.5C 130.5,99.8397 130.666,91.1731 130.5,82.5C 132.369,80.4243 134.536,80.0909 137,81.5C 137.5,92.8284 137.667,104.162 137.5,115.5C 139.415,115.784 141.081,115.451 142.5,114.5C 143.195,98.2948 143.861,81.9615 144.5,65.5C 146.451,65.2267 147.951,65.8934 149,67.5C 149.333,72.8333 149.667,78.1667 150,83.5C 162.242,77.0924 171.242,80.0924 177,92.5C 177.667,98.5 177.667,104.5 177,110.5C 176.153,112.193 175.32,113.86 174.5,115.5C 178.06,116.501 182.393,116.834 187.5,116.5C 187.5,115.167 187.5,113.833 187.5,112.5C 191.524,82.8919 181.858,58.8919 158.5,40.5C 129.976,21.8546 101.309,21.8546 72.5,40.5C 55.593,53.4015 45.9263,70.4015 43.5,91.5C 40.8333,91.5 38.1667,91.5 35.5,91.5C 37.2387,72.2378 44.9054,55.9045 58.5,42.5C 59.5,41.5 60.5,40.5 61.5,39.5C 91.3778,15.2332 123.378,12.0665 157.5,30C 189.605,52.1712 201.605,83.0045 193.5,122.5C 180.496,122.667 167.496,122.5 154.5,122C 152.22,121.767 150.22,120.934 148.5,119.5C 145.712,120.978 142.878,122.311 140,123.5C 137.086,122.292 134.252,120.959 131.5,119.5C 123.589,123.74 115.922,123.407 108.5,118.5C 103.037,123.799 97.5365,123.799 92,118.5C 90.3077,112.699 90.141,106.866 91.5,101C 90.409,90.2171 84.7423,86.2171 74.5,89C 72.8767,91.0795 71.3767,93.2462 70,95.5C 69.6667,100.833 69.3333,106.167 69,111.5C 65.9661,118.801 60.1328,122.301 51.5,122C 49.1929,116.963 50.8595,114.629 56.5,115C 57.7287,113.471 59.2287,112.304 61,111.5C 62.2659,96.8876 62.9325,82.2209 63,67.5C 64.7328,65.3985 66.7328,65.0652 69,66.5C 69.3333,72.5 69.6667,78.5 70,84.5C 78.597,78.775 86.7636,79.4416 94.5,86.5C 95.6094,88.3853 96.4427,90.3853 97,92.5C 97.3333,99.8333 97.6667,107.167 98,114.5C 99.3561,115.38 100.856,115.714 102.5,115.5C 102.333,104.162 102.5,92.8284 103,81.5C 104.699,80.5939 106.533,80.2606 108.5,80.5 Z M 153.5,89.5 C 159.443,86.1844 164.61,87.1844 169,92.5C 169.667,98.5 169.667,104.5 169,110.5C 162.971,117.089 156.971,117.089 151,110.5C 149.524,105.924 149.19,101.257 150,96.5C 150.139,93.5547 151.306,91.2214 153.5,89.5 Z"/></g>
<g><path style="opacity:0.004" fill="#fe0000" d="M 61.5,39.5 C 60.8333,38.1667 60.8333,38.1667 61.5,39.5 Z"/></g>
<g><path style="opacity:0.004" fill="#fe0000" d="M 158.5,40.5 C 157.833,41.1667 157.833,41.1667 158.5,40.5 Z"/></g>
<g><path style="opacity:0.004" fill="#fe0000" d="M 58.5,42.5 C 57.8333,41.1667 57.8333,41.1667 58.5,42.5 Z"/></g>
<g><path style="opacity:0.985" fill="#8a8b8a" d="M 9.5,119.5 C 5.41501,116.254 3.24835,111.921 3,106.5C 2.83333,100.167 2.66667,93.8333 2.5,87.5C 2.36857,80.3988 2.86857,73.3988 4,66.5C 6,65.1667 8,65.1667 10,66.5C 10.499,70.8206 10.6657,75.1539 10.5,79.5C 15.8437,79.334 21.1771,79.5006 26.5,80C 27.7468,81.4579 27.7468,82.9579 26.5,84.5C 21.2079,85.4948 15.8746,85.8282 10.5,85.5C 10.3336,93.5069 10.5003,101.507 11,109.5C 12.1667,112 14,113.833 16.5,115C 20.8711,115.172 25.2044,115.672 29.5,116.5C 30.767,118.371 30.767,120.204 29.5,122C 22.5461,123.554 15.8794,122.721 9.5,119.5 Z"/></g>
<g><path style="opacity:0.47" fill="#ef9c87" d="M 144.5,65.5 C 143.861,81.9615 143.195,98.2948 142.5,114.5C 142.333,98.4965 142.5,82.4965 143,66.5C 143.383,65.944 143.883,65.6107 144.5,65.5 Z"/></g>
<g><path style="opacity:0.004" fill="#fe0000" d="M 130.5,82.5 C 129.833,81.1667 129.833,81.1667 130.5,82.5 Z"/></g>
<g><path style="opacity:0.063" fill="#ed8060" d="M 108.5,80.5 C 109.222,80.9175 109.722,81.5842 110,82.5C 110.5,90.4931 110.666,98.4931 110.5,106.5C 109.748,97.9775 109.081,89.3108 108.5,80.5 Z"/></g>
<g><path style="opacity:0.991" fill="#878888" d="M 33.5,95.5 C 38.1785,95.3342 42.8452,95.5008 47.5,96C 50.1667,98 50.1667,100 47.5,102C 42.467,102.829 37.467,102.662 32.5,101.5C 31.0274,99.1391 31.3607,97.1391 33.5,95.5 Z"/></g>
<g><path style="opacity:0.998" fill="#898989" d="M 35.5,106.5 C 38.1194,106.232 40.6194,106.565 43,107.5C 50.5407,145.388 73.0407,166.888 110.5,172C 144.561,172.577 168.894,157.577 183.5,127C 186.227,126.182 188.894,126.348 191.5,127.5C 174.359,165.47 145.026,182.637 103.5,179C 64.4935,170.811 41.8268,146.644 35.5,106.5 Z"/></g>
<g><path style="opacity:0.122" fill="#ed9d7f" d="M 187.5,112.5 C 187.5,113.833 187.5,115.167 187.5,116.5C 182.393,116.834 178.06,116.501 174.5,115.5C 178.5,115.5 182.5,115.5 186.5,115.5C 186.263,114.209 186.596,113.209 187.5,112.5 Z"/></g>
<g><path style="opacity:0.004" fill="#000000" d="M 9.5,119.5 C 8.83333,120.167 8.83333,120.167 9.5,119.5 Z"/></g>
</svg>
