<?xml version="1.0" encoding="UTF-8"?>
<!DOCTYPE svg PUBLIC "-//W3C//DTD SVG 1.1//EN" "http://www.w3.org/Graphics/SVG/1.1/DTD/svg11.dtd">
<svg xmlns="http://www.w3.org/2000/svg" version="1.1" width="200px" height="200px" style="shape-rendering:geometricPrecision; text-rendering:geometricPrecision; image-rendering:optimizeQuality; fill-rule:evenodd; clip-rule:evenodd" xmlns:xlink="http://www.w3.org/1999/xlink">
<g><path style="opacity:1" fill="#fdfefe" d="M -0.5,-0.5 C 66.1667,-0.5 132.833,-0.5 199.5,-0.5C 199.5,66.1667 199.5,132.833 199.5,199.5C 132.833,199.5 66.1667,199.5 -0.5,199.5C -0.5,132.833 -0.5,66.1667 -0.5,-0.5 Z"/></g>
<g><path style="opacity:1" fill="#2e7e67" d="M 25.5,68.5 C 28.1662,68.0658 29.3329,69.0658 29,71.5C 25.4034,73.0661 24.2368,72.0661 25.5,68.5 Z"/></g>
<g><path style="opacity:1" fill="#319177" d="M 80.5,75.5 C 77.4281,75.8174 74.4281,75.4841 71.5,74.5C 73.7427,73.5258 76.076,73.1924 78.5,73.5C 78.5,72.5 78.5,71.5 78.5,70.5C 69.5,70.5 60.5,70.5 51.5,70.5C 51.5,71.5 51.5,72.5 51.5,73.5C 55.5,73.5 59.5,73.5 63.5,73.5C 63.5,83.8333 63.5,94.1667 63.5,104.5C 64.5,104.5 65.5,104.5 66.5,104.5C 66.1681,94.1452 66.5014,83.8119 67.5,73.5C 68.4988,84.4798 68.8321,95.4798 68.5,106.5C 66.1667,106.5 63.8333,106.5 61.5,106.5C 61.5,96.1667 61.5,85.8333 61.5,75.5C 57.5,75.5 53.5,75.5 49.5,75.5C 49.5,73.1667 49.5,70.8333 49.5,68.5C 59.8333,68.5 70.1667,68.5 80.5,68.5C 80.5,70.8333 80.5,73.1667 80.5,75.5 Z"/></g>
<g><path style="opacity:1" fill="#ccede8" d="M 80.5,75.5 C 77.0381,76.4816 73.3714,76.815 69.5,76.5C 69.8274,86.6806 69.494,96.6806 68.5,106.5C 68.8321,95.4798 68.4988,84.4798 67.5,73.5C 66.5014,83.8119 66.1681,94.1452 66.5,104.5C 65.5,104.5 64.5,104.5 63.5,104.5C 63.5,94.1667 63.5,83.8333 63.5,73.5C 59.5,73.5 55.5,73.5 51.5,73.5C 51.5,72.5 51.5,71.5 51.5,70.5C 60.5,70.5 69.5,70.5 78.5,70.5C 78.5,71.5 78.5,72.5 78.5,73.5C 76.076,73.1924 73.7427,73.5258 71.5,74.5C 74.4281,75.4841 77.4281,75.8174 80.5,75.5 Z"/></g>
<g><path style="opacity:1" fill="#3c7b6c" d="M 31.5,74.5 C 32.5,74.5 33.5,74.5 34.5,74.5C 34.5,75.8333 34.5,77.1667 34.5,78.5C 33.1667,78.5 31.8333,78.5 30.5,78.5C 30.4326,77.0413 30.7659,75.7079 31.5,74.5 Z"/></g>
<g><path style="opacity:1" fill="#287d63" d="M 22.5,74.5 C 23.2341,75.7079 23.5674,77.0413 23.5,78.5C 22.0413,78.5674 20.7079,78.2341 19.5,77.5C 19.5,76.5 19.5,75.5 19.5,74.5C 20.5,74.5 21.5,74.5 22.5,74.5 Z"/></g>
<g><path style="opacity:1" fill="#53a08d" d="M 141.5,68.5 C 143.924,68.1924 146.257,68.5258 148.5,69.5C 147.311,70.4287 145.978,70.762 144.5,70.5C 144.168,81.8529 144.501,93.1862 145.5,104.5C 146.499,94.1881 146.832,83.8548 146.5,73.5C 147.5,73.5 148.5,73.5 149.5,73.5C 149.5,84.5 149.5,95.5 149.5,106.5C 146.833,106.5 144.167,106.5 141.5,106.5C 141.5,93.8333 141.5,81.1667 141.5,68.5 Z"/></g>
<g><path style="opacity:1" fill="#35806b" d="M 39.5,82.5 C 38.713,84.1042 37.3797,84.7709 35.5,84.5C 35.5,83.5 35.5,82.5 35.5,81.5C 37.2633,80.0462 38.5967,80.3796 39.5,82.5 Z"/></g>
<g><path style="opacity:1" fill="#397c69" d="M 15.5,80.5 C 17.9118,80.6941 18.9118,82.0274 18.5,84.5C 16.0274,84.9118 14.6941,83.9118 14.5,81.5C 15.1667,81.5 15.5,81.1667 15.5,80.5 Z"/></g>
<g><path style="opacity:1" fill="#439a84" d="M 116.5,68.5 C 119.247,68.1866 121.914,68.52 124.5,69.5C 123.428,71.7169 122.761,74.0502 122.5,76.5C 124.171,81.8458 125.838,87.1792 127.5,92.5C 123.167,92.5 118.833,92.5 114.5,92.5C 115.35,88.4468 116.516,84.4468 118,80.5C 119.929,83.2462 119.762,85.9129 117.5,88.5C 119.396,89.4656 121.396,89.7989 123.5,89.5C 121.473,83.4766 120.14,77.4766 119.5,71.5C 115.039,81.7009 111.039,92.2009 107.5,103C 108.01,104.826 108.844,104.993 110,103.5C 111.145,100.568 111.978,97.5682 112.5,94.5C 117.875,94.1718 123.208,94.5052 128.5,95.5C 129.453,98.7012 130.786,101.701 132.5,104.5C 133.614,103.277 133.781,101.944 133,100.5C 130.066,92.5323 127.233,84.5323 124.5,76.5C 124.556,75.263 125.056,74.263 126,73.5C 130.218,84.3181 133.718,95.3181 136.5,106.5C 134.167,106.5 131.833,106.5 129.5,106.5C 128.539,103.574 127.873,100.574 127.5,97.5C 123.116,97.1744 118.783,97.5078 114.5,98.5C 113.593,101.057 112.593,103.557 111.5,106C 109.19,106.497 106.857,106.663 104.5,106.5C 108.302,93.7612 112.302,81.0945 116.5,68.5 Z"/></g>
<g><path style="opacity:1" fill="#ebf6f5" d="M 22.5,74.5 C 24.0481,74.8212 24.7148,75.8212 24.5,77.5C 26.711,77.9668 28.711,78.9668 30.5,80.5C 30.8797,82.0207 31.0464,83.6874 31,85.5C 32.4685,84.0107 33.9685,82.6774 35.5,81.5C 35.5,82.5 35.5,83.5 35.5,84.5C 37.3797,84.7709 38.713,84.1042 39.5,82.5C 41.9775,82.0508 43.9775,82.7175 45.5,84.5C 43.8287,86.5098 43.162,88.8431 43.5,91.5C 44.5,91.5 45.5,91.5 46.5,91.5C 47.4551,88.7373 47.6218,89.7373 47,94.5C 46.3292,95.2524 45.4959,95.5858 44.5,95.5C 45.8499,94.1765 45.6833,93.1765 44,92.5C 41.1388,93.4821 40.9721,94.4821 43.5,95.5C 44.4558,96.6594 45.4558,97.8261 46.5,99C 44.916,101.651 45.2494,103.984 47.5,106C 45.4787,106.14 43.6453,106.307 42,106.5C 41.5172,105.552 41.3505,104.552 41.5,103.5C 39.8014,103.38 38.1347,103.046 36.5,102.5C 34.1966,102.876 33.8632,103.876 35.5,105.5C 34.1667,105.5 33.5,106.167 33.5,107.5C 32.7321,106.737 32.2321,105.737 32,104.5C 31.8038,106.286 30.9705,107.619 29.5,108.5C 27.8651,107.67 26.1984,107.503 24.5,108C 24.1667,107.667 23.8333,107.333 23.5,107C 26.0801,104.88 26.0801,102.713 23.5,100.5C 22.201,102.758 21.201,105.092 20.5,107.5C 16.8561,106.958 13.8561,105.291 11.5,102.5C 8.75726,103.101 7.42393,101.767 7.5,98.5C 9.86105,98.6741 12.1944,99.0074 14.5,99.5C 14.7709,97.6203 14.1042,96.287 12.5,95.5C 12.5,95.1667 12.5,94.8333 12.5,94.5C 14.1788,94.2852 15.1788,94.9519 15.5,96.5C 15.281,97.675 15.6143,98.675 16.5,99.5C 17.5624,98.5754 17.5624,97.5754 16.5,96.5C 16.2155,94.5853 16.5489,92.9187 17.5,91.5C 17.5,92.5 17.5,93.5 17.5,94.5C 20.2476,94.5983 20.9143,93.5983 19.5,91.5C 21.0443,91.7031 22.3777,92.3698 23.5,93.5C 23.8333,93 24.1667,92.5 24.5,92C 23.9444,90.9889 23.2778,90.1556 22.5,89.5C 24.9302,88.3467 24.9302,87.3467 22.5,86.5C 21.2867,86.7472 20.62,87.4138 20.5,88.5C 18.549,88.7733 17.049,88.1066 16,86.5C 15.3162,87.7839 15.4829,88.9505 16.5,90C 15.9056,90.4643 15.2389,90.631 14.5,90.5C 14.9118,88.0274 13.9118,86.6941 11.5,86.5C 12.1103,84.5659 13.1103,82.8993 14.5,81.5C 14.6941,83.9118 16.0274,84.9118 18.5,84.5C 18.9118,82.0274 17.9118,80.6941 15.5,80.5C 15.6636,74.8333 15.9969,74.5 16.5,79.5C 18.1788,79.7148 19.1788,79.0481 19.5,77.5C 20.7079,78.2341 22.0413,78.5674 23.5,78.5C 23.5674,77.0413 23.2341,75.7079 22.5,74.5 Z"/></g>
<g><path style="opacity:1" fill="#3d826e" d="M 25.5,80.5 C 26.5,80.5 27.5,80.5 28.5,80.5C 28.5,81.8333 28.5,83.1667 28.5,84.5C 27.5,84.5 26.5,84.5 25.5,84.5C 25.5,83.1667 25.5,81.8333 25.5,80.5 Z"/></g>
<g><path style="opacity:1" fill="#3e8670" d="M 22.5,89.5 C 21.8333,89.1667 21.1667,88.8333 20.5,88.5C 20.62,87.4138 21.2867,86.7472 22.5,86.5C 24.9302,87.3467 24.9302,88.3467 22.5,89.5 Z"/></g>
<g><path style="opacity:1" fill="#2f8268" d="M 30.5,86.5 C 31.5,86.5 32.5,86.5 33.5,86.5C 33.5,87.5 33.5,88.5 33.5,89.5C 32.5,89.5 31.5,89.5 30.5,89.5C 30.5,88.5 30.5,87.5 30.5,86.5 Z"/></g>
<g><path style="opacity:1" fill="#3d8771" d="M 11.5,86.5 C 13.9118,86.6941 14.9118,88.0274 14.5,90.5C 12.0882,90.3059 11.0882,88.9726 11.5,86.5 Z"/></g>
<g><path style="opacity:1" fill="#3e846f" d="M 40.5,86.5 C 43.0414,87.6228 43.0414,88.9561 40.5,90.5C 39.3744,89.1916 39.3744,87.8583 40.5,86.5 Z"/></g>
<g><path style="opacity:1" fill="#e5f9f8" d="M 193.5,106.5 C 193.5,93.8333 193.5,81.1667 193.5,68.5C 192.325,68.281 191.325,68.6143 190.5,69.5C 185.667,79.8333 180.833,90.1667 176,100.5C 171.821,92.8063 167.654,85.1396 163.5,77.5C 163.44,76.9569 163.107,76.6236 162.5,76.5C 161.668,85.4816 161.168,94.4816 161,103.5C 160.833,98.1667 160.667,92.8333 160.5,87.5C 160.505,81.7891 161.172,76.4558 162.5,71.5C 166.484,79.4679 170.984,87.1346 176,94.5C 180.243,86.5143 184.076,78.3476 187.5,70C 187.164,68.9701 186.497,68.4701 185.5,68.5C 185.249,66.8297 184.582,65.3297 183.5,64C 185.047,63.6666 186.38,64.1666 187.5,65.5C 188.192,64.9747 188.692,64.3081 189,63.5C 189.219,64.938 189.719,66.2713 190.5,67.5C 192.766,66.3146 194.766,65.1479 196.5,64C 195.874,64.7504 195.374,65.5838 195,66.5C 194.831,80.0063 194.331,93.3396 193.5,106.5 Z"/></g>
<g><path style="opacity:1" fill="#369279" d="M 81.5,89.5 C 87.8333,89.5 94.1667,89.5 100.5,89.5C 100.5,91.8333 100.5,94.1667 100.5,96.5C 94.1667,96.5 87.8333,96.5 81.5,96.5C 81.5,94.1667 81.5,91.8333 81.5,89.5 Z"/></g>
<g><path style="opacity:1" fill="#c0e8e2" d="M 83.5,91.5 C 88.5,91.5 93.5,91.5 98.5,91.5C 98.5,92.5 98.5,93.5 98.5,94.5C 93.5,94.5 88.5,94.5 83.5,94.5C 83.5,93.5 83.5,92.5 83.5,91.5 Z"/></g>
<g><path style="opacity:1" fill="#3f836f" d="M 17.5,91.5 C 18.1667,91.5 18.8333,91.5 19.5,91.5C 20.9143,93.5983 20.2476,94.5983 17.5,94.5C 17.5,93.5 17.5,92.5 17.5,91.5 Z"/></g>
<g><path style="opacity:1" fill="#2e8167" d="M 25.5,91.5 C 26.5,91.5 27.5,91.5 28.5,91.5C 28.5,92.5 28.5,93.5 28.5,94.5C 27.5,94.5 26.5,94.5 25.5,94.5C 25.5,93.5 25.5,92.5 25.5,91.5 Z"/></g>
<g><path style="opacity:1" fill="#418c75" d="M 12.5,94.5 C 12.5,94.8333 12.5,95.1667 12.5,95.5C 8.83893,95.5743 8.17227,94.5743 10.5,92.5C 11.5223,92.8555 12.189,93.5222 12.5,94.5 Z"/></g>
<g><path style="opacity:1" fill="#478a77" d="M 44.5,95.5 C 44.1667,95.5 43.8333,95.5 43.5,95.5C 40.9721,94.4821 41.1388,93.4821 44,92.5C 45.6833,93.1765 45.8499,94.1765 44.5,95.5 Z"/></g>
<g><path style="opacity:1" fill="#36856d" d="M 15.5,96.5 C 15.8333,96.5 16.1667,96.5 16.5,96.5C 17.5624,97.5754 17.5624,98.5754 16.5,99.5C 15.6143,98.675 15.281,97.675 15.5,96.5 Z"/></g>
<g><path style="opacity:1" fill="#4a8e7b" d="M 21.5,96.5 C 22.5,96.5 23.5,96.5 24.5,96.5C 23.7542,100.31 22.7542,100.31 21.5,96.5 Z"/></g>
<g><path style="opacity:1" fill="#428b74" d="M 29.5,96.5 C 32.9571,96.6672 33.2904,97.6672 30.5,99.5C 29.6143,98.675 29.281,97.675 29.5,96.5 Z"/></g>
<g><path style="opacity:1" fill="#38947d" d="M 185.5,68.5 C 186.497,68.4701 187.164,68.9701 187.5,70C 184.076,78.3476 180.243,86.5143 176,94.5C 170.984,87.1346 166.484,79.4679 162.5,71.5C 161.791,70.596 160.791,70.2627 159.5,70.5C 159.5,81.8333 159.5,93.1667 159.5,104.5C 160.5,104.5 161.5,104.5 162.5,104.5C 162.173,95.3178 162.507,86.3178 163.5,77.5C 167.654,85.1396 171.821,92.8063 176,100.5C 180.833,90.1667 185.667,79.8333 190.5,69.5C 191.325,68.6143 192.325,68.281 193.5,68.5C 193.5,81.1667 193.5,93.8333 193.5,106.5C 191.167,106.5 188.833,106.5 186.5,106.5C 186.08,99.7163 186.58,93.0496 188,86.5C 188.499,92.1569 188.666,97.8236 188.5,103.5C 189.209,104.404 190.209,104.737 191.5,104.5C 191.666,94.4944 191.5,84.4944 191,74.5C 190.487,75.5266 189.987,76.5266 189.5,77.5C 185.525,86.7834 181.025,95.7834 176,104.5C 172.081,98.3303 168.414,91.9969 165,85.5C 164.5,92.4921 164.334,99.4921 164.5,106.5C 162.167,106.5 159.833,106.5 157.5,106.5C 157.5,93.8333 157.5,81.1667 157.5,68.5C 160.365,68.0548 162.865,68.7215 165,70.5C 168.504,76.8424 172.004,83.1758 175.5,89.5C 179.104,82.6259 182.437,75.6259 185.5,68.5 Z"/></g>
<g><path style="opacity:1" fill="#9fc2bb" d="M 188.5,103.5 C 189.825,99.5549 190.492,95.2216 190.5,90.5C 190.499,85.9866 190.166,81.6533 189.5,77.5C 189.987,76.5266 190.487,75.5266 191,74.5C 191.5,84.4944 191.666,94.4944 191.5,104.5C 190.209,104.737 189.209,104.404 188.5,103.5 Z"/></g>
<g><path style="opacity:1" fill="#b9d7d2" d="M 162.5,71.5 C 161.172,76.4558 160.505,81.7891 160.5,87.5C 160.667,92.8333 160.833,98.1667 161,103.5C 161.168,94.4816 161.668,85.4816 162.5,76.5C 163.107,76.6236 163.44,76.9569 163.5,77.5C 162.507,86.3178 162.173,95.3178 162.5,104.5C 161.5,104.5 160.5,104.5 159.5,104.5C 159.5,93.1667 159.5,81.8333 159.5,70.5C 160.791,70.2627 161.791,70.596 162.5,71.5 Z"/></g>
<g><path style="opacity:1" fill="#498671" d="M 35.5,105.5 C 35.5,106.833 34.8333,107.5 33.5,107.5C 33.5,106.167 34.1667,105.5 35.5,105.5 Z"/></g>
<g><path style="opacity:1" fill="#e2d9d8" d="M 194.5,129.5 C 194.665,126.482 194.498,123.482 194,120.5C 193.5,120 193,119.5 192.5,119C 181.904,114.771 177.238,118.271 178.5,129.5C 177.778,128.449 176.778,127.782 175.5,127.5C 176.834,120 173.834,117.167 166.5,119C 162.823,125.819 164.823,129.319 172.5,129.5C 169.763,130.051 167.096,131.051 164.5,132.5C 162.24,131.088 159.907,130.088 157.5,129.5C 159.288,129.785 160.955,129.452 162.5,128.5C 158.619,128.128 156.785,126.128 157,122.5C 158.699,121.594 160.533,121.261 162.5,121.5C 162.5,120.5 162.5,119.5 162.5,118.5C 153.367,118.592 151.367,122.259 156.5,129.5C 154.833,129.5 153.167,129.5 151.5,129.5C 152.473,127.932 152.64,126.265 152,124.5C 150.414,123.624 148.914,122.624 147.5,121.5C 148.833,120.833 150.167,120.167 151.5,119.5C 149.235,118.353 146.902,118.186 144.5,119C 143.167,120.667 143.167,122.333 144.5,124C 146.221,124.739 147.887,125.573 149.5,126.5C 147.369,127.169 145.369,127.835 143.5,128.5C 143.167,128.5 142.833,128.5 142.5,128.5C 142.657,127.127 142.49,125.793 142,124.5C 140.414,123.624 138.914,122.624 137.5,121.5C 138.833,120.833 140.167,120.167 141.5,119.5C 139.235,118.353 136.902,118.186 134.5,119C 133.167,120.667 133.167,122.333 134.5,124C 136.221,124.739 137.887,125.573 139.5,126.5C 137.865,127.681 136.198,127.681 134.5,126.5C 133.614,127.325 133.281,128.325 133.5,129.5C 127.915,130.288 122.248,130.788 116.5,131C 115.892,131.87 115.059,132.37 114,132.5C 113.432,130.988 111.932,129.988 109.5,129.5C 108.355,125.689 108.188,121.689 109,117.5C 109.667,118.833 110.333,118.833 111,117.5C 111.483,116.552 111.649,115.552 111.5,114.5C 77.1602,114.833 42.8269,114.5 8.5,113.5C 70.5,112.167 132.5,112.167 194.5,113.5C 190.167,114.167 185.833,114.833 181.5,115.5C 186.005,116.641 190.505,117.641 195,118.5C 195.81,122.358 195.643,126.024 194.5,129.5 Z"/></g>
<g><path style="opacity:1" fill="#777777" d="M 8.5,118.5 C 11.8852,117.79 14.2186,118.956 15.5,122C 14.7935,124.54 13.1268,125.707 10.5,125.5C 10.762,126.978 10.4287,128.311 9.5,129.5C 8.51078,125.893 8.17744,122.226 8.5,118.5 Z"/></g>
<g><path style="opacity:1" fill="#fafafa" d="M 10.5,120.5 C 11.5,120.5 12.5,120.5 13.5,120.5C 13.5,121.5 13.5,122.5 13.5,123.5C 12.5,123.5 11.5,123.5 10.5,123.5C 10.5,122.5 10.5,121.5 10.5,120.5 Z"/></g>
<g><path style="opacity:1" fill="#727272" d="M 29.5,119.5 C 30.9348,120.79 31.9348,122.456 32.5,124.5C 33.3567,123.264 34.0234,121.931 34.5,120.5C 35.325,119.614 36.325,119.281 37.5,119.5C 38.1062,126.521 39.1062,126.854 40.5,120.5C 41.0016,119.479 41.6683,119.312 42.5,120C 41.5335,123.101 40.2002,125.934 38.5,128.5C 37.3764,126.631 36.5431,124.631 36,122.5C 35.1241,124.725 33.9574,126.725 32.5,128.5C 30.7357,125.785 29.7357,122.785 29.5,119.5 Z"/></g>
<g><path style="opacity:1" fill="#696969" d="M 85.5,118.5 C 86.404,119.209 86.7373,120.209 86.5,121.5C 91.9136,120.565 93.9136,122.565 92.5,127.5C 90.2573,128.474 87.924,128.808 85.5,128.5C 85.5,125.167 85.5,121.833 85.5,118.5 Z"/></g>
<g><path style="opacity:1" fill="#717171" d="M 19.5,119.5 C 26.9974,118.804 28.9974,121.637 25.5,128C 17.749,129.091 15.749,126.258 19.5,119.5 Z"/></g>
<g><path style="opacity:1" fill="#f6f6f6" d="M 20.5,120.5 C 25.3276,120.385 26.6609,122.552 24.5,127C 19.5705,127.427 18.2372,125.26 20.5,120.5 Z"/></g>
<g><path style="opacity:1" fill="#ededed" d="M 87.5,122.5 C 91.1612,122.35 92.1612,123.85 90.5,127C 86.7071,127.487 85.7071,125.987 87.5,122.5 Z"/></g>
<g><path style="opacity:1" fill="#5e5e5e" d="M 62.5,119.5 C 68.1667,119.664 68.5,119.997 63.5,120.5C 63.5,121.5 63.5,122.5 63.5,123.5C 68.8333,123.833 68.8333,124.167 63.5,124.5C 63.5,125.5 63.5,126.5 63.5,127.5C 68.5,128.003 68.1667,128.336 62.5,128.5C 62.5,125.5 62.5,122.5 62.5,119.5 Z"/></g>
<g><path style="opacity:1" fill="#c04847" d="M 119.5,121.5 C 119.302,130.208 118.302,130.542 116.5,122.5C 115.432,121.566 114.099,121.232 112.5,121.5C 112.5,124.167 112.5,126.833 112.5,129.5C 111.5,129.5 110.5,129.5 109.5,129.5C 109.335,126.482 109.502,123.482 110,120.5C 113.622,116.363 116.788,116.696 119.5,121.5 Z"/></g>
<g><path style="opacity:1" fill="#c64e49" d="M 142.5,128.5 C 139.609,129.403 136.609,129.736 133.5,129.5C 133.281,128.325 133.614,127.325 134.5,126.5C 136.198,127.681 137.865,127.681 139.5,126.5C 137.887,125.573 136.221,124.739 134.5,124C 133.167,122.333 133.167,120.667 134.5,119C 136.902,118.186 139.235,118.353 141.5,119.5C 140.167,120.167 138.833,120.833 137.5,121.5C 138.914,122.624 140.414,123.624 142,124.5C 142.49,125.793 142.657,127.127 142.5,128.5 Z"/></g>
<g><path style="opacity:1" fill="#6c6c6c" d="M 44.5,119.5 C 46.1992,119.34 47.8659,119.506 49.5,120C 48.552,120.483 47.552,120.649 46.5,120.5C 46.5,121.5 46.5,122.5 46.5,123.5C 50.5,123.833 50.5,124.167 46.5,124.5C 46.5,125.5 46.5,126.5 46.5,127.5C 47.552,127.351 48.552,127.517 49.5,128C 47.8659,128.494 46.1992,128.66 44.5,128.5C 44.5,125.5 44.5,122.5 44.5,119.5 Z"/></g>
<g><path style="opacity:1" fill="#6b6b6b" d="M 52.5,119.5 C 54.7925,119.244 56.9592,119.577 59,120.5C 58.0509,123.104 57.7176,125.771 58,128.5C 56.3601,124.66 54.8601,124.66 53.5,128.5C 52.5159,125.572 52.1826,122.572 52.5,119.5 Z"/></g>
<g><path style="opacity:1" fill="#f8f8f8" d="M 54.5,120.5 C 55.5,120.5 56.5,120.5 57.5,120.5C 57.5,121.5 57.5,122.5 57.5,123.5C 56.5,123.5 55.5,123.5 54.5,123.5C 54.5,122.5 54.5,121.5 54.5,120.5 Z"/></g>
<g><path style="opacity:1" fill="#686868" d="M 70.5,119.5 C 77.9974,118.804 79.9974,121.637 76.5,128C 74.5273,128.495 72.5273,128.662 70.5,128.5C 70.5,125.5 70.5,122.5 70.5,119.5 Z"/></g>
<g><path style="opacity:1" fill="#f1f1f1" d="M 71.5,120.5 C 76.3276,120.385 77.6609,122.552 75.5,127C 74.2068,127.49 72.8734,127.657 71.5,127.5C 71.5,125.167 71.5,122.833 71.5,120.5 Z"/></g>
<g><path style="opacity:1" fill="#c6413b" d="M 157.5,129.5 C 157.167,129.5 156.833,129.5 156.5,129.5C 151.367,122.259 153.367,118.592 162.5,118.5C 162.5,119.5 162.5,120.5 162.5,121.5C 160.533,121.261 158.699,121.594 157,122.5C 156.785,126.128 158.619,128.128 162.5,128.5C 160.955,129.452 159.288,129.785 157.5,129.5 Z"/></g>
<g><path style="opacity:1" fill="#c14947" d="M 194.5,129.5 C 193.5,129.5 192.5,129.5 191.5,129.5C 191.5,126.833 191.5,124.167 191.5,121.5C 190.167,121.5 188.833,121.5 187.5,121.5C 187.5,124.167 187.5,126.833 187.5,129.5C 186.5,129.5 185.5,129.5 184.5,129.5C 184.5,126.833 184.5,124.167 184.5,121.5C 183.5,121.5 182.5,121.5 181.5,121.5C 181.5,124.167 181.5,126.833 181.5,129.5C 180.5,129.5 179.5,129.5 178.5,129.5C 177.238,118.271 181.904,114.771 192.5,119C 193,119.5 193.5,120 194,120.5C 194.498,123.482 194.665,126.482 194.5,129.5 Z"/></g>
<g><path style="opacity:1" fill="#c04744" d="M 122.5,118.5 C 130.838,117.518 133.838,121.185 131.5,129.5C 128.223,129.784 125.057,129.451 122,128.5C 121.367,123.798 123.534,121.631 128.5,122C 126.798,120.282 124.965,120.115 123,121.5C 122.517,120.552 122.351,119.552 122.5,118.5 Z"/></g>
<g><path style="opacity:1" fill="#f6dddd" d="M 125.5,124.5 C 126.5,124.5 127.5,124.5 128.5,124.5C 128.5,125.5 128.5,126.5 128.5,127.5C 125.433,127.879 124.433,126.879 125.5,124.5 Z"/></g>
<g><path style="opacity:1" fill="#c14943" d="M 151.5,129.5 C 148.615,129.806 145.948,129.473 143.5,128.5C 145.369,127.835 147.369,127.169 149.5,126.5C 147.887,125.573 146.221,124.739 144.5,124C 143.167,122.333 143.167,120.667 144.5,119C 146.902,118.186 149.235,118.353 151.5,119.5C 150.167,120.167 148.833,120.833 147.5,121.5C 148.914,122.624 150.414,123.624 152,124.5C 152.64,126.265 152.473,127.932 151.5,129.5 Z"/></g>
<g><path style="opacity:1" fill="#c2423d" d="M 175.5,127.5 C 174.5,128.167 173.5,128.833 172.5,129.5C 164.823,129.319 162.823,125.819 166.5,119C 173.834,117.167 176.834,120 175.5,127.5 Z"/></g>
<g><path style="opacity:1" fill="#f6edeb" d="M 168.5,121.5 C 173.587,121.284 174.587,123.118 171.5,127C 167.83,126.836 166.83,125.003 168.5,121.5 Z"/></g>
<g><path style="opacity:1" fill="#707373" d="M 95.5,121.5 C 96.8503,122.483 97.8503,123.816 98.5,125.5C 99.5,124.167 100.5,122.833 101.5,121.5C 101.163,125.284 99.6628,128.95 97,132.5C 97.3059,128.847 96.8059,125.18 95.5,121.5 Z"/></g>
<g><path style="opacity:1" fill="#dfa099" d="M 119.5,121.5 C 120.473,123.948 120.806,126.615 120.5,129.5C 119.167,129.5 117.833,129.5 116.5,129.5C 116.5,127.167 116.5,124.833 116.5,122.5C 118.302,130.542 119.302,130.208 119.5,121.5 Z"/></g>
</svg>
