<?xml version="1.0" encoding="UTF-8"?>
<!DOCTYPE svg PUBLIC "-//W3C//DTD SVG 1.1//EN" "http://www.w3.org/Graphics/SVG/1.1/DTD/svg11.dtd">
<svg xmlns="http://www.w3.org/2000/svg" version="1.1" width="2436px" height="1200px" style="shape-rendering:geometricPrecision; text-rendering:geometricPrecision; image-rendering:optimizeQuality; fill-rule:evenodd; clip-rule:evenodd" xmlns:xlink="http://www.w3.org/1999/xlink">
<g><path style="opacity:1" fill="#fefefe" d="M -0.5,-0.5 C 811.5,-0.5 1623.5,-0.5 2435.5,-0.5C 2435.5,399.5 2435.5,799.5 2435.5,1199.5C 1623.5,1199.5 811.5,1199.5 -0.5,1199.5C -0.5,799.5 -0.5,399.5 -0.5,-0.5 Z"/></g>
<g><path style="opacity:1" fill="#92b7f8" d="M 457.5,495.5 C 451.709,496.979 445.709,497.979 439.5,498.5C 441.811,496.932 444.478,496.098 447.5,496C 450.817,495.502 454.15,495.335 457.5,495.5 Z"/></g>
<g><path style="opacity:1" fill="#548ded" d="M 463.5,495.5 C 467.868,495.37 472.202,495.703 476.5,496.5C 484.971,498.603 492.971,501.603 500.5,505.5C 496.846,505.058 493.179,504.724 489.5,504.5C 489.5,503.5 489.5,502.5 489.5,501.5C 485.921,501.684 482.587,501.017 479.5,499.5C 479.5,500.833 479.5,502.167 479.5,503.5C 474.125,503.828 468.792,503.495 463.5,502.5C 468.208,501.816 472.874,500.982 477.5,500C 472.475,498.823 467.809,497.323 463.5,495.5 Z"/></g>
<g><path style="opacity:1" fill="#91b1ea" d="M 429.5,501.5 C 429.047,502.458 428.381,503.292 427.5,504C 423.328,505.588 419.328,507.421 415.5,509.5C 419.539,505.811 424.206,503.145 429.5,501.5 Z"/></g>
<g><path style="opacity:1" fill="#b8bbbe" d="M 1407.5,508.5 C 1400.11,508.236 1392.78,508.57 1385.5,509.5C 1385.61,508.883 1385.94,508.383 1386.5,508C 1393.68,507.179 1400.68,507.345 1407.5,508.5 Z"/></g>
<g><path style="opacity:1" fill="#92b0f1" d="M 503.5,507.5 C 505.749,508.08 507.415,509.413 508.5,511.5C 506.251,510.92 504.585,509.587 503.5,507.5 Z"/></g>
<g><path style="opacity:1" fill="#cef0d2" d="M 915.5,500.5 C 908.245,500.187 901.079,500.52 894,501.5C 893.5,552.166 893.333,602.832 893.5,653.5C 892.335,602.668 892.168,551.668 893,500.5C 900.598,499.173 908.098,499.173 915.5,500.5 Z"/></g>
<g><path style="opacity:1" fill="#62656a" d="M 1407.5,508.5 C 1411.77,509.702 1416.1,511.035 1420.5,512.5C 1429.76,517.257 1436.93,524.257 1442,533.5C 1442.49,534.793 1442.66,536.127 1442.5,537.5C 1436.79,538.858 1431.45,541.192 1426.5,544.5C 1422.94,537.939 1417.94,532.605 1411.5,528.5C 1411.39,527.883 1411.06,527.383 1410.5,527C 1402.62,524.904 1394.96,525.071 1387.5,527.5C 1373.12,534.541 1370.29,544.874 1379,558.5C 1389.75,564.808 1401.25,569.641 1413.5,573C 1423.1,577.432 1431.77,583.266 1439.5,590.5C 1441.86,595.227 1444.2,599.894 1446.5,604.5C 1446.69,612.201 1446.36,619.868 1445.5,627.5C 1445.31,629.564 1444.81,631.564 1444,633.5C 1439.9,638.608 1435.4,643.442 1430.5,648C 1426.02,650.09 1421.69,652.257 1417.5,654.5C 1411.08,655.612 1404.58,656.279 1398,656.5C 1394.12,656.428 1390.28,656.095 1386.5,655.5C 1367.23,649.567 1355.23,636.901 1350.5,617.5C 1356.34,614.774 1362.34,612.441 1368.5,610.5C 1370.72,624.057 1378.38,633.057 1391.5,637.5C 1391.92,638.222 1392.58,638.722 1393.5,639C 1396,639.167 1398.5,639.333 1401,639.5C 1404.8,639.696 1408.3,639.03 1411.5,637.5C 1419.55,634.449 1424.88,628.782 1427.5,620.5C 1428.16,618.866 1428.49,617.033 1428.5,615C 1428.7,612.134 1428.03,609.634 1426.5,607.5C 1424.08,603.572 1421.08,600.072 1417.5,597C 1405.87,591.354 1393.87,586.521 1381.5,582.5C 1356.84,571.185 1349.34,552.851 1359,527.5C 1365.58,518.072 1374.41,512.072 1385.5,509.5C 1392.78,508.57 1400.11,508.236 1407.5,508.5 Z"/></g>
<g><path style="opacity:1" fill="#c7c8ca" d="M 1407.5,508.5 C 1412.48,508.156 1416.82,509.489 1420.5,512.5C 1416.1,511.035 1411.77,509.702 1407.5,508.5 Z"/></g>
<g><path style="opacity:1" fill="#bbbfc2" d="M 1411.5,528.5 C 1403.6,526.18 1395.6,525.847 1387.5,527.5C 1394.96,525.071 1402.62,524.904 1410.5,527C 1411.06,527.383 1411.39,527.883 1411.5,528.5 Z"/></g>
<g><path style="opacity:1" fill="#616469" d="M 1135.5,527.5 C 1134.42,528.018 1133.26,528.352 1132,528.5C 1125.53,525.394 1119.7,526.06 1114.5,530.5C 1111.73,531.996 1109.9,534.33 1109,537.5C 1108.5,543.491 1108.33,549.491 1108.5,555.5C 1116.65,556.493 1124.98,556.826 1133.5,556.5C 1133.5,561.833 1133.5,567.167 1133.5,572.5C 1124.83,572.5 1116.17,572.5 1107.5,572.5C 1107.5,599.5 1107.5,626.5 1107.5,653.5C 1101.83,653.5 1096.17,653.5 1090.5,653.5C 1090.5,626.5 1090.5,599.5 1090.5,572.5C 1084.5,572.5 1078.5,572.5 1072.5,572.5C 1072.5,567.5 1072.5,562.5 1072.5,557.5C 1078.5,557.5 1084.5,557.5 1090.5,557.5C 1090.5,551.167 1090.5,544.833 1090.5,538.5C 1090.4,535.763 1090.73,533.096 1091.5,530.5C 1091.69,528.436 1092.19,526.436 1093,524.5C 1096.5,521 1100,517.5 1103.5,514C 1106.46,511.707 1109.79,510.373 1113.5,510C 1120.17,509.333 1126.83,509.333 1133.5,510C 1135.89,511.013 1137.56,512.68 1138.5,515C 1137.8,519.329 1136.8,523.496 1135.5,527.5 Z"/></g>
<g><path style="opacity:1" fill="#4383f7" d="M 409.5,515.5 C 410.573,516.251 410.74,517.251 410,518.5C 407.126,519.532 405.626,521.532 405.5,524.5C 406.5,524.5 407.5,524.5 408.5,524.5C 408.662,526.527 408.495,528.527 408,530.5C 406.333,531.5 404.667,532.5 403,533.5C 402.744,536.557 402.244,539.557 401.5,542.5C 404.189,544.662 403.855,546.329 400.5,547.5C 399.251,541.738 397.251,536.405 394.5,531.5C 396.274,530.119 397.774,530.452 399,532.5C 400.771,529.573 401.438,526.573 401,523.5C 403.114,520.034 405.948,517.367 409.5,515.5 Z"/></g>
<g><path style="opacity:1" fill="#616469" d="M 1488.5,555.5 C 1496.17,555.5 1503.83,555.5 1511.5,555.5C 1511.5,561.167 1511.5,566.833 1511.5,572.5C 1503.5,572.5 1495.5,572.5 1487.5,572.5C 1487.17,591.674 1487.5,610.674 1488.5,629.5C 1489.92,632.758 1492.25,635.258 1495.5,637C 1499.91,637.532 1504.24,637.532 1508.5,637C 1510.61,642.415 1512.28,647.915 1513.5,653.5C 1511.1,653.448 1508.76,653.781 1506.5,654.5C 1500.11,654.751 1493.77,654.418 1487.5,653.5C 1479.15,650.151 1473.49,644.151 1470.5,635.5C 1469.55,614.527 1469.21,593.527 1469.5,572.5C 1463.83,572.5 1458.17,572.5 1452.5,572.5C 1452.5,567.167 1452.5,561.833 1452.5,556.5C 1458.17,556.5 1463.83,556.5 1469.5,556.5C 1469.5,546.833 1469.5,537.167 1469.5,527.5C 1475.41,526.545 1481.41,526.211 1487.5,526.5C 1487.17,536.348 1487.51,546.014 1488.5,555.5 Z"/></g>
<g><path style="opacity:1" fill="#b2b2b3" d="M 1469.5,525.5 C 1475.83,525.5 1482.17,525.5 1488.5,525.5C 1488.5,535.5 1488.5,545.5 1488.5,555.5C 1487.51,546.014 1487.17,536.348 1487.5,526.5C 1481.41,526.211 1475.41,526.545 1469.5,527.5C 1469.5,526.833 1469.5,526.167 1469.5,525.5 Z"/></g>
<g><path style="opacity:1" fill="#c2c3c5" d="M 1728.5,526.5 C 1722.5,526.5 1716.5,526.5 1710.5,526.5C 1710.5,536.167 1710.5,545.833 1710.5,555.5C 1705.02,556.489 1699.36,556.822 1693.5,556.5C 1693.5,561.833 1693.5,567.167 1693.5,572.5C 1692.35,567.015 1692.18,561.349 1693,555.5C 1698.41,554.527 1703.91,554.193 1709.5,554.5C 1709.5,544.833 1709.5,535.167 1709.5,525.5C 1716.02,525.177 1722.36,525.51 1728.5,526.5 Z"/></g>
<g><path style="opacity:1" fill="#616368" d="M 1728.5,555.5 C 1736.32,556.492 1744.32,556.826 1752.5,556.5C 1752.5,561.833 1752.5,567.167 1752.5,572.5C 1744.5,572.5 1736.5,572.5 1728.5,572.5C 1728.17,590.674 1728.5,608.674 1729.5,626.5C 1730.98,635.807 1736.31,639.307 1745.5,637C 1746.56,635.812 1747.9,635.312 1749.5,635.5C 1750.67,639.543 1752.17,643.543 1754,647.5C 1754.5,649.473 1754.66,651.473 1754.5,653.5C 1753.5,653.5 1752.5,653.5 1751.5,653.5C 1744.2,654.302 1736.86,654.635 1729.5,654.5C 1720.91,651.576 1714.91,645.91 1711.5,637.5C 1711.5,615.833 1711.5,594.167 1711.5,572.5C 1705.5,572.5 1699.5,572.5 1693.5,572.5C 1693.5,567.167 1693.5,561.833 1693.5,556.5C 1699.36,556.822 1705.02,556.489 1710.5,555.5C 1711.49,546.348 1711.83,537.015 1711.5,527.5C 1716.83,527.5 1722.17,527.5 1727.5,527.5C 1727.17,537.015 1727.51,546.348 1728.5,555.5 Z"/></g>
<g><path style="opacity:1" fill="#7e7e81" d="M 1728.5,526.5 C 1728.5,536.167 1728.5,545.833 1728.5,555.5C 1727.51,546.348 1727.17,537.015 1727.5,527.5C 1722.17,527.5 1716.83,527.5 1711.5,527.5C 1711.83,537.015 1711.49,546.348 1710.5,555.5C 1710.5,545.833 1710.5,536.167 1710.5,526.5C 1716.5,526.5 1722.5,526.5 1728.5,526.5 Z"/></g>
<g><path style="opacity:1" fill="#6d99f0" d="M 411.5,512.5 C 410.833,513.5 410.167,514.5 409.5,515.5C 405.948,517.367 403.114,520.034 401,523.5C 401.438,526.573 400.771,529.573 399,532.5C 397.774,530.452 396.274,530.119 394.5,531.5C 393.527,533.139 392.194,534.473 390.5,535.5C 391.723,532.726 393.223,530.059 395,527.5C 397.706,525.129 400.039,522.463 402,519.5C 405.063,516.924 408.229,514.591 411.5,512.5 Z"/></g>
<g><path style="opacity:1" fill="#d5d6d8" d="M 1135.5,527.5 C 1134.49,528.765 1132.99,529.431 1131,529.5C 1128.44,529.043 1125.94,528.376 1123.5,527.5C 1120.58,528.797 1117.58,529.797 1114.5,530.5C 1119.7,526.06 1125.53,525.394 1132,528.5C 1133.26,528.352 1134.42,528.018 1135.5,527.5 Z"/></g>
<g><path style="opacity:1" fill="#93b5f6" d="M 390.5,535.5 C 390.245,537.967 389.245,539.967 387.5,541.5C 387.755,539.033 388.755,537.033 390.5,535.5 Z"/></g>
<g><path style="opacity:1" fill="#7ca2ed" d="M 386.5,542.5 C 386.664,545.187 386.497,547.854 386,550.5C 383.869,552.117 382.369,554.117 381.5,556.5C 382.297,551.424 383.964,546.758 386.5,542.5 Z"/></g>
<g><path style="opacity:1" fill="#feefcb" d="M 723.5,553.5 C 715.096,552.117 706.762,552.45 698.5,554.5C 698.611,553.883 698.944,553.383 699.5,553C 707.125,551.628 714.792,551.294 722.5,552C 723.056,552.383 723.389,552.883 723.5,553.5 Z"/></g>
<g><path style="opacity:1" fill="#93b4f6" d="M 833.5,553.5 C 826.401,553.341 819.401,554.008 812.5,555.5C 814.026,553.87 816.026,553.037 818.5,553C 823.684,552.184 828.684,552.35 833.5,553.5 Z"/></g>
<g><path style="opacity:1" fill="#4686f3" d="M 457.5,495.5 C 459.5,495.5 461.5,495.5 463.5,495.5C 467.809,497.323 472.475,498.823 477.5,500C 472.874,500.982 468.208,501.816 463.5,502.5C 468.792,503.495 474.125,503.828 479.5,503.5C 479.5,502.167 479.5,500.833 479.5,499.5C 482.587,501.017 485.921,501.684 489.5,501.5C 489.5,502.5 489.5,503.5 489.5,504.5C 493.179,504.724 496.846,505.058 500.5,505.5C 500.973,506.906 501.973,507.573 503.5,507.5C 504.585,509.587 506.251,510.92 508.5,511.5C 510.748,512.896 512.914,514.563 515,516.5C 515.667,517.5 515.667,518.5 515,519.5C 510.86,523.64 506.694,527.806 502.5,532C 498.43,532.975 496.097,531.475 495.5,527.5C 488.508,524.848 481.508,522.182 474.5,519.5C 473.737,518.732 472.737,518.232 471.5,518C 468.167,517.833 464.833,517.667 461.5,517.5C 456.563,517.3 451.896,517.967 447.5,519.5C 444.101,520.016 440.768,520.85 437.5,522C 435.676,522.66 434.343,523.827 433.5,525.5C 428.136,527.601 423.302,530.601 419,534.5C 416.874,538.493 414.207,542.16 411,545.5C 405.156,557.537 402.823,570.203 404,583.5C 405.346,589.217 406.846,594.883 408.5,600.5C 409.226,603.179 410.059,605.846 411,608.5C 411.671,609.252 412.504,609.586 413.5,609.5C 417.805,614.141 422.139,618.807 426.5,623.5C 425.85,623.804 425.183,624.137 424.5,624.5C 423.865,627.972 422.865,631.305 421.5,634.5C 419.854,633.221 418.687,631.555 418,629.5C 417.403,626.042 416.403,622.709 415,619.5C 412.876,620.227 410.709,620.894 408.5,621.5C 406.684,620.185 405.017,618.685 403.5,617C 404.34,615.334 403.84,615.167 402,616.5C 399.59,614.108 398.09,614.774 397.5,618.5C 397.667,619.5 397.833,620.5 398,621.5C 401.669,619.991 403.169,621.324 402.5,625.5C 405.076,626.107 407.409,627.274 409.5,629C 408.333,629.5 407.5,630.333 407,631.5C 406.035,629.74 404.868,629.406 403.5,630.5C 404.952,631.94 405.952,633.606 406.5,635.5C 398.082,629.34 392.082,621.34 388.5,611.5C 387.895,608.873 387.395,606.207 387,603.5C 386.29,602.027 385.124,601.36 383.5,601.5C 382.286,598.177 381.286,594.843 380.5,591.5C 379.332,582.154 379.332,572.821 380.5,563.5C 380.674,561.139 381.007,558.806 381.5,556.5C 382.369,554.117 383.869,552.117 386,550.5C 386.497,547.854 386.664,545.187 386.5,542.5C 386.5,541.833 386.833,541.5 387.5,541.5C 389.245,539.967 390.245,537.967 390.5,535.5C 392.194,534.473 393.527,533.139 394.5,531.5C 397.251,536.405 399.251,541.738 400.5,547.5C 403.855,546.329 404.189,544.662 401.5,542.5C 402.244,539.557 402.744,536.557 403,533.5C 404.667,532.5 406.333,531.5 408,530.5C 408.495,528.527 408.662,526.527 408.5,524.5C 407.5,524.5 406.5,524.5 405.5,524.5C 405.626,521.532 407.126,519.532 410,518.5C 410.74,517.251 410.573,516.251 409.5,515.5C 410.167,514.5 410.833,513.5 411.5,512.5C 412.262,510.738 413.596,509.738 415.5,509.5C 419.328,507.421 423.328,505.588 427.5,504C 428.381,503.292 429.047,502.458 429.5,501.5C 432.659,499.92 435.993,498.92 439.5,498.5C 445.709,497.979 451.709,496.979 457.5,495.5 Z"/></g>
<g><path style="opacity:1" fill="#c7dffd" d="M 447.5,519.5 C 442.981,521.415 438.315,523.415 433.5,525.5C 434.343,523.827 435.676,522.66 437.5,522C 440.768,520.85 444.101,520.016 447.5,519.5 Z"/></g>
<g><path style="opacity:1" fill="#a3c1f8" d="M 474.5,519.5 C 465.505,518.203 456.505,518.203 447.5,519.5C 451.896,517.967 456.563,517.3 461.5,517.5C 464.833,517.667 468.167,517.833 471.5,518C 472.737,518.232 473.737,518.732 474.5,519.5 Z"/></g>
<g><path style="opacity:1" fill="#eb6f65" d="M 610.5,553.5 C 610.5,553.833 610.5,554.167 610.5,554.5C 603.167,554.5 595.833,554.5 588.5,554.5C 588.5,554.167 588.5,553.833 588.5,553.5C 595.846,552.26 603.179,552.26 610.5,553.5 Z"/></g>
<g><path style="opacity:1" fill="#ee7f79" d="M 989.5,554.5 C 981.507,553.297 973.507,553.297 965.5,554.5C 968.55,553.065 971.883,552.398 975.5,552.5C 980.376,552.69 985.043,553.357 989.5,554.5 Z"/></g>
<g><path style="opacity:1" fill="#fcccc4" d="M 610.5,554.5 C 610.5,554.167 610.5,553.833 610.5,553.5C 613.914,553.736 617.247,554.402 620.5,555.5C 621.993,556.141 622.993,557.141 623.5,558.5C 619.412,556.414 615.078,555.081 610.5,554.5 Z"/></g>
<g><path style="opacity:1" fill="#616469" d="M 1679.5,572.5 C 1673.16,572.334 1666.82,572.5 1660.5,573C 1658.88,573.236 1657.88,574.069 1657.5,575.5C 1651.8,577.865 1647.8,581.865 1645.5,587.5C 1644.44,588.6 1643.61,589.934 1643,591.5C 1642.5,612.164 1642.33,632.831 1642.5,653.5C 1636.5,653.5 1630.5,653.5 1624.5,653.5C 1624.5,621.167 1624.5,588.833 1624.5,556.5C 1630.17,556.5 1635.83,556.5 1641.5,556.5C 1641.17,561.544 1641.51,566.544 1642.5,571.5C 1643.43,570.643 1644.09,569.643 1644.5,568.5C 1645.48,565.011 1647.48,562.177 1650.5,560C 1659.2,554.084 1668.86,551.917 1679.5,553.5C 1679.5,559.833 1679.5,566.167 1679.5,572.5 Z"/></g>
<g><path style="opacity:1" fill="#626469" d="M 1966.5,594.5 C 1966.91,604.297 1966.24,613.964 1964.5,623.5C 1955.22,647.496 1937.55,658.329 1911.5,656C 1902.67,653.76 1895.34,649.26 1889.5,642.5C 1889.44,641.957 1889.11,641.624 1888.5,641.5C 1887.5,659.488 1887.17,677.488 1887.5,695.5C 1881.83,695.5 1876.17,695.5 1870.5,695.5C 1870.5,649.167 1870.5,602.833 1870.5,556.5C 1875.83,556.5 1881.17,556.5 1886.5,556.5C 1886.5,560.833 1886.5,565.167 1886.5,569.5C 1888.18,569.715 1889.18,569.048 1889.5,567.5C 1896.83,557.587 1906.83,552.587 1919.5,552.5C 1940.74,553.566 1955.57,563.9 1964,583.5C 1964.99,587.145 1965.83,590.812 1966.5,594.5 Z"/></g>
<g><path style="opacity:1" fill="#63656a" d="M 2055.5,617.5 C 2055.5,622.833 2055.5,628.167 2055.5,633.5C 2055.48,635.06 2055.15,636.56 2054.5,638C 2049.91,644.429 2044.24,649.596 2037.5,653.5C 2030.65,655.423 2023.65,656.423 2016.5,656.5C 2011.29,656.664 2006.29,655.998 2001.5,654.5C 1989.69,649.699 1981.03,641.366 1975.5,629.5C 1976.72,627.022 1978.72,626.022 1981.5,626.5C 1984.34,625.889 1987,624.889 1989.5,623.5C 1990.85,623.846 1992.18,624.179 1993.5,624.5C 1996.15,628.817 1999.49,632.484 2003.5,635.5C 2005.92,638.762 2009.26,640.262 2013.5,640C 2018.14,640.939 2022.47,640.439 2026.5,638.5C 2042.47,630.952 2042.47,623.286 2026.5,615.5C 2024.61,613.689 2022.28,612.522 2019.5,612C 2015.51,611.358 2011.51,610.858 2007.5,610.5C 2004.12,608.651 2000.45,607.484 1996.5,607C 1977.37,596.54 1973.71,582.04 1985.5,563.5C 1987.67,560.988 1990.34,559.321 1993.5,558.5C 1997.8,557.345 2001.8,555.679 2005.5,553.5C 2024.26,550.143 2040.1,555.477 2053,569.5C 2055.15,572.216 2054.98,574.716 2052.5,577C 2047.69,577.781 2043.36,579.615 2039.5,582.5C 2029.74,569.64 2017.41,566.473 2002.5,573C 1995.84,578.619 1995.84,584.286 2002.5,590C 2013.1,593.316 2023.77,596.316 2034.5,599C 2041.73,601.553 2047.89,605.72 2053,611.5C 2054.12,613.407 2054.96,615.407 2055.5,617.5 Z"/></g>
<g><path style="opacity:1" fill="#e67d6f" d="M 965.5,554.5 C 963.898,556.074 961.898,556.741 959.5,556.5C 961.102,554.926 963.102,554.259 965.5,554.5 Z"/></g>
<g><path style="opacity:1" fill="#a4a4a8" d="M 1728.5,526.5 C 1729.49,535.986 1729.83,545.652 1729.5,555.5C 1737.35,555.175 1745.02,555.508 1752.5,556.5C 1744.32,556.826 1736.32,556.492 1728.5,555.5C 1728.5,545.833 1728.5,536.167 1728.5,526.5 Z"/></g>
<g><path style="opacity:1" fill="#f19e94" d="M 588.5,553.5 C 588.5,553.833 588.5,554.167 588.5,554.5C 584.167,555.833 579.833,557.167 575.5,558.5C 575.611,557.883 575.944,557.383 576.5,557C 580.447,555.516 584.447,554.35 588.5,553.5 Z"/></g>
<g><path style="opacity:1" fill="#fdf1c9" d="M 697.5,554.5 C 696.167,555.5 694.833,556.5 693.5,557.5C 691.685,558.63 689.685,559.296 687.5,559.5C 687.5,558.5 687.5,557.5 687.5,556.5C 690.833,555.833 694.167,555.167 697.5,554.5 Z"/></g>
<g><path style="opacity:1" fill="#f7cb55" d="M 723.5,553.5 C 725.786,553.595 727.786,554.262 729.5,555.5C 720.186,554.516 710.852,554.349 701.5,555C 699.091,556.707 696.425,557.54 693.5,557.5C 694.833,556.5 696.167,555.5 697.5,554.5C 697.833,554.5 698.167,554.5 698.5,554.5C 706.762,552.45 715.096,552.117 723.5,553.5 Z"/></g>
<g><path style="opacity:1" fill="#fef5ce" d="M 731.5,555.5 C 733.857,555.337 736.19,555.503 738.5,556C 739.823,556.816 740.489,557.983 740.5,559.5C 737.57,557.865 734.57,556.532 731.5,555.5 Z"/></g>
<g><path style="opacity:1" fill="#c2c2c6" d="M 1469.5,525.5 C 1469.5,526.167 1469.5,526.833 1469.5,527.5C 1469.5,537.167 1469.5,546.833 1469.5,556.5C 1463.83,556.5 1458.17,556.5 1452.5,556.5C 1452.5,561.833 1452.5,567.167 1452.5,572.5C 1451.35,567.015 1451.18,561.349 1452,555.5C 1457.41,554.527 1462.91,554.193 1468.5,554.5C 1468.17,544.652 1468.51,534.986 1469.5,525.5 Z"/></g>
<g><path style="opacity:1" fill="#eb8680" d="M 959.5,556.5 C 957.97,558.346 955.97,559.346 953.5,559.5C 955.03,557.654 957.03,556.654 959.5,556.5 Z"/></g>
<g><path style="opacity:1" fill="#616468" d="M 1274.5,585.5 C 1272.42,588.075 1271.09,591.075 1270.5,594.5C 1269.5,613.659 1269.17,632.993 1269.5,652.5C 1264.17,652.5 1258.83,652.5 1253.5,652.5C 1253.5,620.5 1253.5,588.5 1253.5,556.5C 1258.83,556.5 1264.17,556.5 1269.5,556.5C 1269.17,561.214 1269.51,565.88 1270.5,570.5C 1271.92,569.995 1272.59,568.995 1272.5,567.5C 1276.76,561.431 1282.42,556.931 1289.5,554C 1295.83,553.333 1302.17,553.333 1308.5,554C 1309.76,554.923 1311.09,555.757 1312.5,556.5C 1310.72,561.459 1309.05,566.459 1307.5,571.5C 1301.19,572.331 1294.86,572.831 1288.5,573C 1282.39,575.609 1277.73,579.776 1274.5,585.5 Z"/></g>
<g><path style="opacity:1" fill="#616368" d="M 1784.5,556.5 C 1784.33,579.169 1784.5,601.836 1785,624.5C 1786.01,627.304 1787.51,629.637 1789.5,631.5C 1791.19,634.19 1793.53,636.19 1796.5,637.5C 1796.92,638.222 1797.58,638.722 1798.5,639C 1804.68,639.819 1810.68,639.653 1816.5,638.5C 1821.72,635.958 1826.05,632.291 1829.5,627.5C 1830.79,626.71 1831.96,625.71 1833,624.5C 1833.41,621.768 1834.08,619.101 1835,616.5C 1835.5,596.503 1835.67,576.503 1835.5,556.5C 1841.17,556.5 1846.83,556.5 1852.5,556.5C 1852.5,588.5 1852.5,620.5 1852.5,652.5C 1846.83,652.5 1841.17,652.5 1835.5,652.5C 1835.5,648.5 1835.5,644.5 1835.5,640.5C 1833.82,640.285 1832.82,640.952 1832.5,642.5C 1830.5,645.167 1828.17,647.5 1825.5,649.5C 1823.33,649.75 1821.66,650.75 1820.5,652.5C 1811.29,656.243 1801.63,657.41 1791.5,656C 1784.21,653.537 1778.21,649.37 1773.5,643.5C 1769.92,637.756 1767.92,631.422 1767.5,624.5C 1767.5,601.833 1767.5,579.167 1767.5,556.5C 1773.17,556.5 1778.83,556.5 1784.5,556.5 Z"/></g>
<g><path style="opacity:1" fill="#97989a" d="M 2005.5,553.5 C 2001.8,555.679 1997.8,557.345 1993.5,558.5C 1994.06,557.21 1995.06,556.377 1996.5,556C 1999.35,554.57 2002.35,553.737 2005.5,553.5 Z"/></g>
<g><path style="opacity:1" fill="#4187ef" d="M 873.5,556.5 C 875.048,556.821 875.715,557.821 875.5,559.5C 875.832,592.671 875.498,625.671 874.5,658.5C 874.5,625.5 874.5,592.5 874.5,559.5C 872.5,559.5 870.5,559.5 868.5,559.5C 868.167,586.175 868.5,612.842 869.5,639.5C 870.996,649.576 871.996,659.576 872.5,669.5C 872.631,670.376 872.298,671.043 871.5,671.5C 870.437,667.57 869.437,667.57 868.5,671.5C 866.365,634.466 865.032,596.966 864.5,559C 867.992,559.07 870.992,558.237 873.5,556.5 Z"/></g>
<g><path style="opacity:1" fill="#ea4336" d="M 588.5,554.5 C 595.833,554.5 603.167,554.5 610.5,554.5C 615.078,555.081 619.412,556.414 623.5,558.5C 629.049,561.875 634.216,565.875 639,570.5C 641.499,574.534 643.999,578.534 646.5,582.5C 646.528,585.916 647.528,588.916 649.5,591.5C 649.666,598.508 649.5,605.508 649,612.5C 647.18,618.108 645.68,623.774 644.5,629.5C 642.412,631.336 641.079,633.669 640.5,636.5C 639.833,637.5 639.167,638.5 638.5,639.5C 636.012,641.255 633.678,643.255 631.5,645.5C 629.71,646.761 628.043,648.261 626.5,650C 621.526,651.164 616.859,652.998 612.5,655.5C 605.167,655.5 597.833,655.5 590.5,655.5C 587.598,654.056 584.598,652.556 581.5,651C 582.634,649.984 582.301,649.317 580.5,649C 581.949,647.883 583.616,647.216 585.5,647C 583.527,646.505 581.527,646.338 579.5,646.5C 579.5,647.5 579.5,648.5 579.5,649.5C 578.167,649.5 576.833,649.5 575.5,649.5C 575.657,648.127 575.49,646.793 575,645.5C 574.481,646.516 573.647,647.182 572.5,647.5C 570.823,646.813 569.156,646.146 567.5,645.5C 565.498,642.666 562.998,640.333 560,638.5C 559.062,635.743 557.562,633.41 555.5,631.5C 554.147,628.795 552.814,626.128 551.5,623.5C 550.76,615.507 550.093,607.507 549.5,599.5C 549.5,596.833 549.5,594.167 549.5,591.5C 552.455,587.321 554.455,582.654 555.5,577.5C 557.192,575.795 558.525,573.795 559.5,571.5C 564.467,567.868 569.133,563.868 573.5,559.5C 574.492,559.672 575.158,559.338 575.5,558.5C 579.833,557.167 584.167,555.833 588.5,554.5 Z"/></g>
<g><path style="opacity:1" fill="#4184f5" d="M 874.5,658.5 C 873.833,662.167 873.167,665.833 872.5,669.5C 871.996,659.576 870.996,649.576 869.5,639.5C 868.5,612.842 868.167,586.175 868.5,559.5C 870.5,559.5 872.5,559.5 874.5,559.5C 874.5,592.5 874.5,625.5 874.5,658.5 Z"/></g>
<g><path style="opacity:1" fill="#6392ea" d="M 875.5,559.5 C 876.498,589.995 876.831,620.662 876.5,651.5C 876.885,661.508 874.885,670.842 870.5,679.5C 870.167,679.5 869.833,679.5 869.5,679.5C 869.894,678.033 870.227,676.533 870.5,675C 870.613,673.301 869.947,672.134 868.5,671.5C 869.437,667.57 870.437,667.57 871.5,671.5C 872.298,671.043 872.631,670.376 872.5,669.5C 873.167,665.833 873.833,662.167 874.5,658.5C 875.498,625.671 875.832,592.671 875.5,559.5 Z"/></g>
<g><path style="opacity:1" fill="#a9c4fb" d="M 876.5,651.5 C 876.831,620.662 876.498,589.995 875.5,559.5C 875.715,557.821 875.048,556.821 873.5,556.5C 867.5,556.5 861.5,556.5 855.5,556.5C 855.5,558.833 855.5,561.167 855.5,563.5C 852.122,564.109 850.122,562.776 849.5,559.5C 850.815,560.476 852.148,561.476 853.5,562.5C 854.474,560.257 854.808,557.924 854.5,555.5C 862.167,555.5 869.833,555.5 877.5,555.5C 877.832,587.671 877.498,619.671 876.5,651.5 Z"/></g>
<g><path style="opacity:1" fill="#b1b3b7" d="M 1272.5,567.5 C 1272.59,568.995 1271.92,569.995 1270.5,570.5C 1269.51,565.88 1269.17,561.214 1269.5,556.5C 1264.17,556.5 1258.83,556.5 1253.5,556.5C 1252.5,588.662 1252.17,620.996 1252.5,653.5C 1258.5,653.5 1264.5,653.5 1270.5,653.5C 1264.36,654.49 1258.02,654.823 1251.5,654.5C 1251.5,621.5 1251.5,588.5 1251.5,555.5C 1257.83,555.5 1264.17,555.5 1270.5,555.5C 1270.33,559.846 1270.5,564.179 1271,568.5C 1271.38,567.944 1271.88,567.611 1272.5,567.5 Z"/></g>
<g><path style="opacity:1" fill="#e9e9ec" d="M 1641.5,555.5 C 1635.5,555.5 1629.5,555.5 1623.5,555.5C 1623.5,588.167 1623.5,620.833 1623.5,653.5C 1622.5,620.671 1622.17,587.671 1622.5,554.5C 1629.02,554.177 1635.36,554.51 1641.5,555.5 Z"/></g>
<g><path style="opacity:1" fill="#aeaeb1" d="M 1641.5,555.5 C 1641.87,560.094 1642.87,564.427 1644.5,568.5C 1644.09,569.643 1643.43,570.643 1642.5,571.5C 1641.51,566.544 1641.17,561.544 1641.5,556.5C 1635.83,556.5 1630.17,556.5 1624.5,556.5C 1624.5,588.833 1624.5,621.167 1624.5,653.5C 1624.17,653.5 1623.83,653.5 1623.5,653.5C 1623.5,620.833 1623.5,588.167 1623.5,555.5C 1629.5,555.5 1635.5,555.5 1641.5,555.5 Z"/></g>
<g><path style="opacity:1" fill="#dedfe1" d="M 1766.5,555.5 C 1766.17,578.673 1766.5,601.673 1767.5,624.5C 1767.92,631.422 1769.92,637.756 1773.5,643.5C 1771.41,641.441 1769.57,639.107 1768,636.5C 1767.81,634.1 1767.31,631.766 1766.5,629.5C 1765.17,604.67 1765.17,580.003 1766.5,555.5 Z"/></g>
<g><path style="opacity:1" fill="#898a8e" d="M 1766.5,555.5 C 1772.69,555.177 1778.69,555.51 1784.5,556.5C 1778.83,556.5 1773.17,556.5 1767.5,556.5C 1767.5,579.167 1767.5,601.833 1767.5,624.5C 1766.5,601.673 1766.17,578.673 1766.5,555.5 Z"/></g>
<g><path style="opacity:1" fill="#9d9fa1" d="M 1784.5,556.5 C 1785.33,578.663 1785.83,600.996 1786,623.5C 1787.4,626.064 1788.56,628.731 1789.5,631.5C 1787.51,629.637 1786.01,627.304 1785,624.5C 1784.5,601.836 1784.33,579.169 1784.5,556.5 Z"/></g>
<g><path style="opacity:1" fill="#96969a" d="M 1889.5,567.5 C 1889.18,569.048 1888.18,569.715 1886.5,569.5C 1886.5,565.167 1886.5,560.833 1886.5,556.5C 1881.17,556.5 1875.83,556.5 1870.5,556.5C 1870.5,602.833 1870.5,649.167 1870.5,695.5C 1876.17,695.5 1881.83,695.5 1887.5,695.5C 1881.69,696.49 1875.69,696.823 1869.5,696.5C 1869.5,649.5 1869.5,602.5 1869.5,555.5C 1875.5,555.5 1881.5,555.5 1887.5,555.5C 1887.33,559.846 1887.5,564.179 1888,568.5C 1888.38,567.944 1888.88,567.611 1889.5,567.5 Z"/></g>
<g><path style="opacity:1" fill="#f7cc61" d="M 687.5,559.5 C 687.5,560.5 687.5,561.5 687.5,562.5C 684.744,562.716 682.41,563.716 680.5,565.5C 681.92,562.412 684.253,560.412 687.5,559.5 Z"/></g>
<g><path style="opacity:1" fill="#8bb0ed" d="M 806.5,557.5 C 799.629,562.025 793.295,567.358 787.5,573.5C 792.024,565.973 798.357,560.64 806.5,557.5 Z"/></g>
<g><path style="opacity:1" fill="#e4786f" d="M 953.5,559.5 C 950.461,562.54 947.127,565.206 943.5,567.5C 945.963,563.7 949.296,561.033 953.5,559.5 Z"/></g>
<g><path style="opacity:1" fill="#ed7d78" d="M 573.5,559.5 C 569.133,563.868 564.467,567.868 559.5,571.5C 563.278,566.383 567.945,562.383 573.5,559.5 Z"/></g>
<g><path style="opacity:1" fill="#acaeb1" d="M 1108.5,555.5 C 1117.17,555.5 1125.83,555.5 1134.5,555.5C 1134.5,561.167 1134.5,566.833 1134.5,572.5C 1134.17,572.5 1133.83,572.5 1133.5,572.5C 1133.5,567.167 1133.5,561.833 1133.5,556.5C 1124.98,556.826 1116.65,556.493 1108.5,555.5 Z"/></g>
<g><path style="opacity:1" fill="#62656a" d="M 1209.5,652.5 C 1206.06,653.511 1202.73,654.511 1199.5,655.5C 1192.83,655.666 1186.16,655.5 1179.5,655C 1174.93,653.62 1170.26,652.453 1165.5,651.5C 1154.34,645.521 1146.67,636.521 1142.5,624.5C 1138.87,611.632 1138.54,598.632 1141.5,585.5C 1144.25,582.288 1146.25,578.621 1147.5,574.5C 1148.07,572.745 1148.91,571.078 1150,569.5C 1166.83,551.859 1186.66,547.525 1209.5,556.5C 1218.57,561.445 1226.07,568.111 1232,576.5C 1234.49,581.255 1236.49,586.255 1238,591.5C 1242.36,614.628 1235.53,633.461 1217.5,648C 1214.65,649.397 1211.98,650.897 1209.5,652.5 Z"/></g>
<g><path style="opacity:1" fill="#ccdffc" d="M 535.5,591.5 C 535.5,584.5 535.5,577.5 535.5,570.5C 523.519,569.168 511.185,568.501 498.5,568.5C 485.995,568.5 473.662,568.833 461.5,569.5C 461.167,569.5 460.833,569.5 460.5,569.5C 485.478,567.509 510.811,566.843 536.5,567.5C 536.826,575.684 536.492,583.684 535.5,591.5 Z"/></g>
<g><path style="opacity:1" fill="#98baf6" d="M 461.5,569.5 C 473.662,568.833 485.995,568.5 498.5,568.5C 511.185,568.501 523.519,569.168 535.5,570.5C 510.908,569.51 486.241,569.177 461.5,569.5 Z"/></g>
<g><path style="opacity:1" fill="#ea4436" d="M 989.5,554.5 C 996.591,556.17 1002.59,559.503 1007.5,564.5C 1011.48,570.475 1015.81,576.142 1020.5,581.5C 1020.75,583.967 1021.75,585.967 1023.5,587.5C 1023.5,589.167 1023.5,590.833 1023.5,592.5C 1020.86,593.448 1018.19,594.448 1015.5,595.5C 1013.14,595.253 1011.14,595.919 1009.5,597.5C 1003.84,597.989 998.508,599.655 993.5,602.5C 992.388,603.265 991.721,604.265 991.5,605.5C 989.833,606.167 988.167,606.833 986.5,607.5C 982.22,608.241 978.554,609.907 975.5,612.5C 973.302,612.12 971.635,612.787 970.5,614.5C 969.791,615.404 968.791,615.737 967.5,615.5C 964.603,616.129 961.936,617.129 959.5,618.5C 954.261,619.434 953.261,622.101 956.5,626.5C 957.325,627.386 958.325,627.719 959.5,627.5C 961.223,629.218 963.223,630.551 965.5,631.5C 966.986,633.619 968.986,635.119 971.5,636C 978.418,636.929 985.085,636.429 991.5,634.5C 991.842,633.662 992.508,633.328 993.5,633.5C 998.441,631.558 1002.11,628.225 1004.5,623.5C 1006.53,623.338 1008.53,623.505 1010.5,624C 1013.68,626.752 1017.02,629.252 1020.5,631.5C 1020.8,633.604 1020.47,635.604 1019.5,637.5C 1016.81,640.52 1014.14,643.52 1011.5,646.5C 1010.13,647.512 1008.8,648.512 1007.5,649.5C 1004.65,649.552 1002.32,650.552 1000.5,652.5C 999.833,652.833 999.167,653.167 998.5,653.5C 995.848,653.41 993.515,654.076 991.5,655.5C 983.648,656.715 975.648,656.715 967.5,655.5C 965.316,653.415 962.649,652.415 959.5,652.5C 957.886,649.231 955.219,647.564 951.5,647.5C 948.925,646.272 946.592,644.605 944.5,642.5C 942.616,639.37 940.283,636.704 937.5,634.5C 936.632,630.434 934.966,626.767 932.5,623.5C 930.747,613.63 930.08,603.63 930.5,593.5C 932.308,587.41 934.308,581.41 936.5,575.5C 936.833,575.5 937.167,575.5 937.5,575.5C 939.814,573.17 941.814,570.504 943.5,567.5C 947.127,565.206 950.461,562.54 953.5,559.5C 955.97,559.346 957.97,558.346 959.5,556.5C 961.898,556.741 963.898,556.074 965.5,554.5C 973.507,553.297 981.507,553.297 989.5,554.5 Z"/></g>
<g><path style="opacity:1" fill="#e76d65" d="M 1007.5,564.5 C 1009.48,566.259 1011.64,567.925 1014,569.5C 1014.93,572.362 1016.6,574.695 1019,576.5C 1019.61,578.154 1020.11,579.821 1020.5,581.5C 1015.81,576.142 1011.48,570.475 1007.5,564.5 Z"/></g>
<g><path style="opacity:1" fill="#c3c5c7" d="M 1194.5,570.5 C 1188.83,570.76 1183.16,571.093 1177.5,571.5C 1180.72,570.046 1184.22,569.379 1188,569.5C 1190.36,569.504 1192.53,569.837 1194.5,570.5 Z"/></g>
<g><path style="opacity:1" fill="#f6cd64" d="M 751.5,568.5 C 753.482,570.502 755.148,572.835 756.5,575.5C 753.491,574.152 751.824,571.819 751.5,568.5 Z"/></g>
<g><path style="opacity:1" fill="#f18783" d="M 943.5,567.5 C 941.814,570.504 939.814,573.17 937.5,575.5C 938.353,571.98 940.353,569.313 943.5,567.5 Z"/></g>
<g><path style="opacity:1" fill="#fcfcfc" d="M 1194.5,570.5 C 1211.19,575.365 1219.86,586.532 1220.5,604C 1220.59,617.703 1214.92,628.37 1203.5,636C 1201.35,637.411 1199.02,638.245 1196.5,638.5C 1190.11,638.751 1183.77,638.418 1177.5,637.5C 1170.82,635.741 1165.98,631.741 1163,625.5C 1161.33,622.167 1159.67,618.833 1158,615.5C 1153.45,595.471 1159.95,580.805 1177.5,571.5C 1183.16,571.093 1188.83,570.76 1194.5,570.5 Z"/></g>
<g><path style="opacity:1" fill="#fcfcfc" d="M 1941.5,581.5 C 1943.42,585.433 1945.26,589.433 1947,593.5C 1948.12,598.102 1948.62,602.768 1948.5,607.5C 1947.47,621.869 1940.47,632.202 1927.5,638.5C 1920.78,638.756 1914.11,638.423 1907.5,637.5C 1896.28,632.941 1889.95,624.608 1888.5,612.5C 1887.83,603.854 1888.83,595.521 1891.5,587.5C 1895.18,578.65 1901.51,572.817 1910.5,570C 1917.75,569.192 1924.75,570.192 1931.5,573C 1935.61,574.948 1938.95,577.781 1941.5,581.5 Z"/></g>
<g><path style="opacity:1" fill="#c1c2c5" d="M 1679.5,572.5 C 1672.18,572.987 1664.85,573.987 1657.5,575.5C 1657.88,574.069 1658.88,573.236 1660.5,573C 1666.82,572.5 1673.16,572.334 1679.5,572.5 Z"/></g>
<g><path style="opacity:1" fill="#f5ada7" d="M 591.5,574.5 C 593.978,573.836 596.645,573.503 599.5,573.5C 602.59,573.522 605.257,574.188 607.5,575.5C 602.228,574.6 596.895,574.267 591.5,574.5 Z"/></g>
<g><path style="opacity:1" fill="#ec7e7a" d="M 983.5,573.5 C 978.303,573.091 973.303,573.758 968.5,575.5C 968.577,574.25 969.244,573.417 970.5,573C 975.02,572.186 979.354,572.353 983.5,573.5 Z"/></g>
<g><path style="opacity:1" fill="#fcf7f5" d="M 983.5,573.5 C 986.246,574.251 988.913,575.251 991.5,576.5C 992.793,578.296 994.293,579.963 996,581.5C 996.483,582.448 996.649,583.448 996.5,584.5C 994.447,584.402 992.78,585.069 991.5,586.5C 987.716,588.147 983.716,589.314 979.5,590C 972.017,593.35 964.683,596.85 957.5,600.5C 955.883,601.038 954.216,601.371 952.5,601.5C 952.043,596.432 953.043,591.765 955.5,587.5C 958.389,581.896 962.723,577.896 968.5,575.5C 973.303,573.758 978.303,573.091 983.5,573.5 Z"/></g>
<g><path style="opacity:1" fill="#acadad" d="M 1511.5,572.5 C 1504.02,573.492 1496.35,573.825 1488.5,573.5C 1488.5,592.167 1488.5,610.833 1488.5,629.5C 1487.5,610.674 1487.17,591.674 1487.5,572.5C 1495.5,572.5 1503.5,572.5 1511.5,572.5 Z"/></g>
<g><path style="opacity:1" fill="#afc9f8" d="M 380.5,563.5 C 379.332,572.821 379.332,582.154 380.5,591.5C 378.985,586.42 378.318,581.086 378.5,575.5C 378.667,571.833 378.833,568.167 379,564.5C 379.383,563.944 379.883,563.611 380.5,563.5 Z"/></g>
<g><path style="opacity:1" fill="#fdfcfb" d="M 591.5,574.5 C 596.895,574.267 602.228,574.6 607.5,575.5C 611.36,575.054 614.36,576.387 616.5,579.5C 617.833,581.5 619.5,583.167 621.5,584.5C 623.596,587.262 625.262,590.262 626.5,593.5C 627.833,600.167 627.833,606.833 626.5,613.5C 626.5,614.167 626.5,614.833 626.5,615.5C 624.755,617.033 623.755,619.033 623.5,621.5C 619.699,627.732 614.365,632.065 607.5,634.5C 602.175,635.761 596.842,635.761 591.5,634.5C 588.702,633.35 586.035,632.017 583.5,630.5C 581.5,627.833 579.167,625.5 576.5,623.5C 575.31,620.113 573.81,616.78 572,613.5C 571.501,608.177 571.334,602.844 571.5,597.5C 573.126,594.375 574.46,591.042 575.5,587.5C 579.806,583.86 583.806,579.86 587.5,575.5C 589.099,575.768 590.432,575.434 591.5,574.5 Z"/></g>
<g><path style="opacity:1" fill="#909295" d="M 1090.5,538.5 C 1090.5,544.833 1090.5,551.167 1090.5,557.5C 1084.5,557.5 1078.5,557.5 1072.5,557.5C 1072.5,562.5 1072.5,567.5 1072.5,572.5C 1078.5,572.5 1084.5,572.5 1090.5,572.5C 1090.5,599.5 1090.5,626.5 1090.5,653.5C 1090.17,653.5 1089.83,653.5 1089.5,653.5C 1089.5,626.833 1089.5,600.167 1089.5,573.5C 1083.5,573.5 1077.5,573.5 1071.5,573.5C 1071.5,567.5 1071.5,561.5 1071.5,555.5C 1077.5,555.5 1083.5,555.5 1089.5,555.5C 1089.18,549.642 1089.51,543.975 1090.5,538.5 Z"/></g>
<g><path style="opacity:1" fill="#a8a9ad" d="M 1133.5,572.5 C 1125.35,573.493 1117.02,573.826 1108.5,573.5C 1108.83,600.339 1108.5,627.005 1107.5,653.5C 1107.5,626.5 1107.5,599.5 1107.5,572.5C 1116.17,572.5 1124.83,572.5 1133.5,572.5 Z"/></g>
<g><path style="opacity:1" fill="#e3e5e7" d="M 1133.5,572.5 C 1133.83,572.5 1134.17,572.5 1134.5,572.5C 1126.57,574.468 1118.23,575.135 1109.5,574.5C 1109.67,601.169 1109.5,627.835 1109,654.5C 1105.75,655.147 1102.42,655.481 1099,655.5C 1095.42,655.485 1092.26,654.818 1089.5,653.5C 1089.83,653.5 1090.17,653.5 1090.5,653.5C 1096.17,653.5 1101.83,653.5 1107.5,653.5C 1108.5,627.005 1108.83,600.339 1108.5,573.5C 1117.02,573.826 1125.35,573.493 1133.5,572.5 Z"/></g>
<g><path style="opacity:1" fill="#a6a6a8" d="M 1693.5,572.5 C 1699.5,572.5 1705.5,572.5 1711.5,572.5C 1711.5,594.167 1711.5,615.833 1711.5,637.5C 1710.7,636.048 1710.2,634.382 1710,632.5C 1709.5,612.836 1709.33,593.169 1709.5,573.5C 1703.97,573.821 1698.64,573.488 1693.5,572.5 Z"/></g>
<g><path style="opacity:1" fill="#b2b4b7" d="M 1752.5,572.5 C 1745.02,573.492 1737.35,573.825 1729.5,573.5C 1729.5,591.167 1729.5,608.833 1729.5,626.5C 1728.5,608.674 1728.17,590.674 1728.5,572.5C 1736.5,572.5 1744.5,572.5 1752.5,572.5 Z"/></g>
<g><path style="opacity:1" fill="#f8d472" d="M 671.5,575.5 C 670.341,579.151 668.674,582.485 666.5,585.5C 666.624,581.252 668.29,577.918 671.5,575.5 Z"/></g>
<g><path style="opacity:1" fill="#f78c85" d="M 616.5,579.5 C 619.167,580.167 620.833,581.833 621.5,584.5C 619.5,583.167 617.833,581.5 616.5,579.5 Z"/></g>
<g><path style="opacity:1" fill="#f7c746" d="M 756.5,575.5 C 758.093,576.348 759.26,577.681 760,579.5C 761.25,583.654 762.75,587.654 764.5,591.5C 764.825,599.352 764.492,607.018 763.5,614.5C 763.738,606.12 763.238,597.787 762,589.5C 761.06,587.058 759.894,584.725 758.5,582.5C 757.914,582.709 757.414,583.043 757,583.5C 756.503,580.854 756.336,578.187 756.5,575.5 Z"/></g>
<g><path style="opacity:1" fill="#95979a" d="M 1147.5,574.5 C 1146.25,578.621 1144.25,582.288 1141.5,585.5C 1142.19,581.116 1144.19,577.45 1147.5,574.5 Z"/></g>
<g><path style="opacity:1" fill="#ee8c88" d="M 555.5,577.5 C 554.455,582.654 552.455,587.321 549.5,591.5C 550.449,586.28 552.449,581.614 555.5,577.5 Z"/></g>
<g><path style="opacity:1" fill="#4585f4" d="M 833.5,553.5 C 839.219,554.635 844.552,556.635 849.5,559.5C 850.122,562.776 852.122,564.109 855.5,563.5C 855.5,561.167 855.5,558.833 855.5,556.5C 861.5,556.5 867.5,556.5 873.5,556.5C 870.992,558.237 867.992,559.07 864.5,559C 865.032,596.966 866.365,634.466 868.5,671.5C 869.947,672.134 870.613,673.301 870.5,675C 870.227,676.533 869.894,678.033 869.5,679.5C 867.992,681.181 866.992,683.181 866.5,685.5C 864.817,686.853 863.484,688.52 862.5,690.5C 859.63,691.433 857.296,693.1 855.5,695.5C 853.456,696.031 851.789,697.198 850.5,699C 848.187,699.662 845.854,700.162 843.5,700.5C 834.861,701.544 826.194,701.711 817.5,701C 813.695,699.215 809.695,698.382 805.5,698.5C 799.657,696.255 794.99,692.588 791.5,687.5C 789.89,684.534 788.223,681.534 786.5,678.5C 785.583,677.873 784.583,677.539 783.5,677.5C 783.481,675.94 783.148,674.44 782.5,673C 782.748,671.251 783.748,670.418 785.5,670.5C 788.355,669.883 791.022,668.883 793.5,667.5C 795.92,667.292 798.253,667.626 800.5,668.5C 800.242,670.758 800.242,673.091 800.5,675.5C 801.36,673.069 803.027,671.736 805.5,671.5C 805.892,673.179 806.392,674.846 807,676.5C 811.572,680.369 816.738,683.035 822.5,684.5C 826.396,684.353 830.062,683.686 833.5,682.5C 836.438,682.023 839.104,681.023 841.5,679.5C 846.952,678.616 850.619,675.616 852.5,670.5C 855.193,672.073 856.026,674.407 855,677.5C 853.193,679.694 850.86,681.027 848,681.5C 847.51,682.793 847.343,684.127 847.5,685.5C 858.161,686.51 862.495,681.843 860.5,671.5C 859.5,671.5 858.5,671.5 857.5,671.5C 856.645,668.514 856.145,665.514 856,662.5C 856.333,662.167 856.667,661.833 857,661.5C 857.113,663.974 858.113,665.974 860,667.5C 861,664.5 862,661.5 863,658.5C 863.831,662.345 863.331,666.012 861.5,669.5C 862.686,673.177 864.02,673.677 865.5,671C 864.724,664.883 864.057,658.717 863.5,652.5C 860.079,652.238 859.079,653.572 860.5,656.5C 860.167,657.5 859.5,658.167 858.5,658.5C 856.845,653.694 856.012,648.694 856,643.5C 852.534,641.65 850.701,642.65 850.5,646.5C 850.5,647.167 850.5,647.833 850.5,648.5C 848.882,650.316 846.882,651.649 844.5,652.5C 841.204,653.424 837.871,654.424 834.5,655.5C 828.108,655.751 821.775,655.418 815.5,654.5C 815.5,653.5 815.5,652.5 815.5,651.5C 811.435,651.901 807.769,650.901 804.5,648.5C 805.167,647.5 805.833,646.5 806.5,645.5C 805.667,645.167 804.833,644.833 804,644.5C 802.213,645.563 800.379,646.063 798.5,646C 796.916,642.912 794.583,640.745 791.5,639.5C 783.637,632.781 779.137,624.114 778,613.5C 777.333,606.833 777.333,600.167 778,593.5C 778.21,591.942 778.71,590.609 779.5,589.5C 781.941,586.73 783.274,583.397 783.5,579.5C 784.475,577.205 785.808,575.205 787.5,573.5C 793.295,567.358 799.629,562.025 806.5,557.5C 808.297,556.27 810.297,555.604 812.5,555.5C 819.401,554.008 826.401,553.341 833.5,553.5 Z"/></g>
<g><path style="opacity:1" fill="#c8ddf7" d="M 818.5,575.5 C 818.833,575.5 819.167,575.5 819.5,575.5C 816.447,578.192 813.114,580.525 809.5,582.5C 809.511,580.983 810.177,579.816 811.5,579C 813.933,577.87 816.266,576.704 818.5,575.5 Z"/></g>
<g><path style="opacity:1" fill="#fbfdfd" d="M 844.5,578.5 C 847.649,582.095 850.816,585.762 854,589.5C 854.29,591.92 854.79,594.254 855.5,596.5C 855.705,602.878 855.372,609.211 854.5,615.5C 851.661,623.336 846.661,629.336 839.5,633.5C 833.265,635.658 826.932,635.992 820.5,634.5C 820.167,634.5 819.833,634.5 819.5,634.5C 814.7,631.915 810.367,628.582 806.5,624.5C 804.5,620.167 802.5,615.833 800.5,611.5C 799.258,600.365 802.258,590.698 809.5,582.5C 813.114,580.525 816.447,578.192 819.5,575.5C 828.322,572.349 836.655,573.349 844.5,578.5 Z"/></g>
<g><path style="opacity:1" fill="#6c97e9" d="M 844.5,578.5 C 836.655,573.349 828.322,572.349 819.5,575.5C 819.167,575.5 818.833,575.5 818.5,575.5C 818.833,574.833 819.167,574.167 819.5,573.5C 826.156,572.286 832.823,572.286 839.5,573.5C 841.855,574.522 843.522,576.188 844.5,578.5 Z"/></g>
<g><path style="opacity:1" fill="#568dee" d="M 819.5,573.5 C 819.167,574.167 818.833,574.833 818.5,575.5C 816.266,576.704 813.933,577.87 811.5,579C 810.177,579.816 809.511,580.983 809.5,582.5C 802.258,590.698 799.258,600.365 800.5,611.5C 799.001,604.806 799.334,598.139 801.5,591.5C 800.932,589.631 800.266,587.797 799.5,586C 799.833,585.167 800.167,584.333 800.5,583.5C 801.281,584.737 802.281,585.737 803.5,586.5C 803.833,586 804.167,585.5 804.5,585C 802.672,581.841 801.005,578.674 799.5,575.5C 800.5,575.5 801.5,575.5 802.5,575.5C 802.281,576.675 802.614,577.675 803.5,578.5C 804.695,580.297 806.362,581.297 808.5,581.5C 808.672,579.508 808.005,577.842 806.5,576.5C 808.075,575.554 809.742,575.554 811.5,576.5C 814.063,576.263 814.063,575.763 811.5,575C 814.014,573.748 816.68,573.248 819.5,573.5 Z"/></g>
<g><path style="opacity:1" fill="#fee3d9" d="M 936.5,575.5 C 934.308,581.41 932.308,587.41 930.5,593.5C 930.167,593.5 929.833,593.5 929.5,593.5C 929.564,589.78 930.064,586.114 931,582.5C 931.991,579.36 933.824,577.026 936.5,575.5 Z"/></g>
<g><path style="opacity:1" fill="#f7aca6" d="M 587.5,575.5 C 583.806,579.86 579.806,583.86 575.5,587.5C 575.703,585.956 576.37,584.622 577.5,583.5C 580.583,580.406 583.916,577.739 587.5,575.5 Z"/></g>
<g><path style="opacity:1" fill="#ef9c93" d="M 646.5,582.5 C 648.31,585.145 649.31,588.145 649.5,591.5C 647.528,588.916 646.528,585.916 646.5,582.5 Z"/></g>
<g><path style="opacity:1" fill="#f07d75" d="M 991.5,576.5 C 996.27,577.907 997.936,580.907 996.5,585.5C 994.929,586.309 993.262,586.643 991.5,586.5C 992.78,585.069 994.447,584.402 996.5,584.5C 996.649,583.448 996.483,582.448 996,581.5C 994.293,579.963 992.793,578.296 991.5,576.5 Z"/></g>
<g><path style="opacity:1" fill="#89aeec" d="M 783.5,579.5 C 783.274,583.397 781.941,586.73 779.5,589.5C 779.77,585.642 781.103,582.309 783.5,579.5 Z"/></g>
<g><path style="opacity:1" fill="#f8a799" d="M 1020.5,581.5 C 1022.25,583.033 1023.25,585.033 1023.5,587.5C 1021.75,585.967 1020.75,583.967 1020.5,581.5 Z"/></g>
<g><path style="opacity:1" fill="#babdc0" d="M 1941.5,581.5 C 1948.14,589.022 1950.47,597.689 1948.5,607.5C 1948.62,602.768 1948.12,598.102 1947,593.5C 1945.26,589.433 1943.42,585.433 1941.5,581.5 Z"/></g>
<g><path style="opacity:1" fill="#c7c7c9" d="M 1577.5,591.5 C 1567.81,590.223 1558.15,590.223 1548.5,591.5C 1548.61,590.883 1548.94,590.383 1549.5,590C 1558.17,589.333 1566.83,589.333 1575.5,590C 1576.42,590.278 1577.08,590.778 1577.5,591.5 Z"/></g>
<g><path style="opacity:1" fill="#9bc3f9" d="M 460.5,569.5 C 460.833,569.5 461.167,569.5 461.5,569.5C 461.5,576.5 461.5,583.5 461.5,590.5C 478.833,590.5 496.167,590.5 513.5,590.5C 513.5,592.5 513.5,594.5 513.5,596.5C 512.833,597.5 512.167,598.5 511.5,599.5C 511.833,596.833 512.167,594.167 512.5,591.5C 495.167,591.5 477.833,591.5 460.5,591.5C 460.5,584.167 460.5,576.833 460.5,569.5 Z"/></g>
<g><path style="opacity:1" fill="#7c7d80" d="M 1835.5,556.5 C 1835.67,576.503 1835.5,596.503 1835,616.5C 1834.08,619.101 1833.41,621.768 1833,624.5C 1831.96,625.71 1830.79,626.71 1829.5,627.5C 1829.69,625.804 1830.52,624.471 1832,623.5C 1832.27,620.746 1832.77,618.079 1833.5,615.5C 1834.17,595.833 1834.83,576.167 1835.5,556.5 Z"/></g>
<g><path style="opacity:1" fill="#f4a49a" d="M 575.5,587.5 C 574.46,591.042 573.126,594.375 571.5,597.5C 571.335,593.421 572.669,590.088 575.5,587.5 Z"/></g>
<g><path style="opacity:1" fill="#e9746c" d="M 955.5,587.5 C 953.043,591.765 952.043,596.432 952.5,601.5C 954.216,601.371 955.883,601.038 957.5,600.5C 955.824,602.834 953.491,603.834 950.5,603.5C 950.822,598.413 951.655,593.413 953,588.5C 953.671,587.748 954.504,587.414 955.5,587.5 Z"/></g>
<g><path style="opacity:1" fill="#63666b" d="M 1525.5,639.5 C 1521.85,632.006 1520.52,624.006 1521.5,615.5C 1525.43,601.911 1534.43,593.911 1548.5,591.5C 1558.15,590.223 1567.81,590.223 1577.5,591.5C 1581.27,593.256 1585.27,594.256 1589.5,594.5C 1589.66,592.143 1589.5,589.81 1589,587.5C 1587.42,585.089 1586.42,582.422 1586,579.5C 1571.28,566.175 1556.61,566.175 1542,579.5C 1541.52,580.448 1541.35,581.448 1541.5,582.5C 1540.45,582.649 1539.45,582.483 1538.5,582C 1533.62,578.732 1528.95,575.232 1524.5,571.5C 1533.61,558.276 1546.28,551.943 1562.5,552.5C 1577.32,551.983 1589.82,556.983 1600,567.5C 1603.2,571.307 1605.37,575.64 1606.5,580.5C 1607.5,604.824 1607.83,629.158 1607.5,653.5C 1601.5,653.5 1595.5,653.5 1589.5,653.5C 1589.82,649.445 1589.49,645.445 1588.5,641.5C 1584.96,646.205 1580.63,650.038 1575.5,653C 1566.75,656.079 1557.75,657.079 1548.5,656C 1538.28,653.904 1530.61,648.404 1525.5,639.5 Z"/></g>
<g><path style="opacity:1" fill="#ea8a7f" d="M 1015.5,595.5 C 1013.54,596.492 1011.54,597.492 1009.5,598.5C 1009.5,598.167 1009.5,597.833 1009.5,597.5C 1011.14,595.919 1013.14,595.253 1015.5,595.5 Z"/></g>
<g><path style="opacity:1" fill="#b3b4b8" d="M 1645.5,587.5 C 1645.63,589.655 1645.13,591.655 1644,593.5C 1643.83,613.671 1643.33,633.671 1642.5,653.5C 1642.33,632.831 1642.5,612.164 1643,591.5C 1643.61,589.934 1644.44,588.6 1645.5,587.5 Z"/></g>
<g><path style="opacity:1" fill="#5189ee" d="M 461.5,569.5 C 486.241,569.177 510.908,569.51 535.5,570.5C 535.5,577.5 535.5,584.5 535.5,591.5C 534.99,605.501 530.324,617.834 521.5,628.5C 521.67,627.178 521.337,626.011 520.5,625C 521.448,624.517 522.448,624.351 523.5,624.5C 523.523,622.073 524.023,619.74 525,617.5C 526.011,616.663 527.178,616.33 528.5,616.5C 528.421,615.07 528.754,613.736 529.5,612.5C 525.347,611.316 523.013,608.483 522.5,604C 523.047,599.466 524.547,595.3 527,591.5C 527.081,595.695 526.581,599.862 525.5,604C 525.833,605.167 526.167,606.333 526.5,607.5C 528.903,600.365 529.903,593.032 529.5,585.5C 529.453,581.733 528.786,578.233 527.5,575C 529.167,574.667 530.833,574.333 532.5,574C 533.337,572.989 533.67,571.822 533.5,570.5C 509.833,570.5 486.167,570.5 462.5,570.5C 462.212,576.229 462.546,581.896 463.5,587.5C 479.731,588.824 495.897,588.824 512,587.5C 514.597,590.206 515.097,593.206 513.5,596.5C 513.5,594.5 513.5,592.5 513.5,590.5C 496.167,590.5 478.833,590.5 461.5,590.5C 461.5,583.5 461.5,576.5 461.5,569.5 Z"/></g>
<g><path style="opacity:1" fill="#e6605a" d="M 991.5,586.5 C 990.064,587.429 988.731,588.595 987.5,590C 981.522,592.627 975.522,595.293 969.5,598C 965.629,599.512 961.629,600.345 957.5,600.5C 964.683,596.85 972.017,593.35 979.5,590C 983.716,589.314 987.716,588.147 991.5,586.5 Z"/></g>
<g><path style="opacity:1" fill="#a2a4a7" d="M 1141.5,585.5 C 1138.54,598.632 1138.87,611.632 1142.5,624.5C 1141.01,622.884 1140.01,620.884 1139.5,618.5C 1138.33,609.518 1138.17,600.518 1139,591.5C 1139.57,589.277 1140.4,587.277 1141.5,585.5 Z"/></g>
<g><path style="opacity:1" fill="#fde29c" d="M 764.5,591.5 C 765.656,599.323 765.823,607.323 765,615.5C 764.768,616.737 764.268,617.737 763.5,618.5C 763.5,617.167 763.5,615.833 763.5,614.5C 764.492,607.018 764.825,599.352 764.5,591.5 Z"/></g>
<g><path style="opacity:1" fill="#cecfd2" d="M 1452.5,572.5 C 1458.17,572.5 1463.83,572.5 1469.5,572.5C 1469.21,593.527 1469.55,614.527 1470.5,635.5C 1469.78,635.082 1469.28,634.416 1469,633.5C 1468.5,613.503 1468.33,593.503 1468.5,573.5C 1462.97,573.821 1457.64,573.488 1452.5,572.5 Z"/></g>
<g><path style="opacity:1" fill="#a8a9ac" d="M 1832.5,642.5 C 1832.82,640.952 1833.82,640.285 1835.5,640.5C 1835.5,644.5 1835.5,648.5 1835.5,652.5C 1841.17,652.5 1846.83,652.5 1852.5,652.5C 1852.5,620.5 1852.5,588.5 1852.5,556.5C 1846.83,556.5 1841.17,556.5 1835.5,556.5C 1834.83,576.167 1834.17,595.833 1833.5,615.5C 1833.5,595.5 1833.5,575.5 1833.5,555.5C 1840.17,555.5 1846.83,555.5 1853.5,555.5C 1853.5,588.5 1853.5,621.5 1853.5,654.5C 1847.17,654.5 1840.83,654.5 1834.5,654.5C 1834.67,650.154 1834.5,645.821 1834,641.5C 1833.62,642.056 1833.12,642.389 1832.5,642.5 Z"/></g>
<g><path style="opacity:1" fill="#f6aba5" d="M 1007.5,598.5 C 1006.08,600.545 1004.08,601.545 1001.5,601.5C 1003.03,599.654 1005.03,598.654 1007.5,598.5 Z"/></g>
<g><path style="opacity:1" fill="#b6b7b9" d="M 1891.5,587.5 C 1888.83,595.521 1887.83,603.854 1888.5,612.5C 1886.1,606.384 1885.94,600.05 1888,593.5C 1888.72,591.121 1889.88,589.121 1891.5,587.5 Z"/></g>
<g><path style="opacity:1" fill="#8d9095" d="M 1966.5,594.5 C 1967.66,601.989 1967.82,609.655 1967,617.5C 1965.98,619.502 1965.15,621.502 1964.5,623.5C 1966.24,613.964 1966.91,604.297 1966.5,594.5 Z"/></g>
<g><path style="opacity:1" fill="#ea5c56" d="M 1009.5,597.5 C 1009.5,597.833 1009.5,598.167 1009.5,598.5C 1008.83,598.5 1008.17,598.5 1007.5,598.5C 1005.03,598.654 1003.03,599.654 1001.5,601.5C 998.373,603.279 995.04,604.613 991.5,605.5C 991.721,604.265 992.388,603.265 993.5,602.5C 998.508,599.655 1003.84,597.989 1009.5,597.5 Z"/></g>
<g><path style="opacity:1" fill="#fbb2b4" d="M 549.5,591.5 C 549.5,594.167 549.5,596.833 549.5,599.5C 548.515,603.634 548.182,607.968 548.5,612.5C 547.104,605.436 547.437,598.436 549.5,591.5 Z"/></g>
<g><path style="opacity:1" fill="#f7a095" d="M 626.5,593.5 C 628.019,596.526 628.685,599.859 628.5,603.5C 628.685,607.141 628.019,610.474 626.5,613.5C 627.833,606.833 627.833,600.167 626.5,593.5 Z"/></g>
<g><path style="opacity:1" fill="#e87670" d="M 649.5,591.5 C 650.657,599.99 650.824,608.657 650,617.5C 648.253,620.21 647.253,623.21 647,626.5C 646.148,627.571 645.315,628.571 644.5,629.5C 645.68,623.774 647.18,618.108 649,612.5C 649.5,605.508 649.666,598.508 649.5,591.5 Z"/></g>
<g><path style="opacity:1" fill="#6c97e6" d="M 383.5,601.5 C 385.124,601.36 386.29,602.027 387,603.5C 387.395,606.207 387.895,608.873 388.5,611.5C 385.709,608.832 384.042,605.498 383.5,601.5 Z"/></g>
<g><path style="opacity:1" fill="#7fa8eb" d="M 408.5,600.5 C 410.527,603.22 412.193,606.22 413.5,609.5C 412.504,609.586 411.671,609.252 411,608.5C 410.059,605.846 409.226,603.179 408.5,600.5 Z"/></g>
<g><path style="opacity:1" fill="#b5b9bc" d="M 1570.5,605.5 C 1564.75,605.607 1559.08,606.274 1553.5,607.5C 1555.03,605.87 1557.03,605.037 1559.5,605C 1563.36,604.19 1567.02,604.357 1570.5,605.5 Z"/></g>
<g><path style="opacity:1" fill="#fafbfb" d="M 1570.5,605.5 C 1576.89,605.768 1582.89,607.601 1588.5,611C 1588.73,620.213 1585.07,627.88 1577.5,634C 1573.6,636.89 1569.27,638.723 1564.5,639.5C 1559.39,639.569 1554.39,638.903 1549.5,637.5C 1541.58,633.194 1538.75,626.528 1541,617.5C 1543.88,612.441 1548.05,609.108 1553.5,607.5C 1559.08,606.274 1564.75,605.607 1570.5,605.5 Z"/></g>
<g><path style="opacity:1" fill="#dbdddf" d="M 1091.5,530.5 C 1090.73,533.096 1090.4,535.763 1090.5,538.5C 1089.51,543.975 1089.18,549.642 1089.5,555.5C 1083.5,555.5 1077.5,555.5 1071.5,555.5C 1071.5,561.5 1071.5,567.5 1071.5,573.5C 1077.5,573.5 1083.5,573.5 1089.5,573.5C 1089.5,600.167 1089.5,626.833 1089.5,653.5C 1088.5,627.339 1088.17,601.005 1088.5,574.5C 1082.5,574.5 1076.5,574.5 1070.5,574.5C 1070.5,567.833 1070.5,561.167 1070.5,554.5C 1076.5,554.5 1082.5,554.5 1088.5,554.5C 1088.24,546.78 1088.74,539.113 1090,531.5C 1090.38,530.944 1090.88,530.611 1091.5,530.5 Z"/></g>
<g><path style="opacity:1" fill="#d3d4d6" d="M 1274.5,585.5 C 1273.05,590.028 1272.22,594.695 1272,599.5C 1271.83,617.671 1271.33,635.671 1270.5,653.5C 1270.5,633.833 1270.5,614.167 1270.5,594.5C 1271.09,591.075 1272.42,588.075 1274.5,585.5 Z"/></g>
<g><path style="opacity:1" fill="#6593ea" d="M 513.5,596.5 C 513.41,604.341 510.41,610.674 504.5,615.5C 506.442,611.388 508.609,607.388 511,603.5C 511.49,602.207 511.657,600.873 511.5,599.5C 512.167,598.5 512.833,597.5 513.5,596.5 Z"/></g>
<g><path style="opacity:1" fill="#a4c7f8" d="M 855.5,596.5 C 856.652,601.985 856.818,607.651 856,613.5C 855.722,614.416 855.222,615.082 854.5,615.5C 855.372,609.211 855.705,602.878 855.5,596.5 Z"/></g>
<g><path style="opacity:1" fill="#f49796" d="M 986.5,607.5 C 983.198,609.723 979.532,611.39 975.5,612.5C 978.554,609.907 982.22,608.241 986.5,607.5 Z"/></g>
<g><path style="opacity:1" fill="#e97166" d="M 549.5,599.5 C 550.093,607.507 550.76,615.507 551.5,623.5C 550.055,620.063 549.055,616.397 548.5,612.5C 548.182,607.968 548.515,603.634 549.5,599.5 Z"/></g>
<g><path style="opacity:1" fill="#a3a4a7" d="M 2007.5,610.5 C 2011.51,610.858 2015.51,611.358 2019.5,612C 2022.28,612.522 2024.61,613.689 2026.5,615.5C 2020.14,613.555 2013.81,611.888 2007.5,610.5 Z"/></g>
<g><path style="opacity:1" fill="#b5b6ba" d="M 1426.5,607.5 C 1428.03,609.634 1428.7,612.134 1428.5,615C 1428.49,617.033 1428.16,618.866 1427.5,620.5C 1427.53,616.131 1427.2,611.798 1426.5,607.5 Z"/></g>
<g><path style="opacity:1" fill="#aeafb1" d="M 1446.5,604.5 C 1447.65,610.987 1447.82,617.654 1447,624.5C 1446.77,625.737 1446.27,626.737 1445.5,627.5C 1446.36,619.868 1446.69,612.201 1446.5,604.5 Z"/></g>
<g><path style="opacity:1" fill="#fbc1b9" d="M 975.5,612.5 C 974.365,614.213 972.698,614.88 970.5,614.5C 971.635,612.787 973.302,612.12 975.5,612.5 Z"/></g>
<g><path style="opacity:1" fill="#7dc58d" d="M 915.5,500.5 C 916.499,551.331 916.832,602.331 916.5,653.5C 908.833,653.5 901.167,653.5 893.5,653.5C 893.333,602.832 893.5,552.166 894,501.5C 901.079,500.52 908.245,500.187 915.5,500.5 Z"/></g>
<g><path style="opacity:1" fill="#3da255" d="M 894.5,502.5 C 901.5,502.5 908.5,502.5 915.5,502.5C 915.5,552.5 915.5,602.5 915.5,652.5C 908.5,652.5 901.5,652.5 894.5,652.5C 894.5,602.5 894.5,552.5 894.5,502.5 Z"/></g>
<g><path style="opacity:1" fill="#34a852" d="M 895.5,503.5 C 901.833,503.5 908.167,503.5 914.5,503.5C 914.5,552.167 914.5,600.833 914.5,649.5C 908.336,651.228 902.003,651.894 895.5,651.5C 895.5,602.167 895.5,552.833 895.5,503.5 Z"/></g>
<g><path style="opacity:1" fill="#4485f4" d="M 521.5,628.5 C 518.292,632.395 514.959,636.229 511.5,640C 504.192,644.48 496.858,648.646 489.5,652.5C 475.741,655.885 461.741,657.219 447.5,656.5C 447.5,656.167 447.5,655.833 447.5,655.5C 447.5,655.167 447.5,654.833 447.5,654.5C 447.38,653.414 446.713,652.747 445.5,652.5C 440.491,650.993 435.491,649.493 430.5,648C 431.609,646.187 430.942,645.354 428.5,645.5C 428.5,644.167 428.5,642.833 428.5,641.5C 426.712,641.215 425.045,641.548 423.5,642.5C 425.126,643.99 426.792,645.49 428.5,647C 424.747,646.955 421.581,645.455 419,642.5C 418.544,641.256 419.044,640.423 420.5,640C 419.061,639.009 418.061,637.676 417.5,636C 415.131,635.464 413.131,634.297 411.5,632.5C 410.614,633.325 410.281,634.325 410.5,635.5C 409.167,635.5 407.833,635.5 406.5,635.5C 405.952,633.606 404.952,631.94 403.5,630.5C 404.868,629.406 406.035,629.74 407,631.5C 407.5,630.333 408.333,629.5 409.5,629C 407.409,627.274 405.076,626.107 402.5,625.5C 403.169,621.324 401.669,619.991 398,621.5C 397.833,620.5 397.667,619.5 397.5,618.5C 398.09,614.774 399.59,614.108 402,616.5C 403.84,615.167 404.34,615.334 403.5,617C 405.017,618.685 406.684,620.185 408.5,621.5C 410.709,620.894 412.876,620.227 415,619.5C 416.403,622.709 417.403,626.042 418,629.5C 418.687,631.555 419.854,633.221 421.5,634.5C 422.865,631.305 423.865,627.972 424.5,624.5C 425.183,624.137 425.85,623.804 426.5,623.5C 426.833,623.5 427.167,623.5 427.5,623.5C 427.751,625.17 428.418,626.67 429.5,628C 432.003,628.129 434.003,629.129 435.5,631C 434.207,631.49 432.873,631.657 431.5,631.5C 431.5,632.5 431.5,633.5 431.5,634.5C 435.121,633.627 438.788,632.961 442.5,632.5C 442.351,633.552 442.517,634.552 443,635.5C 443.333,635.167 443.667,634.833 444,634.5C 444.388,635.428 445.055,636.095 446,636.5C 454.798,635.708 463.632,635.208 472.5,635C 477.16,634.354 481.16,632.521 484.5,629.5C 485.167,629.5 485.833,629.5 486.5,629.5C 489.682,630.03 492.682,631.03 495.5,632.5C 495.5,631.5 495.5,630.5 495.5,629.5C 494.5,629.5 493.5,629.5 492.5,629.5C 492.31,627.041 493.31,625.374 495.5,624.5C 498.091,621.242 501.091,618.242 504.5,615.5C 510.41,610.674 513.41,604.341 513.5,596.5C 515.097,593.206 514.597,590.206 512,587.5C 495.897,588.824 479.731,588.824 463.5,587.5C 462.546,581.896 462.212,576.229 462.5,570.5C 486.167,570.5 509.833,570.5 533.5,570.5C 533.67,571.822 533.337,572.989 532.5,574C 530.833,574.333 529.167,574.667 527.5,575C 528.786,578.233 529.453,581.733 529.5,585.5C 529.903,593.032 528.903,600.365 526.5,607.5C 526.167,606.333 525.833,605.167 525.5,604C 526.581,599.862 527.081,595.695 527,591.5C 524.547,595.3 523.047,599.466 522.5,604C 523.013,608.483 525.347,611.316 529.5,612.5C 528.754,613.736 528.421,615.07 528.5,616.5C 527.178,616.33 526.011,616.663 525,617.5C 524.023,619.74 523.523,622.073 523.5,624.5C 522.448,624.351 521.448,624.517 520.5,625C 521.337,626.011 521.67,627.178 521.5,628.5 Z"/></g>
<g><path style="opacity:1" fill="#3c88f1" d="M 463.5,577.5 C 479.5,577.5 495.5,577.5 511.5,577.5C 511.5,578.5 511.5,579.5 511.5,580.5C 495.5,580.5 479.5,580.5 463.5,580.5C 463.5,579.5 463.5,578.5 463.5,577.5 Z"/></g>
<g><path style="opacity:1" fill="#f49f99" d="M 929.5,593.5 C 929.833,593.5 930.167,593.5 930.5,593.5C 930.08,603.63 930.747,613.63 932.5,623.5C 931.678,621.611 930.845,619.611 930,617.5C 929.5,609.507 929.334,601.507 929.5,593.5 Z"/></g>
<g><path style="opacity:1" fill="#fbcbc8" d="M 967.5,615.5 C 965.518,618.137 962.852,619.47 959.5,619.5C 959.5,619.167 959.5,618.833 959.5,618.5C 961.936,617.129 964.603,616.129 967.5,615.5 Z"/></g>
<g><path style="opacity:1" fill="#fda49a" d="M 626.5,615.5 C 626.245,617.967 625.245,619.967 623.5,621.5C 623.755,619.033 624.755,617.033 626.5,615.5 Z"/></g>
<g><path style="opacity:1" fill="#fabc0d" d="M 729.5,555.5 C 730.167,555.5 730.833,555.5 731.5,555.5C 734.57,556.532 737.57,557.865 740.5,559.5C 744.482,562.152 748.149,565.152 751.5,568.5C 751.824,571.819 753.491,574.152 756.5,575.5C 756.336,578.187 756.503,580.854 757,583.5C 757.414,583.043 757.914,582.709 758.5,582.5C 759.894,584.725 761.06,587.058 762,589.5C 763.238,597.787 763.738,606.12 763.5,614.5C 763.5,615.833 763.5,617.167 763.5,618.5C 760.142,628.868 754.475,637.868 746.5,645.5C 743.452,647.03 740.286,648.363 737,649.5C 735.97,649.836 735.47,650.503 735.5,651.5C 735.158,652.338 734.492,652.672 733.5,652.5C 730.284,652.345 727.617,653.345 725.5,655.5C 718.167,655.5 710.833,655.5 703.5,655.5C 701.265,655.795 699.265,655.461 697.5,654.5C 694.965,652.983 692.298,651.65 689.5,650.5C 681.894,646.89 675.894,641.556 671.5,634.5C 670.241,630.353 668.241,626.686 665.5,623.5C 663.56,612.936 663.06,602.269 664,591.5C 664.655,589.372 665.489,587.372 666.5,585.5C 668.674,582.485 670.341,579.151 671.5,575.5C 673.088,570.911 676.088,567.578 680.5,565.5C 682.41,563.716 684.744,562.716 687.5,562.5C 687.5,561.5 687.5,560.5 687.5,559.5C 689.685,559.296 691.685,558.63 693.5,557.5C 696.425,557.54 699.091,556.707 701.5,555C 710.852,554.349 720.186,554.516 729.5,555.5 Z"/></g>
<g><path style="opacity:1" fill="#fee7a7" d="M 687.5,618.5 C 688.5,618.5 689.5,618.5 690.5,618.5C 690.629,620.216 690.962,621.883 691.5,623.5C 689.82,622.218 688.487,620.551 687.5,618.5 Z"/></g>
<g><path style="opacity:1" fill="#fde3a0" d="M 740.5,591.5 C 741.984,595.054 742.651,598.888 742.5,603C 742.497,605.69 742.164,608.19 741.5,610.5C 741.593,604.137 741.26,597.804 740.5,591.5 Z"/></g>
<g><path style="opacity:1" fill="#fee7ad" d="M 686.5,598.5 C 686.392,603.87 686.725,609.203 687.5,614.5C 686.778,614.082 686.278,613.416 686,612.5C 685.185,607.648 685.352,602.981 686.5,598.5 Z"/></g>
<g><path style="opacity:1" fill="#f6d05c" d="M 735.5,584.5 C 739.071,585.351 740.737,587.684 740.5,591.5C 738.625,589.458 736.959,587.124 735.5,584.5 Z"/></g>
<g><path style="opacity:1" fill="#fae091" d="M 702.5,575.5 C 702.586,576.496 702.252,577.329 701.5,578C 697.746,579.919 694.412,582.419 691.5,585.5C 693.892,580.775 697.559,577.442 702.5,575.5 Z"/></g>
<g><path style="opacity:1" fill="#fefdfb" d="M 719.5,574.5 C 726.423,575.295 731.756,578.628 735.5,584.5C 736.959,587.124 738.625,589.458 740.5,591.5C 741.26,597.804 741.593,604.137 741.5,610.5C 740.895,613.127 740.395,615.793 740,618.5C 737.586,621.704 735.419,625.038 733.5,628.5C 729.304,631.395 724.637,633.395 719.5,634.5C 716.572,635.484 713.572,635.817 710.5,635.5C 706.847,633.239 702.847,631.573 698.5,630.5C 696.525,628.863 694.525,627.196 692.5,625.5C 691.662,625.158 691.328,624.492 691.5,623.5C 690.962,621.883 690.629,620.216 690.5,618.5C 689.5,618.5 688.5,618.5 687.5,618.5C 687.5,617.167 687.5,615.833 687.5,614.5C 686.725,609.203 686.392,603.87 686.5,598.5C 686.443,593.349 688.11,589.016 691.5,585.5C 694.412,582.419 697.746,579.919 701.5,578C 702.252,577.329 702.586,576.496 702.5,575.5C 703.833,575.5 705.167,575.5 706.5,575.5C 710.798,574.8 715.131,574.467 719.5,574.5 Z"/></g>
<g><path style="opacity:1" fill="#fde9b0" d="M 719.5,574.5 C 715.131,574.467 710.798,574.8 706.5,575.5C 708.634,573.967 711.134,573.3 714,573.5C 716.033,573.506 717.866,573.839 719.5,574.5 Z"/></g>
<g><path style="opacity:1" fill="#f6948b" d="M 576.5,623.5 C 579.167,625.5 581.5,627.833 583.5,630.5C 580.167,629.167 577.833,626.833 576.5,623.5 Z"/></g>
<g><path style="opacity:1" fill="#df5f52" d="M 959.5,618.5 C 959.5,618.833 959.5,619.167 959.5,619.5C 957.748,619.418 956.748,620.251 956.5,622C 958.163,623.495 959.163,625.328 959.5,627.5C 958.325,627.719 957.325,627.386 956.5,626.5C 953.261,622.101 954.261,619.434 959.5,618.5 Z"/></g>
<g><path style="opacity:1" fill="#95979a" d="M 1993.5,624.5 C 1992.18,624.179 1990.85,623.846 1989.5,623.5C 1987,624.889 1984.34,625.889 1981.5,626.5C 1984.26,624.278 1987.43,622.612 1991,621.5C 1992.75,621.748 1993.58,622.748 1993.5,624.5 Z"/></g>
<g><path style="opacity:1" fill="#a9aaad" d="M 2055.5,617.5 C 2056.97,620.017 2057.64,622.85 2057.5,626C 2057.7,628.866 2057.03,631.366 2055.5,633.5C 2055.5,628.167 2055.5,622.833 2055.5,617.5 Z"/></g>
<g><path style="opacity:1" fill="#fee9b0" d="M 665.5,623.5 C 668.241,626.686 670.241,630.353 671.5,634.5C 669.406,632.441 667.572,630.107 666,627.5C 665.51,626.207 665.343,624.873 665.5,623.5 Z"/></g>
<g><path style="opacity:1" fill="#f9bdb1" d="M 932.5,623.5 C 934.966,626.767 936.632,630.434 937.5,634.5C 935.549,632.52 934.049,630.187 933,627.5C 932.51,626.207 932.343,624.873 932.5,623.5 Z"/></g>
<g><path style="opacity:1" fill="#f08882" d="M 1004.5,623.5 C 1002.11,628.225 998.441,631.558 993.5,633.5C 997.141,630.195 1000.81,626.862 1004.5,623.5 Z"/></g>
<g><path style="opacity:1" fill="#b5d1fc" d="M 435.5,628.5 C 438.649,628.415 441.316,629.415 443.5,631.5C 440.351,631.585 437.684,630.585 435.5,628.5 Z"/></g>
<g><path style="opacity:1" fill="#5c93ea" d="M 495.5,624.5 C 493.31,625.374 492.31,627.041 492.5,629.5C 493.5,629.5 494.5,629.5 495.5,629.5C 495.5,630.5 495.5,631.5 495.5,632.5C 492.682,631.03 489.682,630.03 486.5,629.5C 486.47,628.503 486.97,627.836 488,627.5C 490.437,626.2 492.937,625.2 495.5,624.5 Z"/></g>
<g><path style="opacity:1" fill="#f5cf54" d="M 692.5,625.5 C 694.525,627.196 696.525,628.863 698.5,630.5C 700.167,631.833 701.833,633.167 703.5,634.5C 702.504,634.414 701.671,634.748 701,635.5C 697.272,632.937 694.438,629.604 692.5,625.5 Z"/></g>
<g><path style="opacity:1" fill="#5a8eeb" d="M 427.5,623.5 C 430.203,625.181 432.869,626.847 435.5,628.5C 437.684,630.585 440.351,631.585 443.5,631.5C 445.905,632.768 448.572,633.435 451.5,633.5C 457.987,634.654 464.654,634.821 471.5,634C 472.737,633.768 473.737,633.268 474.5,632.5C 477.833,631.5 481.167,630.5 484.5,629.5C 481.16,632.521 477.16,634.354 472.5,635C 463.632,635.208 454.798,635.708 446,636.5C 445.055,636.095 444.388,635.428 444,634.5C 443.667,634.833 443.333,635.167 443,635.5C 442.517,634.552 442.351,633.552 442.5,632.5C 438.788,632.961 435.121,633.627 431.5,634.5C 431.5,633.5 431.5,632.5 431.5,631.5C 432.873,631.657 434.207,631.49 435.5,631C 434.003,629.129 432.003,628.129 429.5,628C 428.418,626.67 427.751,625.17 427.5,623.5 Z"/></g>
<g><path style="opacity:1" fill="#838589" d="M 1253.5,556.5 C 1253.5,588.5 1253.5,620.5 1253.5,652.5C 1258.83,652.5 1264.17,652.5 1269.5,652.5C 1269.17,632.993 1269.5,613.659 1270.5,594.5C 1270.5,614.167 1270.5,633.833 1270.5,653.5C 1264.5,653.5 1258.5,653.5 1252.5,653.5C 1252.17,620.996 1252.5,588.662 1253.5,556.5 Z"/></g>
<g><path style="opacity:1" fill="#f19a91" d="M 644.5,629.5 C 644.002,632.326 642.669,634.66 640.5,636.5C 641.079,633.669 642.412,631.336 644.5,629.5 Z"/></g>
<g><path style="opacity:1" fill="#7da5ed" d="M 806.5,624.5 C 810.367,628.582 814.7,631.915 819.5,634.5C 816.904,633.735 814.237,633.401 811.5,633.5C 811.649,632.448 811.483,631.448 811,630.5C 808.873,628.886 807.373,626.886 806.5,624.5 Z"/></g>
<g><path style="opacity:1" fill="#c9cacd" d="M 1521.5,615.5 C 1520.52,624.006 1521.85,632.006 1525.5,639.5C 1523.29,638.106 1521.79,636.106 1521,633.5C 1520.18,627.319 1520.35,621.319 1521.5,615.5 Z"/></g>
<g><path style="opacity:1" fill="#acccfd" d="M 474.5,632.5 C 473.737,633.268 472.737,633.768 471.5,634C 464.654,634.821 457.987,634.654 451.5,633.5C 459.201,633.691 466.868,633.358 474.5,632.5 Z"/></g>
<g><path style="opacity:1" fill="#ffedbf" d="M 698.5,630.5 C 702.847,631.573 706.847,633.239 710.5,635.5C 708.139,635.326 705.806,634.993 703.5,634.5C 701.833,633.167 700.167,631.833 698.5,630.5 Z"/></g>
<g><path style="opacity:1" fill="#f69490" d="M 591.5,634.5 C 596.842,635.761 602.175,635.761 607.5,634.5C 605.193,636.047 602.527,636.713 599.5,636.5C 596.473,636.713 593.807,636.047 591.5,634.5 Z"/></g>
<g><path style="opacity:1" fill="#92b0f4" d="M 839.5,633.5 C 838.653,634.966 837.32,635.8 835.5,636C 830.833,636.667 826.167,636.667 821.5,636C 820.944,635.617 820.611,635.117 820.5,634.5C 826.932,635.992 833.265,635.658 839.5,633.5 Z"/></g>
<g><path style="opacity:1" fill="#eb8d85" d="M 965.5,631.5 C 973.619,635.746 982.285,636.746 991.5,634.5C 985.085,636.429 978.418,636.929 971.5,636C 968.986,635.119 966.986,633.619 965.5,631.5 Z"/></g>
<g><path style="opacity:1" fill="#f6c63f" d="M 733.5,628.5 C 733.489,630.017 732.823,631.184 731.5,632C 728.978,633.341 726.311,634.174 723.5,634.5C 723.5,635.5 723.5,636.5 723.5,637.5C 718.489,637.666 713.489,637.499 708.5,637C 706.256,636.95 704.589,636.117 703.5,634.5C 705.806,634.993 708.139,635.326 710.5,635.5C 713.572,635.817 716.572,635.484 719.5,634.5C 724.637,633.395 729.304,631.395 733.5,628.5 Z"/></g>
<g><path style="opacity:1" fill="#fcc7c1" d="M 555.5,631.5 C 557.562,633.41 559.062,635.743 560,638.5C 562.998,640.333 565.498,642.666 567.5,645.5C 564.203,643.217 560.869,640.884 557.5,638.5C 556.054,636.382 555.387,634.049 555.5,631.5 Z"/></g>
<g><path style="opacity:1" fill="#ed897c" d="M 1020.5,631.5 C 1022.93,632.353 1023.76,634.019 1023,636.5C 1019.57,640.439 1015.74,643.772 1011.5,646.5C 1014.14,643.52 1016.81,640.52 1019.5,637.5C 1020.47,635.604 1020.8,633.604 1020.5,631.5 Z"/></g>
<g><path style="opacity:1" fill="#c0c1c0" d="M 1177.5,637.5 C 1183.77,638.418 1190.11,638.751 1196.5,638.5C 1190.68,639.653 1184.68,639.819 1178.5,639C 1177.94,638.617 1177.61,638.117 1177.5,637.5 Z"/></g>
<g><path style="opacity:1" fill="#a0a0a0" d="M 1391.5,637.5 C 1398.17,638.833 1404.83,638.833 1411.5,637.5C 1408.3,639.03 1404.8,639.696 1401,639.5C 1398.5,639.333 1396,639.167 1393.5,639C 1392.58,638.722 1391.92,638.222 1391.5,637.5 Z"/></g>
<g><path style="opacity:1" fill="#c1c1c3" d="M 1796.5,637.5 C 1803.12,638.38 1809.79,638.713 1816.5,638.5C 1810.68,639.653 1804.68,639.819 1798.5,639C 1797.58,638.722 1796.92,638.222 1796.5,637.5 Z"/></g>
<g><path style="opacity:1" fill="#bfbfc2" d="M 1907.5,637.5 C 1914.11,638.423 1920.78,638.756 1927.5,638.5C 1921.35,639.653 1915.01,639.82 1908.5,639C 1907.94,638.617 1907.61,638.117 1907.5,637.5 Z"/></g>
<g><path style="opacity:1" fill="#c7c8c9" d="M 2003.5,635.5 C 2005.37,636.511 2007.37,637.345 2009.5,638C 2015.16,638.499 2020.82,638.666 2026.5,638.5C 2022.47,640.439 2018.14,640.939 2013.5,640C 2009.26,640.262 2005.92,638.762 2003.5,635.5 Z"/></g>
<g><path style="opacity:1" fill="#aeb0b4" d="M 1549.5,637.5 C 1554.39,638.903 1559.39,639.569 1564.5,639.5C 1561.36,640.641 1558.03,640.808 1554.5,640C 1552.35,639.901 1550.68,639.067 1549.5,637.5 Z"/></g>
<g><path style="opacity:1" fill="#faacae" d="M 638.5,639.5 C 637.188,642.661 634.855,644.661 631.5,645.5C 633.678,643.255 636.012,641.255 638.5,639.5 Z"/></g>
<g><path style="opacity:1" fill="#4e89ee" d="M 447.5,654.5 C 442.087,653.918 436.754,652.918 431.5,651.5C 422.004,647.923 413.671,642.589 406.5,635.5C 407.833,635.5 409.167,635.5 410.5,635.5C 410.281,634.325 410.614,633.325 411.5,632.5C 413.131,634.297 415.131,635.464 417.5,636C 418.061,637.676 419.061,639.009 420.5,640C 419.044,640.423 418.544,641.256 419,642.5C 421.581,645.455 424.747,646.955 428.5,647C 426.792,645.49 425.126,643.99 423.5,642.5C 425.045,641.548 426.712,641.215 428.5,641.5C 428.5,642.833 428.5,644.167 428.5,645.5C 430.942,645.354 431.609,646.187 430.5,648C 435.491,649.493 440.491,650.993 445.5,652.5C 446.713,652.747 447.38,653.414 447.5,654.5 Z"/></g>
<g><path style="opacity:1" fill="#e55648" d="M 567.5,645.5 C 569.156,646.146 570.823,646.813 572.5,647.5C 573.647,647.182 574.481,646.516 575,645.5C 575.49,646.793 575.657,648.127 575.5,649.5C 576.833,649.5 578.167,649.5 579.5,649.5C 579.5,648.5 579.5,647.5 579.5,646.5C 581.527,646.338 583.527,646.505 585.5,647C 583.616,647.216 581.949,647.883 580.5,649C 582.301,649.317 582.634,649.984 581.5,651C 584.598,652.556 587.598,654.056 590.5,655.5C 589.833,655.5 589.167,655.5 588.5,655.5C 583.067,653.886 577.734,652.053 572.5,650C 570.382,648.951 568.716,647.451 567.5,645.5 Z"/></g>
<g><path style="opacity:1" fill="#6192ed" d="M 791.5,639.5 C 794.583,640.745 796.916,642.912 798.5,646C 800.379,646.063 802.213,645.563 804,644.5C 804.833,644.833 805.667,645.167 806.5,645.5C 805.833,646.5 805.167,647.5 804.5,648.5C 807.769,650.901 811.435,651.901 815.5,651.5C 815.5,652.5 815.5,653.5 815.5,654.5C 812.994,653.25 810.327,652.584 807.5,652.5C 802.134,649.979 797.134,646.812 792.5,643C 791.663,641.989 791.33,640.822 791.5,639.5 Z"/></g>
<g><path style="opacity:1" fill="#f6cb62" d="M 746.5,645.5 C 745.055,647.063 743.389,648.396 741.5,649.5C 739.5,650.167 737.5,650.833 735.5,651.5C 735.47,650.503 735.97,649.836 737,649.5C 740.286,648.363 743.452,647.03 746.5,645.5 Z"/></g>
<g><path style="opacity:1" fill="#e4655d" d="M 951.5,647.5 C 955.219,647.564 957.886,649.231 959.5,652.5C 956.151,651.831 953.484,650.164 951.5,647.5 Z"/></g>
<g><path style="opacity:1" fill="#89b0e6" d="M 854.5,655.5 C 854.817,652.428 854.484,649.428 853.5,646.5C 852.482,647.193 851.482,647.859 850.5,648.5C 850.5,647.833 850.5,647.167 850.5,646.5C 851.82,645.058 853.486,644.392 855.5,644.5C 855.815,648.371 855.482,652.038 854.5,655.5 Z"/></g>
<g><path style="opacity:1" fill="#a2c6fa" d="M 431.5,651.5 C 436.754,652.918 442.087,653.918 447.5,654.5C 447.5,654.833 447.5,655.167 447.5,655.5C 441.64,655.882 436.307,654.548 431.5,651.5 Z"/></g>
<g><path style="opacity:1" fill="#fde49f" d="M 689.5,650.5 C 692.298,651.65 694.965,652.983 697.5,654.5C 694.079,654.482 691.412,653.149 689.5,650.5 Z"/></g>
<g><path style="opacity:1" fill="#f18a87" d="M 1007.5,649.5 C 1005.49,651.065 1003.16,652.065 1000.5,652.5C 1002.32,650.552 1004.65,649.552 1007.5,649.5 Z"/></g>
<g><path style="opacity:1" fill="#afb2b6" d="M 1825.5,649.5 C 1824.51,651.408 1822.85,652.408 1820.5,652.5C 1821.66,650.75 1823.33,649.75 1825.5,649.5 Z"/></g>
<g><path style="opacity:1" fill="#fff5c6" d="M 741.5,649.5 C 740.01,652.892 737.343,654.226 733.5,653.5C 733.5,653.167 733.5,652.833 733.5,652.5C 734.492,652.672 735.158,652.338 735.5,651.5C 737.5,650.833 739.5,650.167 741.5,649.5 Z"/></g>
<g><path style="opacity:1" fill="#ed958d" d="M 959.5,652.5 C 962.649,652.415 965.316,653.415 967.5,655.5C 964.351,655.585 961.684,654.585 959.5,652.5 Z"/></g>
<g><path style="opacity:1" fill="#9a9a9b" d="M 1889.5,642.5 C 1888.83,660.167 1888.17,677.833 1887.5,695.5C 1887.17,677.488 1887.5,659.488 1888.5,641.5C 1889.11,641.624 1889.44,641.957 1889.5,642.5 Z"/></g>
<g><path style="opacity:1" fill="#f9dc7c" d="M 733.5,652.5 C 733.5,652.833 733.5,653.167 733.5,653.5C 731.685,654.63 729.685,655.296 727.5,655.5C 726.833,655.5 726.167,655.5 725.5,655.5C 727.617,653.345 730.284,652.345 733.5,652.5 Z"/></g>
<g><path style="opacity:1" fill="#e0f5e1" d="M 893.5,653.5 C 901.167,653.5 908.833,653.5 916.5,653.5C 913.062,654.823 909.229,655.49 905,655.5C 900.771,655.49 896.938,654.823 893.5,653.5 Z"/></g>
<g><path style="opacity:1" fill="#f79d8c" d="M 998.5,653.5 C 996.485,654.924 994.152,655.59 991.5,655.5C 993.515,654.076 995.848,653.41 998.5,653.5 Z"/></g>
<g><path style="opacity:1" fill="#b7babf" d="M 1487.5,653.5 C 1493.77,654.418 1500.11,654.751 1506.5,654.5C 1500.68,655.653 1494.68,655.819 1488.5,655C 1487.94,654.617 1487.61,654.117 1487.5,653.5 Z"/></g>
<g><path style="opacity:1" fill="#b6b9be" d="M 1751.5,653.5 C 1751.08,654.222 1750.42,654.722 1749.5,655C 1742.65,655.821 1735.99,655.654 1729.5,654.5C 1736.86,654.635 1744.2,654.302 1751.5,653.5 Z"/></g>
<g><path style="opacity:1" fill="#8ba7e0" d="M 807.5,652.5 C 810.327,652.584 812.994,653.25 815.5,654.5C 821.775,655.418 828.108,655.751 834.5,655.5C 829.025,656.489 823.358,656.822 817.5,656.5C 813.723,656.066 810.39,654.733 807.5,652.5 Z"/></g>
<g><path style="opacity:1" fill="#8b8b8d" d="M 1165.5,651.5 C 1170.26,652.453 1174.93,653.62 1179.5,655C 1186.16,655.5 1192.83,655.666 1199.5,655.5C 1191.63,656.784 1183.63,656.784 1175.5,655.5C 1171.89,654.689 1168.56,653.356 1165.5,651.5 Z"/></g>
<g><path style="opacity:1" fill="#cbdffa" d="M 489.5,652.5 C 484.497,654.736 479.163,656.236 473.5,657C 464.657,657.824 455.99,657.657 447.5,656.5C 461.741,657.219 475.741,655.885 489.5,652.5 Z"/></g>
<g><path style="opacity:1" fill="#f3c1bc" d="M 588.5,655.5 C 589.167,655.5 589.833,655.5 590.5,655.5C 597.833,655.5 605.167,655.5 612.5,655.5C 612.389,656.117 612.056,656.617 611.5,657C 607.667,657.167 603.833,657.333 600,657.5C 595.771,657.49 591.938,656.823 588.5,655.5 Z"/></g>
<g><path style="opacity:1" fill="#cbe0fc" d="M 844.5,652.5 C 842.129,654.351 839.463,655.851 836.5,657C 829.986,657.82 823.653,657.653 817.5,656.5C 823.358,656.822 829.025,656.489 834.5,655.5C 837.871,654.424 841.204,653.424 844.5,652.5 Z"/></g>
<g><path style="opacity:1" fill="#d8d8d9" d="M 1209.5,652.5 C 1207.37,654.685 1204.7,656.018 1201.5,656.5C 1193.19,657.665 1184.85,657.832 1176.5,657C 1175.94,656.617 1175.61,656.117 1175.5,655.5C 1183.63,656.784 1191.63,656.784 1199.5,655.5C 1202.73,654.511 1206.06,653.511 1209.5,652.5 Z"/></g>
<g><path style="opacity:1" fill="#cfd0d0" d="M 1417.5,654.5 C 1407.83,657.371 1397.83,658.204 1387.5,657C 1386.94,656.617 1386.61,656.117 1386.5,655.5C 1390.28,656.095 1394.12,656.428 1398,656.5C 1404.58,656.279 1411.08,655.612 1417.5,654.5 Z"/></g>
<g><path style="opacity:1" fill="#d5d5d7" d="M 2037.5,653.5 C 2031.23,656.904 2024.4,658.237 2017,657.5C 2013.17,657.333 2009.33,657.167 2005.5,657C 2004.14,656.066 2002.81,655.232 2001.5,654.5C 2006.29,655.998 2011.29,656.664 2016.5,656.5C 2023.65,656.423 2030.65,655.423 2037.5,653.5 Z"/></g>
<g><path style="opacity:1" fill="#fcefcb" d="M 703.5,655.5 C 710.833,655.5 718.167,655.5 725.5,655.5C 726.167,655.5 726.833,655.5 727.5,655.5C 727.5,656.5 727.5,657.5 727.5,658.5C 720.212,659.054 712.878,658.887 705.5,658C 704.244,657.583 703.577,656.75 703.5,655.5 Z"/></g>
<g><path style="opacity:1" fill="#5d8fe9" d="M 805.5,671.5 C 803.027,671.736 801.36,673.069 800.5,675.5C 800.242,673.091 800.242,670.758 800.5,668.5C 798.253,667.626 795.92,667.292 793.5,667.5C 793.5,667.167 793.5,666.833 793.5,666.5C 799.678,662.583 803.678,664.25 805.5,671.5 Z"/></g>
<g><path style="opacity:1" fill="#accaf8" d="M 793.5,666.5 C 793.5,666.833 793.5,667.167 793.5,667.5C 791.022,668.883 788.355,669.883 785.5,670.5C 787.837,668.604 790.504,667.27 793.5,666.5 Z"/></g>
<g><path style="opacity:1" fill="#4587ee" d="M 841.5,679.5 C 845.599,676.442 849.099,672.776 852,668.5C 854.053,664.414 854.887,660.08 854.5,655.5C 855.482,652.038 855.815,648.371 855.5,644.5C 853.486,644.392 851.82,645.058 850.5,646.5C 850.701,642.65 852.534,641.65 856,643.5C 856.012,648.694 856.845,653.694 858.5,658.5C 859.5,658.167 860.167,657.5 860.5,656.5C 859.079,653.572 860.079,652.238 863.5,652.5C 864.057,658.717 864.724,664.883 865.5,671C 864.02,673.677 862.686,673.177 861.5,669.5C 863.331,666.012 863.831,662.345 863,658.5C 862,661.5 861,664.5 860,667.5C 858.113,665.974 857.113,663.974 857,661.5C 856.667,661.833 856.333,662.167 856,662.5C 856.145,665.514 856.645,668.514 857.5,671.5C 858.5,671.5 859.5,671.5 860.5,671.5C 862.495,681.843 858.161,686.51 847.5,685.5C 847.343,684.127 847.51,682.793 848,681.5C 850.86,681.027 853.193,679.694 855,677.5C 856.026,674.407 855.193,672.073 852.5,670.5C 850.619,675.616 846.952,678.616 841.5,679.5 Z"/></g>
<g><path style="opacity:1" fill="#7199e8" d="M 783.5,677.5 C 784.583,677.539 785.583,677.873 786.5,678.5C 788.223,681.534 789.89,684.534 791.5,687.5C 787.883,684.936 785.216,681.603 783.5,677.5 Z"/></g>
<g><path style="opacity:1" fill="#92b5f4" d="M 841.5,679.5 C 839.104,681.023 836.438,682.023 833.5,682.5C 828.637,682.819 823.97,682.486 819.5,681.5C 827.039,681.907 834.372,681.24 841.5,679.5 Z"/></g>
<g><path style="opacity:1" fill="#558de6" d="M 805.5,671.5 C 808.297,673.795 810.964,676.295 813.5,679C 815.611,679.845 817.611,680.678 819.5,681.5C 823.97,682.486 828.637,682.819 833.5,682.5C 830.062,683.686 826.396,684.353 822.5,684.5C 816.738,683.035 811.572,680.369 807,676.5C 806.392,674.846 805.892,673.179 805.5,671.5 Z"/></g>
<g><path style="opacity:1" fill="#a4c1f5" d="M 869.5,679.5 C 869.833,679.5 870.167,679.5 870.5,679.5C 870.155,682.198 868.822,684.198 866.5,685.5C 866.992,683.181 867.992,681.181 869.5,679.5 Z"/></g>
<g><path style="opacity:1" fill="#9ebcf7" d="M 862.5,690.5 C 860.704,692.9 858.37,694.567 855.5,695.5C 857.296,693.1 859.63,691.433 862.5,690.5 Z"/></g>
<g><path style="opacity:1" fill="#7ea4ed" d="M 805.5,698.5 C 809.695,698.382 813.695,699.215 817.5,701C 826.194,701.711 834.861,701.544 843.5,700.5C 843.389,701.117 843.056,701.617 842.5,702C 829.569,704.715 817.236,703.548 805.5,698.5 Z"/></g>
</svg>
