<?xml version="1.0" encoding="UTF-8"?>
<!DOCTYPE svg PUBLIC "-//W3C//DTD SVG 1.1//EN" "http://www.w3.org/Graphics/SVG/1.1/DTD/svg11.dtd">
<svg xmlns="http://www.w3.org/2000/svg" version="1.1" width="300px" height="129px" style="shape-rendering:geometricPrecision; text-rendering:geometricPrecision; image-rendering:optimizeQuality; fill-rule:evenodd; clip-rule:evenodd" xmlns:xlink="http://www.w3.org/1999/xlink">
<g><path style="opacity:0.853" fill="#434242" d="M 171.5,3.5 C 175.514,3.33449 179.514,3.50115 183.5,4C 189.73,8.86048 190.063,14.1938 184.5,20C 180.3,21.3674 175.967,21.8674 171.5,21.5C 171.5,15.5 171.5,9.5 171.5,3.5 Z M 175.5,7.5 C 183.599,6.54478 185.932,9.71145 182.5,17C 180.19,17.4966 177.857,17.6633 175.5,17.5C 175.5,14.1667 175.5,10.8333 175.5,7.5 Z"/></g>
<g><path style="opacity:1" fill="#444343" d="M 214.5,2.5 C 216.589,2.85665 218.589,3.52332 220.5,4.5C 219.615,7.32285 217.948,7.98952 215.5,6.5C 207.535,10.3939 207.535,14.3939 215.5,18.5C 217.642,16.7927 219.975,15.9593 222.5,16C 223.412,18.4882 222.412,20.1548 219.5,21C 208.68,22.5164 204.513,18.0164 207,7.5C 209.17,5.17694 211.67,3.51027 214.5,2.5 Z"/></g>
<g><path style="opacity:0.729" fill="#434242" d="M 107.5,2.5 C 111.109,5.27942 114.276,8.61275 117,12.5C 117.333,9.5 117.667,6.5 118,3.5C 119,2.16667 120,2.16667 121,3.5C 121.499,9.49076 121.666,15.4908 121.5,21.5C 120.448,21.6495 119.448,21.4828 118.5,21C 116.333,18.1667 114.167,15.3333 112,12.5C 111.502,15.4816 111.335,18.4816 111.5,21.5C 110.167,21.5 108.833,21.5 107.5,21.5C 107.5,15.1667 107.5,8.83333 107.5,2.5 Z"/></g>
<g><path style="opacity:1" fill="#db3c31" d="M 70.5,22.5 C 65.7932,27.2046 61.4599,32.2046 57.5,37.5C 57.4849,32.5724 58.4849,27.9057 60.5,23.5C 67.1364,18.5309 73.1364,12.8642 78.5,6.5C 79.9744,7.43634 80.9744,8.76967 81.5,10.5C 77.1308,13.8686 73.4642,17.8686 70.5,22.5 Z"/></g>
<g><path style="opacity:0.953" fill="#b3ce1f" d="M 129.5,8.5 C 132.966,9.10898 133.966,10.9423 132.5,14C 127.289,14.5464 126.289,12.713 129.5,8.5 Z"/></g>
<g><path style="opacity:1" fill="#066b9c" d="M 28.5,-0.5 C 30.5,-0.5 32.5,-0.5 34.5,-0.5C 35.9278,5.12526 37.9278,10.4586 40.5,15.5C 40.3284,16.4916 40.6618,17.1583 41.5,17.5C 43.0122,22.859 45.3455,27.859 48.5,32.5C 54.719,22.1815 59.3857,11.1815 62.5,-0.5C 64.1667,-0.5 65.8333,-0.5 67.5,-0.5C 65.1733,7.48234 62.84,15.4823 60.5,23.5C 58.4849,27.9057 57.4849,32.5724 57.5,37.5C 57.5,37.8333 57.5,38.1667 57.5,38.5C 57.5,42.1667 57.5,45.8333 57.5,49.5C 60.9084,62.4592 65.2418,75.1259 70.5,87.5C 67.7185,88.952 65.2185,88.6187 63,86.5C 60.8639,79.758 58.5305,73.0914 56,66.5C 54.2366,61.9588 51.7366,57.9588 48.5,54.5C 41.215,64.4079 36.0484,75.4079 33,87.5C 30.9592,88.4231 28.7925,88.7564 26.5,88.5C 31.6293,75.4451 35.9626,62.1118 39.5,48.5C 40.0424,39.9247 39.0424,31.5914 36.5,23.5C 36.5,22.8333 36.1667,22.5 35.5,22.5C 33.7696,14.6426 31.4362,6.9759 28.5,-0.5 Z"/></g>
<g><path style="opacity:1" fill="#006a9c" d="M 41.5,17.5 C 41.6716,16.5084 41.3382,15.8417 40.5,15.5C 40.5586,10.1057 43.2252,6.77236 48.5,5.5C 55.702,7.91637 57.3687,12.4164 53.5,19C 49.0521,21.3397 45.0521,20.8397 41.5,17.5 Z"/></g>
<g><path style="opacity:1" fill="#006da0" d="M 161.5,8.5 C 166.254,9.96699 166.587,11.967 162.5,14.5C 158.986,13.101 158.653,11.101 161.5,8.5 Z"/></g>
<g><path style="opacity:1" fill="#e0272b" d="M 194.5,9.5 C 198.138,8.73656 199.638,10.0699 199,13.5C 194.415,15.4126 192.915,14.0793 194.5,9.5 Z"/></g>
<g><path style="opacity:1" fill="#444343" d="M 141.5,3.5 C 145.167,3.5 148.833,3.5 152.5,3.5C 151.925,7.47349 149.758,8.47349 146,6.5C 145.075,7.04651 144.242,7.71317 143.5,8.5C 146.992,9.1608 150.158,10.4941 153,12.5C 153.667,14.8333 153.667,17.1667 153,19.5C 152.25,20.1258 151.416,20.6258 150.5,21C 146.848,21.4986 143.182,21.6653 139.5,21.5C 139.5,20.1667 139.5,18.8333 139.5,17.5C 142.85,17.665 146.183,17.4983 149.5,17C 149.957,16.586 150.291,16.086 150.5,15.5C 147.167,14.1667 143.833,12.8333 140.5,11.5C 139.211,8.64819 139.544,5.98153 141.5,3.5 Z"/></g>
<g><path style="opacity:1" fill="#da3c30" d="M 70.5,22.5 C 77.2672,18.888 81.6005,20.7213 83.5,28C 82.3213,35.2567 78.3213,37.2567 71.5,34C 67.9439,30.4041 67.6106,26.5708 70.5,22.5 Z"/></g>
<g><path style="opacity:0.4" fill="#464444" d="M 142.5,30.5 C 143.833,30.5 145.167,30.5 146.5,30.5C 146.5,31.8333 146.5,33.1667 146.5,34.5C 145.167,34.5 143.833,34.5 142.5,34.5C 142.5,33.1667 142.5,31.8333 142.5,30.5 Z"/></g>
<g><path style="opacity:0.552" fill="#444343" d="M 186.5,30.5 C 187.833,30.5 189.167,30.5 190.5,30.5C 190.5,36.5 190.5,42.5 190.5,48.5C 189.167,48.5 187.833,48.5 186.5,48.5C 186.5,42.5 186.5,36.5 186.5,30.5 Z"/></g>
<g><path style="opacity:0.909" fill="#454444" d="M 107.5,31.5 C 108.873,31.3433 110.207,31.51 111.5,32C 112.874,34.5829 114.374,37.0829 116,39.5C 116.497,36.854 116.664,34.1873 116.5,31.5C 117.833,31.5 119.167,31.5 120.5,31.5C 120.5,37.1667 120.5,42.8333 120.5,48.5C 118.856,48.7135 117.356,48.3802 116,47.5C 114.333,44.5 112.667,41.5 111,38.5C 110.502,41.8168 110.335,45.1501 110.5,48.5C 109.5,48.5 108.5,48.5 107.5,48.5C 107.5,42.8333 107.5,37.1667 107.5,31.5 Z"/></g>
<g><path style="opacity:0.921" fill="#b2cd20" d="M 35.5,22.5 C 36.1667,22.5 36.5,22.8333 36.5,23.5C 39.0424,31.5914 40.0424,39.9247 39.5,48.5C 26.5273,43.9236 13.194,40.9236 -0.5,39.5C -0.5,38.1667 -0.5,36.8333 -0.5,35.5C 0.482236,34.8592 1.48224,34.1925 2.5,33.5C 8.38804,35.3153 14.388,36.1487 20.5,36C 14.7084,33.9096 13.2084,30.0763 16,24.5C 19.3969,21.0193 23.0636,20.686 27,23.5C 27.1667,23.1667 27.3333,22.8333 27.5,22.5C 23.8489,18.3484 20.0156,14.3484 16,10.5C 15.2883,8.30472 15.9549,6.63805 18,5.5C 23.6805,11.3475 29.5138,17.0141 35.5,22.5 Z M 29.5,25.5 C 32.8422,28.9922 35.8422,32.8255 38.5,37C 33.1667,37.6667 27.8333,37.6667 22.5,37C 28.3694,35.3009 30.7027,31.4676 29.5,25.5 Z"/></g>
<g><path style="opacity:0.884" fill="#454444" d="M 126.5,34.5 C 128.03,35.0668 129.53,35.7334 131,36.5C 131.313,40.6568 132.147,44.6568 133.5,48.5C 130.762,47.7628 128.095,47.7628 125.5,48.5C 122.025,47.8568 120.859,45.8568 122,42.5C 123.8,40.683 125.966,39.5163 128.5,39C 126.559,38.2571 124.726,38.4238 123,39.5C 122.51,38.2068 122.343,36.8734 122.5,35.5C 124.099,35.7678 125.432,35.4345 126.5,34.5 Z M 126.5,42.5 C 128.973,42.9473 129.14,43.9473 127,45.5C 125.272,44.6477 125.105,43.6477 126.5,42.5 Z"/></g>
<g><path style="opacity:0.959" fill="#454444" d="M 150.5,35.5 C 156.364,33.9547 159.698,36.1213 160.5,42C 159.893,47.6083 156.893,49.6083 151.5,48C 147.909,44.1001 147.575,39.9334 150.5,35.5 Z M 152.5,38.5 C 156.782,39.6862 157.449,42.0196 154.5,45.5C 153.914,45.2907 153.414,44.9574 153,44.5C 152.505,42.5273 152.338,40.5273 152.5,38.5 Z"/></g>
<g><path style="opacity:0.95" fill="#454444" d="M 137.5,32.5 C 138.381,34.3036 139.714,35.8036 141.5,37C 138.963,39.1945 137.963,42.0279 138.5,45.5C 139.5,45.5 140.5,45.5 141.5,45.5C 141.5,46.5 141.5,47.5 141.5,48.5C 138.956,48.8957 136.789,48.229 135,46.5C 134.704,43.2942 134.204,40.1275 133.5,37C 134.117,34.7731 135.451,33.2731 137.5,32.5 Z"/></g>
<g><path style="opacity:0.609" fill="#444343" d="M 161.5,35.5 C 164.943,35.7959 168.443,36.1292 172,36.5C 172.499,40.4862 172.666,44.4862 172.5,48.5C 171.167,48.5 169.833,48.5 168.5,48.5C 168.665,45.1501 168.498,41.8168 168,38.5C 165.714,41.365 164.88,44.6983 165.5,48.5C 164.167,48.5 162.833,48.5 161.5,48.5C 161.5,44.1667 161.5,39.8333 161.5,35.5 Z"/></g>
<g><path style="opacity:0.329" fill="#454444" d="M 142.5,35.5 C 143.833,35.5 145.167,35.5 146.5,35.5C 146.5,39.8333 146.5,44.1667 146.5,48.5C 145.167,48.5 143.833,48.5 142.5,48.5C 142.5,44.1667 142.5,39.8333 142.5,35.5 Z"/></g>
<g><path style="opacity:1" fill="#dc3c31" d="M 57.5,49.5 C 57.5,45.8333 57.5,42.1667 57.5,38.5C 69.7059,38.8475 81.7059,37.5142 93.5,34.5C 95.543,35.5794 96.8763,37.246 97.5,39.5C 83.8574,41.694 70.5241,45.0274 57.5,49.5 Z"/></g>
<g><path style="opacity:0.607" fill="#454444" d="M 175.5,35.5 C 178.685,35.0196 181.519,35.6863 184,37.5C 184.42,41.1914 184.92,44.8581 185.5,48.5C 181.957,47.7369 178.457,47.4036 175,47.5C 174.333,45.5 174.333,43.5 175,41.5C 176.816,40.6705 178.649,39.8372 180.5,39C 178.765,38.3486 177.098,38.5153 175.5,39.5C 174.374,38.1916 174.374,36.8583 175.5,35.5 Z M 177.5,44.5 C 178.251,43.4265 179.251,43.2599 180.5,44C 179.648,45.7284 178.648,45.895 177.5,44.5 Z"/></g>
<g><path style="opacity:0.506" fill="#006d9f" d="M 132.5,50.5 C 133.833,50.5 135.167,50.5 136.5,50.5C 136.5,51.8333 136.5,53.1667 136.5,54.5C 135.167,54.5 133.833,54.5 132.5,54.5C 132.5,53.1667 132.5,51.8333 132.5,50.5 Z"/></g>
<g><path style="opacity:0.918" fill="#016b9c" d="M 146.5,49.5 C 147.833,49.5 149.167,49.5 150.5,49.5C 150.5,55.8333 150.5,62.1667 150.5,68.5C 148.833,68.5 147.167,68.5 145.5,68.5C 146.19,62.1903 146.524,55.857 146.5,49.5 Z"/></g>
<g><path style="opacity:0.679" fill="#006a9c" d="M 212.5,49.5 C 214.167,49.5 215.833,49.5 217.5,49.5C 217.5,55.8333 217.5,62.1667 217.5,68.5C 215.833,68.5 214.167,68.5 212.5,68.5C 212.5,62.1667 212.5,55.8333 212.5,49.5 Z"/></g>
<g><path style="opacity:1" fill="#006ea1" d="M 139.5,49.5 C 140.833,49.5 142.167,49.5 143.5,49.5C 143.5,55.8333 143.5,62.1667 143.5,68.5C 142.167,68.5 140.833,68.5 139.5,68.5C 139.5,62.1667 139.5,55.8333 139.5,49.5 Z"/></g>
<g><path style="opacity:1" fill="#006c9e" d="M 159.5,50.5 C 173.488,49.0565 177.488,54.5565 171.5,67C 167.637,68.3537 163.637,68.8537 159.5,68.5C 159.5,62.5 159.5,56.5 159.5,50.5 Z M 163.5,54.5 C 167.923,53.4249 169.923,55.0916 169.5,59.5C 169.793,63.701 167.793,65.701 163.5,65.5C 163.5,61.8333 163.5,58.1667 163.5,54.5 Z"/></g>
<g><path style="opacity:0.47" fill="#006da0" d="M 279.5,55.5 C 282.943,55.7959 286.443,56.1292 290,56.5C 290.499,60.4862 290.666,64.4862 290.5,68.5C 289.167,68.5 287.833,68.5 286.5,68.5C 286.5,65.5 286.5,62.5 286.5,59.5C 285.5,59.5 284.5,59.5 283.5,59.5C 283.5,62.5 283.5,65.5 283.5,68.5C 282.167,68.5 280.833,68.5 279.5,68.5C 279.5,64.1667 279.5,59.8333 279.5,55.5 Z"/></g>
<g><path style="opacity:1" fill="#006fa2" d="M 132.5,55.5 C 133.833,55.5 135.167,55.5 136.5,55.5C 136.5,59.8333 136.5,64.1667 136.5,68.5C 135.167,68.5 133.833,68.5 132.5,68.5C 132.5,64.1667 132.5,59.8333 132.5,55.5 Z"/></g>
<g><path style="opacity:0.49" fill="#006c9e" d="M 186.5,56.5 C 187.919,55.5489 189.585,55.2155 191.5,55.5C 192.614,63.8587 194.114,64.1921 196,56.5C 197.183,55.269 198.349,55.269 199.5,56.5C 198.167,60.1667 196.833,63.8333 195.5,67.5C 193.955,68.4519 192.288,68.7852 190.5,68.5C 189.739,64.2157 188.405,60.2157 186.5,56.5 Z"/></g>
<g><path style="opacity:0.959" fill="#016c9f" d="M 232.5,55.5 C 242.642,53.1445 246.476,56.8112 244,66.5C 242.316,68.7007 240.316,69.3673 238,68.5C 237.506,70.1341 237.34,71.8008 237.5,73.5C 235.856,73.7135 234.356,73.3802 233,72.5C 232.501,66.8431 232.334,61.1764 232.5,55.5 Z M 238.5,58.5 C 239.117,58.6107 239.617,58.944 240,59.5C 240.495,61.4727 240.662,63.4727 240.5,65.5C 239.5,65.5 238.5,65.5 237.5,65.5C 237.298,63.0504 237.631,60.717 238.5,58.5 Z"/></g>
<g><path style="opacity:0.962" fill="#006c9e" d="M 299.5,55.5 C 299.5,56.5 299.5,57.5 299.5,58.5C 298.275,59.1522 297.608,60.3189 297.5,62C 297.608,63.6811 298.275,64.8478 299.5,65.5C 299.5,66.8333 299.5,68.1667 299.5,69.5C 297.278,69.822 295.444,69.1554 294,67.5C 293.9,63.7984 293.067,60.2984 291.5,57C 293.632,53.0829 296.298,52.5829 299.5,55.5 Z"/></g>
<g><path style="opacity:0.377" fill="#006c9e" d="M 246.5,55.5 C 252.109,55.5782 257.776,55.7449 263.5,56C 264.464,60.0659 264.797,64.2325 264.5,68.5C 263.167,68.5 261.833,68.5 260.5,68.5C 260.665,65.1501 260.498,61.8168 260,58.5C 257.714,61.365 256.88,64.6983 257.5,68.5C 256.167,68.5 254.833,68.5 253.5,68.5C 253.665,65.1501 253.498,61.8168 253,58.5C 250.714,61.365 249.88,64.6983 250.5,68.5C 249.167,68.5 247.833,68.5 246.5,68.5C 246.5,64.1667 246.5,59.8333 246.5,55.5 Z"/></g>
<g><path style="opacity:0.524" fill="#006c9e" d="M 119.5,49.5 C 120.833,49.5 122.167,49.5 123.5,49.5C 123.335,52.8499 123.502,56.1832 124,59.5C 125.342,55.9125 127.509,54.7459 130.5,56C 128.787,57.3782 127.453,59.0448 126.5,61C 127.975,63.3092 129.642,65.4759 131.5,67.5C 127.904,69.2791 125.404,68.2791 124,64.5C 123.51,65.7932 123.343,67.1266 123.5,68.5C 122.167,68.5 120.833,68.5 119.5,68.5C 119.5,62.1667 119.5,55.8333 119.5,49.5 Z"/></g>
<g><path style="opacity:1" fill="#006c9f" d="M 221.5,55.5 C 230.115,54.7365 232.949,58.4031 230,66.5C 225.54,70.6871 221.873,70.0204 219,64.5C 218.131,61.0072 218.964,58.0072 221.5,55.5 Z M 223.5,58.5 C 224.5,58.5 225.5,58.5 226.5,58.5C 227.833,60.8333 227.833,63.1667 226.5,65.5C 225.5,65.5 224.5,65.5 223.5,65.5C 223.5,63.1667 223.5,60.8333 223.5,58.5 Z"/></g>
<g><path style="opacity:0.761" fill="#006c9e" d="M 109.5,50.5 C 111.833,50.5 114.167,50.5 116.5,50.5C 116.5,51.8333 116.5,53.1667 116.5,54.5C 115.07,54.5792 113.736,54.2458 112.5,53.5C 111.692,53.8076 111.025,54.3076 110.5,55C 112.759,56.7146 114.926,58.5479 117,60.5C 117.944,63.3471 117.444,65.8471 115.5,68C 112.518,68.498 109.518,68.6646 106.5,68.5C 106.12,64.8431 107.453,63.8431 110.5,65.5C 112,65.5472 113,64.8805 113.5,63.5C 111.007,61.8397 108.84,59.8397 107,57.5C 106.162,54.5193 106.995,52.1859 109.5,50.5 Z"/></g>
<g><path style="opacity:1" fill="#006da0" d="M 179.5,54.5 C 184.812,55 187.145,58 186.5,63.5C 184.143,63.3367 181.81,63.5034 179.5,64C 181.333,65.7875 183.333,65.9542 185.5,64.5C 186.429,65.6888 186.762,67.0222 186.5,68.5C 177.151,70.4823 173.651,66.8156 176,57.5C 177.145,56.3636 178.312,55.3636 179.5,54.5 Z M 179.5,58.5 C 181.983,58.73 182.483,59.3966 181,60.5C 179.97,60.1639 179.47,59.4972 179.5,58.5 Z"/></g>
<g><path style="opacity:0.995" fill="#016d9f" d="M 204.5,54.5 C 209.65,55.3274 211.65,58.3274 210.5,63.5C 208.396,63.2011 206.396,63.5344 204.5,64.5C 206.926,65.1684 209.259,65.5018 211.5,65.5C 208.5,70.4031 205,70.7364 201,66.5C 198.458,61.3612 199.624,57.3612 204.5,54.5 Z M 204.5,58.5 C 205.376,58.3691 206.043,58.7025 206.5,59.5C 204.192,60.8734 203.525,60.5401 204.5,58.5 Z"/></g>
<g><path style="opacity:0.533" fill="#006c9e" d="M 268.5,55.5 C 274.934,54.321 277.934,56.9877 277.5,63.5C 268.365,63.7029 268.365,64.3696 277.5,65.5C 277.5,66.5 277.5,67.5 277.5,68.5C 266.45,70.0922 263.45,65.7589 268.5,55.5 Z M 270.5,58.5 C 272.983,58.73 273.483,59.3966 272,60.5C 270.97,60.1639 270.47,59.4972 270.5,58.5 Z"/></g>
<g><path style="opacity:0.378" fill="#464545" d="M 198.5,70.5 C 199.833,70.5 201.167,70.5 202.5,70.5C 202.5,71.8333 202.5,73.1667 202.5,74.5C 201.167,74.5 199.833,74.5 198.5,74.5C 198.5,73.1667 198.5,71.8333 198.5,70.5 Z"/></g>
<g><path style="opacity:0.956" fill="#454444" d="M 110.5,70.5 C 113.5,70.5 116.5,70.5 119.5,70.5C 121.158,74.5529 119.825,75.5529 115.5,73.5C 110.171,75.6053 109.171,79.1053 112.5,84C 114.5,84.6667 116.5,84.6667 118.5,84C 120.078,81.5177 121.411,78.851 122.5,76C 130.265,73.425 133.432,76.2584 132,84.5C 128.421,89.7682 124.754,89.7682 121,84.5C 117.127,89.3729 112.794,89.7062 108,85.5C 105.492,79.8803 106.325,74.8803 110.5,70.5 Z M 125.5,77.5 C 126.496,77.4142 127.329,77.7476 128,78.5C 128.495,80.4727 128.662,82.4727 128.5,84.5C 127.178,84.67 126.011,84.3366 125,83.5C 124.51,81.4546 124.677,79.4546 125.5,77.5 Z"/></g>
<g><path style="opacity:0.951" fill="#454444" d="M 134.5,74.5 C 137.272,75.3715 139.938,75.3715 142.5,74.5C 142.5,75.8333 142.5,77.1667 142.5,78.5C 141.178,78.33 140.011,78.6634 139,79.5C 138.503,82.146 138.336,84.8127 138.5,87.5C 137.167,87.5 135.833,87.5 134.5,87.5C 134.5,83.1667 134.5,78.8333 134.5,74.5 Z"/></g>
<g><path style="opacity:0.861" fill="#454545" d="M 180.5,74.5 C 183.044,74.1043 185.211,74.771 187,76.5C 187.066,80.2335 187.899,83.7335 189.5,87C 188.892,87.8699 188.059,88.3699 187,88.5C 184.06,88.2858 181.226,87.7858 178.5,87C 176.876,82.4289 178.542,79.5956 183.5,78.5C 181.997,77.9478 180.331,77.9478 178.5,78.5C 178.527,76.8007 179.194,75.4674 180.5,74.5 Z M 181.5,82.5 C 183.337,82.6395 183.67,83.3061 182.5,84.5C 181.702,84.0431 181.369,83.3764 181.5,82.5 Z"/></g>
<g><path style="opacity:0.612" fill="#454444" d="M 190.5,72.5 C 193.491,72.3297 195.491,73.663 196.5,76.5C 195.008,78.9724 194.342,81.6391 194.5,84.5C 195.5,84.5 196.5,84.5 197.5,84.5C 196.779,89.0178 194.612,89.6845 191,86.5C 189.987,81.7834 189.82,77.1168 190.5,72.5 Z"/></g>
<g><path style="opacity:0.742" fill="#444343" d="M 208.5,74.5 C 215.298,75.429 217.465,79.0956 215,85.5C 209.465,89.8354 205.632,88.5021 203.5,81.5C 204.065,78.2842 205.732,75.9509 208.5,74.5 Z M 209.5,77.5 C 211.951,79.9162 212.117,82.5829 210,85.5C 208.188,82.9543 208.022,80.2877 209.5,77.5 Z"/></g>
<g><path style="opacity:0.941" fill="#454444" d="M 159.5,74.5 C 166.809,74.6663 169.309,78.3329 167,85.5C 161.109,89.8153 157.276,88.3153 155.5,81C 155.722,78.0379 157.056,75.8712 159.5,74.5 Z M 161.5,77.5 C 162.117,77.6107 162.617,77.944 163,78.5C 163.495,80.4727 163.662,82.4727 163.5,84.5C 159.109,83.3632 158.442,81.0298 161.5,77.5 Z"/></g>
<g><path style="opacity:1" fill="#464545" d="M 169.5,74.5 C 172.272,75.3715 174.938,75.3715 177.5,74.5C 177.5,75.8333 177.5,77.1667 177.5,78.5C 176.178,78.33 175.011,78.6634 174,79.5C 173.503,82.146 173.336,84.8127 173.5,87.5C 172.167,87.5 170.833,87.5 169.5,87.5C 169.5,83.1667 169.5,78.8333 169.5,74.5 Z"/></g>
<g><path style="opacity:1" fill="#474646" d="M 198.5,75.5 C 199.833,75.5 201.167,75.5 202.5,75.5C 202.5,79.5 202.5,83.5 202.5,87.5C 201.167,87.5 199.833,87.5 198.5,87.5C 198.5,83.5 198.5,79.5 198.5,75.5 Z"/></g>
<g><path style="opacity:0.474" fill="#444343" d="M 218.5,74.5 C 220.722,75.3862 222.888,75.3862 225,74.5C 226.261,74.7591 227.261,75.4258 228,76.5C 228.499,80.4862 228.666,84.4862 228.5,88.5C 227.167,88.5 225.833,88.5 224.5,88.5C 224.82,85.1016 224.487,81.7683 223.5,78.5C 222.914,78.7093 222.414,79.0426 222,79.5C 221.502,82.4816 221.335,85.4816 221.5,88.5C 220.178,88.67 219.011,88.3366 218,87.5C 217.232,83.0804 217.398,78.7471 218.5,74.5 Z"/></g>
<g><path style="opacity:0.561" fill="#454444" d="M 143.5,74.5 C 145.979,75.0725 148.313,75.0725 150.5,74.5C 152.029,74.5288 153.196,75.1955 154,76.5C 154.667,79.5 154.667,82.5 154,85.5C 152.316,87.7007 150.316,88.3673 148,87.5C 147.506,89.1341 147.34,90.8008 147.5,92.5C 146.167,92.5 144.833,92.5 143.5,92.5C 143.5,86.5 143.5,80.5 143.5,74.5 Z M 147.5,78.5 C 148.5,78.5 149.5,78.5 150.5,78.5C 150.5,80.5 150.5,82.5 150.5,84.5C 149.5,84.5 148.5,84.5 147.5,84.5C 147.5,82.5 147.5,80.5 147.5,78.5 Z"/></g>
<g><path style="opacity:1" fill="#2d2b2a" d="M 192.5,107.5 C 193.833,107.5 195.167,107.5 196.5,107.5C 196.5,113.167 196.5,118.833 196.5,124.5C 195.167,124.5 193.833,124.5 192.5,124.5C 192.5,118.833 192.5,113.167 192.5,107.5 Z"/></g>
<g><path style="opacity:0.752" fill="#2b2a29" d="M 137.5,107.5 C 138.833,107.5 140.167,107.5 141.5,107.5C 141.5,109.167 141.5,110.833 141.5,112.5C 143.467,112.261 145.301,112.594 147,113.5C 147.499,117.152 147.665,120.818 147.5,124.5C 146.167,124.5 144.833,124.5 143.5,124.5C 142.833,113.833 142.167,113.833 141.5,124.5C 138.223,124.784 135.057,124.451 132,123.5C 131.739,120.337 130.906,117.337 129.5,114.5C 130.547,112.944 131.214,111.277 131.5,109.5C 132.833,109.5 134.167,109.5 135.5,109.5C 135.281,110.675 135.614,111.675 136.5,112.5C 137.452,110.955 137.785,109.288 137.5,107.5 Z M 135.5,116.5 C 136.586,116.62 137.253,117.287 137.5,118.5C 137.167,119.167 136.833,119.833 136.5,120.5C 135.571,119.311 135.238,117.978 135.5,116.5 Z"/></g>
<g><path style="opacity:1" fill="#2c2b2a" d="M 187.5,107.5 C 188.833,107.5 190.167,107.5 191.5,107.5C 191.5,113.167 191.5,118.833 191.5,124.5C 190.167,124.5 188.833,124.5 187.5,124.5C 187.5,118.833 187.5,113.167 187.5,107.5 Z"/></g>
<g><path style="opacity:1" fill="#2c2b29" d="M 201.5,107.5 C 202.833,107.5 204.167,107.5 205.5,107.5C 205.5,113.167 205.5,118.833 205.5,124.5C 204.167,124.5 202.833,124.5 201.5,124.5C 201.5,118.833 201.5,113.167 201.5,107.5 Z"/></g>
<g><path style="opacity:0.812" fill="#2b2a2a" d="M 21.5,112.5 C 20.5,112.5 19.5,112.5 18.5,112.5C 18.5,116.5 18.5,120.5 18.5,124.5C 17.1667,124.5 15.8333,124.5 14.5,124.5C 14.5,120.5 14.5,116.5 14.5,112.5C 13.1667,112.5 11.8333,112.5 10.5,112.5C 10.5,111.167 10.5,109.833 10.5,108.5C 14.1667,108.5 17.8333,108.5 21.5,108.5C 21.5,109.833 21.5,111.167 21.5,112.5 Z"/></g>
<g><path style="opacity:0.606" fill="#2b2a29" d="M 171.5,107.5 C 172.833,107.5 174.167,107.5 175.5,107.5C 175.337,109.857 175.503,112.19 176,114.5C 177.67,112.302 179.67,111.968 182,113.5C 183.678,112.318 183.512,111.152 181.5,110C 183.167,106.667 184.833,106.667 186.5,110C 186.095,110.945 185.428,111.612 184.5,112C 186.389,115.836 187.055,120.003 186.5,124.5C 183.482,124.665 180.482,124.498 177.5,124C 176.126,120.59 175.459,120.757 175.5,124.5C 174.167,124.5 172.833,124.5 171.5,124.5C 171.5,118.833 171.5,113.167 171.5,107.5 Z M 180.5,114.5 C 181.629,116.628 181.796,118.961 181,121.5C 178.146,119.205 177.979,116.872 180.5,114.5 Z"/></g>
<g><path style="opacity:0.743" fill="#2b2a29" d="M 28.5,112.5 C 31.1194,112.232 33.6194,112.565 36,113.5C 37.2367,117.06 37.7367,120.727 37.5,124.5C 33.9929,125.006 30.8263,124.34 28,122.5C 27.1751,120.299 27.6751,118.466 29.5,117C 28.6198,115.644 28.2865,114.144 28.5,112.5 Z M 31.5,119.5 C 34.0009,119.511 34.1676,120.178 32,121.5C 31.5357,120.906 31.369,120.239 31.5,119.5 Z"/></g>
<g><path style="opacity:0.748" fill="#2b2a29" d="M 75.5,112.5 C 82.5023,113.639 89.5023,113.805 96.5,113C 97.4601,116.73 97.7935,120.563 97.5,124.5C 96.1667,124.5 94.8333,124.5 93.5,124.5C 93.1667,113.833 92.8333,113.833 92.5,124.5C 91.1667,124.5 89.8333,124.5 88.5,124.5C 87.8333,113.833 87.1667,113.833 86.5,124.5C 85.1667,124.5 83.8333,124.5 82.5,124.5C 82.5,121.833 82.5,119.167 82.5,116.5C 81.5,116.5 80.5,116.5 79.5,116.5C 79.5,119.167 79.5,121.833 79.5,124.5C 78.1667,124.5 76.8333,124.5 75.5,124.5C 75.5,120.5 75.5,116.5 75.5,112.5 Z"/></g>
<g><path style="opacity:0.896" fill="#292827" d="M 100.5,107.5 C 103.705,108.586 104.038,110.086 101.5,112C 103.389,115.836 104.055,120.003 103.5,124.5C 102.167,124.5 100.833,124.5 99.5,124.5C 99.203,120.233 99.5363,116.066 100.5,112C 98.0688,110.568 98.0688,109.068 100.5,107.5 Z"/></g>
<g><path style="opacity:0.674" fill="#2b2a29" d="M 104.5,112.5 C 106.597,113.353 108.597,113.353 110.5,112.5C 112.029,112.529 113.196,113.196 114,114.5C 114.498,117.817 114.665,121.15 114.5,124.5C 113.167,124.5 111.833,124.5 110.5,124.5C 109.833,113.833 109.167,113.833 108.5,124.5C 107.167,124.5 105.833,124.5 104.5,124.5C 104.5,120.5 104.5,116.5 104.5,112.5 Z"/></g>
<g><path style="opacity:0.59" fill="#2b2a29" d="M 234.5,107.5 C 235.833,107.5 237.167,107.5 238.5,107.5C 238.5,113.167 238.5,118.833 238.5,124.5C 235.938,123.82 233.271,123.653 230.5,124C 229.299,123.097 228.465,121.931 228,120.5C 227.51,121.793 227.343,123.127 227.5,124.5C 226.167,124.5 224.833,124.5 223.5,124.5C 222.833,113.833 222.167,113.833 221.5,124.5C 220.167,124.5 218.833,124.5 217.5,124.5C 217.5,120.5 217.5,116.5 217.5,112.5C 220.062,113.18 222.729,113.347 225.5,113C 226.211,114.255 227.044,115.421 228,116.5C 229.026,113.307 231.192,111.974 234.5,112.5C 234.5,110.833 234.5,109.167 234.5,107.5 Z M 232.5,116.5 C 233.586,116.62 234.253,117.287 234.5,118.5C 233.696,120.957 232.696,120.957 231.5,118.5C 231.863,117.817 232.196,117.15 232.5,116.5 Z"/></g>
<g><path style="opacity:0.885" fill="#2b2a29" d="M 38.5,112.5 C 41.2773,112.786 44.1106,113.12 47,113.5C 48.3368,117.026 48.8368,120.692 48.5,124.5C 47.1667,124.5 45.8333,124.5 44.5,124.5C 43.8333,113.833 43.1667,113.833 42.5,124.5C 41.1667,124.5 39.8333,124.5 38.5,124.5C 38.5,120.5 38.5,116.5 38.5,112.5 Z"/></g>
<g><path style="opacity:1" fill="#2c2b29" d="M 151.5,112.5 C 156.039,111.539 158.372,113.373 158.5,118C 157.666,120.17 157.333,122.17 157.5,124C 150.667,125.167 147.833,122.333 149,115.5C 149.698,114.309 150.531,113.309 151.5,112.5 Z"/></g>
<g><path style="opacity:0.537" fill="#2b2a2a" d="M 21.5,112.5 C 23.5,112.5 25.5,112.5 27.5,112.5C 26.201,116.37 25.5343,120.37 25.5,124.5C 23.8333,124.5 22.1667,124.5 20.5,124.5C 20.2367,120.4 20.5701,116.4 21.5,112.5 Z"/></g>
<g><path style="opacity:1" fill="#2b2a29" d="M 60.5,107.5 C 61.8333,107.5 63.1667,107.5 64.5,107.5C 64.7733,109.451 64.1066,110.951 62.5,112C 63.6667,112.5 64.5,113.333 65,114.5C 72.2027,111.019 75.2027,113.352 74,121.5C 67.5823,126.463 63.9156,124.796 63,116.5C 62.5026,119.146 62.3359,121.813 62.5,124.5C 61.1667,124.5 59.8333,124.5 58.5,124.5C 58.8919,121.278 58.3919,118.278 57,115.5C 56.2496,116.126 55.4162,116.626 54.5,117C 57.8382,118.988 58.1715,121.321 55.5,124C 53.5273,124.495 51.5273,124.662 49.5,124.5C 49.238,123.022 49.5713,121.689 50.5,120.5C 54.1951,121.251 54.0285,120.585 50,118.5C 49.3333,116.833 49.3333,115.167 50,113.5C 52.7191,112.556 55.5525,112.223 58.5,112.5C 58.3915,110.486 59.0582,108.82 60.5,107.5 Z M 68.5,115.5 C 70.2132,116.635 70.8799,118.302 70.5,120.5C 69.5,120.5 68.5,120.5 67.5,120.5C 67.366,118.708 67.6993,117.042 68.5,115.5 Z"/></g>
<g><path style="opacity:0.924" fill="#2c2b2a" d="M 164.5,112.5 C 166.5,112.5 168.5,112.5 170.5,112.5C 170.703,114.39 170.037,115.89 168.5,117C 171.167,119.333 171.167,121.667 168.5,124C 166.527,124.495 164.527,124.662 162.5,124.5C 162.5,123.167 162.5,121.833 162.5,120.5C 163.552,120.649 164.552,120.483 165.5,120C 162.055,117.852 161.721,115.352 164.5,112.5 Z"/></g>
<g><path style="opacity:0.359" fill="#2b2a29" d="M 241.5,112.5 C 243.604,112.201 245.604,112.534 247.5,113.5C 245.838,115.311 245.672,116.978 247,118.5C 248.21,113.464 251.376,111.464 256.5,112.5C 256.616,115.91 254.95,117.244 251.5,116.5C 251.406,119.541 252.906,121.207 256,121.5C 256.273,119.671 257.107,118.171 258.5,117C 257.62,115.644 257.286,114.144 257.5,112.5C 259.92,112.292 262.253,112.626 264.5,113.5C 265.489,117.107 265.823,120.774 265.5,124.5C 260.532,124.18 255.532,124.014 250.5,124C 249.299,123.097 248.465,121.931 248,120.5C 246.323,124.051 243.49,125.384 239.5,124.5C 239.5,123.167 239.5,121.833 239.5,120.5C 240.552,120.649 241.552,120.483 242.5,120C 238.88,118.006 238.547,115.506 241.5,112.5 Z"/></g>
<g><path style="opacity:1" fill="#2b2a29" d="M 207.5,112.5 C 210.119,112.232 212.619,112.565 215,113.5C 215.246,116.89 215.746,120.223 216.5,123.5C 213.291,124.787 210.125,124.787 207,123.5C 206.104,120.975 206.604,118.808 208.5,117C 207.62,115.644 207.286,114.144 207.5,112.5 Z M 210.5,119.5 C 213.001,119.511 213.168,120.178 211,121.5C 210.536,120.906 210.369,120.239 210.5,119.5 Z"/></g>
<g><path style="opacity:0.522" fill="#2a2928" d="M 271.5,128.5 C 270.167,128.5 268.833,128.5 267.5,128.5C 267.8,123.249 267.467,117.916 266.5,112.5C 275.49,110.325 278.99,113.658 277,122.5C 275.556,124.155 273.722,124.822 271.5,124.5C 271.5,125.833 271.5,127.167 271.5,128.5 Z M 271.5,116.5 C 272.586,116.62 273.253,117.287 273.5,118.5C 273.167,119.167 272.833,119.833 272.5,120.5C 271.571,119.311 271.238,117.978 271.5,116.5 Z"/></g>
<g><path style="opacity:0.953" fill="#2a2a28" d="M 280.5,112.5 C 284.925,111.757 287.592,113.59 288.5,118C 287.713,120.099 287.38,122.266 287.5,124.5C 279.495,125.658 276.661,122.325 279,114.5C 279.717,113.956 280.217,113.289 280.5,112.5 Z"/></g>
<g><path style="opacity:1" fill="#2c2b2a" d="M 123.5,128.5 C 120.833,128.5 118.167,128.5 115.5,128.5C 115.624,126.418 116.624,124.918 118.5,124C 117.584,123.626 116.75,123.126 116,122.5C 113.833,114.166 117,110.833 125.5,112.5C 125.666,117.179 125.499,121.845 125,126.5C 124.283,127.044 123.783,127.711 123.5,128.5 Z M 119.5,116.5 C 120.586,116.62 121.253,117.287 121.5,118.5C 121.167,119.167 120.833,119.833 120.5,120.5C 119.571,119.311 119.238,117.978 119.5,116.5 Z"/></g>
</svg>
