<?xml version="1.0" encoding="UTF-8"?>
<!DOCTYPE svg PUBLIC "-//W3C//DTD SVG 1.1//EN" "http://www.w3.org/Graphics/SVG/1.1/DTD/svg11.dtd">
<svg xmlns="http://www.w3.org/2000/svg" version="1.1" width="257px" height="249px" style="shape-rendering:geometricPrecision; text-rendering:geometricPrecision; image-rendering:optimizeQuality; fill-rule:evenodd; clip-rule:evenodd" xmlns:xlink="http://www.w3.org/1999/xlink">
<g><path style="opacity:0.843" fill="#004e9f" d="M 114.5,-0.5 C 124.167,-0.5 133.833,-0.5 143.5,-0.5C 144.93,5.72098 146.597,11.8876 148.5,18C 153.808,19.1175 158.975,20.6175 164,22.5C 168.378,17.7865 173.044,13.4532 178,9.5C 187.241,13.0842 195.741,17.9175 203.5,24C 201.162,29.6705 199.662,35.5038 199,41.5C 202.682,45.349 206.515,49.0156 210.5,52.5C 215.888,49.5367 221.554,47.7033 227.5,47C 233.2,53.5621 238.033,60.7288 242,68.5C 242.667,69.5 242.667,70.5 242,71.5C 237.403,75.4237 233.57,79.9237 230.5,85C 232.197,89.0905 233.697,93.2571 235,97.5C 241.09,98.7832 247.256,99.7832 253.5,100.5C 254.691,108.616 255.691,116.616 256.5,124.5C 256.5,126.167 256.5,127.833 256.5,129.5C 250.562,131.202 244.728,133.202 239,135.5C 237.672,140.457 237.006,145.457 237,150.5C 241.975,153.975 246.809,157.641 251.5,161.5C 248.883,170.515 245.383,179.182 241,187.5C 240.107,188.081 239.107,188.415 238,188.5C 232.525,187.136 227.025,186.302 221.5,186C 218.667,190.167 215.833,194.333 213,198.5C 212.282,199.451 211.449,199.617 210.5,199C 202.131,192.81 194.131,186.143 186.5,179C 212.199,145.777 213.033,111.944 189,77.5C 161.712,47.9713 129.545,41.1379 92.5,57C 54.2174,80.5092 42.0507,113.676 56,156.5C 60.0793,164.999 64.9127,172.999 70.5,180.5C 62.4251,187.286 54.2585,193.953 46,200.5C 41.7861,195.954 37.9527,191.121 34.5,186C 29.0241,186.551 23.5241,187.384 18,188.5C 16.2894,188.561 14.956,187.894 14,186.5C 9.94807,178.512 6.7814,170.179 4.5,161.5C 9.36779,157.149 14.7011,153.316 20.5,150C 19.1398,145.637 18.3065,141.137 18,136.5C 17.5,135.333 16.6667,134.5 15.5,134C 10.1781,132.392 4.84474,130.892 -0.5,129.5C -0.5,125.167 -0.5,120.833 -0.5,116.5C 0.588148,110.979 1.58815,105.312 2.5,99.5C 7.51862,99.2478 12.5186,98.7478 17.5,98C 19.4025,97.8008 20.9025,96.9675 22,95.5C 23.2052,91.3837 24.7052,87.3837 26.5,83.5C 22.7225,78.2196 18.3892,73.3862 13.5,69C 17.7831,59.2284 23.7831,50.7284 31.5,43.5C 36.3848,46.1094 41.3848,48.4428 46.5,50.5C 51.1576,47.4911 55.4909,43.9911 59.5,40C 57.4066,34.5549 55.4066,29.0549 53.5,23.5C 61.1878,16.9835 69.8545,11.9835 79.5,8.5C 84.8163,12.3175 89.6497,16.6508 94,21.5C 98.7758,20.0977 103.609,18.931 108.5,18C 111.037,12.0213 113.037,5.85464 114.5,-0.5 Z M 119.5,4.5 C 126.211,4.28704 132.877,4.62037 139.5,5.5C 140.347,10.8879 141.513,16.2212 143,21.5C 149.923,24.1977 157.09,26.531 164.5,28.5C 169.464,24.7067 174.297,20.7067 179,16.5C 185.423,18.9567 191.256,22.29 196.5,26.5C 194.455,32.118 192.955,37.7847 192,43.5C 198.009,48.3433 203.509,53.6766 208.5,59.5C 214.033,56.9325 219.7,55.0992 225.5,54C 229.424,58.7633 232.758,63.9299 235.5,69.5C 231.301,73.8629 227.301,78.3629 223.5,83C 226.066,89.3634 228.232,95.8634 230,102.5C 236.051,104.008 242.217,105.008 248.5,105.5C 249.298,112.15 249.965,118.817 250.5,125.5C 244.424,126.803 238.591,128.803 233,131.5C 232.48,138.621 231.313,145.621 229.5,152.5C 234.722,156.271 239.722,160.271 244.5,164.5C 242.365,170.766 239.699,176.766 236.5,182.5C 230.993,181.232 225.493,179.898 220,178.5C 217.184,181.453 214.851,184.787 213,188.5C 211.867,190.211 210.367,190.711 208.5,190C 203.802,186.299 199.469,182.299 195.5,178C 219.041,141.694 217.874,106.194 192,71.5C 167.801,46.2138 138.634,37.7138 104.5,46C 66.2847,59.3937 45.9513,86.3937 43.5,127C 44.5085,146.366 50.8419,163.699 62.5,179C 57.6115,183.56 52.4448,187.726 47,191.5C 43.2868,188.607 40.4534,184.941 38.5,180.5C 32.1091,179.95 25.7758,180.616 19.5,182.5C 15.8692,176.945 13.2025,170.945 11.5,164.5C 15.7389,160.7 20.4056,157.367 25.5,154.5C 25.8333,153.667 26.1667,152.833 26.5,152C 24.6832,144.601 23.6832,137.101 23.5,129.5C 17.5,128.167 11.5,126.833 5.5,125.5C 5.44651,118.421 6.11317,111.421 7.5,104.5C 13.8844,104.243 20.2177,103.577 26.5,102.5C 28.1309,95.441 30.4642,88.6076 33.5,82C 29.5468,77.0444 25.2135,72.3777 20.5,68C 23.7762,62.3918 27.4429,57.0585 31.5,52C 32.8333,51.3333 34.1667,51.3333 35.5,52C 39.8333,54.1667 44.1667,56.3333 48.5,58.5C 54.3501,52.8157 60.3501,47.3157 66.5,42C 63.8413,36.2213 62.1746,30.388 61.5,24.5C 66.9358,21.3657 72.4358,18.3657 78,15.5C 83.0197,19.5222 87.6864,23.8555 92,28.5C 99.2478,25.6461 106.748,23.9794 114.5,23.5C 115.701,17.0279 117.368,10.6946 119.5,4.5 Z M 104.5,33.5 C 106.368,34.7861 106.534,36.1195 105,37.5C 104.51,36.2068 104.343,34.8734 104.5,33.5 Z M 78.5,45.5 C 81.0009,45.5109 81.1676,46.1776 79,47.5C 78.5357,46.9056 78.369,46.2389 78.5,45.5 Z M 72.5,50.5 C 70.2398,49.7624 70.0731,48.7624 72,47.5C 72.4828,48.448 72.6495,49.448 72.5,50.5 Z M 188.5,53.5 C 191.012,54.2162 191.012,55.2162 188.5,56.5C 187.438,55.5754 187.438,54.5754 188.5,53.5 Z M 127.5,64.5 C 129.888,65.2187 131.388,66.8854 132,69.5C 136.034,78.0532 136.368,86.7199 133,95.5C 129.366,102.068 126.033,101.735 123,94.5C 120.115,83.8365 121.615,73.8365 127.5,64.5 Z M 120.5,98.5 C 114.738,95.332 111.738,90.332 111.5,83.5C 112.38,77.8404 113.213,72.1737 114,66.5C 114.414,66.0426 114.914,65.7093 115.5,65.5C 117.692,66.8587 119.359,68.6921 120.5,71C 116.529,80.1757 116.529,89.3423 120.5,98.5 Z M 135.5,99.5 C 139.073,90.3158 139.407,80.9824 136.5,71.5C 137.833,69.5 139.5,67.8333 141.5,66.5C 142.665,74.4792 142.832,82.4792 142,90.5C 141.265,94.6741 139.098,97.6741 135.5,99.5 Z M 102.5,71.5 C 104.903,71.393 106.736,72.393 108,74.5C 108.333,80.1667 108.667,85.8333 109,91.5C 110.211,94.7591 112.044,97.5925 114.5,100C 112.544,99.7782 110.71,98.9448 109,97.5C 107.414,95.3295 106.08,92.9962 105,90.5C 103.884,84.1991 103.05,77.8658 102.5,71.5 Z M 142.5,99.5 C 144.145,96.4009 145.312,93.0675 146,89.5C 146.171,84.4671 146.671,79.4671 147.5,74.5C 148.5,73.8333 149.5,73.1667 150.5,72.5C 151.447,80.8986 149.947,88.8986 146,96.5C 144.961,97.7101 143.794,98.7101 142.5,99.5 Z M 204.5,74.5 C 206.933,74.7856 206.933,75.4523 204.5,76.5C 204.5,75.8333 204.5,75.1667 204.5,74.5 Z M 94.5,77.5 C 96.1703,77.7512 97.6703,78.4178 99,79.5C 99.6302,87.2278 102.13,94.2278 106.5,100.5C 104.284,99.7974 102.451,98.4641 101,96.5C 98.1312,90.3933 95.9645,84.0599 94.5,77.5 Z M 212.5,80.5 C 211.828,81.2674 210.995,81.9341 210,82.5C 208.562,81.0997 207.729,79.433 207.5,77.5C 208.5,77.5 209.5,77.5 210.5,77.5C 210.285,79.1788 210.952,80.1788 212.5,80.5 Z M 157.5,78.5 C 158.376,78.3691 159.043,78.7025 159.5,79.5C 157.799,87.462 154.299,94.462 149,100.5C 151.565,94.9245 153.232,88.9245 154,82.5C 154.69,80.6498 155.856,79.3164 157.5,78.5 Z M 45.5,82.5 C 46.7733,83.0768 46.7733,83.7435 45.5,84.5C 44.537,84.0302 44.537,83.3635 45.5,82.5 Z M 87.5,84.5 C 89.5824,84.472 91.4157,85.1387 93,86.5C 94.4082,92.4858 97.2415,97.6524 101.5,102C 98.3357,101.879 95.8357,100.379 94,97.5C 91.9114,93.0276 89.7448,88.6942 87.5,84.5 Z M 152.5,102.5 C 156.003,98.8103 158.503,94.4769 160,89.5C 161.489,87.6682 163.322,86.8348 165.5,87C 163.46,90.9144 161.293,94.7478 159,98.5C 157.362,100.734 155.195,102.067 152.5,102.5 Z M 217.5,98.5 C 219.048,98.8212 219.715,99.8212 219.5,101.5C 216.752,101.598 216.086,100.598 217.5,98.5 Z M 127.5,103.5 C 133.177,104.168 137.177,107.168 139.5,112.5C 138.872,114.258 137.872,115.758 136.5,117C 132.14,116.658 127.807,116.825 123.5,117.5C 117.771,116.606 116.271,113.606 119,108.5C 121.398,105.892 124.231,104.225 127.5,103.5 Z M 107.5,105.5 C 110.518,105.335 113.518,105.502 116.5,106C 111.814,114.017 104.814,117.017 95.5,115C 97.6678,109.314 101.668,106.148 107.5,105.5 Z M 141.5,106.5 C 145.654,106.631 149.654,107.464 153.5,109C 155.35,112.362 157.683,115.362 160.5,118C 155.417,119.791 150.417,119.457 145.5,117C 143.64,113.749 142.307,110.249 141.5,106.5 Z M 220.5,113.5 C 223.674,113.952 224.007,114.952 221.5,116.5C 219.481,115.867 219.147,114.867 220.5,113.5 Z M 127.5,130.5 C 127.666,135.179 127.499,139.845 127,144.5C 124.935,139.649 125.101,134.982 127.5,130.5 Z M 115.5,145.5 C 119.007,145.307 122.34,145.973 125.5,147.5C 126.714,152.579 126.381,157.579 124.5,162.5C 120.66,161.008 116.66,160.341 112.5,160.5C 104.764,160.956 97.0973,161.956 89.5,163.5C 88.8333,163.167 88.1667,162.833 87.5,162.5C 91.1667,157.833 94.8333,153.167 98.5,148.5C 104.394,147.958 110.06,146.958 115.5,145.5 Z M 150.5,148.5 C 152.857,148.337 155.19,148.503 157.5,149C 160.251,153.837 163.251,158.503 166.5,163C 158.369,162.231 150.202,161.397 142,160.5C 137.306,160.096 132.972,161.096 129,163.5C 128.9,157.931 129.4,152.431 130.5,147C 137.492,144.713 144.159,145.213 150.5,148.5 Z M 218.5,148.5 C 220.973,148.604 221.639,149.604 220.5,151.5C 218.129,151.108 217.462,150.108 218.5,148.5 Z M 118.5,152.5 C 117.17,151.168 115.503,150.335 113.5,150C 116.167,149.333 118.833,149.333 121.5,150C 119.881,150.236 118.881,151.069 118.5,152.5 Z M 138.5,149.5 C 138.414,150.496 138.748,151.329 139.5,152C 134.643,153.785 134.31,152.952 138.5,149.5 Z M 140.5,150.5 C 141.251,149.427 142.251,149.26 143.5,150C 142.648,151.728 141.648,151.895 140.5,150.5 Z M 145.5,150.5 C 147.199,150.34 148.866,150.506 150.5,151C 148.485,151.424 146.651,152.258 145,153.5C 144.5,153.333 144,153.167 143.5,153C 144.756,152.583 145.423,151.75 145.5,150.5 Z M 149.5,156.5 C 148.127,156.657 146.793,156.49 145.5,156C 147.584,155.222 149.417,154.055 151,152.5C 152.067,153.191 153.234,153.691 154.5,154C 152.256,154.05 150.589,154.883 149.5,156.5 Z M 126.5,167.5 C 128.513,168.475 129.846,170.142 130.5,172.5C 129.034,174.657 127.2,174.99 125,173.5C 124.591,171.305 125.091,169.305 126.5,167.5 Z"/></g>
<g><path style="opacity:0.646" fill="#004e9f" d="M 95.5,42.5 C 94.828,43.2674 93.9947,43.9341 93,44.5C 91.9305,41.7919 90.7639,39.1253 89.5,36.5C 90.6507,35.269 91.8173,35.269 93,36.5C 93.9525,34.4078 95.2859,34.0745 97,35.5C 97.4186,34.3279 98.0853,33.3279 99,32.5C 101.729,31.4748 104.729,31.4748 108,32.5C 108.71,31.0267 109.876,30.3601 111.5,30.5C 111.34,32.1992 111.506,33.8659 112,35.5C 113.128,33.6547 113.628,31.6547 113.5,29.5C 116.48,29.2411 118.313,30.5744 119,33.5C 119.494,31.8659 119.66,30.1992 119.5,28.5C 121.911,28.1367 123.411,29.1367 124,31.5C 124.249,30.376 124.749,29.376 125.5,28.5C 127.129,31.2659 127.795,34.2659 127.5,37.5C 125.089,37.8633 123.589,36.8633 123,34.5C 122.517,35.448 122.351,36.448 122.5,37.5C 120.409,37.6816 118.409,37.3482 116.5,36.5C 114.49,38.1713 112.157,38.838 109.5,38.5C 108.997,33.5 108.664,33.8333 108.5,39.5C 105.933,39.8545 103.433,40.5212 101,41.5C 100.127,41.2645 99.2935,40.9312 98.5,40.5C 97.7348,41.6119 96.7348,42.2786 95.5,42.5 Z M 104.5,33.5 C 104.343,34.8734 104.51,36.2068 105,37.5C 106.534,36.1195 106.368,34.7861 104.5,33.5 Z"/></g>
<g><path style="opacity:0.617" fill="#004e9f" d="M 130.5,28.5 C 132.124,28.3601 133.29,29.0267 134,30.5C 135.686,27.978 137.019,28.3113 138,31.5C 139.333,28.8333 140.667,28.8333 142,31.5C 144.005,29.1996 146.172,29.1996 148.5,31.5C 149.086,31.2907 149.586,30.9574 150,30.5C 156.138,32.6015 162.304,34.6015 168.5,36.5C 167.937,38.91 167.437,41.2433 167,43.5C 168.102,41.6191 169.435,39.9525 171,38.5C 175.284,40.6166 179.451,42.9499 183.5,45.5C 184.644,48.2479 183.644,50.0813 180.5,51C 181.993,52.1562 181.826,52.9896 180,53.5C 175.159,52.3104 174.326,49.8104 177.5,46C 177.167,45.5 176.833,45 176.5,44.5C 175.333,46.1667 174.167,47.8333 173,49.5C 172.13,48.8921 171.63,48.0588 171.5,47C 172.615,45.6068 173.115,44.1068 173,42.5C 172.667,42.1667 172.333,41.8333 172,41.5C 169.697,47.5699 166.864,47.9032 163.5,42.5C 163.76,40.8129 164.427,39.3129 165.5,38C 164.552,37.5172 163.552,37.3505 162.5,37.5C 162.435,39.6957 161.768,41.6957 160.5,43.5C 158.067,41.515 158.067,39.3483 160.5,37C 159.552,36.5172 158.552,36.3505 157.5,36.5C 157.617,38.4835 156.95,40.1502 155.5,41.5C 154.832,39.0743 154.498,36.741 154.5,34.5C 153.205,36.3279 152.205,38.3279 151.5,40.5C 150.28,40.1131 149.613,39.2798 149.5,38C 150.148,36.5603 150.481,35.0603 150.5,33.5C 149.325,33.281 148.325,33.6143 147.5,34.5C 148.711,35.7202 148.711,36.8869 147.5,38C 145.527,38.4955 143.527,38.6621 141.5,38.5C 141.336,32.8333 141.003,32.5 140.5,37.5C 138.876,37.6399 137.71,36.9733 137,35.5C 135.246,37.25 133.079,37.9167 130.5,37.5C 130.5,34.5 130.5,31.5 130.5,28.5 Z"/></g>
<g><path style="opacity:0.676" fill="#004e9f" d="M 73.5,51.5 C 74.1465,53.1561 74.8131,54.8228 75.5,56.5C 74.2212,59.3199 72.2212,59.9865 69.5,58.5C 70.0253,57.8076 70.6919,57.3076 71.5,57C 70.1667,56 70.1667,55 71.5,54C 70.2234,53.8726 69.0567,54.3726 68,55.5C 66.0986,54.4645 64.2652,53.2978 62.5,52C 63.9842,50.4263 65.6508,49.093 67.5,48C 66.6919,47.6924 66.0253,47.1924 65.5,46.5C 66.6507,45.269 67.8173,45.269 69,46.5C 72.4162,44.208 75.9162,42.0414 79.5,40C 78.0705,38.1197 78.4038,36.6197 80.5,35.5C 81.7112,36.2739 81.7112,37.1072 80.5,38C 83.416,38.0488 84.416,39.2155 83.5,41.5C 84.8772,43.2895 85.8772,45.2895 86.5,47.5C 82.0673,48.6702 77.734,50.0036 73.5,51.5 Z M 78.5,45.5 C 78.369,46.2389 78.5357,46.9056 79,47.5C 81.1676,46.1776 81.0009,45.5109 78.5,45.5 Z M 72.5,50.5 C 72.6495,49.448 72.4828,48.448 72,47.5C 70.0731,48.7624 70.2398,49.7624 72.5,50.5 Z"/></g>
<g><path style="opacity:0.64" fill="#004e9f" d="M 190.5,59.5 C 185.425,59.8197 183.592,57.4863 185,52.5C 190.868,49.4249 193.534,51.0916 193,57.5C 195.796,55.0167 197.963,55.6834 199.5,59.5C 198.788,61.0459 197.622,62.0459 196,62.5C 194.333,61.1667 192.667,61.1667 191,62.5C 189.317,61.8235 189.15,60.8235 190.5,59.5 Z M 188.5,53.5 C 187.438,54.5754 187.438,55.5754 188.5,56.5C 191.012,55.2162 191.012,54.2162 188.5,53.5 Z"/></g>
<g><path style="opacity:0.648" fill="#004e9f" d="M 57.5,69.5 C 56.3226,71.0315 54.9893,72.5315 53.5,74C 52.5,74.3333 51.5,74.6667 50.5,75C 51.9733,75.7096 52.6399,76.8762 52.5,78.5C 49.8806,78.7683 47.3806,78.435 45,77.5C 44.8333,77.8333 44.6667,78.1667 44.5,78.5C 46.3885,79.604 48.0552,80.9373 49.5,82.5C 48.1468,83.5237 47.4802,84.857 47.5,86.5C 44.7034,87.3612 42.0367,87.6946 39.5,87.5C 38.6919,87.1924 38.0253,86.6924 37.5,86C 39.9119,83.0746 40.9119,79.9079 40.5,76.5C 41.1924,77.0253 41.6924,77.6919 42,78.5C 46.4323,69.3906 52.4323,61.3906 60,54.5C 61.0409,57.1126 62.5409,59.4459 64.5,61.5C 63.4826,64.028 62.3159,64.028 61,61.5C 60.1667,63 59,64.1667 57.5,65C 60.106,66.6501 60.106,68.1501 57.5,69.5 Z M 45.5,82.5 C 44.537,83.3635 44.537,84.0302 45.5,84.5C 46.7733,83.7435 46.7733,83.0768 45.5,82.5 Z"/></g>
<g><path style="opacity:0.771" fill="#004e9f" d="M 127.5,57.5 C 130.835,59.6798 133.335,62.6798 135,66.5C 138.387,62.9609 142.553,61.6276 147.5,62.5C 146.992,65.1761 146.825,67.8428 147,70.5C 149.904,68.7732 153.07,68.1065 156.5,68.5C 156.007,70.8056 155.674,73.139 155.5,75.5C 159.187,73.7566 162.521,74.2566 165.5,77C 161.371,81.5082 162.705,83.5082 169.5,83C 171.116,83.6152 172.449,84.6152 173.5,86C 168.124,89.5712 164.291,94.4046 162,100.5C 160.062,103.106 157.562,104.939 154.5,106C 157.059,108.439 159.392,111.105 161.5,114C 163.5,114.833 165.5,115.667 167.5,116.5C 162.442,125.689 154.775,128.856 144.5,126C 143.128,125.598 141.795,125.098 140.5,124.5C 138.107,126.363 135.44,127.696 132.5,128.5C 130.51,133.398 130.177,138.398 131.5,143.5C 135.777,142.394 140.11,142.228 144.5,143C 149.35,144.732 154.35,145.732 159.5,146C 163.377,151.585 166.877,157.418 170,163.5C 170.342,165.818 169.842,167.985 168.5,170C 169.376,171.586 170.376,173.086 171.5,174.5C 158.846,175.333 146.18,175.833 133.5,176C 129.167,178 124.833,178 120.5,176C 108.153,175.833 95.8199,175.333 83.5,174.5C 83.9767,173.522 84.6433,172.689 85.5,172C 84.1667,169.667 82.8333,167.333 81.5,165C 86.8333,158.333 92.1667,151.667 97.5,145C 104.574,144.751 111.574,143.918 118.5,142.5C 119.772,142.57 120.938,142.903 122,143.5C 122.246,138.628 122.746,133.795 123.5,129C 120.608,126.964 117.774,124.797 115,122.5C 106.057,126.23 98.0565,124.896 91,118.5C 90.5,117.5 90,116.5 89.5,115.5C 92.6363,112.571 95.303,109.238 97.5,105.5C 92.0318,101.903 88.5318,96.9032 87,90.5C 80.4482,84.1415 81.9482,80.8081 91.5,80.5C 89.9802,78.3379 88.9802,76.0046 88.5,73.5C 92.2568,73.0708 95.7568,73.7375 99,75.5C 99.2521,73.0687 98.7521,70.7354 97.5,68.5C 101.324,67.103 104.991,67.4364 108.5,69.5C 110.592,67.2114 110.926,64.7114 109.5,62C 114.553,60.6678 118.886,61.8345 122.5,65.5C 124.193,62.8159 125.86,60.1492 127.5,57.5 Z M 127.5,64.5 C 121.615,73.8365 120.115,83.8365 123,94.5C 126.033,101.735 129.366,102.068 133,95.5C 136.368,86.7199 136.034,78.0532 132,69.5C 131.388,66.8854 129.888,65.2187 127.5,64.5 Z M 120.5,98.5 C 116.529,89.3423 116.529,80.1757 120.5,71C 119.359,68.6921 117.692,66.8587 115.5,65.5C 114.914,65.7093 114.414,66.0426 114,66.5C 113.213,72.1737 112.38,77.8404 111.5,83.5C 111.738,90.332 114.738,95.332 120.5,98.5 Z M 135.5,99.5 C 139.098,97.6741 141.265,94.6741 142,90.5C 142.832,82.4792 142.665,74.4792 141.5,66.5C 139.5,67.8333 137.833,69.5 136.5,71.5C 139.407,80.9824 139.073,90.3158 135.5,99.5 Z M 102.5,71.5 C 103.05,77.8658 103.884,84.1991 105,90.5C 106.08,92.9962 107.414,95.3295 109,97.5C 110.71,98.9448 112.544,99.7782 114.5,100C 112.044,97.5925 110.211,94.7591 109,91.5C 108.667,85.8333 108.333,80.1667 108,74.5C 106.736,72.393 104.903,71.393 102.5,71.5 Z M 142.5,99.5 C 143.794,98.7101 144.961,97.7101 146,96.5C 149.947,88.8986 151.447,80.8986 150.5,72.5C 149.5,73.1667 148.5,73.8333 147.5,74.5C 146.671,79.4671 146.171,84.4671 146,89.5C 145.312,93.0675 144.145,96.4009 142.5,99.5 Z M 94.5,77.5 C 96.1703,77.7512 97.6703,78.4178 99,79.5C 99.6302,87.2278 102.13,94.2278 106.5,100.5C 104.284,99.7974 102.451,98.4641 101,96.5C 98.1312,90.3933 95.9645,84.0599 94.5,77.5 Z M 157.5,78.5 C 155.856,79.3164 154.69,80.6498 154,82.5C 153.232,88.9245 151.565,94.9245 149,100.5C 154.299,94.462 157.799,87.462 159.5,79.5C 159.043,78.7025 158.376,78.3691 157.5,78.5 Z M 87.5,84.5 C 89.7448,88.6942 91.9114,93.0276 94,97.5C 95.8357,100.379 98.3357,101.879 101.5,102C 97.2415,97.6524 94.4082,92.4858 93,86.5C 91.4157,85.1387 89.5824,84.472 87.5,84.5 Z M 152.5,102.5 C 155.195,102.067 157.362,100.734 159,98.5C 161.293,94.7478 163.46,90.9144 165.5,87C 163.322,86.8348 161.489,87.6682 160,89.5C 158.503,94.4769 156.003,98.8103 152.5,102.5 Z M 127.5,103.5 C 124.231,104.225 121.398,105.892 119,108.5C 116.271,113.606 117.771,116.606 123.5,117.5C 127.807,116.825 132.14,116.658 136.5,117C 137.872,115.758 138.872,114.258 139.5,112.5C 137.177,107.168 133.177,104.168 127.5,103.5 Z M 107.5,105.5 C 101.668,106.148 97.6678,109.314 95.5,115C 104.814,117.017 111.814,114.017 116.5,106C 113.518,105.502 110.518,105.335 107.5,105.5 Z M 141.5,106.5 C 142.307,110.249 143.64,113.749 145.5,117C 150.417,119.457 155.417,119.791 160.5,118C 157.683,115.362 155.35,112.362 153.5,109C 149.654,107.464 145.654,106.631 141.5,106.5 Z M 127.5,130.5 C 125.101,134.982 124.935,139.649 127,144.5C 127.499,139.845 127.666,135.179 127.5,130.5 Z M 115.5,145.5 C 110.06,146.958 104.394,147.958 98.5,148.5C 94.8333,153.167 91.1667,157.833 87.5,162.5C 88.1667,162.833 88.8333,163.167 89.5,163.5C 97.0973,161.956 104.764,160.956 112.5,160.5C 116.66,160.341 120.66,161.008 124.5,162.5C 126.381,157.579 126.714,152.579 125.5,147.5C 122.34,145.973 119.007,145.307 115.5,145.5 Z M 150.5,148.5 C 144.159,145.213 137.492,144.713 130.5,147C 129.4,152.431 128.9,157.931 129,163.5C 132.972,161.096 137.306,160.096 142,160.5C 150.202,161.397 158.369,162.231 166.5,163C 163.251,158.503 160.251,153.837 157.5,149C 155.19,148.503 152.857,148.337 150.5,148.5 Z M 118.5,152.5 C 118.881,151.069 119.881,150.236 121.5,150C 118.833,149.333 116.167,149.333 113.5,150C 115.503,150.335 117.17,151.168 118.5,152.5 Z M 138.5,149.5 C 134.31,152.952 134.643,153.785 139.5,152C 138.748,151.329 138.414,150.496 138.5,149.5 Z M 140.5,150.5 C 141.648,151.895 142.648,151.728 143.5,150C 142.251,149.26 141.251,149.427 140.5,150.5 Z M 145.5,150.5 C 145.423,151.75 144.756,152.583 143.5,153C 144,153.167 144.5,153.333 145,153.5C 146.651,152.258 148.485,151.424 150.5,151C 148.866,150.506 147.199,150.34 145.5,150.5 Z M 149.5,156.5 C 150.589,154.883 152.256,154.05 154.5,154C 153.234,153.691 152.067,153.191 151,152.5C 149.417,154.055 147.584,155.222 145.5,156C 146.793,156.49 148.127,156.657 149.5,156.5 Z M 126.5,167.5 C 125.091,169.305 124.591,171.305 125,173.5C 127.2,174.99 129.034,174.657 130.5,172.5C 129.846,170.142 128.513,168.475 126.5,167.5 Z"/></g>
<g><path style="opacity:0.644" fill="#004e9f" d="M 207.5,73.5 C 212,73.9801 213.667,76.3134 212.5,80.5C 213.5,80.5 214.5,80.5 215.5,80.5C 215.64,82.1238 214.973,83.2904 213.5,84C 214.793,84.49 216.127,84.6567 217.5,84.5C 217.5,85.5 217.5,86.5 217.5,87.5C 218.267,88.172 218.934,89.0053 219.5,90C 218.619,90.7083 217.953,91.5416 217.5,92.5C 220.205,92.3802 220.872,93.3802 219.5,95.5C 223.462,98.4261 223.462,101.259 219.5,104C 220.784,104.684 221.951,104.517 223,103.5C 223.692,104.025 224.192,104.692 224.5,105.5C 222.696,106.768 220.696,107.435 218.5,107.5C 218.5,108.833 218.5,110.167 218.5,111.5C 216.698,110.685 215.698,109.185 215.5,107C 215.905,106.055 216.572,105.388 217.5,105C 214.096,103.37 213.096,100.87 214.5,97.5C 212.29,96.5449 211.957,95.0449 213.5,93C 209.349,91.5536 208.682,89.2203 211.5,86C 210.451,85.5078 209.451,85.6744 208.5,86.5C 207.269,85.3493 207.269,84.1827 208.5,83C 204.97,82.3282 203.637,80.1616 204.5,76.5C 203.883,76.6107 203.383,76.944 203,77.5C 198.049,73.5485 198.549,70.3818 204.5,68C 203.584,67.6258 202.75,67.1258 202,66.5C 200.667,67.8333 199.333,69.1667 198,70.5C 197.308,69.9747 196.808,69.3081 196.5,68.5C 197.648,66.8513 198.981,65.3513 200.5,64C 200.043,63.586 199.709,63.086 199.5,62.5C 200.5,61.1667 201.5,61.1667 202.5,62.5C 205.041,65.5368 207.374,68.7035 209.5,72C 209.164,73.0299 208.497,73.5299 207.5,73.5 Z M 204.5,74.5 C 206.933,74.7856 206.933,75.4523 204.5,76.5C 204.5,75.8333 204.5,75.1667 204.5,74.5 Z M 212.5,80.5 C 210.952,80.1788 210.285,79.1788 210.5,77.5C 209.5,77.5 208.5,77.5 207.5,77.5C 207.729,79.433 208.562,81.0997 210,82.5C 210.995,81.9341 211.828,81.2674 212.5,80.5 Z M 217.5,98.5 C 216.086,100.598 216.752,101.598 219.5,101.5C 219.715,99.8212 219.048,98.8212 217.5,98.5 Z"/></g>
<g><path style="opacity:0.669" fill="#004e9f" d="M 36.5,90.5 C 38.9821,92.2433 41.6488,93.7433 44.5,95C 43.6721,95.9147 42.6721,96.5814 41.5,97C 43.1485,100.895 41.8151,103.395 37.5,104.5C 36.5581,104.392 35.7247,104.059 35,103.5C 34.8333,103.833 34.6667,104.167 34.5,104.5C 36.6721,105.205 38.6721,106.205 40.5,107.5C 39.675,108.386 38.675,108.719 37.5,108.5C 37.5391,110.359 36.7058,111.692 35,112.5C 33.9125,110.068 33.4125,110.402 33.5,113.5C 35.5,113.5 37.5,113.5 39.5,113.5C 39.5,114.5 39.5,115.5 39.5,116.5C 37.1305,116.149 34.7972,115.982 32.5,116C 34.6234,117.194 36.9568,117.86 39.5,118C 38.8333,119 38.1667,120 37.5,121C 39.9015,126.229 38.2348,129.229 32.5,130C 40.5,131 40.5,132 32.5,133C 34.8098,133.497 37.1432,133.663 39.5,133.5C 38.6575,135.871 38.3242,138.204 38.5,140.5C 36.4021,139.516 34.4021,139.849 32.5,141.5C 30.8693,139.941 30.036,137.941 30,135.5C 29.6827,137.301 29.016,137.634 28,136.5C 25.8253,133.332 26.6586,131.165 30.5,130C 30.0093,128.206 30.0093,126.206 30.5,124C 31.0807,119.79 30.0807,118.956 27.5,121.5C 27.1667,121 26.8333,120.5 26.5,120C 27.9958,118.669 29.3291,117.169 30.5,115.5C 29.675,114.614 28.675,114.281 27.5,114.5C 27.0938,110.312 28.5938,106.979 32,104.5C 32.346,102.782 32.846,101.115 33.5,99.5C 32.2485,98.3689 31.2485,97.0356 30.5,95.5C 30.6667,94.8333 30.8333,94.1667 31,93.5C 32.8761,92.3913 34.7095,91.3913 36.5,90.5 Z"/></g>
<g><path style="opacity:0.639" fill="#004e9f" d="M 218.5,111.5 C 223.531,109.59 226.031,111.257 226,116.5C 225.5,117.667 224.667,118.5 223.5,119C 224.416,119.374 225.25,119.874 226,120.5C 225.588,125.056 225.755,129.556 226.5,134C 226.167,134.5 225.833,135 225.5,135.5C 223.255,133.377 220.588,132.377 217.5,132.5C 217.5,131.5 217.5,130.5 217.5,129.5C 219.989,129.702 222.323,129.202 224.5,128C 222.527,127.505 220.527,127.338 218.5,127.5C 219.815,122.148 219.815,116.814 218.5,111.5 Z M 220.5,113.5 C 219.147,114.867 219.481,115.867 221.5,116.5C 224.007,114.952 223.674,113.952 220.5,113.5 Z"/></g>
<g><path style="opacity:0.755" fill="#004e9f" d="M 217.5,137.5 C 220.096,138.265 222.763,138.599 225.5,138.5C 225.799,140.604 225.466,142.604 224.5,144.5C 222.765,145.057 221.098,145.39 219.5,145.5C 218.914,145.291 218.414,144.957 218,144.5C 217.503,142.19 217.337,139.857 217.5,137.5 Z"/></g>
<g><path style="opacity:0.652" fill="#004e9f" d="M 38.5,153.5 C 40.288,153.215 41.9547,153.548 43.5,154.5C 42.9747,155.192 42.3081,155.692 41.5,156C 43.8856,156.284 44.5523,157.284 43.5,159C 44.1667,159.333 44.8333,159.667 45.5,160C 44.9389,161.676 43.9389,163.009 42.5,164C 43.8187,165.628 45.1521,165.461 46.5,163.5C 46.8333,164 47.1667,164.5 47.5,165C 45.9219,166.972 45.0885,169.138 45,171.5C 46.8194,169.464 48.6527,169.297 50.5,171C 49.944,171.383 49.6107,171.883 49.5,172.5C 52.1247,173.458 52.1247,174.624 49.5,176C 52.0106,178.565 51.5106,180.731 48,182.5C 42.7341,176.311 38.7341,169.311 36,161.5C 34.6667,162.833 33.3333,162.833 32,161.5C 33.4803,155.928 33.9803,150.261 33.5,144.5C 41.8996,144.187 43.5663,147.187 38.5,153.5 Z"/></g>
<g><path style="opacity:0.68" fill="#004e9f" d="M 217.5,163.5 C 219.709,166.203 219.043,168.537 215.5,170.5C 214.232,169.572 212.899,169.405 211.5,170C 213.607,171.264 214.607,173.097 214.5,175.5C 211.813,175.336 209.146,175.503 206.5,176C 208.78,176.233 210.78,177.066 212.5,178.5C 211.624,179.251 210.624,179.751 209.5,180C 210.821,181.545 210.488,182.711 208.5,183.5C 207.187,181.032 205.521,178.865 203.5,177C 207.868,170.389 211.368,162.889 214,154.5C 214.75,153.874 215.584,153.374 216.5,153C 214.718,146.676 217.052,144.843 223.5,147.5C 224.909,150.862 223.909,153.362 220.5,155C 221.973,155.71 222.64,156.876 222.5,158.5C 221.127,158.343 219.793,158.51 218.5,159C 220.107,160.049 220.773,161.549 220.5,163.5C 219.5,163.5 218.5,163.5 217.5,163.5 Z M 218.5,148.5 C 217.462,150.108 218.129,151.108 220.5,151.5C 221.639,149.604 220.973,148.604 218.5,148.5 Z"/></g>
<g><path style="opacity:0.511" fill="#004e9f" d="M 118.5,152.5 C 117.77,154.045 116.437,154.878 114.5,155C 115.624,155.249 116.624,155.749 117.5,156.5C 116.349,157.731 115.183,157.731 114,156.5C 113.311,157.357 112.478,158.023 111.5,158.5C 110.289,157.61 108.955,157.61 107.5,158.5C 106.353,158.182 105.519,157.516 105,156.5C 104.517,157.448 104.351,158.448 104.5,159.5C 101.428,159.817 98.4281,159.484 95.5,158.5C 97.8333,157.833 100.167,157.167 102.5,156.5C 101.005,156.522 99.3381,156.189 97.5,155.5C 100.447,154.679 103.447,154.179 106.5,154C 106.043,153.586 105.709,153.086 105.5,152.5C 106.689,151.571 108.022,151.238 109.5,151.5C 109.5,150.5 109.5,149.5 109.5,148.5C 114.129,147.519 118.796,147.352 123.5,148C 123.957,148.414 124.291,148.914 124.5,149.5C 122.639,152.429 121.972,155.429 122.5,158.5C 121.167,158.5 119.833,158.5 118.5,158.5C 118.329,156.007 119.329,154.174 121.5,153C 120.552,152.517 119.552,152.351 118.5,152.5 Z M 118.5,152.5 C 118.881,151.069 119.881,150.236 121.5,150C 118.833,149.333 116.167,149.333 113.5,150C 115.503,150.335 117.17,151.168 118.5,152.5 Z"/></g>
<g><path style="opacity:0.519" fill="#004e9f" d="M 138.5,149.5 C 139.261,148.609 140.261,147.942 141.5,147.5C 144.449,148.302 147.449,148.636 150.5,148.5C 153.84,149.024 155.506,151.024 155.5,154.5C 156.675,154.281 157.675,154.614 158.5,155.5C 156.577,156.308 154.577,156.808 152.5,157C 154.68,157.749 157.013,158.249 159.5,158.5C 156.572,159.484 153.572,159.817 150.5,159.5C 150.737,158.209 150.404,157.209 149.5,156.5C 149.38,157.586 148.713,158.253 147.5,158.5C 144.361,158.302 141.028,157.635 137.5,156.5C 139.078,155.702 140.744,155.202 142.5,155C 140.167,154.333 137.833,154.333 135.5,155C 136.337,156.011 136.67,157.178 136.5,158.5C 135.022,158.762 133.689,158.429 132.5,157.5C 133.833,156.5 133.833,155.5 132.5,154.5C 135.131,152.995 134.797,152.329 131.5,152.5C 131.5,150.833 131.5,149.167 131.5,147.5C 134.388,146.99 136.721,147.656 138.5,149.5 Z M 138.5,149.5 C 134.31,152.952 134.643,153.785 139.5,152C 138.748,151.329 138.414,150.496 138.5,149.5 Z M 140.5,150.5 C 141.648,151.895 142.648,151.728 143.5,150C 142.251,149.26 141.251,149.427 140.5,150.5 Z M 145.5,150.5 C 145.423,151.75 144.756,152.583 143.5,153C 144,153.167 144.5,153.333 145,153.5C 146.651,152.258 148.485,151.424 150.5,151C 148.866,150.506 147.199,150.34 145.5,150.5 Z M 149.5,156.5 C 150.589,154.883 152.256,154.05 154.5,154C 153.234,153.691 152.067,153.191 151,152.5C 149.417,154.055 147.584,155.222 145.5,156C 146.793,156.49 148.127,156.657 149.5,156.5 Z"/></g>
<g><path style="opacity:0.459" fill="#004e9f" d="M 101.5,148.5 C 102.675,148.281 103.675,148.614 104.5,149.5C 102.948,150.798 101.948,150.465 101.5,148.5 Z"/></g>
<g><path style="opacity:0.605" fill="#004e9f" d="M 105.5,148.5 C 106.675,148.281 107.675,148.614 108.5,149.5C 106.948,150.798 105.948,150.465 105.5,148.5 Z"/></g>
<g><path style="opacity:0.59" fill="#004e9f" d="M 99.5,151.5 C 101.288,151.215 102.955,151.548 104.5,152.5C 103.667,152.833 102.833,153.167 102,153.5C 100.624,153.316 99.7911,152.649 99.5,151.5 Z"/></g>
<g><path style="opacity:0.825" fill="#004e9f" d="M 202.5,248.5 C 201.5,248.5 200.5,248.5 199.5,248.5C 190.311,243.877 180.644,240.21 170.5,237.5C 169.815,234.175 170.149,230.842 171.5,227.5C 171.182,226.353 170.516,225.519 169.5,225C 140.837,217.711 112.17,217.711 83.5,225C 83.4139,229.161 83.4139,233.328 83.5,237.5C 73.3557,240.21 63.6891,243.877 54.5,248.5C 53.5,248.5 52.5,248.5 51.5,248.5C 47.3129,239.96 42.9796,231.46 38.5,223C 42.6591,219.753 46.9924,216.753 51.5,214C 50.8853,211.485 49.8853,209.152 48.5,207C 100.101,183.988 151.767,183.821 203.5,206.5C 203.772,209.561 203.772,212.561 203.5,215.5C 208.034,217.261 212.034,219.761 215.5,223C 211.02,231.46 206.687,239.96 202.5,248.5 Z M 158.5,206.5 C 158.421,207.93 158.754,209.264 159.5,210.5C 161.39,211.424 162.89,212.757 164,214.5C 165,212.167 166,209.833 167,207.5C 167.492,208.549 167.326,209.549 166.5,210.5C 167.008,212.904 168.175,213.571 170,212.5C 170.353,213.672 170.187,214.838 169.5,216C 170.272,217.221 171.272,218.221 172.5,219C 162.641,217.141 152.641,215.974 142.5,215.5C 142.919,212.675 141.919,210.509 139.5,209C 139.928,206.371 140.928,204.038 142.5,202C 142.167,201.667 141.833,201.333 141.5,201C 131.151,200.168 120.817,200.334 110.5,201.5C 111.449,205.411 113.783,208.078 117.5,209.5C 118.167,207.167 118.833,204.833 119.5,202.5C 118.895,205.531 120.229,207.864 123.5,209.5C 123.498,207.259 123.832,204.926 124.5,202.5C 125.452,204.045 125.785,205.712 125.5,207.5C 126.822,207.67 127.989,207.337 129,206.5C 129.483,207.448 129.649,208.448 129.5,209.5C 130.5,209.5 131.5,209.5 132.5,209.5C 132.262,205.901 133.262,205.567 135.5,208.5C 137.529,207.371 137.863,207.871 136.5,210C 137.984,211.574 139.651,212.907 141.5,214C 115.192,213.015 89.5252,216.515 64.5,224.5C 61.3429,220.194 58.6762,215.528 56.5,210.5C 87.1841,196.831 119.184,192.498 152.5,197.5C 152.561,199.592 153.561,201.092 155.5,202C 152.482,201.501 149.482,201.668 146.5,202.5C 146.354,204.315 146.188,206.315 146,208.5C 149.838,208.945 153.338,210.279 156.5,212.5C 157.169,210.369 157.835,208.369 158.5,206.5 Z M 154.5,198.5 C 169.338,199.799 183.672,203.799 197.5,210.5C 195.089,215.579 192.589,220.579 190,225.5C 184.709,223.133 179.209,221.3 173.5,220C 173.957,219.586 174.291,219.086 174.5,218.5C 173.617,217.452 172.95,216.285 172.5,215C 173.384,212.078 174.384,209.245 175.5,206.5C 169.879,205.179 164.212,204.012 158.5,203C 157.672,201.008 156.339,199.508 154.5,198.5 Z M 132.5,202.5 C 135.001,202.511 135.168,203.178 133,204.5C 132.536,203.906 132.369,203.239 132.5,202.5 Z M 91.5,209.5 C 90.596,208.791 90.2627,207.791 90.5,206.5C 92.1092,206.094 93.4425,206.094 94.5,206.5C 93.0065,207.141 92.0065,208.141 91.5,209.5 Z M 98.5,208.5 C 97.2241,207.614 97.2241,206.614 98.5,205.5C 99.087,206.233 99.087,207.233 98.5,208.5 Z M 169.5,209.5 C 170.077,208.227 170.743,208.227 171.5,209.5C 171.03,210.463 170.363,210.463 169.5,209.5 Z M 198.5,223.5 C 198.272,221.645 198.939,220.812 200.5,221C 199.934,221.995 199.267,222.828 198.5,223.5 Z M 52.5,226.5 C 51.1634,225.685 50.1634,224.518 49.5,223C 51.4784,223.033 52.4784,224.2 52.5,226.5 Z"/></g>
<g><path style="opacity:0.665" fill="#004e9f" d="M 98.5,208.5 C 98.4102,213.389 97.2435,213.723 95,209.5C 93.8545,210.684 92.6879,210.684 91.5,209.5C 91.762,210.978 91.4287,212.311 90.5,213.5C 89.914,213.291 89.414,212.957 89,212.5C 88.2904,213.973 87.1238,214.64 85.5,214.5C 85.6309,215.376 85.2975,216.043 84.5,216.5C 82.7697,215.974 81.4363,214.974 80.5,213.5C 81.0253,212.808 81.6919,212.308 82.5,212C 80.8333,210.333 79.1667,208.667 77.5,207C 87.0674,204.115 96.7341,202.615 106.5,202.5C 104.631,206.954 105.631,210.62 109.5,213.5C 109.167,213.833 108.833,214.167 108.5,214.5C 107.15,213.05 105.484,212.383 103.5,212.5C 103.992,208.71 103.159,208.044 101,210.5C 100.292,209.619 99.4584,208.953 98.5,208.5 Z M 91.5,209.5 C 92.0065,208.141 93.0065,207.141 94.5,206.5C 93.4425,206.094 92.1092,206.094 90.5,206.5C 90.2627,207.791 90.596,208.791 91.5,209.5 Z M 98.5,208.5 C 99.087,207.233 99.087,206.233 98.5,205.5C 97.2241,206.614 97.2241,207.614 98.5,208.5 Z"/></g>
</svg>
