<?xml version="1.0" encoding="UTF-8"?>
<!DOCTYPE svg PUBLIC "-//W3C//DTD SVG 1.1//EN" "http://www.w3.org/Graphics/SVG/1.1/DTD/svg11.dtd">
<svg xmlns="http://www.w3.org/2000/svg" version="1.1" width="1024px" height="993px" style="shape-rendering:geometricPrecision; text-rendering:geometricPrecision; image-rendering:optimizeQuality; fill-rule:evenodd; clip-rule:evenodd" xmlns:xlink="http://www.w3.org/1999/xlink">
<g><path style="opacity:0.993" fill="#582b0a" d="M 505.5,17.5 C 507.5,17.5 509.5,17.5 511.5,17.5C 511.381,53.1724 511.714,88.839 512.5,124.5C 407.091,129.178 328.591,177.178 277,268.5C 244.325,333.402 238.325,400.735 259,470.5C 286.276,549.776 338.442,605.943 415.5,639C 447.61,651.741 480.943,657.907 515.5,657.5C 516.118,693.163 516.451,728.83 516.5,764.5C 503.85,763.792 491.184,763.292 478.5,763C 473.587,762.967 470.087,760.8 468,756.5C 466.996,745.784 465.663,735.117 464,724.5C 462.833,723.333 461.667,722.167 460.5,721C 439.994,717.54 419.994,712.207 400.5,705C 396.207,703.798 392.707,704.965 390,708.5C 384.624,716.753 379.124,724.92 373.5,733C 371.722,733.704 369.888,734.204 368,734.5C 341.314,723.83 316.648,709.83 294,692.5C 293.333,690.167 293.333,687.833 294,685.5C 297.941,677.284 301.608,668.951 305,660.5C 305.667,658.167 305.667,655.833 305,653.5C 298.865,647.334 292.365,641.501 285.5,636C 275.833,625.667 266.167,615.333 256.5,605C 253.537,603.15 250.537,603.15 247.5,605C 239.5,609 231.5,613 223.5,617C 220.366,617.79 217.366,617.457 214.5,616C 198.276,594.405 184.442,571.239 173,546.5C 172.062,543.12 172.729,540.12 175,537.5C 181.5,533 188,528.5 194.5,524C 200.406,520.359 202.573,515.193 201,508.5C 193.642,490.067 188.309,471.067 185,451.5C 184.31,448.804 182.81,446.637 180.5,445C 170.06,443.348 159.56,442.182 149,441.5C 146.497,441.01 144.497,439.677 143,437.5C 140.591,413.558 139.924,389.558 141,365.5C 141.13,361.049 141.796,356.716 143,352.5C 144.214,350.951 145.714,349.785 147.5,349C 158.182,348.153 168.849,347.153 179.5,346C 180.667,344.833 181.833,343.667 183,342.5C 186.623,320.008 192.123,298.008 199.5,276.5C 199.423,274.701 198.923,273.034 198,271.5C 191.062,265.227 183.562,259.727 175.5,255C 168.789,249.624 167.956,243.458 173,236.5C 183.485,214.851 195.485,194.184 209,174.5C 211.653,171.806 214.82,170.973 218.5,172C 228.289,176.645 238.122,181.145 248,185.5C 249.067,184.809 250.234,184.309 251.5,184C 266.775,165.936 283.275,149.103 301,133.5C 301.5,132 302,130.5 302.5,129C 298.916,119.251 294.75,109.751 290,100.5C 289.333,97.8333 289.333,95.1667 290,92.5C 311.637,76.2151 334.804,62.3818 359.5,51C 363.829,49.8485 367.662,50.6819 371,53.5C 376,61.1667 381,68.8333 386,76.5C 387.645,78.6618 389.812,79.9951 392.5,80.5C 413.398,72.776 434.732,66.6093 456.5,62C 458.049,60.786 459.215,59.286 460,57.5C 461.44,47.5514 462.44,37.5514 463,27.5C 463.5,23 466,20.5 470.5,20C 482.314,19.0635 493.98,18.2302 505.5,17.5 Z"/></g>
<g><path style="opacity:0.955" fill="#582a0a" d="M 513.5,18.5 C 513.917,17.8761 514.584,17.5427 515.5,17.5C 532.265,22.4623 546.765,31.129 559,43.5C 563.385,49.6511 562.052,53.6511 555,55.5C 551.616,54.9275 548.449,53.7608 545.5,52C 539.292,45.4608 533.459,38.6275 528,31.5C 523.594,26.5886 518.76,22.2552 513.5,18.5 Z"/></g>
<g><path style="opacity:0.953" fill="#582b0a" d="M 549.5,21.5 C 549.735,20.9033 550.235,20.5699 551,20.5C 571.455,26.3266 588.788,36.9933 603,52.5C 604.728,55.7589 604.894,59.0922 603.5,62.5C 598.012,65.1747 592.679,64.6747 587.5,61C 580.294,53.4626 573.46,45.6292 567,37.5C 561.596,31.5914 555.763,26.2581 549.5,21.5 Z"/></g>
<g><path style="opacity:0.953" fill="#582a0a" d="M 590.5,27.5 C 590.735,26.9033 591.235,26.5699 592,26.5C 613.67,33.9973 631.67,46.664 646,64.5C 650.873,74.969 647.707,79.469 636.5,78C 633.554,77.1939 630.888,75.8605 628.5,74C 619.614,62.7815 611.114,51.2815 603,39.5C 599.624,34.6228 595.457,30.6228 590.5,27.5 Z"/></g>
<g><path style="opacity:0.962" fill="#582b0a" d="M 632.5,38.5 C 632.56,37.9569 632.893,37.6236 633.5,37.5C 656.151,46.4163 674.651,60.7496 689,80.5C 691.65,84.7079 691.983,89.0412 690,93.5C 684.304,96.3135 678.804,95.8135 673.5,92C 671,89.5 668.5,87 666,84.5C 658.394,71.8973 650.394,59.5639 642,47.5C 638.964,44.2956 635.797,41.2956 632.5,38.5 Z"/></g>
<g><path style="opacity:0.959" fill="#582b0a" d="M 688.5,63.5 C 689.251,62.4265 690.251,62.2599 691.5,63C 713.956,76.4527 729.956,95.286 739.5,119.5C 738.021,126.048 734.021,128.215 727.5,126C 723.421,123.925 719.921,121.092 717,117.5C 709.667,102.167 702.333,86.8333 695,71.5C 692.969,68.6447 690.803,65.978 688.5,63.5 Z"/></g>
<g><path style="opacity:0.947" fill="#582b0a" d="M 541.5,66.5 C 549.238,66.1439 556.905,66.6439 564.5,68C 567.759,69.2106 570.592,71.0439 573,73.5C 575.291,77.5917 574.124,80.4251 569.5,82C 562.19,83.908 554.856,83.908 547.5,82C 537.377,79.5149 527.71,75.8482 518.5,71C 526.216,69.1654 533.883,67.6654 541.5,66.5 Z"/></g>
<g><path style="opacity:0.955" fill="#582b0a" d="M 580.5,77.5 C 594.124,76.189 607.791,77.0223 621.5,80C 630.65,81.8848 636.983,87.0515 640.5,95.5C 637.87,99.3166 634.203,101.317 629.5,101.5C 611.141,97.4866 594.808,89.4866 580.5,77.5 Z"/></g>
<g><path style="opacity:0.969" fill="#582b0a" d="M 575.5,94.5 C 580.58,94.2497 585.58,94.7497 590.5,96C 594.665,97.4831 596.165,100.316 595,104.5C 591.59,111.467 586.09,115.967 578.5,118C 559.6,123.816 540.266,126.15 520.5,125C 537.148,111.678 555.482,101.512 575.5,94.5 Z"/></g>
<g><path style="opacity:0.959" fill="#582b0a" d="M 648.5,98.5 C 664.111,102.304 679.111,107.804 693.5,115C 700.555,119.297 704.389,125.464 705,133.5C 702.867,135.853 700.2,136.853 697,136.5C 690.984,136.243 685.484,134.41 680.5,131C 667.602,122.269 656.935,111.436 648.5,98.5 Z"/></g>
<g><path style="opacity:0.962" fill="#582a0a" d="M 743.5,99.5 C 750.393,103.555 756.226,108.888 761,115.5C 773.017,130.034 781.184,146.534 785.5,165C 784.138,174.038 779.472,176.371 771.5,172C 768.628,169.463 766.128,166.63 764,163.5C 759.713,150.354 756.046,137.021 753,123.5C 750.699,115.085 747.532,107.085 743.5,99.5 Z"/></g>
<g><path style="opacity:0.967" fill="#582b0a" d="M 616.5,113.5 C 625.473,112.701 634.14,113.868 642.5,117C 648.307,120.558 648.974,124.891 644.5,130C 635.66,135.461 625.993,137.961 615.5,137.5C 599.854,136.559 584.52,133.892 569.5,129.5C 584.696,122.546 600.362,117.213 616.5,113.5 Z"/></g>
<g><path style="opacity:0.96" fill="#582b0a" d="M 712.5,134.5 C 727.633,142.165 741.133,152.165 753,164.5C 757.123,170.199 758.789,176.532 758,183.5C 754.817,185.523 751.317,186.023 747.5,185C 743.385,182.552 739.552,179.719 736,176.5C 725.828,163.825 717.995,149.825 712.5,134.5 Z"/></g>
<g><path style="opacity:0.965" fill="#582a0a" d="M 668.5,140.5 C 678.76,140.098 688.427,142.265 697.5,147C 705.961,155.157 704.294,160.823 692.5,164C 668.591,164.939 646.257,159.439 625.5,147.5C 639.785,144.128 654.119,141.795 668.5,140.5 Z"/></g>
<g><path style="opacity:0.973" fill="#582a0a" d="M 798.5,151.5 C 804.215,157.236 808.715,163.903 812,171.5C 817.735,184.371 822.068,197.704 825,211.5C 826.454,219.786 826.787,228.119 826,236.5C 821.6,245.187 815.933,246.187 809,239.5C 803.881,231.805 801.381,223.305 801.5,214C 803.334,193.011 802.334,172.178 798.5,151.5 Z"/></g>
<g><path style="opacity:0.966" fill="#582a0a" d="M 671.5,175.5 C 690.897,175.736 709.897,179.236 728.5,186C 733.638,189.142 738.138,192.976 742,197.5C 745.33,206.356 742.164,210.689 732.5,210.5C 725.485,209.913 718.818,208.08 712.5,205C 697.559,196.886 683.892,187.052 671.5,175.5 Z"/></g>
<g><path style="opacity:0.921" fill="#582a0a" d="M 510.5,181.5 C 511.675,181.281 512.675,181.614 513.5,182.5C 516.243,188.992 519.743,194.992 524,200.5C 533.811,209.734 543.811,218.734 554,227.5C 557.194,232.554 559.861,237.888 562,243.5C 567.253,241.126 572.086,238.126 576.5,234.5C 578.623,239.982 580.289,245.649 581.5,251.5C 589.695,248.327 598.195,246.327 607,245.5C 625.286,250.079 643.12,248.746 660.5,241.5C 660.833,242.167 661.167,242.833 661.5,243.5C 655.222,261.054 654.222,278.887 658.5,297C 658.6,304.908 656.933,312.408 653.5,319.5C 653.709,320.086 654.043,320.586 654.5,321C 659.587,322.315 664.587,323.815 669.5,325.5C 665.745,330.003 662.745,335.003 660.5,340.5C 665.894,343.033 671.227,345.866 676.5,349C 685.777,358.948 695.111,368.948 704.5,379C 710.702,382.933 717.035,386.6 723.5,390C 715.293,394.213 707.627,399.213 700.5,405C 693.5,413.333 686.5,421.667 679.5,430C 674.191,433.81 668.524,436.977 662.5,439.5C 665.269,444.561 667.936,449.561 670.5,454.5C 664.356,455.369 658.356,456.869 652.5,459C 656.261,464.949 658.427,471.449 659,478.5C 657.881,491.791 657.548,505.124 658,518.5C 659.124,525.04 660.958,531.373 663.5,537.5C 663,537.833 662.5,538.167 662,538.5C 652.996,534.966 643.663,532.966 634,532.5C 623.536,534.092 613.036,534.925 602.5,535C 596.21,534.57 590.377,532.736 585,529.5C 582.717,534.964 581.217,540.631 580.5,546.5C 574.857,543.925 569.357,540.925 564,537.5C 562.657,543.827 559.991,549.494 556,554.5C 547.963,562.205 539.63,569.539 531,576.5C 524.848,583.827 519.682,591.827 515.5,600.5C 510.954,592.447 505.787,584.78 500,577.5C 491.667,570.5 483.333,563.5 475,556.5C 470.946,551.058 467.946,545.058 466,538.5C 460.588,541.121 455.421,544.121 450.5,547.5C 448.692,542.999 447.192,538.332 446,533.5C 445.632,532.09 444.799,531.09 443.5,530.5C 436.087,534.083 428.254,536.083 420,536.5C 401.717,531.921 383.884,533.254 366.5,540.5C 366.167,540 365.833,539.5 365.5,539C 372.352,521.37 373.352,503.37 368.5,485C 368.827,476.348 371.161,468.348 375.5,461C 369.431,459.318 363.431,457.651 357.5,456C 361.131,451.243 364.131,446.076 366.5,440.5C 360.066,438.117 354.066,434.95 348.5,431C 340.871,421.703 332.871,412.703 324.5,404C 317.989,399.241 310.989,395.241 303.5,392C 311.139,387.845 318.472,383.179 325.5,378C 333.071,369.519 340.404,360.852 347.5,352C 353.106,347.363 359.439,344.029 366.5,342C 363.625,337.083 360.625,332.249 357.5,327.5C 363.167,325.778 368.834,323.945 374.5,322C 371.883,317.484 370.049,312.651 369,307.5C 368.286,296.282 368.786,285.115 370.5,274C 369.841,263.536 367.841,253.37 364.5,243.5C 379.845,249.261 395.512,250.428 411.5,247C 422.669,245.235 433.169,247.068 443,252.5C 444.941,246.845 446.774,241.178 448.5,235.5C 453.309,239.238 458.642,241.904 464.5,243.5C 468.102,229.382 476.435,218.882 489.5,212C 499.375,203.729 506.375,193.562 510.5,181.5 Z M 524.5,209.5 C 534.36,215.677 542.86,223.343 550,232.5C 552.427,236.787 554.261,241.287 555.5,246C 543.775,250.608 533.275,257.108 524,265.5C 519.941,260.283 516.107,254.949 512.5,249.5C 508.434,254.619 504.6,259.952 501,265.5C 492.3,257.065 482.133,251.065 470.5,247.5C 471.316,240.53 473.816,234.197 478,228.5C 484.333,222.833 490.667,217.167 497,211.5C 498.598,214.298 499.765,217.298 500.5,220.5C 502.098,217.399 504.265,214.732 507,212.5C 508.608,215.382 509.941,218.382 511,221.5C 512.399,218.371 514.065,215.371 516,212.5C 518.029,215.029 519.862,217.696 521.5,220.5C 522.226,216.726 523.226,213.059 524.5,209.5 Z M 573.5,241.5 C 576.65,251.499 580.15,261.499 584,271.5C 585.89,279.397 587.056,287.397 587.5,295.5C 575.515,296.106 564.348,299.44 554,305.5C 555.532,296.376 557.865,287.376 561,278.5C 561.667,276.833 561.667,275.167 561,273.5C 555.333,282.833 549.667,292.167 544,301.5C 541.072,290.143 535.905,279.976 528.5,271C 539.36,259.399 552.36,251.066 567.5,246C 569.747,244.723 571.747,243.223 573.5,241.5 Z M 450.5,242.5 C 459.861,247.847 469.528,252.681 479.5,257C 485.633,261.301 491.3,266.134 496.5,271.5C 489.916,280.668 484.916,290.668 481.5,301.5C 476.103,293.577 471.27,285.244 467,276.5C 466.035,274.74 464.868,274.406 463.5,275.5C 466.702,285.106 469.702,294.773 472.5,304.5C 472.167,304.833 471.833,305.167 471.5,305.5C 461.206,299.843 450.206,296.51 438.5,295.5C 438.938,288.456 439.771,281.456 441,274.5C 444.883,264.019 448.05,253.353 450.5,242.5 Z M 410.5,251.5 C 421.394,250.557 431.394,253.057 440.5,259C 435.234,270.234 432.567,282.067 432.5,294.5C 425.764,293.933 419.098,292.933 412.5,291.5C 413.607,297.811 414.607,304.144 415.5,310.5C 403.35,311.079 391.85,314.079 381,319.5C 375.893,312.512 373.393,304.678 373.5,296C 373.749,289.089 374.583,282.255 376,275.5C 378.645,277.415 381.479,278.582 384.5,279C 383.134,276.003 382.467,272.836 382.5,269.5C 385.579,269.804 388.413,270.804 391,272.5C 390.462,269.206 390.129,265.873 390,262.5C 392.746,263.65 395.579,264.15 398.5,264C 396.455,261.414 394.789,258.58 393.5,255.5C 394.025,254.808 394.692,254.308 395.5,254C 400.728,253.704 405.728,252.871 410.5,251.5 Z M 600.5,251.5 C 610.241,251.188 619.908,251.855 629.5,253.5C 628.294,256.079 626.961,258.579 625.5,261C 628.777,260.799 632.111,260.632 635.5,260.5C 635.287,263.475 634.287,266.142 632.5,268.5C 632.833,268.833 633.167,269.167 633.5,269.5C 636.344,267.897 639.344,267.397 642.5,268C 641.35,270.746 640.85,273.579 641,276.5C 643.586,274.455 646.42,272.789 649.5,271.5C 655.462,286.761 654.796,301.761 647.5,316.5C 646.833,316.833 646.167,317.167 645.5,317.5C 633.952,312.78 621.952,309.946 609.5,309C 610.67,303.158 612.003,297.325 613.5,291.5C 612.667,291.167 611.833,290.833 611,290.5C 605.242,291.987 599.409,292.987 593.5,293.5C 593.038,281.652 590.371,270.319 585.5,259.5C 585.977,258.522 586.643,257.689 587.5,257C 591.904,255.041 596.238,253.208 600.5,251.5 Z M 520.5,269.5 C 533.712,282.273 540.045,297.94 539.5,316.5C 522.038,310.891 504.704,311.225 487.5,317.5C 485.623,299.251 491.123,283.585 504,270.5C 505.171,272.842 506.338,275.176 507.5,277.5C 508.859,275.308 510.692,273.641 513,272.5C 514.667,274.167 516.333,275.833 518,277.5C 518.941,274.846 519.774,272.179 520.5,269.5 Z M 589.5,298.5 C 590.586,298.62 591.253,299.287 591.5,300.5C 591.113,302.274 590.447,303.941 589.5,305.5C 591.743,306.474 594.076,306.808 596.5,306.5C 596.933,309.166 597.433,311.832 598,314.5C 599.828,312.919 601.828,311.585 604,310.5C 604.334,328.821 597.834,344.154 584.5,356.5C 575.917,340.084 563.251,327.918 546.5,320C 558.216,307.475 572.55,300.309 589.5,298.5 Z M 433.5,299.5 C 451.689,300.098 467.023,306.931 479.5,320C 467.458,326.71 457.292,335.544 449,346.5C 446.833,350.167 444.667,353.833 442.5,357.5C 428.453,345.743 421.787,330.743 422.5,312.5C 424.614,313.034 426.448,314.034 428,315.5C 428.822,312.883 429.322,310.216 429.5,307.5C 431.924,307.808 434.257,307.474 436.5,306.5C 435.212,304.261 434.212,301.928 433.5,299.5 Z M 608.5,316.5 C 615.896,316.2 623.229,316.7 630.5,318C 640.761,321.531 651.094,324.865 661.5,328C 656.267,337.633 651.433,347.467 647,357.5C 642.711,363.458 638.044,369.124 633,374.5C 623.788,366.811 613.288,361.644 601.5,359C 611.034,353.737 620.367,348.237 629.5,342.5C 628.833,342.167 628.167,341.833 627.5,341.5C 618.043,345.114 608.376,347.614 598.5,349C 604.538,339.017 607.872,328.184 608.5,316.5 Z M 427.5,350.5 C 417.885,348.721 408.385,346.388 399,343.5C 398.167,343.833 397.333,344.167 396.5,344.5C 405.994,349.413 415.328,354.58 424.5,360C 413.071,363.296 402.905,368.796 394,376.5C 388.956,371.124 384.289,365.458 380,359.5C 375.231,349.461 370.064,339.628 364.5,330C 375.5,326.333 386.5,322.667 397.5,319C 404.112,317.79 410.778,317.29 417.5,317.5C 418.821,329.127 422.154,340.127 427.5,350.5 Z M 505.5,319.5 C 540.091,317.871 564.925,332.538 580,363.5C 592.552,401.85 582.052,432.017 548.5,454C 510.095,470.941 478.262,462.775 453,429.5C 435.087,395.279 439.587,364.446 466.5,337C 478.08,327.874 491.08,322.041 505.5,319.5 Z M 500.5,385.5 C 498.468,384.439 497.134,382.772 496.5,380.5C 495.679,383.447 495.179,386.447 495,389.5C 488.316,384.435 485.316,377.768 486,369.5C 490.667,362.167 495.333,354.833 500,347.5C 500.186,349.9 500.686,352.234 501.5,354.5C 504.493,350.675 507.993,347.341 512,344.5C 515.061,340.71 516.728,336.377 517,331.5C 526.433,343.279 533.767,356.279 539,370.5C 541.551,380.391 538.384,387.724 529.5,392.5C 529.167,392 528.833,391.5 528.5,391C 531.507,383.393 532.174,375.56 530.5,367.5C 529.542,369.624 528.375,371.624 527,373.5C 522.946,377.554 519.113,381.387 515.5,385C 512.41,378.898 510.576,372.398 510,365.5C 509.529,367.246 508.862,368.913 508,370.5C 502.834,374.165 500.334,379.165 500.5,385.5 Z M 656.5,347.5 C 664.755,349.128 672.088,352.628 678.5,358C 683.167,363.667 687.833,369.333 692.5,375C 689.986,376.452 687.32,377.618 684.5,378.5C 687.06,380.273 689.393,382.273 691.5,384.5C 688.995,386.253 686.329,387.753 683.5,389C 686.167,390.667 688.833,392.333 691.5,394C 689.099,396.062 686.433,397.729 683.5,399C 686.784,400.125 690.117,401.125 693.5,402C 693.957,402.414 694.291,402.914 694.5,403.5C 688.73,411.44 682.397,418.94 675.5,426C 671.099,429.117 666.266,431.284 661,432.5C 660.167,432.167 659.333,431.833 658.5,431.5C 654.057,420.106 647.724,409.939 639.5,401C 644.708,397.568 649.708,393.901 654.5,390C 649.198,386.009 643.864,382.009 638.5,378C 646.949,369.267 652.949,359.1 656.5,347.5 Z M 366.5,348.5 C 367.496,348.414 368.329,348.748 369,349.5C 373.527,361.007 380.027,371.174 388.5,380C 382.999,384.007 377.666,388.173 372.5,392.5C 377.638,395.805 382.638,399.305 387.5,403C 379.855,411.782 373.855,421.615 369.5,432.5C 368.833,432.833 368.167,433.167 367.5,433.5C 360.023,431.517 353.356,428.017 347.5,423C 343.406,417.483 339.073,412.15 334.5,407C 337.038,405.369 339.705,404.036 342.5,403C 339.999,401.327 337.666,399.493 335.5,397.5C 337.803,395.343 340.47,393.677 343.5,392.5C 340.681,391.257 338.014,389.757 335.5,388C 337.833,386.167 340.167,384.333 342.5,382.5C 338.803,382.001 335.469,380.667 332.5,378.5C 338.27,370.56 344.603,363.06 351.5,356C 356.313,352.927 361.313,350.427 366.5,348.5 Z M 587.5,363.5 C 605.477,363.042 620.81,369.042 633.5,381.5C 631.664,382.919 629.664,384.086 627.5,385C 632.747,388.45 632.747,391.95 627.5,395.5C 630.115,396.762 632.782,397.928 635.5,399C 626.283,407.277 615.616,412.944 603.5,416C 598.201,417.145 592.868,417.478 587.5,417C 594.139,399.196 594.139,381.362 587.5,363.5 Z M 433.5,364.5 C 435.5,364.5 437.5,364.5 439.5,364.5C 433.84,382.491 434.173,400.324 440.5,418C 421.635,419.3 406.302,413.3 394.5,400C 396.5,399 398.5,398 400.5,397C 398.833,395.333 397.167,393.667 395.5,392C 396.728,389.86 398.395,388.193 400.5,387C 397.705,385.964 395.038,384.631 392.5,383C 404.276,372.442 417.943,366.275 433.5,364.5 Z M 493.5,398.5 C 507.171,398.333 520.837,398.5 534.5,399C 535.337,400.011 535.67,401.178 535.5,402.5C 521.163,402.667 506.829,402.5 492.5,402C 492.167,401.667 491.833,401.333 491.5,401C 492.381,400.292 493.047,399.458 493.5,398.5 Z M 483.5,405.5 C 504.169,405.333 524.836,405.5 545.5,406C 550.329,408.837 550.663,412.171 546.5,416C 525.834,416.815 505.167,417.148 484.5,417C 478.202,413.65 477.868,409.817 483.5,405.5 Z M 632.5,405.5 C 633.239,405.369 633.906,405.536 634.5,406C 638.35,409.549 641.85,413.383 645,417.5C 650.923,428.419 656.756,439.419 662.5,450.5C 653.137,453.899 643.804,457.399 634.5,461C 626.575,462.925 618.575,463.925 610.5,464C 608.94,452.486 605.273,441.653 599.5,431.5C 609.363,433.433 619.363,436.1 629.5,439.5C 630.594,438.132 630.26,436.965 628.5,436C 619.682,432.094 611.348,427.427 603.5,422C 610.373,419.565 617.04,416.565 623.5,413C 626.94,410.958 629.94,408.458 632.5,405.5 Z M 392.5,407.5 C 398.949,411.563 405.615,415.396 412.5,419C 416.683,420.796 421.016,422.129 425.5,423C 416.167,428.667 406.833,434.333 397.5,440C 399.167,440.667 400.833,440.667 402.5,440C 411.037,436.532 419.704,434.366 428.5,433.5C 423.009,443.464 420.009,454.13 419.5,465.5C 411.795,465.063 404.128,464.229 396.5,463C 385.966,459.267 375.299,455.933 364.5,453C 369.987,443.859 374.821,434.359 379,424.5C 383.333,418.67 387.833,413.004 392.5,407.5 Z M 502.5,419.5 C 513.172,419.333 523.839,419.5 534.5,420C 535.167,420.667 535.833,421.333 536.5,422C 531.008,423.286 525.341,423.953 519.5,424C 510.833,424.667 502.167,424.667 493.5,424C 491.875,423.147 491.542,422.147 492.5,421C 496.025,420.821 499.359,420.321 502.5,419.5 Z M 584.5,424.5 C 598.803,436.294 605.636,451.294 605,469.5C 603.128,468.932 601.295,468.265 599.5,467.5C 598.526,469.743 598.192,472.076 598.5,474.5C 595.813,474.336 593.146,474.503 590.5,475C 591.833,477.333 593.167,479.667 594.5,482C 575.909,482.138 560.242,475.472 547.5,462C 564.049,453.618 576.383,441.118 584.5,424.5 Z M 442.5,425.5 C 451.172,441.837 463.838,454.171 480.5,462.5C 468.766,476.362 453.766,483.195 435.5,483C 436.399,480.808 437.399,478.642 438.5,476.5C 435.914,475.52 433.247,475.187 430.5,475.5C 430.808,473.076 430.474,470.743 429.5,468.5C 427.5,469.5 425.5,470.5 423.5,471.5C 423.164,453.531 429.497,438.198 442.5,425.5 Z M 531.5,426.5 C 532.647,430.646 532.814,434.98 532,439.5C 531.097,438.299 529.931,437.465 528.5,437C 519.5,436.333 510.5,436.333 501.5,437C 499.671,437.273 498.171,438.107 497,439.5C 496.797,435.579 496.297,431.745 495.5,428C 507.674,427.831 519.674,427.331 531.5,426.5 Z M 644.5,462.5 C 645.496,462.414 646.329,462.748 647,463.5C 654.118,477.253 655.451,491.587 651,506.5C 648.667,505.167 646.333,503.833 644,502.5C 644.201,505.777 644.368,509.111 644.5,512.5C 641.525,512.287 638.858,511.287 636.5,509.5C 636.167,509.833 635.833,510.167 635.5,510.5C 636.785,513.021 637.452,515.687 637.5,518.5C 634.475,518.123 631.475,517.956 628.5,518C 630.545,520.586 632.211,523.42 633.5,526.5C 618.235,532.4 603.235,531.733 588.5,524.5C 588.167,523.833 587.833,523.167 587.5,522.5C 592.207,511.3 594.873,499.634 595.5,487.5C 601.852,488.392 608.185,489.392 614.5,490.5C 613.067,483.904 612.067,477.237 611.5,470.5C 623.092,469.851 634.092,467.185 644.5,462.5 Z M 380.5,463.5 C 392.31,468.535 404.643,471.202 417.5,471.5C 417.043,477.911 416.043,484.244 414.5,490.5C 414.833,491.167 415.167,491.833 415.5,492.5C 421.333,490.495 427.166,489.495 433,489.5C 433.793,501.207 436.626,512.374 441.5,523C 436.892,526.137 431.892,528.47 426.5,530C 416.808,530.591 407.141,530.258 397.5,529C 398.437,526.293 399.77,523.793 401.5,521.5C 398.232,521.514 394.899,521.181 391.5,520.5C 392.305,518.085 393.305,515.751 394.5,513.5C 394.167,513.167 393.833,512.833 393.5,512.5C 390.979,513.785 388.313,514.452 385.5,514.5C 385.877,511.475 386.044,508.475 386,505.5C 383.414,507.545 380.58,509.211 377.5,510.5C 371.228,494.307 372.228,478.64 380.5,463.5 Z M 540.5,464.5 C 541.956,482.616 536.29,498.282 523.5,511.5C 522.167,509.5 520.833,507.5 519.5,505.5C 517.833,506.833 516.167,508.167 514.5,509.5C 512.833,508.167 511.167,506.833 509.5,505.5C 508.777,508.07 507.61,510.403 506,512.5C 493.335,499.335 487.502,483.668 488.5,465.5C 502.276,469.704 516.276,470.537 530.5,468C 534.109,467.299 537.442,466.132 540.5,464.5 Z M 554.5,477.5 C 554.56,476.957 554.893,476.624 555.5,476.5C 565.83,481.787 576.663,485.454 588,487.5C 588.29,495.231 587.623,502.897 586,510.5C 582.452,520.147 579.118,529.814 576,539.5C 566.063,533.96 555.896,528.793 545.5,524C 540.037,520.369 535.037,516.202 530.5,511.5C 537.781,502.272 542.947,491.939 546,480.5C 551.427,488.348 556.094,496.682 560,505.5C 561.185,507.559 562.352,507.726 563.5,506C 560.555,496.358 557.555,486.858 554.5,477.5 Z M 473.5,477.5 C 471.721,487.115 469.388,496.615 466.5,506C 466.833,506.833 467.167,507.667 467.5,508.5C 472.92,499.328 478.087,489.994 483,480.5C 486.01,491.821 491.176,501.988 498.5,511C 493.759,516.412 488.426,521.079 482.5,525C 472.309,529.609 462.476,534.776 453,540.5C 449.619,530.069 445.952,519.736 442,509.5C 440.753,502.221 440.253,494.888 440.5,487.5C 452.134,486.176 463.134,482.843 473.5,477.5 Z M 502.5,516.5 C 506.828,521.667 510.994,527 515,532.5C 518.648,527.353 522.481,522.353 526.5,517.5C 535.938,525.091 546.271,531.258 557.5,536C 555.339,542.155 552.506,547.988 549,553.5C 542.667,559.167 536.333,564.833 530,570.5C 528.402,567.702 527.235,564.702 526.5,561.5C 524.902,564.601 522.735,567.268 520,569.5C 518.472,566.583 517.139,563.583 516,560.5C 514.601,563.629 512.935,566.629 511,569.5C 509.333,566.833 507.667,564.167 506,561.5C 505.04,565.298 503.706,568.965 502,572.5C 497.786,568.618 493.286,565.118 488.5,562C 480.056,555.101 474.389,546.434 471.5,536C 483.214,531.488 493.547,524.988 502.5,516.5 Z"/></g>
<g><path style="opacity:0.971" fill="#582b0a" d="M 761.5,187.5 C 773.83,197.664 784.997,208.997 795,221.5C 799.697,229.227 800.531,237.227 797.5,245.5C 789.449,246.007 783.282,242.674 779,235.5C 770.499,220.499 764.666,204.499 761.5,187.5 Z"/></g>
<g><path style="opacity:0.972" fill="#582b0a" d="M 840.5,212.5 C 848.743,227.736 853.91,244.069 856,261.5C 858.734,277.869 858.734,294.202 856,310.5C 851.203,321.86 844.536,323.193 836,314.5C 832.451,308.446 830.617,301.946 830.5,295C 833.784,276.239 836.951,257.406 840,238.5C 840.5,229.84 840.666,221.173 840.5,212.5 Z"/></g>
<g><path style="opacity:0.966" fill="#582b0a" d="M 716.5,214.5 C 732.8,220.483 748.133,228.316 762.5,238C 767.415,242.244 771.581,247.077 775,252.5C 780.016,264.058 776.516,268.892 764.5,267C 757.865,264.35 751.865,260.684 746.5,256C 734.399,243.61 724.399,229.777 716.5,214.5 Z"/></g>
<g><path style="opacity:0.962" fill="#582a0a" d="M 801.5,252.5 C 810.253,264.993 817.753,278.327 824,292.5C 826.238,299.463 826.571,306.463 825,313.5C 822.804,318.54 819.304,319.707 814.5,317C 810.554,313.613 807.72,309.446 806,304.5C 801.632,287.405 800.132,270.071 801.5,252.5 Z"/></g>
<g><path style="opacity:0.964" fill="#582b0a" d="M 752.5,270.5 C 752.897,269.475 753.563,269.308 754.5,270C 770.667,282.167 784.833,296.333 797,312.5C 800.724,319.544 801.224,326.711 798.5,334C 793.561,335.925 788.894,335.259 784.5,332C 775.718,323.546 768.885,313.713 764,302.5C 759.838,291.838 756.004,281.172 752.5,270.5 Z"/></g>
<g><path style="opacity:0.88" fill="#562a0b" d="M 511.5,294.5 C 516.466,294.929 517.466,297.096 514.5,301C 509.382,300.824 508.382,298.658 511.5,294.5 Z"/></g>
<g><path style="opacity:0.967" fill="#582b0a" d="M 873.5,301.5 C 878.898,335.134 874.065,367.468 859,398.5C 854.131,405.692 848.131,407.025 841,402.5C 837.164,394.462 836.497,386.129 839,377.5C 847.381,360.406 856.047,343.406 865,326.5C 868.936,318.526 871.769,310.192 873.5,301.5 Z"/></g>
<g><path style="opacity:0.918" fill="#592a0a" d="M 576.5,321.5 C 582.148,321.311 583.482,323.478 580.5,328C 575.795,328.106 574.462,325.939 576.5,321.5 Z"/></g>
<g><path style="opacity:0.891" fill="#592b0a" d="M 445.5,322.5 C 450.159,322.015 451.492,323.848 449.5,328C 444.001,328.806 442.668,326.973 445.5,322.5 Z"/></g>
<g><path style="opacity:0.97" fill="#582b0a" d="M 507.5,326.5 C 542.508,326.031 565.342,342.365 576,375.5C 581.559,406.2 571.392,430.033 545.5,447C 541.482,449.226 537.315,451.059 533,452.5C 533.166,446.655 530.666,442.488 525.5,440C 517.833,439.333 510.167,439.333 502.5,440C 497.152,442.829 494.985,447.329 496,453.5C 456.989,437.813 442.656,409.479 453,368.5C 463.522,344.467 481.688,330.467 507.5,326.5 Z M 500.5,385.5 C 500.334,379.165 502.834,374.165 508,370.5C 508.862,368.913 509.529,367.246 510,365.5C 510.576,372.398 512.41,378.898 515.5,385C 519.113,381.387 522.946,377.554 527,373.5C 528.375,371.624 529.542,369.624 530.5,367.5C 532.174,375.56 531.507,383.393 528.5,391C 528.833,391.5 529.167,392 529.5,392.5C 538.384,387.724 541.551,380.391 539,370.5C 533.767,356.279 526.433,343.279 517,331.5C 516.728,336.377 515.061,340.71 512,344.5C 507.993,347.341 504.493,350.675 501.5,354.5C 500.686,352.234 500.186,349.9 500,347.5C 495.333,354.833 490.667,362.167 486,369.5C 485.316,377.768 488.316,384.435 495,389.5C 495.179,386.447 495.679,383.447 496.5,380.5C 497.134,382.772 498.468,384.439 500.5,385.5 Z M 493.5,398.5 C 493.047,399.458 492.381,400.292 491.5,401C 491.833,401.333 492.167,401.667 492.5,402C 506.829,402.5 521.163,402.667 535.5,402.5C 535.67,401.178 535.337,400.011 534.5,399C 520.837,398.5 507.171,398.333 493.5,398.5 Z M 483.5,405.5 C 477.868,409.817 478.202,413.65 484.5,417C 505.167,417.148 525.834,416.815 546.5,416C 550.663,412.171 550.329,408.837 545.5,406C 524.836,405.5 504.169,405.333 483.5,405.5 Z M 502.5,419.5 C 499.359,420.321 496.025,420.821 492.5,421C 491.542,422.147 491.875,423.147 493.5,424C 502.167,424.667 510.833,424.667 519.5,424C 525.341,423.953 531.008,423.286 536.5,422C 535.833,421.333 535.167,420.667 534.5,420C 523.839,419.5 513.172,419.333 502.5,419.5 Z M 531.5,426.5 C 519.674,427.331 507.674,427.831 495.5,428C 496.297,431.745 496.797,435.579 497,439.5C 498.171,438.107 499.671,437.273 501.5,437C 510.5,436.333 519.5,436.333 528.5,437C 529.931,437.465 531.097,438.299 532,439.5C 532.814,434.98 532.647,430.646 531.5,426.5 Z"/></g>
<g><path style="opacity:0.963" fill="#582a0b" d="M 821.5,326.5 C 828.838,341.311 833.504,357.145 835.5,374C 835.263,379.855 833.763,385.355 831,390.5C 828.321,393.835 825.155,394.335 821.5,392C 816.54,384.837 814.207,376.837 814.5,368C 815.611,353.947 817.944,340.114 821.5,326.5 Z"/></g>
<g><path style="opacity:0.969" fill="#592b0a" d="M 775.5,331.5 C 786.36,344.173 795.527,358.173 803,373.5C 806.234,381.895 807.234,390.562 806,399.5C 803.634,405.617 799.467,407.117 793.5,404C 789.472,400.113 786.306,395.613 784,390.5C 777.813,371.34 774.98,351.673 775.5,331.5 Z"/></g>
<g><path style="opacity:0.946" fill="#592b0a" d="M 943.5,356.5 C 947.5,356.5 951.5,356.5 955.5,356.5C 955.5,361.167 955.5,365.833 955.5,370.5C 969.833,370.5 984.167,370.5 998.5,370.5C 998.5,375.5 998.5,380.5 998.5,385.5C 983.833,385.5 969.167,385.5 954.5,385.5C 954.5,390.167 954.5,394.833 954.5,399.5C 950.833,399.5 947.167,399.5 943.5,399.5C 943.5,385.167 943.5,370.833 943.5,356.5 Z"/></g>
<g><path style="opacity:0.96" fill="#592b0b" d="M 26.5,364.5 C 44.8328,364.857 63.1661,365.19 81.5,365.5C 81.5628,370.203 81.2295,374.87 80.5,379.5C 62.4833,379.717 44.4833,379.384 26.5,378.5C 26.5,373.833 26.5,369.167 26.5,364.5 Z"/></g>
<g><path style="opacity:0.967" fill="#582a0a" d="M 884.5,383.5 C 883.607,416.022 874.107,446.022 856,473.5C 852.347,478.671 847.513,482.004 841.5,483.5C 833.814,482.174 830.481,477.508 831.5,469.5C 831.952,459.597 835.452,450.93 842,443.5C 853.147,430.532 863.814,417.198 874,403.5C 878.292,397.248 881.792,390.582 884.5,383.5 Z"/></g>
<g><path style="opacity:0.85" fill="#592c0a" d="M 604.5,387.5 C 608.945,386.873 610.612,388.54 609.5,392.5C 604.134,394.468 602.468,392.801 604.5,387.5 Z"/></g>
<g><path style="opacity:0.82" fill="#57290a" d="M 418.5,388.5 C 422.677,387.842 424.177,389.508 423,393.5C 420.131,396.009 417.964,395.342 416.5,391.5C 417.193,390.482 417.859,389.482 418.5,388.5 Z"/></g>
<g><path style="opacity:0.955" fill="#582b0a" d="M 68.5,390.5 C 72.5,390.5 76.5,390.5 80.5,390.5C 81.481,395.129 81.6477,399.796 81,404.5C 72.5,411 64,417.5 55.5,424C 64.5645,424.444 73.5645,423.944 82.5,422.5C 83.2325,426.174 83.8992,429.841 84.5,433.5C 66.1809,435.422 47.8476,437.089 29.5,438.5C 28.5766,434.139 28.5766,429.806 29.5,425.5C 39.6394,418.527 49.6394,411.361 59.5,404C 48.4734,403.758 37.4734,404.258 26.5,405.5C 25.9564,401.327 26.623,397.494 28.5,394C 42.0183,393.205 55.3516,392.039 68.5,390.5 Z"/></g>
<g><path style="opacity:0.957" fill="#582a0a" d="M 827.5,401.5 C 829.552,408.888 830.719,416.555 831,424.5C 831.667,433.167 831.667,441.833 831,450.5C 830.275,457.691 827.442,463.858 822.5,469C 817.005,471.831 813.172,470.331 811,464.5C 808.917,451.075 810.584,438.075 816,425.5C 819.591,417.321 823.424,409.321 827.5,401.5 Z"/></g>
<g><path style="opacity:0.966" fill="#582a0a" d="M 782.5,403.5 C 790.256,419.268 795.756,435.935 799,453.5C 800.295,462.403 798.795,470.736 794.5,478.5C 789.444,482.728 784.944,482.062 781,476.5C 778.248,471.162 776.582,465.495 776,459.5C 775.216,440.488 777.383,421.821 782.5,403.5 Z"/></g>
<g><path style="opacity:0.954" fill="#582b0a" d="M 943.5,406.5 C 961.202,407.93 978.868,409.763 996.5,412C 997.968,416.291 997.635,420.458 995.5,424.5C 983.833,430 972.167,435.5 960.5,441C 971.807,442.497 983.141,443.664 994.5,444.5C 993.979,448.481 993.646,452.481 993.5,456.5C 975.222,454.062 956.888,452.062 938.5,450.5C 938.849,445.334 939.849,440.334 941.5,435.5C 951.167,430.667 960.833,425.833 970.5,421C 961.222,419.358 951.888,418.191 942.5,417.5C 942.423,413.785 942.756,410.119 943.5,406.5 Z"/></g>
<g><path style="opacity:0.964" fill="#582a0a" d="M 81.5,440.5 C 82.8221,440.33 83.9887,440.663 85,441.5C 87.6471,452.04 88.9804,462.707 89,473.5C 83.3146,489.101 72.1479,495.601 55.5,493C 45.6494,491.484 39.1494,485.984 36,476.5C 34.0458,467.898 32.5458,459.231 31.5,450.5C 48.4104,447.785 65.0771,444.451 81.5,440.5 Z M 75.5,456.5 C 79.951,463.378 78.951,469.544 72.5,475C 63.8058,481.415 55.6391,480.915 48,473.5C 46.0961,470.077 45.2628,466.41 45.5,462.5C 55.7438,461.118 65.7438,459.118 75.5,456.5 Z"/></g>
<g><path style="opacity:0.847" fill="#582b0a" d="M 577.5,453.5 C 581.945,452.873 583.612,454.54 582.5,458.5C 577.134,460.468 575.468,458.801 577.5,453.5 Z"/></g>
<g><path style="opacity:0.835" fill="#582a0a" d="M 445.5,454.5 C 450.123,453.408 451.956,455.075 451,459.5C 445.42,461.752 443.587,460.085 445.5,454.5 Z"/></g>
<g><path style="opacity:0.952" fill="#582b0a" d="M 936.5,458.5 C 939.728,459.546 943.061,460.212 946.5,460.5C 945.132,469.305 943.132,477.972 940.5,486.5C 943.326,487.58 946.159,488.58 949,489.5C 951.005,482.489 953.172,475.489 955.5,468.5C 958.708,469.802 962.041,470.469 965.5,470.5C 964.038,477.811 962.704,485.145 961.5,492.5C 964.959,492.531 968.292,493.198 971.5,494.5C 973.772,485.969 976.105,477.469 978.5,469C 982.196,469.003 985.863,469.503 989.5,470.5C 986.809,484.264 983.643,497.931 980,511.5C 962.697,507.039 945.364,502.706 928,498.5C 930.186,485.081 933.02,471.747 936.5,458.5 Z"/></g>
<g><path style="opacity:0.962" fill="#582b0a" d="M 768.5,472.5 C 769.117,472.611 769.617,472.944 770,473.5C 773.585,492.015 774.918,510.681 774,529.5C 772.824,537.018 769.657,543.518 764.5,549C 758.406,551.705 754.239,549.872 752,543.5C 749.638,527.658 751.638,512.325 758,497.5C 761.512,489.145 765.012,480.812 768.5,472.5 Z"/></g>
<g><path style="opacity:0.961" fill="#582a0a" d="M 812.5,477.5 C 813.693,477.97 814.36,478.97 814.5,480.5C 813.171,495.141 810.338,509.474 806,523.5C 803.08,531.442 797.58,535.942 789.5,537C 784.73,530.247 784.23,523.08 788,515.5C 794.389,501.626 802.555,488.96 812.5,477.5 Z"/></g>
<g><path style="opacity:0.968" fill="#582a0a" d="M 874.5,478.5 C 875.097,478.735 875.43,479.235 875.5,480C 863.793,510.063 845.459,535.396 820.5,556C 816.144,558.68 811.478,560.513 806.5,561.5C 797.892,559.418 795.059,554.085 798,545.5C 801.114,537.1 806.281,530.267 813.5,525C 829.106,515.058 844.44,504.725 859.5,494C 865.375,489.626 870.375,484.459 874.5,478.5 Z"/></g>
<g><path style="opacity:0.858" fill="#592b0a" d="M 511.5,481.5 C 516.123,480.408 517.956,482.075 517,486.5C 511.828,488.315 509.995,486.648 511.5,481.5 Z"/></g>
<g><path style="opacity:0.957" fill="#582a0a" d="M 93.5,495.5 C 94.8333,495.5 96.1667,495.5 97.5,495.5C 98.4972,500.161 99.4972,504.827 100.5,509.5C 82.878,514.656 65.2113,519.656 47.5,524.5C 46.8161,520.276 45.8161,516.11 44.5,512C 44.6448,511.228 44.9781,510.561 45.5,510C 61.7102,505.453 77.7102,500.62 93.5,495.5 Z"/></g>
<g><path style="opacity:0.952" fill="#582b0a" d="M 925.5,507.5 C 942.569,513.135 959.402,519.468 976,526.5C 975.634,531.425 973.801,535.758 970.5,539.5C 959.313,534.608 947.98,530.441 936.5,527C 946.241,535.286 956.074,543.453 966,551.5C 965.749,555.082 964.583,558.416 962.5,561.5C 949.552,559.937 936.552,559.103 923.5,559C 935.403,563.354 947.07,568.187 958.5,573.5C 957.568,575.795 956.735,578.129 956,580.5C 955.653,582.18 954.653,583.18 953,583.5C 936.3,577.23 919.8,570.563 903.5,563.5C 906.132,557.244 908.465,550.911 910.5,544.5C 921.235,545.141 931.902,545.975 942.5,547C 934.002,540.332 926.002,533.165 918.5,525.5C 920.84,519.477 923.173,513.477 925.5,507.5 Z"/></g>
<g><path style="opacity:0.97" fill="#582b0a" d="M 743.5,523.5 C 744.973,543.743 742.807,563.743 737,583.5C 734.646,588.858 731.146,593.358 726.5,597C 721.386,599.793 717.553,598.626 715,593.5C 713.059,583.132 714.393,573.132 719,563.5C 725.923,549.304 734.09,535.97 743.5,523.5 Z"/></g>
<g><path style="opacity:0.959" fill="#582b0a" d="M 103.5,530.5 C 105.288,530.215 106.955,530.548 108.5,531.5C 110.5,536.167 112.5,540.833 114.5,545.5C 99.8333,557.833 85.1667,570.167 70.5,582.5C 68.2429,578.317 66.2429,573.984 64.5,569.5C 67.0205,566.146 70.0205,563.312 73.5,561C 70.8081,556.089 68.8081,550.923 67.5,545.5C 63.441,545.566 59.441,545.733 55.5,546C 53.4703,542.411 52.137,538.578 51.5,534.5C 69.0068,533.491 86.3401,532.158 103.5,530.5 Z M 82.5,543.5 C 86.5138,543.334 90.5138,543.501 94.5,544C 90.9374,547.233 87.1041,550.067 83,552.5C 81.1364,550.277 79.6364,547.777 78.5,545C 80.0581,544.79 81.3915,544.29 82.5,543.5 Z"/></g>
<g><path style="opacity:0.957" fill="#582a0a" d="M 784.5,542.5 C 785.239,542.369 785.906,542.536 786.5,543C 782.462,556.446 777.629,569.613 772,582.5C 769.167,588 765,592.167 759.5,595C 756.166,596.212 753.666,595.379 752,592.5C 750.773,584.84 752.44,577.84 757,571.5C 764.655,560.346 773.822,550.68 784.5,542.5 Z"/></g>
<g><path style="opacity:0.971" fill="#582b0a" d="M 843.5,556.5 C 844.376,556.369 845.043,556.702 845.5,557.5C 829.855,585.649 807.189,605.816 777.5,618C 761.621,618.774 757.454,611.941 765,597.5C 770.073,591.768 776.24,587.601 783.5,585C 800.984,579.172 817.984,572.172 834.5,564C 837.94,561.958 840.94,559.458 843.5,556.5 Z"/></g>
<g><path style="opacity:0.958" fill="#582b0a" d="M 120.5,566.5 C 122.592,566.561 124.092,567.561 125,569.5C 126.5,572.5 128,575.5 129.5,578.5C 123.992,588.521 118.825,598.521 114,608.5C 121.836,603.581 129.836,598.914 138,594.5C 139.966,597.601 141.8,600.768 143.5,604C 128.692,612.907 113.692,621.574 98.5,630C 97.5,630.667 96.5,630.667 95.5,630C 93.8169,626.99 92.1502,623.99 90.5,621C 96.366,610.102 102.366,599.269 108.5,588.5C 108.167,588.167 107.833,587.833 107.5,587.5C 98.2533,592.373 89.0866,597.373 80,602.5C 78.4205,599.006 76.5872,595.673 74.5,592.5C 90.1288,584.17 105.462,575.503 120.5,566.5 Z"/></g>
<g><path style="opacity:0.954" fill="#582b0a" d="M 898.5,571.5 C 902.048,572.607 905.381,574.274 908.5,576.5C 904.04,583.918 899.707,591.418 895.5,599C 898.291,601.423 901.291,602.589 904.5,602.5C 907.581,596.669 910.915,591.002 914.5,585.5C 917.005,587.253 919.671,588.753 922.5,590C 923.517,591.049 923.684,592.216 923,593.5C 920.032,598.602 917.199,603.769 914.5,609C 917.056,611.215 919.889,613.049 923,614.5C 928.036,607.115 932.702,599.448 937,591.5C 940.751,593.291 944.251,595.457 947.5,598C 940.863,610.116 933.863,621.95 926.5,633.5C 910.67,624.753 895.004,615.753 879.5,606.5C 886.112,594.939 892.446,583.272 898.5,571.5 Z"/></g>
<g><path style="opacity:0.965" fill="#582a0a" d="M 706.5,574.5 C 707.239,574.369 707.906,574.536 708.5,575C 704.937,593.749 699.437,611.916 692,629.5C 688.449,635.384 683.616,639.884 677.5,643C 671.736,645.053 668.236,643.22 667,637.5C 666.874,628.537 669.207,620.204 674,612.5C 677.946,606.221 682.279,600.221 687,594.5C 693.703,587.965 700.203,581.298 706.5,574.5 Z"/></g>
<g><path style="opacity:0.921" fill="#592b0a" d="M 563.5,599.5 C 565.124,599.36 566.29,600.027 567,601.5C 569.333,611.167 571.667,620.833 574,630.5C 574.414,630.957 574.914,631.291 575.5,631.5C 577.783,630.679 580.116,630.012 582.5,629.5C 585.408,630.963 586.075,633.13 584.5,636C 575.833,638.167 567.167,640.333 558.5,642.5C 557.558,642.392 556.725,642.059 556,641.5C 555.333,639.833 555.333,638.167 556,636.5C 559.399,635.107 562.899,633.94 566.5,633C 564.595,626.551 562.762,620.051 561,613.5C 558.651,616.017 556.151,618.35 553.5,620.5C 552.051,618.389 551.051,616.056 550.5,613.5C 555.317,609.129 559.65,604.463 563.5,599.5 Z"/></g>
<g><path style="opacity:0.953" fill="#582a0a" d="M 750.5,598.5 C 751.376,598.369 752.043,598.702 752.5,599.5C 745.184,612.634 736.517,624.801 726.5,636C 720.584,641.531 713.751,643.365 706,641.5C 704.121,638.2 704.121,634.866 706,631.5C 708.112,627.722 710.612,624.222 713.5,621C 724.931,611.954 737.264,604.454 750.5,598.5 Z"/></g>
<g><path style="opacity:0.927" fill="#582a0a" d="M 469.5,602.5 C 471.199,602.34 472.866,602.506 474.5,603C 475.022,603.561 475.355,604.228 475.5,605C 473.154,615.405 471.487,625.739 470.5,636C 473.513,636.502 476.513,637.002 479.5,637.5C 480.21,640.93 479.043,643.263 476,644.5C 467.19,642.638 458.356,640.971 449.5,639.5C 449.5,637.167 449.5,634.833 449.5,632.5C 453.448,632.686 457.281,633.352 461,634.5C 463.265,627.931 464.098,621.265 463.5,614.5C 460.947,615.805 458.28,616.805 455.5,617.5C 454.325,614.529 454.658,611.696 456.5,609C 461.443,607.862 465.776,605.695 469.5,602.5 Z"/></g>
<g><path style="opacity:0.929" fill="#582a0a" d="M 494.5,606.5 C 504.094,604.967 510.594,608.634 514,617.5C 515.291,625.509 514.291,633.176 511,640.5C 504.477,647.12 496.977,648.287 488.5,644C 486.438,642.468 485.104,640.468 484.5,638C 486.762,637.358 488.929,636.525 491,635.5C 497.438,642.256 502.271,641.089 505.5,632C 505.172,630.249 504.505,630.249 503.5,632C 489.691,634.852 483.525,629.352 485,615.5C 486.775,610.888 489.942,607.888 494.5,606.5 Z M 496.5,613.5 C 504.744,613.228 507.078,616.728 503.5,624C 497.945,626.867 494.279,625.367 492.5,619.5C 492.866,616.744 494.2,614.744 496.5,613.5 Z"/></g>
<g><path style="opacity:0.93" fill="#582b0a" d="M 531.5,605.5 C 538.541,605.184 543.541,608.184 546.5,614.5C 542.924,618.073 539.924,617.906 537.5,614C 529.71,611.625 526.376,614.458 527.5,622.5C 533.83,618.39 539.997,618.724 546,623.5C 552.184,635.277 548.851,642.943 536,646.5C 526.793,646.071 521.126,641.404 519,632.5C 518.333,627.167 518.333,621.833 519,616.5C 520.93,610.142 525.096,606.475 531.5,605.5 Z M 532.5,626.5 C 537.77,626.269 540.77,628.769 541.5,634C 536.315,641.556 531.982,641.056 528.5,632.5C 529.347,630.129 530.68,628.129 532.5,626.5 Z"/></g>
<g><path style="opacity:0.964" fill="#582b0a" d="M 663.5,607.5 C 660.774,623.83 655.274,639.496 647,654.5C 643.052,661.781 637.218,666.947 629.5,670C 622.726,671.854 619.392,669.187 619.5,662C 620.48,655.728 622.646,649.895 626,644.5C 637.039,630.627 649.539,618.293 663.5,607.5 Z"/></g>
<g><path style="opacity:0.968" fill="#582b0a" d="M 804.5,617.5 C 805.573,618.251 805.74,619.251 805,620.5C 783.893,641.306 758.727,654.639 729.5,660.5C 718.089,659.011 715.255,653.345 721,643.5C 727.648,636.609 735.815,632.775 745.5,632C 762.741,629.849 779.741,626.516 796.5,622C 799.633,621.14 802.3,619.64 804.5,617.5 Z"/></g>
<g><path style="opacity:0.952" fill="#582a0a" d="M 875.5,620.5 C 880.937,619.967 885.937,621.134 890.5,624C 888.167,627.667 885.833,631.333 883.5,635C 881.325,634.951 879.158,634.451 877,633.5C 868.313,636.236 866.313,641.57 871,649.5C 876.121,655.797 882.621,659.797 890.5,661.5C 896.598,661.235 899.932,658.068 900.5,652C 900.251,649.336 899.085,647.169 897,645.5C 894.594,647.983 892.427,650.65 890.5,653.5C 887.19,651.518 884.19,649.185 881.5,646.5C 885.446,639.595 890.113,633.262 895.5,627.5C 903.473,632.973 911.306,638.64 919,644.5C 918.685,650.161 915.852,652.161 910.5,650.5C 910.503,667.332 902.169,675.499 885.5,675C 865.879,671.066 856.379,659.233 857,639.5C 860.017,629.984 866.184,623.651 875.5,620.5 Z"/></g>
<g><path style="opacity:0.958" fill="#582a0a" d="M 620.5,633.5 C 621.497,633.47 622.164,633.97 622.5,635C 615.806,648.894 607.973,662.061 599,674.5C 595.448,677.719 591.615,680.552 587.5,683C 577.11,687.565 572.943,684.398 575,673.5C 576.99,668.187 579.99,663.52 584,659.5C 595.266,649.461 607.433,640.794 620.5,633.5 Z"/></g>
<g><path style="opacity:0.963" fill="#582b0a" d="M 172.5,645.5 C 174.767,648.271 177.267,650.938 180,653.5C 180.982,654.759 181.315,656.092 181,657.5C 167.333,668.833 153.667,680.167 140,691.5C 135.965,688.016 132.965,684.016 131,679.5C 145.022,668.302 158.856,656.969 172.5,645.5 Z"/></g>
<g><path style="opacity:0.962" fill="#582a0a" d="M 699.5,645.5 C 701.355,645.272 702.188,645.939 702,647.5C 691.759,657.745 680.926,667.245 669.5,676C 661.773,680.697 653.773,681.531 645.5,678.5C 644.149,674.934 644.649,671.601 647,668.5C 652.398,662.44 658.898,657.94 666.5,655C 677.403,651.029 688.403,647.862 699.5,645.5 Z"/></g>
<g><path style="opacity:0.959" fill="#582a0a" d="M 575.5,647.5 C 576.239,647.369 576.906,647.536 577.5,648C 569.487,661.697 560.487,674.697 550.5,687C 546.453,690.692 541.786,693.359 536.5,695C 526.658,697.81 523.158,694.31 526,684.5C 528.691,678.803 532.525,673.97 537.5,670C 549.405,661.214 562.072,653.714 575.5,647.5 Z"/></g>
<g><path style="opacity:0.959" fill="#582a0a" d="M 186.5,665.5 C 191.33,667.649 195.33,670.982 198.5,675.5C 195.509,686.458 193.009,697.458 191,708.5C 197.681,701.652 204.514,694.985 211.5,688.5C 214.295,690.751 216.628,693.418 218.5,696.5C 206.139,709.694 193.306,722.361 180,734.5C 176.726,731.985 173.893,728.985 171.5,725.5C 175.003,712.822 178.17,700.155 181,687.5C 173.5,695 166,702.5 158.5,710C 154.649,709.358 151.649,707.191 149.5,703.5C 161.855,690.813 174.188,678.146 186.5,665.5 Z"/></g>
<g><path style="opacity:0.961" fill="#582b0a" d="M 760.5,664.5 C 761.552,664.351 762.552,664.517 763.5,665C 738.572,683.42 710.572,692.42 679.5,692C 668.921,687.329 667.921,680.995 676.5,673C 680.281,670.775 684.281,669.109 688.5,668C 709.167,667.667 729.833,667.333 750.5,667C 754.09,666.689 757.423,665.856 760.5,664.5 Z"/></g>
<g><path style="opacity:0.961" fill="#582b0a" d="M 835.5,664.5 C 853.29,672.228 870.957,680.228 888.5,688.5C 885.138,692.192 881.805,695.859 878.5,699.5C 875.162,698.164 871.828,696.83 868.5,695.5C 864.25,699.084 860.25,703.084 856.5,707.5C 858.047,710.761 859.713,713.928 861.5,717C 859.608,720.603 857.108,723.77 854,726.5C 843.861,710.392 834.361,693.892 825.5,677C 828.717,672.729 832.05,668.563 835.5,664.5 Z M 842.5,684.5 C 842.56,683.957 842.893,683.624 843.5,683.5C 848,685.385 852.333,687.552 856.5,690C 855.024,692.643 853.024,694.81 850.5,696.5C 847.81,692.435 845.143,688.435 842.5,684.5 Z"/></g>
<g><path style="opacity:0.953" fill="#582a0a" d="M 617.5,677.5 C 625.174,677.334 632.841,677.5 640.5,678C 631.833,683.667 623.167,689.333 614.5,695C 605.956,700.738 596.623,702.738 586.5,701C 582.539,700.392 581.039,698.226 582,694.5C 583.061,691.438 584.894,688.938 587.5,687C 597.036,681.957 607.036,678.79 617.5,677.5 Z"/></g>
<g><path style="opacity:0.966" fill="#582b0a" d="M 631.5,692.5 C 637.182,693.15 642.849,693.984 648.5,695C 669.732,701.447 691.399,705.447 713.5,707C 693.818,714.864 673.318,718.364 652,717.5C 639.335,718.643 627.168,716.81 615.5,712C 609.953,705.601 610.953,700.268 618.5,696C 622.86,694.417 627.194,693.25 631.5,692.5 Z"/></g>
<g><path style="opacity:0.958" fill="#582b0a" d="M 808.5,692.5 C 811.692,694.172 814.525,696.505 817,699.5C 826.312,710.98 835.812,722.313 845.5,733.5C 842.729,736.392 839.729,739.058 836.5,741.5C 824.286,736.926 811.953,733.093 799.5,730C 806.687,737.553 813.52,745.386 820,753.5C 820.667,754.5 820.667,755.5 820,756.5C 817.372,758.126 815.039,760.126 813,762.5C 800.404,749.244 788.571,735.41 777.5,721C 780.638,717.534 784.138,714.367 788,711.5C 798.333,714.833 808.667,718.167 819,721.5C 819.667,720.833 819.667,720.167 819,719.5C 812.98,712.981 807.147,706.315 801.5,699.5C 804.188,697.479 806.521,695.146 808.5,692.5 Z"/></g>
<g><path style="opacity:0.952" fill="#582b0a" d="M 540.5,696.5 C 552.321,696.582 563.988,697.915 575.5,700.5C 564.706,706.267 553.372,710.767 541.5,714C 533.844,715.447 526.678,714.28 520,710.5C 518.709,705.438 520.542,701.938 525.5,700C 530.545,698.425 535.545,697.259 540.5,696.5 Z"/></g>
<g><path style="opacity:0.958" fill="#582b0a" d="M 222.5,708.5 C 238.623,707.786 248.623,715.286 252.5,731C 252.165,733.577 251.165,735.744 249.5,737.5C 246.273,736.091 242.94,735.091 239.5,734.5C 240.458,726.789 237.125,722.122 229.5,720.5C 226.154,722.562 225.654,725.228 228,728.5C 232.868,733.03 236.535,738.363 239,744.5C 240.258,755.916 235.258,762.916 224,765.5C 213.202,764.601 204.868,759.601 199,750.5C 196.123,743.973 195.79,737.307 198,730.5C 201.667,732.5 205.333,734.5 209,736.5C 208.385,745.049 212.219,750.383 220.5,752.5C 224.809,751.072 225.642,748.405 223,744.5C 220,740.5 217,736.5 214,732.5C 209.206,721.761 212.039,713.761 222.5,708.5 Z"/></g>
<g><path style="opacity:0.969" fill="#582b0a" d="M 579.5,710.5 C 585.909,710.183 592.243,710.683 598.5,712C 612.756,717.53 627.089,722.863 641.5,728C 648.404,729.976 655.404,731.476 662.5,732.5C 650.542,736.528 638.209,738.528 625.5,738.5C 612.376,738.042 599.376,736.542 586.5,734C 579.634,732.991 574.134,729.824 570,724.5C 569.333,721.833 569.333,719.167 570,716.5C 572.843,713.837 576.009,711.837 579.5,710.5 Z"/></g>
<g><path style="opacity:0.967" fill="#582a0a" d="M 534.5,720.5 C 539.962,721.017 545.295,722.184 550.5,724C 564.929,731.215 579.595,737.881 594.5,744C 601,746.458 607.667,748.292 614.5,749.5C 587.587,755.514 560.92,754.348 534.5,746C 529.221,744.384 524.721,741.551 521,737.5C 518.774,732.973 519.274,728.807 522.5,725C 526.301,722.584 530.301,721.084 534.5,720.5 Z"/></g>
<g><path style="opacity:0.954" fill="#582b0a" d="M 259.5,730.5 C 272.236,737.376 284.57,745.043 296.5,753.5C 294.813,756.884 292.647,759.884 290,762.5C 286.768,760.8 283.601,758.966 280.5,757C 279.5,756.333 278.5,756.333 277.5,757C 269.996,768.659 262.33,780.159 254.5,791.5C 250.367,789.198 246.367,786.698 242.5,784C 250.422,772.153 258.089,760.153 265.5,748C 261.826,745.164 258.159,742.331 254.5,739.5C 256.445,736.607 258.111,733.607 259.5,730.5 Z"/></g>
<g><path style="opacity:0.961" fill="#582a0a" d="M 757.5,733.5 C 773.388,744.382 788.722,756.049 803.5,768.5C 799.978,771.851 796.144,774.851 792,777.5C 788.922,775.045 785.756,772.711 782.5,770.5C 777.35,773.5 772.684,777 768.5,781C 769.5,784 770.5,787 771.5,790C 768.376,792.734 765.043,795.234 761.5,797.5C 755.569,779.704 750.236,761.704 745.5,743.5C 745.608,742.558 745.941,741.725 746.5,741C 750.345,738.637 754.011,736.137 757.5,733.5 Z M 760.5,753.5 C 764.652,756.417 768.652,759.584 772.5,763C 770.089,764.955 767.589,766.789 765,768.5C 763.194,763.583 761.694,758.583 760.5,753.5 Z"/></g>
<g><path style="opacity:0.957" fill="#582b0a" d="M 726.5,754.5 C 727.496,754.414 728.329,754.748 729,755.5C 736.977,771.287 744.81,787.121 752.5,803C 748.44,805.355 744.273,807.521 740,809.5C 734.061,797.956 728.394,786.289 723,774.5C 724.427,788.155 725.76,801.822 727,815.5C 724.355,817.415 721.521,818.582 718.5,819C 709.667,809.5 700.833,800 692,790.5C 696.831,801.84 701.998,813.173 707.5,824.5C 704.206,827.155 700.539,828.655 696.5,829C 689.144,813.787 681.644,798.621 674,783.5C 673.333,782.5 673.333,781.5 674,780.5C 679.861,777.236 685.861,774.236 692,771.5C 698.977,779.146 705.977,786.813 713,794.5C 712.169,784.516 711.003,774.516 709.5,764.5C 709.833,763.833 710.167,763.167 710.5,762.5C 716.025,760.006 721.358,757.339 726.5,754.5 Z"/></g>
<g><path style="opacity:0.953" fill="#582a0a" d="M 301.5,756.5 C 306.551,757.562 310.884,759.895 314.5,763.5C 306.579,779.861 297.746,795.528 288,810.5C 283.759,808.743 279.926,806.41 276.5,803.5C 285.113,787.938 293.447,772.271 301.5,756.5 Z"/></g>
<g><path style="opacity:0.958" fill="#582a0a" d="M 319.5,766.5 C 333.041,771.602 346.374,777.269 359.5,783.5C 358.43,787.312 356.596,790.645 354,793.5C 350.208,791.736 346.375,790.069 342.5,788.5C 337.384,799.006 332.55,809.673 328,820.5C 326.985,823.21 325.485,825.543 323.5,827.5C 319.024,826.097 315.024,823.931 311.5,821C 316.901,808.2 322.567,795.533 328.5,783C 324.189,780.844 319.856,778.678 315.5,776.5C 317.036,773.222 318.369,769.889 319.5,766.5 Z"/></g>
<g><path style="opacity:0.957" fill="#582b0a" d="M 362.5,784.5 C 367.571,785.968 372.571,787.635 377.5,789.5C 373.429,801.38 369.762,813.38 366.5,825.5C 367.825,832.834 372.158,835.667 379.5,834C 380.931,833.535 382.097,832.701 383,831.5C 387.341,819.311 391.174,806.978 394.5,794.5C 399.276,794.638 403.276,796.305 406.5,799.5C 402.641,812.938 398.474,826.272 394,839.5C 390.984,843.092 387.151,845.258 382.5,846C 369.513,847.585 359.346,843.085 352,832.5C 351.192,830.577 350.692,828.577 350.5,826.5C 354.302,812.429 358.302,798.429 362.5,784.5 Z"/></g>
<g><path style="opacity:0.954" fill="#582b0a" d="M 628.5,794.5 C 629.5,794.5 630.5,794.5 631.5,794.5C 632.326,798.136 632.992,801.803 633.5,805.5C 625.442,807.014 617.442,808.847 609.5,811C 608.474,814.746 609.141,818.246 611.5,821.5C 617.872,819.99 624.205,818.324 630.5,816.5C 632.128,820.345 633.128,824.345 633.5,828.5C 626.835,829.833 620.168,831.166 613.5,832.5C 614.832,839.829 616.165,847.163 617.5,854.5C 612.892,855.111 608.392,856.111 604,857.5C 599.385,839.591 595.219,821.591 591.5,803.5C 604.056,800.944 616.389,797.944 628.5,794.5 Z"/></g>
<g><path style="opacity:0.956" fill="#582a0a" d="M 410.5,799.5 C 424.534,801.617 438.534,803.95 452.5,806.5C 452.369,810.654 451.536,814.654 450,818.5C 445.593,817.185 441.093,816.185 436.5,815.5C 434.196,829.19 431.696,842.857 429,856.5C 428.107,857.081 427.107,857.415 426,857.5C 422.163,856.777 418.33,856.111 414.5,855.5C 416.782,841.425 419.448,827.425 422.5,813.5C 417.833,812.167 413.167,810.833 408.5,809.5C 409.382,806.209 410.048,802.876 410.5,799.5 Z"/></g>
<g><path style="opacity:0.963" fill="#582a0a" d="M 559.5,806.5 C 580.853,805.517 591.52,815.85 591.5,837.5C 591.275,854.226 582.775,862.892 566,863.5C 554.322,863.492 546.989,857.825 544,846.5C 542.477,838.898 542.144,831.232 543,823.5C 546.019,815.316 551.519,809.649 559.5,806.5 Z M 562.5,818.5 C 568.88,817.77 573.047,820.437 575,826.5C 577.254,834.356 576.921,842.023 574,849.5C 568.744,853.787 564.077,853.12 560,847.5C 556.071,838.91 555.737,830.243 559,821.5C 560.145,820.364 561.312,819.364 562.5,818.5 Z"/></g>
<g><path style="opacity:0.95" fill="#582a0a" d="M 454.5,807.5 C 467.824,808.696 481.157,809.863 494.5,811C 495.451,814.057 495.784,817.223 495.5,820.5C 486.451,820.329 477.451,819.662 468.5,818.5C 468.384,821.86 468.051,825.193 467.5,828.5C 474.485,829.089 481.485,829.422 488.5,829.5C 488.759,833.24 488.426,836.906 487.5,840.5C 480.518,841.004 473.518,840.67 466.5,839.5C 466.495,843.534 466.162,847.534 465.5,851.5C 474.505,852.112 483.505,852.778 492.5,853.5C 492.605,857.548 492.272,861.548 491.5,865.5C 477.846,864.334 464.18,863.334 450.5,862.5C 451.999,844.178 453.332,825.845 454.5,807.5 Z"/></g>
<g><path style="opacity:0.961" fill="#582b0a" d="M 480.5,901.5 C 488.099,901.27 495.099,903.103 501.5,907C 506.671,911.675 509.004,917.509 508.5,924.5C 503.527,925.164 498.527,925.497 493.5,925.5C 493.57,919.233 490.57,915.233 484.5,913.5C 481.634,914.182 479.134,915.516 477,917.5C 472.744,926.553 472.744,935.553 477,944.5C 482.333,951.167 487.667,951.167 493,944.5C 493.813,942.564 494.313,940.564 494.5,938.5C 499.181,938.669 503.848,939.002 508.5,939.5C 506.894,953.659 498.894,960.992 484.5,961.5C 470.59,960.422 462.09,953.089 459,939.5C 455.134,920.201 462.301,907.535 480.5,901.5 Z"/></g>
<g><path style="opacity:0.963" fill="#582b0a" d="M 332.5,902.5 C 343.376,901.616 352.209,905.282 359,913.5C 360.772,917.313 361.605,921.313 361.5,925.5C 356.527,926.164 351.527,926.497 346.5,926.5C 346.57,920.233 343.57,916.233 337.5,914.5C 334.634,915.182 332.134,916.516 330,918.5C 325.006,928.679 325.506,938.513 331.5,948C 339.833,952.159 345.166,949.659 347.5,940.5C 352.134,939.659 356.801,939.659 361.5,940.5C 360.86,950.976 355.526,957.809 345.5,961C 328.22,964.62 317.053,958.12 312,941.5C 307.909,922.334 314.742,909.334 332.5,902.5 Z"/></g>
<g><path style="opacity:0.967" fill="#592b0a" d="M 579.5,903.5 C 590.167,903.5 600.833,903.5 611.5,903.5C 611.5,907.5 611.5,911.5 611.5,915.5C 606.833,915.5 602.167,915.5 597.5,915.5C 597.5,930.5 597.5,945.5 597.5,960.5C 592.5,960.5 587.5,960.5 582.5,960.5C 582.642,945.485 582.309,930.485 581.5,915.5C 576.833,915.5 572.167,915.5 567.5,915.5C 567.5,911.833 567.5,908.167 567.5,904.5C 571.702,904.817 575.702,904.483 579.5,903.5 Z"/></g>
<g><path style="opacity:0.942" fill="#592b0b" d="M 612.5,903.5 C 627.167,903.5 641.833,903.5 656.5,903.5C 656.5,907.5 656.5,911.5 656.5,915.5C 651.833,915.5 647.167,915.5 642.5,915.5C 642.5,930.5 642.5,945.5 642.5,960.5C 637.5,960.5 632.5,960.5 627.5,960.5C 627.5,945.5 627.5,930.5 627.5,915.5C 622.5,915.5 617.5,915.5 612.5,915.5C 612.5,911.5 612.5,907.5 612.5,903.5 Z"/></g>
<g><path style="opacity:0.958" fill="#582b0a" d="M 675.5,903.5 C 681.167,903.5 686.833,903.5 692.5,903.5C 698.704,922.111 704.704,940.778 710.5,959.5C 705.489,959.666 700.489,959.499 695.5,959C 694.038,955.906 692.704,952.739 691.5,949.5C 685.537,948.504 679.537,948.171 673.5,948.5C 672.801,952.096 671.801,955.596 670.5,959C 666.167,959.667 661.833,959.667 657.5,959C 663.401,940.463 669.401,921.963 675.5,903.5 Z M 682.5,921.5 C 684.767,926.547 686.434,931.88 687.5,937.5C 684.102,937.82 680.768,937.487 677.5,936.5C 679.017,931.422 680.684,926.422 682.5,921.5 Z"/></g>
<g><path style="opacity:0.958" fill="#582a0a" d="M 515.5,904.5 C 520.833,904.5 526.167,904.5 531.5,904.5C 531.333,917.837 531.5,931.171 532,944.5C 535.956,950.759 541.122,951.926 547.5,948C 548.46,946.581 549.293,945.081 550,943.5C 550.5,930.504 550.667,917.504 550.5,904.5C 554.833,904.5 559.167,904.5 563.5,904.5C 563.952,919.905 563.452,935.238 562,950.5C 556.462,958.359 548.796,962.025 539,961.5C 529.598,961.799 522.265,958.133 517,950.5C 515.565,935.225 515.065,919.891 515.5,904.5 Z"/></g>
<g><path style="opacity:0.958" fill="#582a0a" d="M 381.5,905.5 C 387.5,905.5 393.5,905.5 399.5,905.5C 405.704,924.111 411.704,942.778 417.5,961.5C 412.489,961.666 407.489,961.499 402.5,961C 400.878,957.973 399.545,954.806 398.5,951.5C 392.537,950.504 386.537,950.171 380.5,950.5C 379.801,954.096 378.801,957.596 377.5,961C 373.167,961.667 368.833,961.667 364.5,961C 370.671,942.654 376.338,924.154 381.5,905.5 Z M 388.5,923.5 C 389.117,923.611 389.617,923.944 390,924.5C 391.603,929.141 393.103,933.808 394.5,938.5C 391.232,939.487 387.898,939.82 384.5,939.5C 385.833,934.167 387.167,928.833 388.5,923.5 Z"/></g>
<g><path style="opacity:0.955" fill="#592b0a" d="M 418.5,904.5 C 423.167,904.5 427.833,904.5 432.5,904.5C 432.5,919.5 432.5,934.5 432.5,949.5C 440.167,949.5 447.833,949.5 455.5,949.5C 455.5,953.5 455.5,957.5 455.5,961.5C 443.167,961.5 430.833,961.5 418.5,961.5C 418.5,942.5 418.5,923.5 418.5,904.5 Z"/></g>
</svg>
