<?xml version="1.0" encoding="UTF-8"?>
<!DOCTYPE svg PUBLIC "-//W3C//DTD SVG 1.1//EN" "http://www.w3.org/Graphics/SVG/1.1/DTD/svg11.dtd">
<svg xmlns="http://www.w3.org/2000/svg" version="1.1" width="650px" height="164px" style="shape-rendering:geometricPrecision; text-rendering:geometricPrecision; image-rendering:optimizeQuality; fill-rule:evenodd; clip-rule:evenodd" xmlns:xlink="http://www.w3.org/1999/xlink">
<g><path style="opacity:1" fill="#fdfdfd" d="M -0.5,-0.5 C 216.167,-0.5 432.833,-0.5 649.5,-0.5C 649.5,54.1667 649.5,108.833 649.5,163.5C 432.833,163.5 216.167,163.5 -0.5,163.5C -0.5,108.833 -0.5,54.1667 -0.5,-0.5 Z"/></g>
<g><path style="opacity:1" fill="#1d243c" d="M 211.5,10.5 C 221.341,9.86178 230.674,11.6951 239.5,16C 240.451,19.0567 240.784,22.2234 240.5,25.5C 235.121,24.6559 229.788,23.4893 224.5,22C 220.5,21.3333 216.5,21.3333 212.5,22C 203.78,25.6136 202.447,30.947 208.5,38C 215.813,41.66 223.48,44.3267 231.5,46C 244.259,51.9334 247.759,61.4334 242,74.5C 237.561,80.9763 231.395,84.8096 223.5,86C 217.167,86.6667 210.833,86.6667 204.5,86C 199.558,85.1336 195.058,83.3002 191,80.5C 190.502,77.5184 190.335,74.5184 190.5,71.5C 197.783,73.86 205.283,75.1933 213,75.5C 218.032,75.7542 222.865,74.9209 227.5,73C 231.787,67.6426 231.453,62.6426 226.5,58C 218.363,55.7322 210.363,53.0656 202.5,50C 190.944,42.4069 188.444,32.5735 195,20.5C 199.427,15.2113 204.927,11.8779 211.5,10.5 Z"/></g>
<g><path style="opacity:1" fill="#474b5d" d="M 408.5,8.5 C 408.167,8.5 407.833,8.5 407.5,8.5C 406.167,8.5 404.833,8.5 403.5,8.5C 403.827,18.3478 403.494,28.0144 402.5,37.5C 402.5,27.5 402.5,17.5 402.5,7.5C 404.735,7.20528 406.735,7.53862 408.5,8.5 Z"/></g>
<g><path style="opacity:1" fill="#191e3b" d="M 407.5,8.5 C 406.844,19.3337 406.177,30.1671 405.5,41C 406.358,42.57 407.025,44.2367 407.5,46C 406.539,55.4592 406.205,64.9592 406.5,74.5C 405.5,74.5 404.5,74.5 403.5,74.5C 403.752,62.1363 403.418,49.803 402.5,37.5C 403.494,28.0144 403.827,18.3478 403.5,8.5C 404.833,8.5 406.167,8.5 407.5,8.5 Z"/></g>
<g><path style="opacity:1" fill="#3c4351" d="M 350.5,13.5 C 350.833,13.5 351.167,13.5 351.5,13.5C 351.5,15.1667 351.5,16.8333 351.5,18.5C 339.167,18.5 326.833,18.5 314.5,18.5C 314.5,18.1667 314.5,17.8333 314.5,17.5C 326.5,17.5 338.5,17.5 350.5,17.5C 350.5,16.1667 350.5,14.8333 350.5,13.5 Z"/></g>
<g><path style="opacity:1" fill="#1d243c" d="M 98.5,60.5 C 97.9431,55.8354 96.6098,51.5021 94.5,47.5C 90.8862,35.9919 87.8862,24.3252 85.5,12.5C 89.5138,12.3345 93.5138,12.5012 97.5,13C 98,13.5 98.5,14 99,14.5C 104.306,32.7259 109.14,51.0592 113.5,69.5C 117.98,52.2484 122.146,34.9151 126,17.5C 126.273,15.6711 127.107,14.1711 128.5,13C 132.5,12.3333 136.5,12.3333 140.5,13C 141.333,13.8333 142.167,14.6667 143,15.5C 146.709,33.6701 151.043,51.6701 156,69.5C 160.539,51.8088 165.205,34.1421 170,16.5C 170.465,15.0692 171.299,13.9025 172.5,13C 176.486,12.5012 180.486,12.3345 184.5,12.5C 178.275,36.6759 170.941,60.5092 162.5,84C 158.167,84.6667 153.833,84.6667 149.5,84C 149,83.5 148.5,83 148,82.5C 143.354,64.9155 138.854,47.2488 134.5,29.5C 129.787,47.1043 125.287,64.771 121,82.5C 120.5,83 120,83.5 119.5,84C 114.913,84.7991 110.413,84.6324 106,83.5C 103.433,75.7364 100.933,68.0697 98.5,60.5 Z"/></g>
<g><path style="opacity:1" fill="#131b30" d="M 350.5,13.5 C 350.5,14.8333 350.5,16.1667 350.5,17.5C 338.5,17.5 326.5,17.5 314.5,17.5C 326.007,16.8333 337.674,16.1667 349.5,15.5C 336.183,14.5008 322.85,14.1675 309.5,14.5C 309.45,16.5901 310.45,17.9234 312.5,18.5C 313.452,20.0453 313.785,21.712 313.5,23.5C 312.167,23.5 310.833,23.5 309.5,23.5C 309.452,40.8611 310.118,58.1944 311.5,75.5C 312.332,67.1866 312.832,58.8532 313,50.5C 313.17,60.342 313.67,70.0087 314.5,79.5C 326.833,79.5 339.167,79.5 351.5,79.5C 351.5,81.1667 351.5,82.8333 351.5,84.5C 337.167,84.5 322.833,84.5 308.5,84.5C 308.5,60.8333 308.5,37.1667 308.5,13.5C 322.5,13.5 336.5,13.5 350.5,13.5 Z"/></g>
<g><path style="opacity:1" fill="#1c233b" d="M 314.5,17.5 C 314.5,17.8333 314.5,18.1667 314.5,18.5C 314.5,27.1667 314.5,35.8333 314.5,44.5C 324.653,45.4942 334.986,45.8276 345.5,45.5C 345.5,46.8333 345.5,48.1667 345.5,49.5C 334.986,49.1724 324.653,49.5058 314.5,50.5C 314.5,60.1667 314.5,69.8333 314.5,79.5C 313.67,70.0087 313.17,60.342 313,50.5C 312.832,58.8532 312.332,67.1866 311.5,75.5C 310.118,58.1944 309.452,40.8611 309.5,23.5C 310.833,23.5 312.167,23.5 313.5,23.5C 313.785,21.712 313.452,20.0453 312.5,18.5C 310.45,17.9234 309.45,16.5901 309.5,14.5C 322.85,14.1675 336.183,14.5008 349.5,15.5C 337.674,16.1667 326.007,16.8333 314.5,17.5 Z"/></g>
<g><path style="opacity:1" fill="#d4d6e0" d="M 493.5,17.5 C 494.486,21.97 494.819,26.6367 494.5,31.5C 500.026,31.1786 505.36,31.5119 510.5,32.5C 504.833,32.5 499.167,32.5 493.5,32.5C 493.5,27.5 493.5,22.5 493.5,17.5 Z"/></g>
<g><path style="opacity:1" fill="#d2d5df" d="M 621.5,17.5 C 622.486,21.97 622.819,26.6367 622.5,31.5C 628.026,31.1786 633.36,31.5119 638.5,32.5C 632.833,32.5 627.167,32.5 621.5,32.5C 621.5,27.5 621.5,22.5 621.5,17.5 Z"/></g>
<g><path style="opacity:1" fill="#1f263d" d="M 621.5,17.5 C 621.5,22.5 621.5,27.5 621.5,32.5C 627.167,32.5 632.833,32.5 638.5,32.5C 638.5,34.1667 638.5,35.8333 638.5,37.5C 632.833,37.5 627.167,37.5 621.5,37.5C 621.333,50.1711 621.5,62.8377 622,75.5C 622.465,76.9308 623.299,78.0975 624.5,79C 629.155,79.4992 633.821,79.6658 638.5,79.5C 638.714,81.1439 638.38,82.6439 637.5,84C 632.572,85.4178 627.572,85.7511 622.5,85C 618.857,83.1952 616.524,80.3619 615.5,76.5C 615.5,63.5 615.5,50.5 615.5,37.5C 612.167,37.5 608.833,37.5 605.5,37.5C 605.5,36.1667 605.5,34.8333 605.5,33.5C 608.86,33.3841 612.193,33.0508 615.5,32.5C 616.164,27.5275 616.497,22.5275 616.5,17.5C 618.167,17.5 619.833,17.5 621.5,17.5 Z"/></g>
<g><path style="opacity:1" fill="#babec5" d="M 62.5,30.5 C 63.4861,34.97 63.8195,39.6367 63.5,44.5C 61.901,44.7678 60.5676,44.4345 59.5,43.5C 60.5,43.5 61.5,43.5 62.5,43.5C 62.5,39.1667 62.5,34.8333 62.5,30.5 Z"/></g>
<g><path style="opacity:1" fill="#1b2138" d="M 576.5,84.5 C 576.5,67.5 576.5,50.5 576.5,33.5C 577.833,33.5 579.167,33.5 580.5,33.5C 580.205,35.7354 580.539,37.7354 581.5,39.5C 584.117,36.853 587.117,34.6863 590.5,33C 594.486,32.5012 598.486,32.3345 602.5,32.5C 602.5,34.1667 602.5,35.8333 602.5,37.5C 594.263,35.9672 587.43,38.3006 582,44.5C 581.5,57.8292 581.333,71.1625 581.5,84.5C 579.833,84.5 578.167,84.5 576.5,84.5 Z"/></g>
<g><path style="opacity:1" fill="#1e253d" d="M 59.5,43.5 C 60.5676,44.4345 61.901,44.7678 63.5,44.5C 63.8195,39.6367 63.4861,34.97 62.5,30.5C 60.9892,26.8241 58.3225,24.3241 54.5,23C 48.8333,22.3333 43.1667,22.3333 37.5,23C 32.4881,24.2855 27.4881,25.4522 22.5,26.5C 22.3354,23.4816 22.502,20.4816 23,17.5C 35.771,10.0633 49.271,8.56333 63.5,13C 70.9286,16.4448 75.4286,22.2781 77,30.5C 77.3333,43.5 77.6667,56.5 78,69.5C 79.6395,72.7423 80.6395,76.0757 81,79.5C 74.1182,86.825 68.6182,85.825 64.5,76.5C 55.2977,84.6232 44.631,87.7899 32.5,86C 18.5729,79.5057 14.4062,69.0057 20,54.5C 23.7873,48.8515 28.954,45.0182 35.5,43C 43.5188,42.39 51.5188,42.5567 59.5,43.5 Z"/></g>
<g><path style="opacity:1" fill="#1f263d" d="M 493.5,17.5 C 493.5,22.5 493.5,27.5 493.5,32.5C 499.167,32.5 504.833,32.5 510.5,32.5C 510.5,34.1667 510.5,35.8333 510.5,37.5C 504.833,37.5 499.167,37.5 493.5,37.5C 493.333,50.5043 493.5,63.5043 494,76.5C 494.759,78.0629 495.926,79.0629 497.5,79.5C 501.687,80.6624 506.02,80.6624 510.5,79.5C 510.634,81.2915 510.301,82.9582 509.5,84.5C 504.871,85.481 500.204,85.6477 495.5,85C 490.822,83.4536 488.156,80.287 487.5,75.5C 487.5,62.8333 487.5,50.1667 487.5,37.5C 484.167,37.5 480.833,37.5 477.5,37.5C 477.5,36.1667 477.5,34.8333 477.5,33.5C 480.807,32.9492 484.14,32.6159 487.5,32.5C 487.5,27.5 487.5,22.5 487.5,17.5C 489.5,17.5 491.5,17.5 493.5,17.5 Z"/></g>
<g><path style="opacity:1" fill="#babbc6" d="M 605.5,37.5 C 608.833,37.5 612.167,37.5 615.5,37.5C 615.5,50.5 615.5,63.5 615.5,76.5C 614.505,64.011 614.171,51.3443 614.5,38.5C 611.287,38.81 608.287,38.4767 605.5,37.5 Z"/></g>
<g><path style="opacity:1" fill="#afb4b8" d="M 477.5,37.5 C 480.833,37.5 484.167,37.5 487.5,37.5C 487.5,50.1667 487.5,62.8333 487.5,75.5C 486.505,63.3446 486.171,51.0113 486.5,38.5C 483.287,38.81 480.287,38.4767 477.5,37.5 Z"/></g>
<g><path style="opacity:1" fill="#1e243c" d="M 407.5,8.5 C 407.833,8.5 408.167,8.5 408.5,8.5C 408.5,33.8333 408.5,59.1667 408.5,84.5C 406.833,84.5 405.167,84.5 403.5,84.5C 403.785,82.712 403.452,81.0453 402.5,79.5C 400.089,80.3611 398.089,81.6944 396.5,83.5C 378.911,90.123 367.744,84.4563 363,66.5C 361.416,57.011 362.75,48.011 367,39.5C 373.809,31.8053 382.309,29.3053 392.5,32C 396.211,33.2265 399.545,35.0599 402.5,37.5C 403.418,49.803 403.752,62.1363 403.5,74.5C 404.5,74.5 405.5,74.5 406.5,74.5C 406.205,64.9592 406.539,55.4592 407.5,46C 407.025,44.2367 406.358,42.57 405.5,41C 406.177,30.1671 406.844,19.3337 407.5,8.5 Z"/></g>
<g><path style="opacity:1" fill="#fafbfa" d="M 379.5,36.5 C 387.744,35.7692 395.244,37.7692 402,42.5C 402.832,53.1823 402.666,63.8489 401.5,74.5C 392.61,81.3766 383.443,82.0433 374,76.5C 368.308,67.1643 366.975,57.1643 370,46.5C 372.022,41.98 375.189,38.6467 379.5,36.5 Z"/></g>
<g><path style="opacity:1" fill="#484e5f" d="M 314.5,44.5 C 325.167,44.5 335.833,44.5 346.5,44.5C 346.5,46.5 346.5,48.5 346.5,50.5C 335.833,50.5 325.167,50.5 314.5,50.5C 324.653,49.5058 334.986,49.1724 345.5,49.5C 345.5,48.1667 345.5,46.8333 345.5,45.5C 334.986,45.8276 324.653,45.4942 314.5,44.5 Z"/></g>
<g><path style="opacity:1" fill="#a4a7b1" d="M 94.5,47.5 C 96.6098,51.5021 97.9431,55.8354 98.5,60.5C 96.3902,56.4979 95.0569,52.1646 94.5,47.5 Z"/></g>
<g><path style="opacity:1" fill="#dadfe4" d="M 314.5,50.5 C 325.167,50.5 335.833,50.5 346.5,50.5C 336.347,51.4942 326.014,51.8276 315.5,51.5C 315.5,60.5 315.5,69.5 315.5,78.5C 327.678,78.1716 339.678,78.5049 351.5,79.5C 339.167,79.5 326.833,79.5 314.5,79.5C 314.5,69.8333 314.5,60.1667 314.5,50.5 Z"/></g>
<g><path style="opacity:1" fill="#f6f6f7" d="M 42.5,51.5 C 49.6021,51.2512 56.6021,51.9178 63.5,53.5C 65.0021,64.8091 60.3354,71.9758 49.5,75C 35.6667,77.8333 30.1667,72.3333 33,58.5C 35.529,55.1151 38.6956,52.7818 42.5,51.5 Z"/></g>
<g><path style="opacity:1" fill="#2f3240" d="M 581.5,39.5 C 580.539,37.7354 580.205,35.7354 580.5,33.5C 579.167,33.5 577.833,33.5 576.5,33.5C 576.5,50.5 576.5,67.5 576.5,84.5C 575.503,67.3414 575.17,50.008 575.5,32.5C 577.5,32.5 579.5,32.5 581.5,32.5C 581.5,34.8333 581.5,37.1667 581.5,39.5 Z"/></g>
<g><path style="opacity:1" fill="#1f253c" d="M 546.5,37.5 C 544.022,36.8359 541.355,36.5025 538.5,36.5C 534.531,36.2942 530.865,36.9608 527.5,38.5C 525.738,38.3573 524.071,38.6906 522.5,39.5C 521.167,37.8333 521.167,36.1667 522.5,34.5C 531.274,31.6245 540.274,30.7912 549.5,32C 552.927,33.4313 555.76,35.598 558,38.5C 559.468,53.7371 559.968,69.0704 559.5,84.5C 557.5,84.5 555.5,84.5 553.5,84.5C 553.785,82.712 553.452,81.0453 552.5,79.5C 544.991,84.9445 536.658,86.7778 527.5,85C 518.228,79.2219 516.062,71.3886 521,61.5C 523.559,58.4686 526.726,56.3019 530.5,55C 538.242,54.352 545.909,54.852 553.5,56.5C 553.666,52.1539 553.499,47.8206 553,43.5C 551.92,40.2508 549.753,38.2508 546.5,37.5 Z"/></g>
<g><path style="opacity:1" fill="#f5f6f6" d="M 549.5,60.5 C 550.209,61.404 551.209,61.7373 552.5,61.5C 552.5,65.8333 552.5,70.1667 552.5,74.5C 545.239,80.0903 537.239,81.5903 528.5,79C 522.618,72.1878 523.284,66.1878 530.5,61C 536.759,59.206 543.092,59.0393 549.5,60.5 Z"/></g>
<g><path style="opacity:1" fill="#b8bbc7" d="M 546.5,37.5 C 540.131,37.347 533.797,37.6803 527.5,38.5C 530.865,36.9608 534.531,36.2942 538.5,36.5C 541.355,36.5025 544.022,36.8359 546.5,37.5 Z"/></g>
<g><path style="opacity:1" fill="#9195a2" d="M 351.5,13.5 C 351.167,13.5 350.833,13.5 350.5,13.5C 336.5,13.5 322.5,13.5 308.5,13.5C 308.5,37.1667 308.5,60.8333 308.5,84.5C 307.502,60.6725 307.169,36.6725 307.5,12.5C 322.343,12.1707 337.01,12.504 351.5,13.5 Z"/></g>
<g><path style="opacity:1" fill="#9295a1" d="M 549.5,60.5 C 550.833,60.5 552.167,60.5 553.5,60.5C 553.819,65.3633 553.486,70.03 552.5,74.5C 552.5,70.1667 552.5,65.8333 552.5,61.5C 551.209,61.7373 550.209,61.404 549.5,60.5 Z"/></g>
<g><path style="opacity:1" fill="#1e243b" d="M 429.5,78.5 C 431.515,79.9238 433.848,80.5905 436.5,80.5C 444.753,81.5398 452.42,80.0398 459.5,76C 465.965,67.3201 464.631,60.3201 455.5,55C 447.417,51.9729 439.417,48.6396 431.5,45C 422.067,36.7282 421.067,27.5615 428.5,17.5C 433.139,12.7308 438.805,10.7308 445.5,11.5C 452.33,11.3658 458.83,12.6992 465,15.5C 465.798,17.2588 465.631,18.9255 464.5,20.5C 455.716,16.8105 446.716,15.9771 437.5,18C 430.526,21.449 428.026,26.949 430,34.5C 431.5,37.3333 433.667,39.5 436.5,41C 444.095,44.3018 451.762,47.3018 459.5,50C 466.781,53.0549 470.114,58.5549 469.5,66.5C 468.9,75.6164 464.233,81.7831 455.5,85C 444.965,87.3865 434.631,86.7198 424.5,83C 423.594,81.3005 423.261,79.4672 423.5,77.5C 425.5,77.8333 427.5,78.1667 429.5,78.5 Z"/></g>
<g><path style="opacity:1" fill="#858996" d="M 429.5,78.5 C 432.152,78.4095 434.485,79.0762 436.5,80.5C 433.848,80.5905 431.515,79.9238 429.5,78.5 Z"/></g>
<g><path style="opacity:1" fill="#989daa" d="M 509.5,84.5 C 510.301,82.9582 510.634,81.2915 510.5,79.5C 506.02,80.6624 501.687,80.6624 497.5,79.5C 502.193,79.4599 506.859,79.1266 511.5,78.5C 511.975,81.0821 511.308,83.0821 509.5,84.5 Z"/></g>
<g><path style="opacity:1" fill="#d2d8dc" d="M 408.5,84.5 C 404.895,88.954 402.728,88.2873 402,82.5C 401.374,84.9913 400.541,84.9913 399.5,82.5C 398.583,83.1272 397.583,83.4606 396.5,83.5C 398.089,81.6944 400.089,80.3611 402.5,79.5C 403.452,81.0453 403.785,82.712 403.5,84.5C 405.167,84.5 406.833,84.5 408.5,84.5 Z"/></g>
<g><path style="opacity:1" fill="#f2a23a" d="M 247.5,103.5 C 242.187,102.638 236.854,102.471 231.5,103C 228.833,103.667 228.833,104.333 231.5,105C 227.336,104.741 224.003,106.241 221.5,109.5C 221.957,110.298 222.624,110.631 223.5,110.5C 221.833,111.167 220.167,111.833 218.5,112.5C 215.5,112.5 212.5,112.5 209.5,112.5C 209.5,111.167 209.5,109.833 209.5,108.5C 215.188,105.549 221.188,103.383 227.5,102C 230.833,101.833 234.167,101.667 237.5,101.5C 241.239,101.514 244.572,102.18 247.5,103.5 Z"/></g>
<g><path style="opacity:1" fill="#f79b29" d="M 247.5,103.5 C 249.167,103.5 250.833,103.5 252.5,103.5C 254.178,106.552 254.845,109.885 254.5,113.5C 253.926,118.281 252.926,122.948 251.5,127.5C 248.68,133.178 245.18,138.511 241,143.5C 239.494,145.174 237.661,146.174 235.5,146.5C 238.913,137.134 241.58,127.468 243.5,117.5C 242.954,115.865 242.62,114.199 242.5,112.5C 241.5,112.5 240.5,112.5 239.5,112.5C 234.604,110.554 229.271,109.887 223.5,110.5C 222.624,110.631 221.957,110.298 221.5,109.5C 224.003,106.241 227.336,104.741 231.5,105C 228.833,104.333 228.833,103.667 231.5,103C 236.854,102.471 242.187,102.638 247.5,103.5 Z"/></g>
<g><path style="opacity:1" fill="#f3c18f" d="M 252.5,103.5 C 253.458,103.953 254.292,104.619 255,105.5C 255.801,108.367 255.634,111.034 254.5,113.5C 254.845,109.885 254.178,106.552 252.5,103.5 Z"/></g>
<g><path style="opacity:1" fill="#f5e1b3" d="M 223.5,110.5 C 229.271,109.887 234.604,110.554 239.5,112.5C 232.5,112.5 225.5,112.5 218.5,112.5C 220.167,111.833 221.833,111.167 223.5,110.5 Z"/></g>
<g><path style="opacity:1" fill="#fafaf3" d="M 209.5,108.5 C 209.5,109.833 209.5,111.167 209.5,112.5C 212.5,112.5 215.5,112.5 218.5,112.5C 225.5,112.5 232.5,112.5 239.5,112.5C 240.5,112.5 241.5,112.5 242.5,112.5C 242.62,114.199 242.954,115.865 243.5,117.5C 241.58,127.468 238.913,137.134 235.5,146.5C 237.661,146.174 239.494,145.174 241,143.5C 245.18,138.511 248.68,133.178 251.5,127.5C 253.272,131.813 252.439,135.48 249,138.5C 248.107,137.289 247.274,137.289 246.5,138.5C 248.05,142.172 247.55,142.839 245,140.5C 245.423,142.387 245.256,144.387 244.5,146.5C 237.963,147.593 237.963,148.427 244.5,149C 242.231,149.758 240.064,149.591 238,148.5C 237.873,149.777 238.373,150.943 239.5,152C 238.991,153.169 238.158,154.002 237,154.5C 235.86,152.922 235.36,151.256 235.5,149.5C 234.572,151.335 233.406,151.668 232,150.5C 231.667,151.167 231.333,151.833 231,152.5C 229.989,151.663 228.822,151.33 227.5,151.5C 227.281,147.473 228.448,146.806 231,149.5C 232.205,148.929 233.372,148.262 234.5,147.5C 233.833,146.167 233.167,144.833 232.5,143.5C 233.711,142.126 234.711,140.626 235.5,139C 234.66,137.829 233.827,136.662 233,135.5C 232.667,136.167 232.333,136.833 232,137.5C 231.56,135.924 230.727,134.59 229.5,133.5C 231.385,132.803 231.718,131.803 230.5,130.5C 231.811,129.742 232.311,128.742 232,127.5C 230.989,128.337 229.822,128.67 228.5,128.5C 229.833,127.167 231.167,125.833 232.5,124.5C 233.912,122.77 233.578,121.27 231.5,120C 229.5,119.333 227.5,119.333 225.5,120C 224.944,120.383 224.611,120.883 224.5,121.5C 220.716,122.321 217.049,123.321 213.5,124.5C 211.553,123.85 209.887,122.683 208.5,121C 210.878,120.026 210.544,119.359 207.5,119C 208.167,118.667 208.833,118.333 209.5,118C 208.167,117.333 208.167,116.667 209.5,116C 207.249,116.207 204.915,116.373 202.5,116.5C 202.5,115.5 202.5,114.5 202.5,113.5C 203.5,113.5 204.5,113.5 205.5,113.5C 205.986,110.245 204.986,107.578 202.5,105.5C 203.689,104.571 205.022,104.238 206.5,104.5C 206.088,106.973 207.088,108.306 209.5,108.5 Z"/></g>
<g><path style="opacity:1" fill="#f2ab5b" d="M 232.5,124.5 C 232.5,123.5 232.5,122.5 232.5,121.5C 229.833,121.5 227.167,121.5 224.5,121.5C 224.611,120.883 224.944,120.383 225.5,120C 227.5,119.333 229.5,119.333 231.5,120C 233.578,121.27 233.912,122.77 232.5,124.5 Z"/></g>
<g><path style="opacity:1" fill="#f8e2b6" d="M 57.5,126.5 C 62.1577,127.089 66.491,128.422 70.5,130.5C 66.494,129.778 62.494,128.945 58.5,128C 57.944,127.617 57.6107,127.117 57.5,126.5 Z"/></g>
<g><path style="opacity:1" fill="#efb05b" d="M 203.5,128.5 C 198.353,131.212 192.687,132.879 186.5,133.5C 191.806,131.38 197.473,129.713 203.5,128.5 Z"/></g>
<g><path style="opacity:1" fill="#e3b46b" d="M 182.5,133.5 C 182.389,134.117 182.056,134.617 181.5,135C 179.527,135.495 177.527,135.662 175.5,135.5C 177.515,134.076 179.848,133.41 182.5,133.5 Z"/></g>
<g><path style="opacity:1" fill="#f7f0d8" d="M 153.5,137.5 C 153.5,138.167 153.167,138.5 152.5,138.5C 138.816,138.671 125.149,138.338 111.5,137.5C 105.729,138.113 100.396,137.446 95.5,135.5C 99.7422,135.399 103.909,134.732 108,133.5C 110.591,133.565 113.091,134.065 115.5,135C 112.167,135.333 108.833,135.667 105.5,136C 121.485,137.023 137.485,137.523 153.5,137.5 Z"/></g>
<g><path style="opacity:1" fill="#f59d2e" d="M 57.5,126.5 C 57.6107,127.117 57.944,127.617 58.5,128C 62.494,128.945 66.494,129.778 70.5,130.5C 76.8546,132.247 83.188,133.914 89.5,135.5C 88.5514,136.152 87.3847,136.486 86,136.5C 84.135,134.879 81.3016,134.212 77.5,134.5C 77.5,135.5 77.5,136.5 77.5,137.5C 75.396,137.201 73.396,137.534 71.5,138.5C 74.003,139.964 76.6697,141.131 79.5,142C 75.6026,142.224 71.9359,143.224 68.5,145C 69.7375,145.232 70.7375,145.732 71.5,146.5C 48.2924,139.733 27.9591,128.066 10.5,111.5C 9.67504,110.614 8.67504,110.281 7.5,110.5C 7.5,109.167 7.5,107.833 7.5,106.5C 8.87344,106.343 10.2068,106.51 11.5,107C 25.9081,115.547 41.2415,122.047 57.5,126.5 Z"/></g>
<g><path style="opacity:1" fill="#f89b29" d="M 224.5,121.5 C 227.167,121.5 229.833,121.5 232.5,121.5C 232.5,122.5 232.5,123.5 232.5,124.5C 231.167,125.833 229.833,127.167 228.5,128.5C 225.044,130.606 221.378,132.44 217.5,134C 216.5,135 215.5,136 214.5,137C 210.035,138.661 205.701,140.494 201.5,142.5C 190.196,146.602 178.863,150.269 167.5,153.5C 161.116,153.757 154.782,154.423 148.5,155.5C 146.833,155.5 145.167,155.5 143.5,155.5C 129.113,155.637 114.779,154.97 100.5,153.5C 90.3168,152.725 80.6501,150.392 71.5,146.5C 70.7375,145.732 69.7375,145.232 68.5,145C 71.9359,143.224 75.6026,142.224 79.5,142C 76.6697,141.131 74.003,139.964 71.5,138.5C 73.396,137.534 75.396,137.201 77.5,137.5C 77.5,136.5 77.5,135.5 77.5,134.5C 81.3016,134.212 84.135,134.879 86,136.5C 87.3847,136.486 88.5514,136.152 89.5,135.5C 91.5,135.5 93.5,135.5 95.5,135.5C 100.396,137.446 105.729,138.113 111.5,137.5C 112.952,138.302 114.618,138.802 116.5,139C 128.674,139.826 140.674,139.66 152.5,138.5C 153.167,138.5 153.5,138.167 153.5,137.5C 155.5,137.5 157.5,137.5 159.5,137.5C 162.85,137.665 166.183,137.498 169.5,137C 170.056,136.617 170.389,136.117 170.5,135.5C 172.167,135.5 173.833,135.5 175.5,135.5C 177.527,135.662 179.527,135.495 181.5,135C 182.056,134.617 182.389,134.117 182.5,133.5C 183.833,133.5 185.167,133.5 186.5,133.5C 192.687,132.879 198.353,131.212 203.5,128.5C 207.042,127.46 210.375,126.126 213.5,124.5C 217.049,123.321 220.716,122.321 224.5,121.5 Z"/></g>
<g><path style="opacity:1" fill="#efb86c" d="M 111.5,137.5 C 125.149,138.338 138.816,138.671 152.5,138.5C 140.674,139.66 128.674,139.826 116.5,139C 114.618,138.802 112.952,138.302 111.5,137.5 Z"/></g>
<g><path style="opacity:1" fill="#ebb779" d="M 170.5,135.5 C 170.389,136.117 170.056,136.617 169.5,137C 166.183,137.498 162.85,137.665 159.5,137.5C 162.997,136.598 166.663,135.931 170.5,135.5 Z"/></g>
<g><path style="opacity:1" fill="#f9f9ec" d="M 201.5,142.5 C 201.822,144.722 201.155,146.556 199.5,148C 196.639,148.54 193.972,149.54 191.5,151C 189.231,151.758 187.064,151.591 185,150.5C 179.583,153.248 173.75,154.248 167.5,153.5C 178.863,150.269 190.196,146.602 201.5,142.5 Z"/></g>
<g><path style="opacity:1" fill="#ecb15e" d="M 100.5,153.5 C 114.779,154.97 129.113,155.637 143.5,155.5C 132.318,156.729 120.985,156.729 109.5,155.5C 106.813,155.664 104.146,155.497 101.5,155C 100.944,154.617 100.611,154.117 100.5,153.5 Z"/></g>
<g><path style="opacity:1" fill="#fbf1d7" d="M 109.5,155.5 C 120.985,156.729 132.318,156.729 143.5,155.5C 145.167,155.5 146.833,155.5 148.5,155.5C 147.737,156.268 146.737,156.768 145.5,157C 133.833,157.667 122.167,157.667 110.5,157C 109.944,156.617 109.611,156.117 109.5,155.5 Z"/></g>
</svg>
