<?xml version="1.0" encoding="UTF-8"?>
<!DOCTYPE svg PUBLIC "-//W3C//DTD SVG 1.1//EN" "http://www.w3.org/Graphics/SVG/1.1/DTD/svg11.dtd">
<svg xmlns="http://www.w3.org/2000/svg" version="1.1" width="503px" height="106px" style="shape-rendering:geometricPrecision; text-rendering:geometricPrecision; image-rendering:optimizeQuality; fill-rule:evenodd; clip-rule:evenodd" xmlns:xlink="http://www.w3.org/1999/xlink">
<g><path style="opacity:0.924" fill="#244459" d="M 159.5,18.5 C 164.14,17.736 168.14,18.9026 171.5,22C 173.729,24.553 174.062,27.3864 172.5,30.5C 167.814,33.1706 163.147,33.0039 158.5,30C 156.496,27.1592 155.996,23.9926 157,20.5C 157.995,19.9341 158.828,19.2674 159.5,18.5 Z"/></g>
<g><path style="opacity:0.946" fill="#1a4760" d="M 45.5,62.5 C 48.6195,58.8483 49.6195,54.8483 48.5,50.5C 49.0329,43.2161 46.0329,38.0495 39.5,35C 29.555,33.9079 19.555,33.0746 9.5,32.5C 16.8084,22.2217 26.8084,18.055 39.5,20C 54.4153,23.9174 62.4153,33.5841 63.5,49C 62.7086,58.0833 58.8753,65.5833 52,71.5C 49.6148,68.6215 47.4482,65.6215 45.5,62.5 Z"/></g>
<g><path style="opacity:0.98" fill="#1a475f" d="M 103.5,27.5 C 108.736,36.555 107.07,44.055 98.5,50C 102.957,56.414 107.291,62.914 111.5,69.5C 107.217,70.4922 102.884,70.8256 98.5,70.5C 97.5041,70.5858 96.6708,70.2524 96,69.5C 93.2204,64.9384 90.7204,60.2717 88.5,55.5C 87.713,53.8958 86.3797,53.2291 84.5,53.5C 84.5,59.1667 84.5,64.8333 84.5,70.5C 80.8333,70.5 77.1667,70.5 73.5,70.5C 72.5,70.5 71.5,70.5 70.5,70.5C 70.5,54.5 70.5,38.5 70.5,22.5C 77.8409,22.3337 85.1742,22.5003 92.5,23C 96.6541,23.4135 100.321,24.9135 103.5,27.5 Z M 92.5,35.5 C 93.2686,39.7246 91.6019,42.3913 87.5,43.5C 87.5,40.8333 87.5,38.1667 87.5,35.5C 89.1667,35.5 90.8333,35.5 92.5,35.5 Z"/></g>
<g><path style="opacity:0.964" fill="#e54d64" d="M 290.5,24.5 C 293.554,34.8301 296.72,45.1635 300,55.5C 300.49,54.2068 300.657,52.8734 300.5,51.5C 303.596,42.3698 306.429,33.0365 309,23.5C 312.081,22.854 315.248,22.5207 318.5,22.5C 321.913,22.517 324.913,23.1836 327.5,24.5C 327.5,39.8333 327.5,55.1667 327.5,70.5C 324.167,70.5 320.833,70.5 317.5,70.5C 316.5,70.5 315.5,70.5 314.5,70.5C 314.5,65.1667 314.5,59.8333 314.5,54.5C 314.5,52.8333 314.5,51.1667 314.5,49.5C 315.645,45.6888 315.812,41.6888 315,37.5C 314.648,39.2475 314.148,40.9142 313.5,42.5C 310.853,51.7552 308.52,61.0885 306.5,70.5C 302.833,70.5 299.167,70.5 295.5,70.5C 294.5,70.5 293.5,70.5 292.5,70.5C 291.406,64.561 289.739,58.8943 287.5,53.5C 287.303,49.3776 286.47,45.3776 285,41.5C 284.5,51.1609 284.334,60.8276 284.5,70.5C 281.5,70.5 278.5,70.5 275.5,70.5C 274.5,70.5 273.5,70.5 272.5,70.5C 272.5,54.5 272.5,38.5 272.5,22.5C 278.926,21.88 284.926,22.5467 290.5,24.5 Z"/></g>
<g><path style="opacity:0.398" fill="#3d4046" d="M 327.5,24.5 C 328.5,24.5 329.5,24.5 330.5,24.5C 330.5,40.5 330.5,56.5 330.5,72.5C 325.706,73.0969 321.373,72.4302 317.5,70.5C 320.833,70.5 324.167,70.5 327.5,70.5C 327.5,55.1667 327.5,39.8333 327.5,24.5 Z"/></g>
<g><path style="opacity:0.364" fill="#3c3e46" d="M 290.5,24.5 C 291.5,24.5 292.5,24.5 293.5,24.5C 295.989,33.4571 298.323,42.4571 300.5,51.5C 300.657,52.8734 300.49,54.2068 300,55.5C 296.72,45.1635 293.554,34.8301 290.5,24.5 Z"/></g>
<g><path style="opacity:0.378" fill="#393e46" d="M 103.5,27.5 C 107.852,30.0239 109.852,33.8572 109.5,39C 109.435,41.5912 108.935,44.0912 108,46.5C 105.982,48.3501 104.149,50.3501 102.5,52.5C 106.637,59.136 110.971,65.636 115.5,72C 110.167,72.6667 104.833,72.6667 99.5,72C 98.944,71.6174 98.6107,71.1174 98.5,70.5C 102.884,70.8256 107.217,70.4922 111.5,69.5C 107.291,62.914 102.957,56.414 98.5,50C 107.07,44.055 108.736,36.555 103.5,27.5 Z"/></g>
<g><path style="opacity:0.965" fill="#1a475f" d="M 146.5,37.5 C 148.378,48.3554 149.044,59.3554 148.5,70.5C 145.833,70.5 143.167,70.5 140.5,70.5C 139.833,70.5 139.167,70.5 138.5,70.5C 138.372,68.9102 137.705,67.5769 136.5,66.5C 132.169,70.4733 127.169,72.4733 121.5,72.5C 112.81,67.4065 110.81,60.4065 115.5,51.5C 117.683,49.2157 120.35,47.8824 123.5,47.5C 123.833,47.5 124.167,47.5 124.5,47.5C 125.791,47.7373 126.791,47.404 127.5,46.5C 130.388,47.0102 132.721,46.3435 134.5,44.5C 133.508,42.9735 132.008,42.3068 130,42.5C 127.335,42.668 124.835,43.3347 122.5,44.5C 121.883,44.6107 121.383,44.944 121,45.5C 118.973,42.7789 117.473,39.7789 116.5,36.5C 126.774,30.9305 136.774,31.2638 146.5,37.5 Z M 134.5,56.5 C 134.5,59.8333 132.833,61.5 129.5,61.5C 130.144,58.856 131.811,57.1894 134.5,56.5 Z"/></g>
<g><path style="opacity:0.956" fill="#1b475f" d="M 206.5,36.5 C 205.707,39.4188 204.374,42.0855 202.5,44.5C 198.62,42.5143 194.62,42.181 190.5,43.5C 191.005,44.9185 192.005,45.5852 193.5,45.5C 197.783,46.9751 201.783,48.9751 205.5,51.5C 206.54,55.7799 206.706,60.1132 206,64.5C 203.831,68.0103 200.664,70.177 196.5,71C 191.129,71.6761 185.796,71.5095 180.5,70.5C 179.504,70.5858 178.671,70.2524 178,69.5C 177.175,65.7887 177.341,62.122 178.5,58.5C 183.758,61.3293 189.091,61.8293 194.5,60C 188.447,58.2261 183.28,55.0595 179,50.5C 175.442,38.3224 180.108,32.3224 193,32.5C 197.952,32.6915 202.452,34.0248 206.5,36.5 Z"/></g>
<g><path style="opacity:0.967" fill="#1c475e" d="M 244.5,37.5 C 247.222,43.0957 248.222,49.0957 247.5,55.5C 240.167,55.5 232.833,55.5 225.5,55.5C 225.273,57.9328 226.273,59.5994 228.5,60.5C 233.884,61.7931 239.217,61.4597 244.5,59.5C 244.833,59.5 245.167,59.5 245.5,59.5C 245.5,60.1667 245.5,60.8333 245.5,61.5C 245.768,64.1194 245.435,66.6194 244.5,69C 238.488,70.7315 232.488,71.8981 226.5,72.5C 216.966,69.2915 211.966,62.6248 211.5,52.5C 212.989,35.5236 221.989,29.3569 238.5,34C 240.692,34.926 242.692,36.0927 244.5,37.5 Z M 231.5,44.5 C 232.833,44.5 234.167,44.5 235.5,44.5C 235.5,45.5 235.5,46.5 235.5,47.5C 233.396,47.7989 231.396,47.4656 229.5,46.5C 230.243,45.8182 230.909,45.1515 231.5,44.5 Z"/></g>
<g><path style="opacity:0.974" fill="#e74d64" d="M 366.5,37.5 C 372.507,46.1069 373.007,55.1069 368,64.5C 361.756,71.0796 354.256,73.0796 345.5,70.5C 340.151,68.6502 336.651,64.9836 335,59.5C 331.228,40.8153 338.728,31.982 357.5,33C 360.806,33.9862 363.806,35.4862 366.5,37.5 Z M 356.5,45.5 C 357.596,49.4126 357.762,53.4126 357,57.5C 356.252,59.751 354.752,61.0844 352.5,61.5C 350.157,56.9346 349.99,52.2679 352,47.5C 353.11,45.9632 354.61,45.2965 356.5,45.5 Z"/></g>
<g><path style="opacity:0.986" fill="#e74d64" d="M 411.5,36.5 C 412.511,38.3716 413.345,40.3716 414,42.5C 414.5,51.8274 414.666,61.1607 414.5,70.5C 411.167,70.5 407.833,70.5 404.5,70.5C 403.5,70.5 402.5,70.5 401.5,70.5C 401.705,62.1329 401.371,53.7996 400.5,45.5C 396.979,42.5064 394.146,43.1731 392,47.5C 391.5,55.1594 391.334,62.8261 391.5,70.5C 387.833,70.5 384.167,70.5 380.5,70.5C 379.5,70.5 378.5,70.5 377.5,70.5C 377.5,58.1667 377.5,45.8333 377.5,33.5C 381.649,32.9197 385.316,33.5864 388.5,35.5C 389.26,37.9845 390.26,37.9845 391.5,35.5C 398.487,31.2119 405.154,31.5453 411.5,36.5 Z"/></g>
<g><path style="opacity:0.971" fill="#e74d64" d="M 453.5,37.5 C 456.143,43.1293 457.143,49.1293 456.5,55.5C 449.167,55.5 441.833,55.5 434.5,55.5C 434.622,58.2921 435.956,60.2921 438.5,61.5C 443.939,62.0181 448.939,61.0181 453.5,58.5C 453.833,58.5 454.167,58.5 454.5,58.5C 454.5,59.5 454.5,60.5 454.5,61.5C 454.663,63.8568 454.497,66.1902 454,68.5C 446.33,72.0688 438.496,72.4021 430.5,69.5C 422.512,64.8475 419.345,57.8475 421,48.5C 422.606,38.2278 428.606,32.8945 439,32.5C 444.444,32.5646 449.277,34.2312 453.5,37.5 Z M 443.5,44.5 C 444.404,45.209 444.737,46.209 444.5,47.5C 442.5,47.5 440.5,47.5 438.5,47.5C 439.401,45.2729 441.067,44.2729 443.5,44.5 Z M 453.5,58.5 C 448.939,61.0181 443.939,62.0181 438.5,61.5C 438.586,60.5041 438.252,59.6708 437.5,59C 442.823,58.5006 448.156,58.334 453.5,58.5 Z"/></g>
<g><path style="opacity:0.361" fill="#393e46" d="M 92.5,35.5 C 90.8333,35.5 89.1667,35.5 87.5,35.5C 87.5,38.1667 87.5,40.8333 87.5,43.5C 86.5,43.5 85.5,43.5 84.5,43.5C 84.5,40.1667 84.5,36.8333 84.5,33.5C 86.8568,33.3367 89.1902,33.5034 91.5,34C 92.056,34.3826 92.3893,34.8826 92.5,35.5 Z"/></g>
<g><path style="opacity:0.957" fill="#194860" d="M 170.5,35.5 C 169.505,46.988 169.172,58.6547 169.5,70.5C 166.167,70.5 162.833,70.5 159.5,70.5C 158.5,70.5 157.5,70.5 156.5,70.5C 156.5,58.1667 156.5,45.8333 156.5,33.5C 161.619,32.8969 166.285,33.5636 170.5,35.5 Z"/></g>
<g><path style="opacity:0.963" fill="#e64d64" d="M 473.5,35.5 C 475.756,42.4362 477.922,49.4362 480,56.5C 480.494,54.8659 480.66,53.1992 480.5,51.5C 482.636,45.9973 484.636,40.3306 486.5,34.5C 488.833,34.1667 491.167,33.8333 493.5,33.5C 496.269,33.5286 498.603,34.1952 500.5,35.5C 499.883,35.6107 499.383,35.944 499,36.5C 493.922,51.4022 488.255,66.0689 482,80.5C 477.592,85.3596 472.092,87.3596 465.5,86.5C 464.5,86.5 463.5,86.5 462.5,86.5C 462.5,82.8333 462.5,79.1667 462.5,75.5C 467.763,76.7373 471.43,74.9039 473.5,70C 468.695,57.9189 463.695,45.9189 458.5,34C 461,33.8333 463.5,33.6667 466,33.5C 468.929,33.5248 471.429,34.1914 473.5,35.5 Z"/></g>
<g><path style="opacity:0.397" fill="#393f45" d="M 170.5,35.5 C 171.5,35.5 172.5,35.5 173.5,35.5C 173.5,47.8333 173.5,60.1667 173.5,72.5C 168.381,73.1031 163.715,72.4364 159.5,70.5C 162.833,70.5 166.167,70.5 169.5,70.5C 169.172,58.6547 169.505,46.988 170.5,35.5 Z"/></g>
<g><path style="opacity:0.386" fill="#3c3d45" d="M 473.5,35.5 C 475.124,35.3601 476.29,36.0267 477,37.5C 478.48,42.1023 479.646,46.769 480.5,51.5C 480.66,53.1992 480.494,54.8659 480,56.5C 477.922,49.4362 475.756,42.4362 473.5,35.5 Z"/></g>
<g><path style="opacity:0.385" fill="#3d3e46" d="M 500.5,35.5 C 501.167,35.5 501.833,35.5 502.5,35.5C 502.5,37.1667 502.5,38.8333 502.5,40.5C 496.929,54.0269 491.429,67.6936 486,81.5C 480.241,88.5774 473.407,90.244 465.5,86.5C 472.092,87.3596 477.592,85.3596 482,80.5C 488.255,66.0689 493.922,51.4022 499,36.5C 499.383,35.944 499.883,35.6107 500.5,35.5 Z"/></g>
<g><path style="opacity:0.741" fill="#834853" d="M 388.5,35.5 C 389.5,35.5 390.5,35.5 391.5,35.5C 390.26,37.9845 389.26,37.9845 388.5,35.5 Z"/></g>
<g><path style="opacity:0.389" fill="#393d47" d="M 206.5,36.5 C 207.87,36.8565 208.87,37.6898 209.5,39C 208.885,41.5146 207.885,43.848 206.5,46C 203.364,45.7441 200.197,45.2441 197,44.5C 195.615,44.5143 194.449,44.8476 193.5,45.5C 192.005,45.5852 191.005,44.9185 190.5,43.5C 194.62,42.181 198.62,42.5143 202.5,44.5C 204.374,42.0855 205.707,39.4188 206.5,36.5 Z"/></g>
<g><path style="opacity:0.966" fill="#dbe2e6" d="M 39.5,50.5 C 39.0557,48.8868 38.0557,47.7202 36.5,47C 25.8385,46.5002 15.1719,46.3335 4.5,46.5C 3.84661,45.1932 3.17994,43.8599 2.5,42.5C 13.1511,41.3343 23.8177,41.1676 34.5,42C 39.2271,43.3066 40.8937,46.14 39.5,50.5 Z"/></g>
<g><path style="opacity:0.356" fill="#393e45" d="M 146.5,37.5 C 148.708,38.8936 150.208,40.8936 151,43.5C 151.5,53.1609 151.666,62.8276 151.5,72.5C 148.15,72.665 144.817,72.4983 141.5,72C 140.944,71.6174 140.611,71.1174 140.5,70.5C 143.167,70.5 145.833,70.5 148.5,70.5C 149.044,59.3554 148.378,48.3554 146.5,37.5 Z"/></g>
<g><path style="opacity:0.367" fill="#3b3f46" d="M 411.5,36.5 C 414.26,38.0945 416.093,40.4279 417,43.5C 417.5,53.1609 417.666,62.8276 417.5,72.5C 412.706,73.0969 408.373,72.4302 404.5,70.5C 407.833,70.5 411.167,70.5 414.5,70.5C 414.666,61.1607 414.5,51.8274 414,42.5C 413.345,40.3716 412.511,38.3716 411.5,36.5 Z"/></g>
<g><path style="opacity:0.38" fill="#393e46" d="M 134.5,44.5 C 131.848,44.4095 129.515,45.0762 127.5,46.5C 126.209,46.2627 125.209,46.596 124.5,47.5C 124.167,47.5 123.833,47.5 123.5,47.5C 122.89,46.609 122.557,45.609 122.5,44.5C 124.835,43.3347 127.335,42.668 130,42.5C 132.008,42.3068 133.508,42.9735 134.5,44.5 Z"/></g>
<g><path style="opacity:0.4" fill="#3c3e46" d="M 287.5,53.5 C 287.5,59.8333 287.5,66.1667 287.5,72.5C 283.029,73.0894 279.029,72.4228 275.5,70.5C 278.5,70.5 281.5,70.5 284.5,70.5C 284.334,60.8276 284.5,51.1609 285,41.5C 286.47,45.3776 287.303,49.3776 287.5,53.5 Z"/></g>
<g><path style="opacity:0.395" fill="#3d3e46" d="M 313.5,42.5 C 314.468,44.6074 314.802,46.9407 314.5,49.5C 314.5,51.1667 314.5,52.8333 314.5,54.5C 312.231,60.2309 310.565,66.2309 309.5,72.5C 304.381,73.1031 299.715,72.4364 295.5,70.5C 299.167,70.5 302.833,70.5 306.5,70.5C 308.52,61.0885 310.853,51.7552 313.5,42.5 Z"/></g>
<g><path style="opacity:0.373" fill="#3f3e46" d="M 443.5,44.5 C 441.067,44.2729 439.401,45.2729 438.5,47.5C 433.938,47.7208 433.272,46.2208 436.5,43C 437.667,42.8333 438.833,42.6667 440,42.5C 441.681,42.6083 442.848,43.2749 443.5,44.5 Z"/></g>
<g><path style="opacity:0.393" fill="#454147" d="M 453.5,37.5 C 456.231,39.0714 458.065,41.4048 459,44.5C 460.225,49.0853 460.725,53.752 460.5,58.5C 458.5,58.5 456.5,58.5 454.5,58.5C 454.167,58.5 453.833,58.5 453.5,58.5C 448.156,58.334 442.823,58.5006 437.5,59C 438.252,59.6708 438.586,60.5041 438.5,61.5C 435.956,60.2921 434.622,58.2921 434.5,55.5C 441.833,55.5 449.167,55.5 456.5,55.5C 457.143,49.1293 456.143,43.1293 453.5,37.5 Z"/></g>
<g><path style="opacity:0.39" fill="#3a4047" d="M 244.5,37.5 C 247.556,39.263 249.389,41.9297 250,45.5C 250.499,49.8206 250.666,54.1539 250.5,58.5C 248.585,58.2155 246.919,58.5489 245.5,59.5C 245.167,59.5 244.833,59.5 244.5,59.5C 242.022,58.8359 239.355,58.5025 236.5,58.5C 233.41,58.5217 230.743,59.1883 228.5,60.5C 226.273,59.5994 225.273,57.9328 225.5,55.5C 232.833,55.5 240.167,55.5 247.5,55.5C 248.222,49.0957 247.222,43.0957 244.5,37.5 Z"/></g>
<g><path style="opacity:0.388" fill="#444047" d="M 356.5,45.5 C 354.61,45.2965 353.11,45.9632 352,47.5C 349.99,52.2679 350.157,56.9346 352.5,61.5C 350.983,61.4894 349.816,60.8228 349,59.5C 347.637,55.2388 347.304,50.9054 348,46.5C 350.532,41.6438 353.365,41.3105 356.5,45.5 Z"/></g>
<g><path style="opacity:0.396" fill="#3b3f45" d="M 400.5,45.5 C 397.297,45.6815 395.464,47.3482 395,50.5C 394.5,57.8258 394.334,65.1591 394.5,72.5C 389.381,73.1031 384.715,72.4364 380.5,70.5C 384.167,70.5 387.833,70.5 391.5,70.5C 391.334,62.8261 391.5,55.1594 392,47.5C 394.146,43.1731 396.979,42.5064 400.5,45.5 Z"/></g>
<g><path style="opacity:0.659" fill="#9d4758" d="M 314.5,49.5 C 314.802,46.9407 314.468,44.6074 313.5,42.5C 314.148,40.9142 314.648,39.2475 315,37.5C 315.812,41.6888 315.645,45.6888 314.5,49.5 Z"/></g>
<g><path style="opacity:0.385" fill="#3d3e47" d="M 366.5,37.5 C 373.667,43.502 376.167,51.1687 374,60.5C 372.5,67.3333 368.333,71.5 361.5,73C 357.833,73.6667 354.167,73.6667 350.5,73C 348.509,72.6264 346.842,71.793 345.5,70.5C 354.256,73.0796 361.756,71.0796 368,64.5C 373.007,55.1069 372.507,46.1069 366.5,37.5 Z"/></g>
<g><path style="opacity:0.953" fill="#1a4860" d="M 4.5,46.5 C 15.1719,46.3335 25.8385,46.5002 36.5,47C 38.0557,47.7202 39.0557,48.8868 39.5,50.5C 39.4894,52.0174 38.8228,53.1841 37.5,54C 33.5841,55.1024 29.5841,55.769 25.5,56C 24.565,58.3806 24.2317,60.8806 24.5,63.5C 23.5655,64.5676 23.2322,65.901 23.5,67.5C 27.5138,67.3345 31.5138,67.5012 35.5,68C 37.7195,70.7128 39.7195,73.5461 41.5,76.5C 24.9441,79.6392 13.1108,73.6392 6,58.5C 4.84355,54.5817 4.34355,50.5817 4.5,46.5 Z"/></g>
<g><path style="opacity:0.371" fill="#3a3e46" d="M 88.5,55.5 C 87.5111,60.9753 87.1778,66.642 87.5,72.5C 82.3814,73.1031 77.7147,72.4364 73.5,70.5C 77.1667,70.5 80.8333,70.5 84.5,70.5C 84.5,64.8333 84.5,59.1667 84.5,53.5C 86.3797,53.2291 87.713,53.8958 88.5,55.5 Z"/></g>
<g><path style="opacity:0.389" fill="#393e46" d="M 134.5,56.5 C 131.811,57.1894 130.144,58.856 129.5,61.5C 126.756,60.9283 125.923,59.2617 127,56.5C 129.64,54.4765 132.473,54.1432 135.5,55.5C 135.376,56.1067 135.043,56.44 134.5,56.5 Z"/></g>
<g><path style="opacity:0.381" fill="#3a3d47" d="M 205.5,51.5 C 212.121,57.9354 212.121,64.4354 205.5,71C 199.051,73.4313 192.385,74.0979 185.5,73C 183.347,72.9005 181.681,72.0672 180.5,70.5C 185.796,71.5095 191.129,71.6761 196.5,71C 200.664,70.177 203.831,68.0103 206,64.5C 206.706,60.1132 206.54,55.7799 205.5,51.5 Z"/></g>
<g><path style="opacity:1" fill="#bb4e64" d="M 48.5,50.5 C 49.6195,54.8483 48.6195,58.8483 45.5,62.5C 44.5222,62.189 43.8555,61.5223 43.5,60.5C 46.0691,57.6033 47.7357,54.2699 48.5,50.5 Z"/></g>
<g><path style="opacity:0.371" fill="#3c3e46" d="M 430.5,69.5 C 438.496,72.4021 446.33,72.0688 454,68.5C 454.497,66.1902 454.663,63.8568 454.5,61.5C 455.496,61.5858 456.329,61.2524 457,60.5C 457.167,62.3333 457.333,64.1667 457.5,66C 457.4,68.3023 456.733,70.3023 455.5,72C 449.569,73.4712 443.569,73.8045 437.5,73C 434.719,72.4782 432.385,71.3115 430.5,69.5 Z"/></g>
<g><path style="opacity:0.387" fill="#393e46" d="M 226.5,72.5 C 232.488,71.8981 238.488,70.7315 244.5,69C 245.435,66.6194 245.768,64.1194 245.5,61.5C 246.496,61.5858 247.329,61.2524 248,60.5C 248.499,64.1516 248.665,67.8183 248.5,71.5C 241.246,73.6373 233.913,73.9706 226.5,72.5 Z"/></g>
<g><path style="opacity:1" fill="#ebeef1" d="M 24.5,63.5 C 28.1817,63.3347 31.8484,63.5014 35.5,64C 39.548,68.3797 43.2147,73.0463 46.5,78C 44.7184,78.1218 43.0518,77.6218 41.5,76.5C 39.7195,73.5461 37.7195,70.7128 35.5,68C 31.5138,67.5012 27.5138,67.3345 23.5,67.5C 23.2322,65.901 23.5655,64.5676 24.5,63.5 Z"/></g>
<g><path style="opacity:0.374" fill="#3a3e47" d="M 138.5,70.5 C 133.16,73.6014 127.493,74.268 121.5,72.5C 127.169,72.4733 132.169,70.4733 136.5,66.5C 137.705,67.5769 138.372,68.9102 138.5,70.5 Z"/></g>
<g><path style="opacity:0.905" fill="#1a485f" d="M 314.5,79.5 C 361.5,79.5 408.5,79.5 455.5,79.5C 455.5,83.1667 455.5,86.8333 455.5,90.5C 408.5,90.5 361.5,90.5 314.5,90.5C 314.5,86.8333 314.5,83.1667 314.5,79.5 Z"/></g>
</svg>
