<?xml version="1.0" encoding="utf-8"?>
<!-- Generator: Adobe Illustrator 19.0.0, SVG Export Plug-In . SVG Version: 6.00 Build 0)  -->
<svg version="1.1" id="layer" xmlns="http://www.w3.org/2000/svg" xmlns:xlink="http://www.w3.org/1999/xlink" x="0px" y="0px"
	 viewBox="-153 -46 652 652" style="enable-background:new -153 -46 652 652;" xml:space="preserve">
<style type="text/css">
	.st0{fill:#FFFFFF;}
	.st1{fill-rule:evenodd;clip-rule:evenodd;fill:#FFFFFF;}
	.st2{fill-rule:evenodd;clip-rule:evenodd;fill:#00A63C;}
	.st3{fill-rule:evenodd;clip-rule:evenodd;fill:#0080CB;}
	.st4{fill-rule:evenodd;clip-rule:evenodd;fill:#6355A1;}
	.st5{fill-rule:evenodd;clip-rule:evenodd;fill:#F9BE00;}
	.st6{fill-rule:evenodd;clip-rule:evenodd;fill:#EC6C00;}
	.st7{fill-rule:evenodd;clip-rule:evenodd;fill:#C7113C;}
	.st8{fill-rule:evenodd;clip-rule:evenodd;fill:#231815;}
</style>
<polyline class="st0" points="134.6,331.6 140.5,328.9 141.2,324.8 126.7,313.2 132,308.4 127.3,288.7 133.3,289.3 137.3,280.5 
	163,143 171.5,98.7 180.1,98.7 174.1,120.5 203.2,283.2 205.8,290 213.7,290 211.1,298.2 211.5,307.3 213.1,312.5 204.5,320.7 
	199.2,324.8 203.8,331.6 "/>
<g>
	<path class="st1" d="M416.7,229.7c-10.7-11.9-25.2-18.9-40.9-19.6c-7.8-0.3-15.5,0.9-22.7,3.6l7.8-5.5
		c27.9-19.8,36.1-59.3,18.2-88.1c-8.6-13.8-21.9-23.2-37.3-26.4c-16-3.3-32.4,0.2-46.2,10c-4.4,3.1-8.3,6.8-11.9,10.9
		c11.6-32.5-2.3-69.7-32-84.1c-7.8-3.7-16.1-5.7-24.4-5.7v10.9c6.8,0.1,13.5,1.6,19.9,4.7c18.9,9,30,29.4,30,50.6
		c0,7.3-1.4,14.9-4.3,22.1c0,0-26.4,65.6-45.7,113.4v105l143.5,0.1c15.6,0.6,30.6-5,42.2-16c11.7-11,18.4-26,19.1-42.1v-4.9
		C431.7,254.2,426.3,240.5,416.7,229.7 M227.3,24.8c-7.2-0.1-14.4,1.3-21.3,4.1c-15.5,6.2-27.8,18.7-34.3,35.3l-1.1,3.2l-1.2-3.2
		c-6.7-16.6-18.8-29.1-34.5-35.3c-14.8-6-31-5.4-45.6,1.6c-29.7,14.4-43.6,51.6-32,84.1c-3.6-4.1-7.5-7.9-11.8-10.9
		c-13.8-9.8-30.2-13.3-46.2-10c-15.6,3.2-28.8,12.6-37.3,26.4c-17.9,28.8-9.7,68.3,18.2,88.1c0,0,2.8,2,7.8,5.6
		c-7.4-2.8-15-4-22.8-3.7c-31.6,1.3-56.4,28.4-56.4,60.7l0.1,2.7c1.4,33.5,29,59.6,61.5,58.1l168.8-0.1c2.4,0,4.4-1.5,5.1-3.8
		c0.7-2.2-0.1-4.8-2-6.1l-12.3-8.8l3-1.2c1.8-1.5,2.5-4.1,1.7-6.2l-4.5-11.9l3.9,1.2c2.3-0.3,4.3-2,4.7-4.4L168.9,127
		c2.9-14,4.3-21.9,5-26.5h4.3c-3.6,4.7-6.3,10.8-6.3,18c0,1.9,0.3,3.9,0.7,6L172,126l0.1,1.1l30.4,163.2c0.4,2.4,2.3,4.1,4.6,4.4
		c1.6,0.1,2.9-0.3,3.9-1.2l-4.5,11.9l-0.4,2c0,1.6,0.6,3.2,1.9,4.3l3.1,1.2l-12.3,8.8c-1.9,1.3-2.7,3.9-2.1,6.1
		c0.7,2.4,2.8,3.8,5.1,3.8h25.4v-105c-7.9,19.5-14.5,35.9-17.6,43.9c-5.3-28.2-26.7-142.9-26.9-144.5l0.4-1.4l-0.2-1.3
		c-0.3-1.6-0.6-3.2-0.6-4.7c0-12.4,12.5-18.5,13.2-18.7c1.9-1,3.1-3,3.1-5l-0.1-1.2c-0.6-2.5-2.8-4.3-5.3-4.2c0,0-9.8,0.2-15.9,0.2
		c0.3-7.7,1.7-15.6,4.1-21.3c5.5-13.7,15.6-24,28.5-29.2c5.6-2.3,11.5-3.4,17.4-3.3V24.8z"/>
</g>
<path class="st2" d="M201.9,326l143.2-102.4h0.1c8.9-5.6,19.2-8.6,30.4-8.1c29.5,1.3,52.5,27.1,51.2,57.7
	c-1.2,30.5-26.3,54.2-56,52.9L201.9,326"/>
<path class="st3" d="M211.5,307.3l66.2-172.5h0.1v-0.1c4.2-10.3,11.3-19.7,20.8-26.5c25.7-18.2,59.7-11.5,76.1,14.7
	c16.4,26.4,8.9,62.5-16.7,80.7L211.5,307.3"/>
<g>
	<path class="st4" d="M177.4,126l30.3,163.3l70.2-174.1c12.3-30.6-0.5-66.3-28.4-79.7c-28.1-13.5-60.7,0.2-72.9,30.6
		c-3.5,8.6-4.9,20.2-4.6,29.1l21.4-0.4c0,0-20.2,9.4-15.4,29.7"/>
</g>
<path class="st5" d="M139,326L-4.2,223.7h-0.1c-8.7-5.6-19.2-8.6-30.3-8.1c-29.6,1.3-52.5,27.1-51.4,57.7
	c1.3,30.5,26.4,54.2,55.9,52.9L139,326"/>
<path class="st6" d="M129.5,307.3L63.4,134.8v-0.1c-4.2-10.3-11.2-19.7-20.8-26.5C16.8,90-17.2,96.7-33.6,123
	c-16.4,26.4-9,62.5,16.7,80.7L129.5,307.3"/>
<g>
	<path class="st7" d="M163.7,126l-30.3,163.3L63.1,115.2c-12.3-30.6,0.5-66.3,28.4-79.7c28.1-13.5,60.7,0.2,73,30.6
		c3.4,8.6,4.9,20.2,4.6,29.1C169.1,95.2,169.5,97.8,163.7,126"/>
</g>
<path class="st8" d="M-28.2,367.2h-1.3c-15,0-23.6,11.1-23.6,21.7c0,10.4,8.4,21,24.9,21c8.3,0,20.1-2.5,22.9-12.6h42.6
	c-1.4,17-28.8,31.6-64,31.6h-2.8c-42.9-0.9-66.7-14.9-66.7-39.2c0-29.2,29.5-41.4,65.3-41.4c55.3,0,64.9,19.3,66.4,29.4H-5.3
	C-12,368-23.3,367.2-28.2,367.2"/>
<polyline class="st8" points="90.7,350.8 133.5,393.4 133.5,350.8 170.9,350.8 170.9,427.3 118.2,427.3 76.7,382.9 76.7,427.3 
	41.3,427.3 41.3,350.8 "/>
<path class="st8" d="M234.5,365.5h2.5c8.5,0,13.3,3.1,13.3,5.8c0,2.8-5,6-14.7,6h-1.1v17.4h6.8c8.1,0,12.5,3.9,12.5,7
	c0,2.8-3.9,5.8-12.5,5.8h-6.8v19.7h12.4c32.9,0,51.2-13,51.2-23.6c0-7.9-5.8-15.7-21-18.5c10.1-2.5,15.8-8.6,15.8-14.5
	c0-10.5-8.8-20-55.6-19.9h-2.8 M218.6,365.5h15.9v-14.7h-54.8v76.5h54.8v-19.7h-17.2v-12.8h17.2v-17.4h-15.9V365.5z"/>
<g>
	<path class="st8" d="M368.8,367.2h-1.4c-15.1,0-23.7,11.1-23.7,21.7c0,10.4,8.5,21,25.1,21c8.2,0,20-2.5,22.8-12.6h42.6
		c-1.4,17-28.8,31.6-64,31.6h-2.7c-42.9-0.9-66.7-14.9-66.7-39.2c0-29.2,29.5-41.4,65.2-41.4c55.3,0,65.1,19.3,66.5,29.4h-40.8
		C386.1,367.5,373.5,367.2,368.8,367.2"/>
</g>
<polyline class="st8" points="30.6,522.9 3.2,522.9 3.2,463.6 -36.3,463.6 -36.3,450.9 70.1,450.9 70.1,463.6 30.6,463.6 "/>
<polyline class="st8" points="175,450.9 203.5,450.9 159,522.9 132.9,522.9 88.8,450.9 118.1,450.9 146.2,505.4 146.6,505.4 "/>
<path class="st8" d="M220.6,464h3.7c24.6,0,31.1-7,31.7-12.3h21v71.2h-25.6v-49h-30.8"/>
<path class="st8" d="M341.9,451.7c26.5,0.1,40.5,8.8,40.5,18.5c0,6.1-4.6,11.3-14.9,14.4c12.4,3.4,19.3,7.9,19.3,17.1
	c0,9.1-10.5,23.1-44.9,23.1v-11.2h0.2c13.3,0,18.4-6.3,18.4-11.2c0-5-4.6-11.1-18.6-11.2v-10.6h0.2c10,0,15.9-3.7,15.9-8.9
	c0-5.5-6.8-8.9-14.9-8.9l-1.1,0.1 M341.9,524.8c-33.3,0-44.8-11.9-44.8-21.6c0-3.6,0-13,19.7-18c-10.2-2.8-15.7-7.3-15.7-13.9
	c0-12.1,17.7-19.5,40.3-19.5h0.5V463c-10.7,0.2-16.4,3.7-16.4,8.8c0,4.2,5.6,8.8,16.4,8.9v10.6h-0.3c-9.3,0-18.3,3.3-18.3,11
	c0,6.8,7,11.3,18.6,11.4V524.8z"/>
</svg>
