<svg xmlns="http://www.w3.org/2000/svg" width="560" height="420" fill="none" viewBox="0 0 560 420">
  <path fill="#131619" d="M0 0h560v420H0z"/>
  <path fill="#F8FBFC" d="M343.077 216.589c-3.855-3.884-5.812-10.571-5.812-20.003s1.898-16.12 5.753-20.062c3.855-3.913 11.126-5.899 21.814-5.899l34.313-.029-13.375-16.879-21.61.029c-17.258.03-29.815 3.505-37.641 10.396-3.563 3.154-6.279 7.155-8.235 11.944 2.161 5.84 3.241 12.674 3.241 20.529s-1.051 14.689-3.212 20.5c1.957 4.76 4.672 8.761 8.264 11.885 7.856 6.863 20.413 10.309 37.671 10.279l19.974-.029 13.229-16.879-32.59.03c-10.658.029-17.93-1.928-21.784-5.812Zm-92.834-62.697-15.185.03h-4.234c-4.001.058-7.505 1.927-10.426 5.694l-16.324 20.763-16.353-20.734c-3.008-3.796-6.483-5.694-10.454-5.694h-12.82c-2.19 0-3.271.905-3.271 2.745 0 .905.409 1.898 1.256 2.92l28.355 35.86-30.019 38.43c-.818 1.081-1.256 2.044-1.256 2.92.234 1.782 1.343 2.687 3.358 2.687h12.703c3.972 0 7.447-1.869 10.367-5.607l18.164-23.216 18.222 23.187c2.949 3.738 6.395 5.607 10.396 5.578l19.273-.03-34.634-43.949 32.882-41.584Z"/>
  <path fill="#F8FBFC" d="M306.224 229.029c3.591-3.153 6.307-7.154 8.235-11.914a41.82 41.82 0 0 0 1.927-5.957c1.051-4.351 1.577-9.199 1.577-14.572 0-5.373-.555-10.25-1.606-14.572a39.142 39.142 0 0 0-1.957-5.928c-1.956-4.76-4.672-8.761-8.264-11.914-7.855-6.892-20.412-10.309-37.671-10.309h-13.637l-13.346 16.908 26.341-.029c10.688 0 17.988 1.927 21.843 5.84 3.855 3.913 5.811 10.572 5.811 20.033 0 9.432-1.927 16.12-5.753 20.004-3.854 3.913-11.126 5.869-21.814 5.869l-24.646.029 13.287 16.879h12.031c17.229-.029 29.786-3.475 37.642-10.367Zm-67.048-11.826-.03-43.336-17.054 21.697 17.084 21.639Zm133.453 34.984 6.483-6.629a.424.424 0 0 0-.321-.73h-2.307a.47.47 0 0 0-.322.146l-8.293 8.644v-8.352a.449.449 0 0 0-.438-.438h-1.781a.449.449 0 0 0-.438.438l.029 15.769c0 .234.204.438.438.438h1.781a.449.449 0 0 0 .438-.438v-4.059l2.891-2.92 5.782 7.242a.417.417 0 0 0 .351.175h2.219a.449.449 0 0 0 .438-.438c0-.088-.029-.204-.088-.263l-6.862-8.585Zm-14.893 2.686a6.553 6.553 0 0 0 1.139-.438 5.3 5.3 0 0 0 1.489-1.051c.438-.438.759-.934.993-1.489a5.482 5.482 0 0 0 .351-1.928c0-.73-.146-1.46-.438-2.102a4.658 4.658 0 0 0-1.256-1.636 5.598 5.598 0 0 0-1.928-1.022 7.219 7.219 0 0 0-2.482-.35h-6.775a.45.45 0 0 0-.438.438l.03 15.798c0 .234.204.438.438.438h1.781a.449.449 0 0 0 .438-.438v-5.694h3.855l4.438 5.957a.417.417 0 0 0 .351.175h2.19a.449.449 0 0 0 .438-.438c0-.087-.029-.204-.088-.262l-4.526-5.958Zm-2.336-1.956h-4.439v-5.549h4.439c1.168 0 2.102.234 2.716.73.613.468.934 1.198.905 1.986 0 .409-.088.818-.263 1.197a2.355 2.355 0 0 1-.73.877c-.35.262-.73.467-1.139.584a6.156 6.156 0 0 1-1.489.175Zm-11.71-5.782a8.23 8.23 0 0 0-2.687-1.869c-2.219-.935-4.701-.905-6.921.029a7.903 7.903 0 0 0-2.686 1.898c-.73.789-1.344 1.723-1.723 2.745a9.019 9.019 0 0 0-.613 3.271c0 1.109.204 2.248.613 3.27a8.147 8.147 0 0 0 4.409 4.614c2.22.935 4.702.906 6.921-.029a7.893 7.893 0 0 0 2.687-1.898 7.944 7.944 0 0 0 1.723-2.745 9.019 9.019 0 0 0 0-6.541 7.944 7.944 0 0 0-1.723-2.745Zm-.818 8.439a5.77 5.77 0 0 1-1.197 1.928 5.014 5.014 0 0 1-1.811 1.284 5.705 5.705 0 0 1-2.307.468 5.708 5.708 0 0 1-2.307-.468 5.768 5.768 0 0 1-3.037-3.241 6.685 6.685 0 0 1 0-4.76 5.768 5.768 0 0 1 1.198-1.927 4.993 4.993 0 0 1 1.81-1.285 5.724 5.724 0 0 1 2.307-.467 5.72 5.72 0 0 1 2.307.467 5.656 5.656 0 0 1 3.037 3.212 6.69 6.69 0 0 1 .438 2.395c0 .846-.146 1.635-.438 2.394Zm-15.097-10.717h-1.898a.439.439 0 0 0-.409.292l-4.088 11.914-3.943-11.943a.439.439 0 0 0-.409-.292h-1.46a.44.44 0 0 0-.409.292l-3.883 11.973-4.089-11.915a.439.439 0 0 0-.409-.292h-1.927a.45.45 0 0 0-.438.438c0 .059 0 .088.029.146l5.665 15.886a.44.44 0 0 0 .409.292h1.49c.175 0 .35-.117.408-.292l3.914-11.593 3.942 11.593a.439.439 0 0 0 .409.292h1.518a.44.44 0 0 0 .409-.292l5.578-15.857a.542.542 0 0 0 .058-.204c-.029-.234-.234-.438-.467-.438Zm-25.114.029h-12.382a.45.45 0 0 0-.438.438v1.636a.45.45 0 0 0 .438.438h4.848v13.695c0 .234.204.438.438.438h1.781a.449.449 0 0 0 .438-.438v-13.695h4.877a.45.45 0 0 0 .438-.438v-1.636c.029-.233-.175-.438-.438-.438.029 0 .029 0 0 0Zm-14.806 14.192h-9.315v-4.643h8.177a.45.45 0 0 0 .438-.438v-1.606a.45.45 0 0 0-.438-.438h-8.177v-4.497h9.199a.45.45 0 0 0 .438-.438v-1.635a.45.45 0 0 0-.438-.438h-11.418a.449.449 0 0 0-.438.438l.029 15.769a.45.45 0 0 0 .438.438h11.535a.45.45 0 0 0 .438-.438v-1.636c0-.233-.205-.438-.468-.438Zm-16.002-14.163h-1.752a.45.45 0 0 0-.439.438v11.389l-9.169-11.651a.416.416 0 0 0-.35-.176h-1.665a.45.45 0 0 0-.438.438l.029 15.77a.45.45 0 0 0 .438.438h1.752a.45.45 0 0 0 .438-.438v-11.681l9.433 11.943a.415.415 0 0 0 .35.176h1.431a.45.45 0 0 0 .438-.438l-.029-15.799a.5.5 0 0 0-.467-.409Z"/>
</svg>
