<svg width="111" height="31" viewBox="0 0 111 31" fill="none" xmlns="http://www.w3.org/2000/svg">
<path d="M29.1902 6.4209V24.4022H25.5212V6.4209H29.1902Z" fill="white"/>
<path d="M44.1315 12.2689V24.4229C44.1315 28.1898 41.1911 30.4999 37.6002 30.4999C34.1343 30.4999 31.5478 28.3407 31.298 25.3022L34.9409 25.3282C35.0918 26.6081 36.2211 27.1857 37.7303 27.1857C39.1355 27.1857 40.4677 26.4313 40.4677 24.4489V22.9193C39.5362 23.5228 38.334 23.8714 37.0018 23.8714C33.6607 23.8714 30.9753 21.1607 30.9753 18.0442C30.9753 14.4281 33.6607 11.9932 37.0018 11.9932C38.334 11.9932 39.5362 12.347 40.4677 12.9453V12.2949L44.1315 12.2689ZM40.4677 19.4281V16.4625C39.7131 15.3803 38.6827 15.0057 37.6523 15.0057C35.8412 15.0057 34.6131 16.2127 34.6131 18.0442C34.6131 19.4021 35.8673 20.8589 37.6523 20.8589C38.6827 20.8849 39.7392 20.5051 40.4677 19.4281Z" fill="white"/>
<path d="M58.7499 18.1954C58.7499 21.9363 55.9865 24.6002 52.2707 24.6002C48.5289 24.6002 45.7655 21.9363 45.7655 18.1954C45.7655 14.4806 48.5289 11.7646 52.2707 11.7646C55.9917 11.7699 58.7499 14.4806 58.7499 18.1954ZM55.2111 18.1954C55.2111 16.4369 54.0557 15.0061 52.2707 15.0061C50.4597 15.0061 49.3043 16.4369 49.3043 18.1954C49.3043 20.0009 50.4597 21.3588 52.2707 21.3588C54.0557 21.338 55.2111 20.0061 55.2111 18.1954Z" fill="white"/>
<path d="M81.5076 12.2953V24.3712L77.9167 24.3973V23.7209C76.9852 24.3244 75.783 24.699 74.4507 24.699C71.1097 24.699 68.4243 21.8634 68.4243 18.3723C68.4243 14.8551 71.1097 12.0195 74.4507 12.0195C75.783 12.0195 76.9852 12.3941 77.9167 12.9977V12.3213L81.5076 12.2953ZM77.8907 20.2037V16.5149C77.1361 15.4326 76.0796 15.1361 75.0284 15.1361C73.1965 15.1361 71.9163 16.6189 71.9163 18.3775C71.9163 20.1101 73.1965 21.5929 75.0284 21.5929C76.0849 21.5877 77.1361 21.2859 77.8907 20.2037Z" fill="white"/>
<path d="M96.2771 17.8468V24.4025H92.7331V18.2734C92.7331 16.2911 91.7547 15.2609 89.9957 15.2609C89.0902 15.2609 88.0597 15.7864 87.2063 16.7906V24.3973H83.5894V12.3213H87.2063V13.2266C88.1846 12.4462 89.34 12.0195 90.6983 12.0195C93.9144 12.0195 96.2771 14.2776 96.2771 17.8468Z" fill="white"/>
<path d="M23.8403 24.3762H20.1245L17.6838 15.3595L12.4588 24.3762H8.29024L16.3515 10.4168L15.0452 5.54683L4.16854 24.3814H0L13.791 0.5H17.46L19.042 6.45213H22.8099L20.2494 10.9214L23.8403 24.3762Z" fill="white"/>
<path d="M110.87 6.4209V24.4022H107.201V23.7258C106.269 24.3293 105.067 24.7039 103.735 24.7039C100.394 24.7039 97.7083 21.8683 97.7083 18.3512C97.7083 14.86 100.394 12.0244 103.735 12.0244C105.067 12.0244 106.269 12.399 107.201 13.0026V6.4209H110.87ZM107.206 20.2034V16.4885C106.451 15.4063 105.374 15.1098 104.318 15.1098C102.46 15.1098 101.179 16.5926 101.179 18.3512C101.179 20.1358 102.46 21.6134 104.318 21.6134C105.369 21.6134 106.425 21.3116 107.206 20.2034Z" fill="white"/>
<path d="M67.7427 15.3591C66.9413 15.4579 65.0782 15.562 63.9749 17.0656V24.3965H60.358V12.3466H63.9749V13.2519C64.8024 12.5495 66.0358 12.1229 67.7427 12.2998V15.3591Z" fill="white"/>
</svg>
