<svg xmlns="http://www.w3.org/2000/svg" width="118" height="30" viewBox="0 0 118 30" fill="none"><path d="M31.5508 6.64551H39.3015V9.29266H34.2377V11.8524H39.3015V14.4518H34.2377V18.1801H39.3015V20.8352H31.5508V6.64551Z" fill="white"></path><path d="M46.5042 12.5045C45.6934 12.5045 45.0177 12.7907 44.4771 13.371C43.9366 13.9434 43.6663 14.6827 43.6663 15.5889C43.6663 16.4951 43.9366 17.2424 44.4851 17.8306C45.0336 18.4189 45.7093 18.7051 46.5122 18.7051C47.315 18.7051 48.0225 18.4189 48.5711 17.8386C49.1196 17.2662 49.3898 16.511 49.3898 15.573C49.3898 14.635 49.1196 13.9195 48.5711 13.3551C48.0225 12.7907 47.3389 12.5045 46.5042 12.5045ZM49.2706 6.28809H51.9019V20.8355H49.2706V19.7305C48.7539 20.2154 48.2451 20.5732 47.7284 20.7878C47.2117 21.0024 46.6473 21.1137 46.0431 21.1137C44.6917 21.1137 43.5152 20.5891 42.5295 19.5397C41.5438 18.4904 41.043 17.1788 41.043 15.6207C41.043 14.0626 41.5199 12.6715 42.4818 11.638C43.4357 10.6046 44.6043 10.0879 45.9716 10.0879C46.5996 10.0879 47.1958 10.2071 47.7443 10.4456C48.3008 10.6841 48.8095 11.0418 49.2786 11.5188V6.31193L49.2706 6.28809Z" fill="white"></path><path d="M54.5587 10.3426H57.2218V15.3984C57.2218 16.3841 57.2933 17.0678 57.4285 17.4493C57.5636 17.8309 57.7782 18.133 58.0803 18.3397C58.3824 18.5543 58.7481 18.6576 59.1853 18.6576C59.6225 18.6576 59.9961 18.5543 60.2982 18.3476C60.6003 18.1409 60.8308 17.8309 60.9818 17.4255C61.0931 17.1234 61.1488 16.4795 61.1488 15.4858V10.3426H63.78V14.7863C63.78 16.6226 63.637 17.8706 63.3428 18.5463C62.9851 19.3731 62.4684 20.0011 61.7768 20.4383C61.0852 20.8755 60.2108 21.0981 59.1535 21.0981C58.0008 21.0981 57.0707 20.8437 56.3632 20.327C55.6557 19.8103 55.1549 19.0949 54.8608 18.1727C54.6541 17.5368 54.5508 16.3762 54.5508 14.6988V10.3267L54.5587 10.3426Z" fill="white"></path><path d="M76.6975 12.4645L74.5035 13.6729C74.0901 13.2436 73.6847 12.9415 73.2793 12.7746C72.8738 12.6076 72.4048 12.5202 71.8643 12.5202C70.8785 12.5202 70.0836 12.8143 69.4715 13.4026C68.8594 13.9908 68.5573 14.746 68.5573 15.6602C68.5573 16.5744 68.8514 17.2819 69.4397 17.8463C70.0279 18.4107 70.7911 18.6969 71.745 18.6969C72.9215 18.6969 73.8437 18.2915 74.4955 17.4886L76.5703 18.9115C75.4415 20.3742 73.8596 21.1056 71.8086 21.1056C69.9644 21.1056 68.5176 20.557 67.4762 19.468C66.4348 18.371 65.9102 17.0991 65.9102 15.6284C65.9102 14.6109 66.1645 13.6808 66.6733 12.8223C67.1821 11.9637 67.8896 11.296 68.8037 10.8031C69.71 10.3182 70.7354 10.0718 71.8563 10.0718C72.8977 10.0718 73.8357 10.2785 74.6624 10.6918C75.4892 11.1052 76.1728 11.6935 76.6975 12.4645Z" fill="white"></path><path d="M79.0783 6.28809H81.6936V11.3996C82.2103 10.9544 82.727 10.6205 83.2438 10.3979C83.7684 10.1753 84.2931 10.0641 84.8257 10.0641C85.8671 10.0641 86.7494 10.4218 87.4569 11.1452C88.069 11.7652 88.3711 12.6874 88.3711 13.8957V20.8276H85.7796V16.2248C85.7796 15.0086 85.724 14.1898 85.6047 13.7526C85.4855 13.3233 85.2947 12.9974 85.0085 12.7907C84.7223 12.584 84.3805 12.4727 83.9751 12.4727C83.4425 12.4727 82.9814 12.6476 82.5999 13.0053C82.2183 13.3631 81.9559 13.84 81.8049 14.4521C81.7254 14.7701 81.6857 15.4855 81.6857 16.6144V20.8276H79.0703V6.28809H79.0783Z" fill="white"></path><path d="M95.9027 12.5046C95.0918 12.5046 94.4161 12.7908 93.8755 13.3711C93.335 13.9435 93.0647 14.6828 93.0647 15.589C93.0647 16.4952 93.335 17.2425 93.8835 17.8307C94.432 18.419 95.1077 18.7052 95.9106 18.7052C96.7135 18.7052 97.421 18.419 97.9695 17.8387C98.5101 17.2663 98.7883 16.5111 98.7883 15.5731C98.7883 14.6351 98.518 13.9196 97.9695 13.3552C97.421 12.7908 96.7373 12.5046 95.9027 12.5046ZM98.669 10.3424H101.3V20.8356H98.669V19.7227C98.1523 20.2076 97.6436 20.5653 97.1269 20.78C96.6101 20.9946 96.0457 21.1059 95.4416 21.1059C94.0902 21.1059 92.9137 20.5812 91.9279 19.5319C90.9422 18.4826 90.4414 17.1709 90.4414 15.6129C90.4414 14.0548 90.9184 12.6636 91.8803 11.6302C92.8342 10.5968 94.0027 10.0801 95.37 10.0801C95.998 10.0801 96.5942 10.1993 97.1428 10.4378C97.6992 10.6763 98.208 11.034 98.677 11.511V10.3504L98.669 10.3424Z" fill="white"></path><path d="M103.678 10.3422H106.309V20.8354H103.678V10.3422ZM104.998 6.01772C105.459 6.01772 105.856 6.18465 106.182 6.51853C106.508 6.8524 106.675 7.25782 106.675 7.73479C106.675 8.21175 106.508 8.60127 106.182 8.93515C105.856 9.26902 105.467 9.42801 105.006 9.42801C104.545 9.42801 104.139 9.26107 103.805 8.91925C103.471 8.58537 103.312 8.172 103.312 7.68709C103.312 7.20218 103.479 6.82855 103.805 6.50263C104.131 6.1767 104.529 6.00977 104.99 6.00977" fill="white"></path><path d="M108.699 10.3421H111.331V11.4152C111.927 10.9144 112.468 10.5646 112.952 10.3659C113.437 10.1672 113.93 10.0718 114.439 10.0718C115.48 10.0718 116.363 10.4374 117.086 11.1608C117.698 11.7809 118 12.6951 118 13.9034V20.8432H115.393V16.2485C115.393 14.9925 115.337 14.1657 115.226 13.7524C115.115 13.339 114.916 13.029 114.638 12.8143C114.359 12.5997 114.018 12.4884 113.604 12.4884C113.072 12.4884 112.611 12.6633 112.229 13.021C111.847 13.3787 111.585 13.8716 111.434 14.4996C111.355 14.8255 111.315 15.541 111.315 16.63V20.8432H108.684V10.35L108.699 10.3421Z" fill="white"></path><path d="M0.0625 7.65541L3.08327 5.94629V14.476L0.102247 12.7907L0.0625 12.7669V7.65541Z" fill="white"></path><path d="M0 13.9434V17.5126L3.13207 19.2615V15.7081L0 13.9434Z" fill="white"></path><path d="M4.0625 16.2485V19.8178L8.43467 22.3298L11.4793 20.581L4.0625 16.2485Z" fill="white"></path><path d="M0 18.5459V22.2026L4.47552 24.7464L7.31345 22.7988L0 18.5459Z" fill="white"></path><path d="M4.04688 5.31797V8.89521L7.21074 7.10659V3.49756L4.04688 5.31797Z" fill="white"></path><path d="M4.04688 10.0323V15.1517L7.21074 16.9006V8.21191L4.04688 10.0323Z" fill="white"></path><path d="M25.7724 7.31348L25.7486 10.7874L18.3477 6.52649L21.2969 4.78557L21.3366 4.76172L25.7724 7.31348Z" fill="white"></path><path d="M20.3405 4.11758L17.2482 2.33691L14.1797 4.18118L17.2561 5.95389L20.3405 4.11758Z" fill="white"></path><path d="M16.3276 6.49502L13.2353 4.71436L8.87109 7.25022V10.7639L16.3276 6.49502Z" fill="white"></path><path d="M16.3615 1.82836L13.1897 0L8.75391 2.60741L9.02419 6.0495L16.3615 1.82836Z" fill="white"></path><path d="M25.8038 11.9317L22.7035 10.1431L22.6797 13.7759L25.8038 15.5805V11.9317Z" fill="white"></path><path d="M21.7195 9.5791L17.2837 7.02734L14.1914 8.89545L21.7274 13.2279L21.7195 9.5791Z" fill="white"></path><path d="M13.243 29.7626L10.2461 28.0137L17.6231 23.729L17.6629 27.1472V27.1949L13.243 29.7626Z" fill="white"></path><path d="M18.7118 26.6546L21.7961 24.8659L21.7325 21.2808L18.6641 23.0614L18.7118 26.6546Z" fill="white"></path><path d="M18.6641 21.9883L21.7484 20.1918L21.7246 15.1518L18.68 13.395L18.6641 21.9883Z" fill="white"></path><path d="M22.6954 24.341L25.8593 22.5047L25.8037 17.3614L22.6875 15.8828L22.6954 24.341Z" fill="white"></path><path d="M9.22246 27.4888L12.3148 25.6923L9.18271 23.856L6.05859 25.6684L9.22246 27.4888Z" fill="white"></path><path d="M13.3006 25.12L17.7205 22.5524L17.6489 18.9434L10.1367 23.3076L13.3006 25.12Z" fill="white"></path></svg>